<svg width="60" height="81" viewBox="0 0 60 81" fill="none" xmlns="http://www.w3.org/2000/svg">
<path d="M42.9051 19.8374L35.002 27.7405L38.0544 30.793L45.9576 22.8898L42.9051 19.8374Z" fill="white"/>
<path d="M26.9293 35.8087L19.0261 43.7119L22.0785 46.7643L29.9817 38.8611L26.9293 35.8087Z" fill="white"/>
<path d="M37.8851 14.8173L29.9819 22.7205L33.0341 25.7727L40.9373 17.8695L37.8851 14.8173Z" fill="white"/>
<path d="M21.9092 30.7908L14.006 38.694L17.0585 41.7464L24.9616 33.8433L21.9092 30.7908Z" fill="white"/>
<path d="M17.0585 19.8348L14.0061 22.8872L21.9095 30.7906L24.9619 27.7381L17.0585 19.8348Z" fill="white"/>
<path d="M22.0787 14.8139L19.0262 17.8663L26.9296 25.7697L29.982 22.7173L22.0787 14.8139Z" fill="white"/>
<path d="M38.0541 30.7908L35.0017 33.8432L42.9048 41.7463L45.9573 38.6939L38.0541 30.7908Z" fill="white"/>
<path d="M33.0341 35.8105L29.9817 38.8629L37.8848 46.766L40.9372 43.7136L33.0341 35.8105Z" fill="white"/>
<path d="M40.9395 49.8187L37.8871 46.7663L29.9838 54.6696L22.0805 46.7663L19.0281 49.8187L29.9838 60.7743L40.9395 49.8187Z" fill="#9AA8BE"/>
<path d="M14.008 22.8873L10.9557 19.8349L0 30.7906L10.9557 41.7462L14.008 38.6938L6.10477 30.7906L14.008 22.8873Z" fill="#9AA8BE"/>
<path d="M49.0117 19.8349L45.9593 22.8873L53.8629 30.7906L45.9593 38.6938L49.0117 41.7462L59.9673 30.7906L49.0117 19.8349Z" fill="#9AA8BE"/>
<path d="M37.8871 14.8151L40.9395 11.7627L29.9838 0.806702L19.0281 11.7627L22.0805 14.8151L29.9838 6.91147L37.8871 14.8151Z" fill="#9AA8BE"/>
<path d="M4.81544 74.4384C5.28824 74.0791 5.60956 73.5404 5.78904 72.8504L5.80801 72.7938L4.85338 72.5574L4.83441 72.6143C4.72088 73.1248 4.50345 73.5124 4.19177 73.7771C3.87045 74.0321 3.48287 74.1646 3.01971 74.1646C2.64178 74.1646 2.29185 74.0701 1.9612 73.881C1.63988 73.6918 1.40347 73.3988 1.2523 73.0116C1.09148 72.624 1.0159 72.1608 1.0159 71.6407C1.0159 71.2342 1.08216 70.8373 1.21435 70.4594C1.34686 70.0811 1.57362 69.7788 1.88561 69.552C2.20693 69.3346 2.61348 69.221 3.08597 69.221C3.50185 69.221 3.84214 69.3156 4.11649 69.5234C4.39053 69.7219 4.59863 70.0432 4.74016 70.4877L4.75914 70.5349L5.70443 70.3175L5.68546 70.2609C5.50598 69.6749 5.19399 69.2114 4.7498 68.8808C4.30562 68.5594 3.75722 68.3986 3.10494 68.3986C2.53757 68.3986 2.00848 68.5215 1.52634 68.7769C1.05354 69.0416 0.675605 69.4195 0.420229 69.911C0.165164 70.4024 0.0326538 70.9885 0.0326538 71.6407C0.0326538 72.2457 0.146187 72.8224 0.372946 73.3422C0.599705 73.8716 0.940004 74.2875 1.3845 74.5615C1.81936 74.8452 2.39574 74.9871 3.0953 74.9871C3.76625 74.9865 4.34294 74.7973 4.81544 74.4384Z" fill="#9AA8BE"/>
<path d="M14.5801 73.4268C14.8448 72.9257 14.977 72.3397 14.977 71.697C14.977 71.0637 14.8448 70.4964 14.5987 69.9956C14.3437 69.4948 13.9748 69.0976 13.4929 68.8139C13.0108 68.5302 12.4624 68.3887 11.8671 68.3887C10.9501 68.3887 10.1939 68.6913 9.61751 69.2867C9.04081 69.8823 8.7478 70.7234 8.7478 71.7726C8.7478 72.3303 8.87067 72.8598 9.12605 73.3606C9.37178 73.8617 9.74038 74.2586 10.2225 74.5516C10.7046 74.8446 11.2527 74.9865 11.8577 74.9865C12.4248 74.9865 12.9542 74.8543 13.4363 74.5896C13.9281 74.3345 14.306 73.9373 14.5801 73.4268ZM11.8577 74.164C11.2527 74.164 10.7423 73.9466 10.336 73.5307C9.93914 73.1055 9.73104 72.5195 9.73104 71.782C9.73104 70.865 9.94847 70.194 10.3644 69.8062C10.7802 69.4186 11.291 69.2201 11.8674 69.2201C12.2833 69.2201 12.6518 69.324 12.9828 69.5225C13.3041 69.7209 13.5595 70.0139 13.7297 70.3828C13.8998 70.7514 13.9847 71.1956 13.9847 71.6967C13.9847 72.4812 13.7863 73.0959 13.3894 73.5211C12.9921 73.9469 12.4721 74.164 11.8577 74.164Z" fill="#9AA8BE"/>
<path d="M24.4962 68.6061H23.5792V74.9867H24.4962V68.6061Z" fill="#9AA8BE"/>
<path d="M21.8022 74.9864L23.2389 70.9312V68.6627L21.7169 73.0013C21.5941 73.3512 21.4995 73.6253 21.4333 73.8427L21.1782 73.0865L19.6562 68.6061H19.5523V70.9219L20.9608 74.9864H21.8022Z" fill="#9AA8BE"/>
<path d="M19.212 68.6061H18.2857V74.9867H19.212V68.6061Z" fill="#9AA8BE"/>
<path d="M32.2567 71.8672C32.616 71.4889 32.7955 71.0258 32.7955 70.4777C32.7955 70.1564 32.7292 69.8634 32.5967 69.5987C32.4549 69.334 32.2847 69.1165 32.0579 68.975C31.8405 68.8238 31.5665 68.7196 31.2545 68.6723C31.0274 68.6251 30.6968 68.6061 30.2712 68.6061H29.0992V69.4568H30.3375C30.7154 69.4568 30.9708 69.4758 31.1126 69.5137C31.3204 69.5704 31.4906 69.6839 31.6134 69.8634C31.7456 70.0428 31.8026 70.2509 31.8026 70.506C31.8026 70.8463 31.6984 71.111 31.4812 71.3001C31.2638 71.4889 30.8859 71.5838 30.3562 71.5838H29.0989V72.4439H30.3465C31.2548 72.4439 31.9071 72.2451 32.2567 71.8672Z" fill="#9AA8BE"/>
<path d="M28.7595 68.6061H27.8049V74.9867H28.7595V68.6061Z" fill="#9AA8BE"/>
<path d="M39.5827 68.6061H38.5998L36.1042 74.9867H37.1154L37.3991 74.2399H37.3898L38.1083 72.3023L38.2595 71.9054L38.7889 70.497H38.7982C38.9118 70.1853 39.0063 69.8637 39.0819 69.5517C39.1765 69.854 39.3087 70.223 39.4695 70.6388L40.1121 72.3027H38.4769L38.1839 73.0871H40.4148L41.1616 74.9871H42.2488L39.5827 68.6061Z" fill="#9AA8BE"/>
<path d="M49.6593 73.3702V74.9864H50.6046V68.6061H49.6783V73.3985L49.6593 73.3702Z" fill="#9AA8BE"/>
<path d="M46.3509 68.6061H45.4625V74.9867H46.3509V68.6061Z" fill="#9AA8BE"/>
<path d="M49.319 72.8691L46.6912 69.022V70.6479L49.319 74.5046V72.8691Z" fill="#9AA8BE"/>
<path d="M58.8662 68.6061L57.6089 70.4777C57.3632 70.8463 57.1458 71.1962 56.9567 71.4986V71.4889L56.4272 72.2924V74.9864H57.3915V72.2924L59.991 68.6058L58.8662 68.6061Z" fill="#9AA8BE"/>
<path d="M56.3613 70.525L55.0853 68.6061H53.9133L56.2197 71.9901L56.7585 71.1583L56.3613 70.525Z" fill="#9AA8BE"/>
<path d="M1.01777 80.1699V78.1689H1.65077V77.8566H0.0323486V78.1689H0.665346V80.1699H1.01777Z" fill="#9AA8BE"/>
<path d="M4.2067 77.8566L3.3656 80.1702H3.737L3.91462 79.6529H4.7921L4.97158 80.1702H5.34111L4.50002 77.8566H4.2067ZM4.01633 79.3415L4.35134 78.3309H4.35755L4.69225 79.3415H4.01633Z" fill="#9AA8BE"/>
<path d="M7.86876 78.3561C7.90578 78.3085 7.95431 78.2687 8.01466 78.237C8.07376 78.2062 8.14467 78.19 8.22742 78.1878C8.33971 78.19 8.43489 78.2224 8.51296 78.2849C8.58793 78.3505 8.63987 78.4298 8.66849 78.5228H9.03989C9.00288 78.3291 8.91392 78.1667 8.77332 78.0357C8.63272 77.9057 8.45075 77.8395 8.22742 77.8373C8.04545 77.8395 7.89366 77.8827 7.77203 77.9673C7.64823 78.051 7.55834 78.1462 7.50235 78.2532C7.46751 78.3092 7.44138 78.3829 7.42458 78.4737C7.40872 78.5645 7.40063 78.7446 7.40063 79.0131C7.40063 79.2775 7.40872 79.4563 7.42458 79.5493C7.43298 79.5991 7.44356 79.6401 7.45631 79.6731C7.47 79.7048 7.48524 79.7381 7.50235 79.773C7.55834 79.88 7.64823 79.9739 7.77203 80.0554C7.89366 80.14 8.04545 80.1842 8.22742 80.1886C8.46319 80.1842 8.65916 80.1046 8.81469 79.949C8.96897 79.7926 9.04828 79.5985 9.05264 79.3667V78.8955H8.23083V79.2271H8.70209V79.3478C8.69991 79.4927 8.6545 79.6097 8.56553 79.6983C8.47657 79.7913 8.36397 79.838 8.22742 79.838C8.14499 79.838 8.07407 79.8206 8.01466 79.7857C7.95431 79.7562 7.90578 79.7173 7.86876 79.6697C7.82335 79.6199 7.79318 79.5549 7.77825 79.4747C7.76146 79.3944 7.75275 79.2405 7.75275 79.0131C7.75275 78.7857 7.76114 78.6308 7.77825 78.5481C7.79318 78.47 7.82335 78.4059 7.86876 78.3561Z" fill="#9AA8BE"/>
<path d="M11.4114 77.8566V80.1699H12.8886V79.8383H11.7622V77.8566H11.4114Z" fill="#9AA8BE"/>
<path d="M15.5191 77.8566H15.1686V80.1702H15.5191V77.8566Z" fill="#9AA8BE"/>
<path d="M18.3069 78.526H18.3134L19.3591 80.1699H19.6907V77.8566H19.3402V79.5002H19.3336L18.2863 77.8566H17.9563V80.1699H18.3069V78.526Z" fill="#9AA8BE"/>
<path d="M23.6062 78.1878V77.8566H22.129V80.1699H23.6062V79.8383H22.4796V79.1593H23.4414V78.8482H22.4796V78.1878H23.6062Z" fill="#9AA8BE"/>
<path d="M28.5913 79.6731C28.6049 79.7048 28.6202 79.7381 28.6373 79.773C28.6933 79.88 28.7832 79.9739 28.907 80.0554C29.0286 80.14 29.1804 80.1842 29.3624 80.1886C29.5981 80.1842 29.7941 80.1046 29.9496 79.949C30.1042 79.7926 30.1835 79.5985 30.1876 79.3667V78.8955H29.3658V79.2271H29.837V79.3478C29.8348 79.4927 29.7894 79.6097 29.7008 79.6983C29.6118 79.7913 29.4992 79.838 29.3627 79.838C29.2802 79.838 29.2093 79.8206 29.1499 79.7857C29.0896 79.7562 29.041 79.7173 29.004 79.6697C28.9586 79.6199 28.9284 79.5549 28.9135 79.4747C28.8967 79.3944 28.888 79.2405 28.888 79.0131C28.888 78.7857 28.8964 78.6308 28.9135 78.5481C28.9284 78.47 28.9586 78.4059 29.004 78.3561C29.041 78.3085 29.0896 78.2687 29.1499 78.237C29.209 78.2062 29.2799 78.19 29.3627 78.1878C29.475 78.19 29.5701 78.2224 29.6485 78.2849C29.7235 78.3505 29.7754 78.4298 29.8041 78.5228H30.1751C30.1381 78.3291 30.0492 78.1667 29.9086 78.0357C29.768 77.9057 29.586 77.8395 29.3627 77.8373C29.1807 77.8395 29.0289 77.8827 28.9073 77.9673C28.7835 78.051 28.6936 78.1462 28.6376 78.2532C28.6028 78.3092 28.5766 78.3829 28.5598 78.4737C28.544 78.5645 28.5359 78.7446 28.5359 79.0131C28.5359 79.2775 28.544 79.4563 28.5598 79.5493C28.5679 79.5991 28.5785 79.6405 28.5913 79.6731Z" fill="#9AA8BE"/>
<path d="M32.523 79.6731C32.5367 79.7048 32.5519 79.7381 32.5687 79.773C32.625 79.88 32.7149 79.9739 32.8387 80.0554C32.9603 80.14 33.1121 80.1842 33.2941 80.1886C33.4782 80.1842 33.6316 80.14 33.7544 80.0554C33.8761 79.9739 33.9638 79.8797 34.0179 79.773C34.0568 79.717 34.0839 79.6423 34.0988 79.5493C34.1125 79.4563 34.1193 79.2775 34.1193 79.0131C34.1193 78.7443 34.1125 78.5645 34.0988 78.4737C34.0839 78.3829 34.0568 78.3092 34.0179 78.2532C33.9641 78.1462 33.8761 78.051 33.7544 77.9673C33.6316 77.8827 33.4782 77.8391 33.2941 77.8373C33.1121 77.8395 32.9603 77.8827 32.8387 77.9673C32.7149 78.051 32.625 78.1462 32.5687 78.2532C32.5339 78.3092 32.508 78.3829 32.4909 78.4737C32.4751 78.5645 32.467 78.7446 32.467 79.0131C32.467 79.2775 32.4748 79.4563 32.4909 79.5493C32.4996 79.5991 32.5102 79.6405 32.523 79.6731ZM32.8449 78.5484C32.8599 78.4703 32.89 78.4062 32.9354 78.3564C32.9725 78.3088 33.021 78.269 33.0813 78.2373C33.1404 78.2065 33.2116 78.1903 33.2941 78.1881C33.3777 78.1903 33.4502 78.2068 33.5115 78.2373C33.5697 78.269 33.6163 78.3088 33.6512 78.3564C33.6966 78.4062 33.728 78.4703 33.7448 78.5484C33.7607 78.6308 33.7684 78.7857 33.7684 79.0134C33.7684 79.2408 33.7607 79.3947 33.7448 79.475C33.728 79.5552 33.6966 79.6206 33.6512 79.67C33.6163 79.7176 33.5697 79.7562 33.5115 79.786C33.4502 79.8209 33.3777 79.8383 33.2941 79.8383C33.2116 79.8383 33.1407 79.8209 33.0813 79.786C33.021 79.7565 32.9725 79.7176 32.9354 79.67C32.89 79.6203 32.8599 79.5552 32.8449 79.475C32.8281 79.3947 32.8194 79.2408 32.8194 79.0134C32.8197 78.7857 32.8281 78.6308 32.8449 78.5484Z" fill="#9AA8BE"/>
<path d="M37.9555 78.1878V77.8566H36.4783V80.1699H37.9555V79.8383H36.8289V79.1593H37.7907V78.8482H36.8289V78.1878H37.9555Z" fill="#9AA8BE"/>
<path d="M40.9208 79.8383C40.667 79.8361 40.448 79.7596 40.2639 79.6084L40.034 79.8719C40.2804 80.0834 40.5749 80.1892 40.9177 80.1892C41.4477 80.1826 41.7184 79.9587 41.7302 79.5164C41.7302 79.3524 41.6789 79.2084 41.5762 79.0846C41.4726 78.9586 41.3121 78.8809 41.0953 78.8513C40.9852 78.8376 40.8984 78.8255 40.835 78.8149C40.7208 78.7938 40.6378 78.7558 40.5858 78.7008C40.5339 78.6466 40.508 78.5866 40.508 78.5197C40.5102 78.4087 40.5488 78.325 40.6238 78.269C40.6956 78.2152 40.7858 78.1881 40.8934 78.1881C41.1018 78.1925 41.2928 78.2516 41.4661 78.3658L41.6614 78.0771C41.4487 77.9238 41.1986 77.8438 40.9109 77.8373C40.6716 77.8395 40.4872 77.902 40.3572 78.0245C40.2228 78.1483 40.1556 78.3113 40.1556 78.5132C40.1556 78.6815 40.2091 78.8243 40.3158 78.9415C40.4194 79.0557 40.5709 79.1294 40.7696 79.1621C40.8807 79.1779 40.9827 79.1922 41.076 79.205C41.2791 79.2398 41.3796 79.3434 41.3774 79.5161C41.3737 79.7266 41.2213 79.8339 40.9208 79.8383Z" fill="#9AA8BE"/>
<path d="M48.3955 80.1699V77.8566H48.0449V78.8482H47.1292V77.8566H46.7786V80.1699H47.1292V79.1593H48.0449V80.1699H48.3955Z" fill="#9AA8BE"/>
<path d="M52.3114 78.1878V77.8566H50.8342V80.1699H52.3114V79.8383H51.1847V79.1593H52.1462V78.8482H51.1847V78.1878H52.3114Z" fill="#9AA8BE"/>
<path d="M56.1952 78.5023C56.1889 78.2886 56.1121 78.1241 55.9653 78.009C55.8434 77.9073 55.6866 77.8566 55.4941 77.8566H54.5911V80.1702H54.9416V79.1817H55.3889L55.8667 80.1702H56.2838L55.7476 79.1434C56.0418 79.0299 56.1911 78.8162 56.1952 78.5023ZM55.7668 78.7561C55.7012 78.8302 55.6029 78.8684 55.4717 78.8706H54.9416V78.1692H55.4906C55.6026 78.1692 55.6885 78.1931 55.7476 78.2404C55.8228 78.2942 55.8614 78.3816 55.8636 78.5023C55.8636 78.6028 55.8312 78.6874 55.7668 78.7561Z" fill="#9AA8BE"/>
<path d="M60 78.1878V77.8566H58.5225V80.1699H60V79.8383H58.8733V79.1593H59.8348V78.8482H58.8733V78.1878H60Z" fill="#9AA8BE"/>
</svg>
