<svg width="60" height="69" viewBox="0 0 60 69" fill="none" xmlns="http://www.w3.org/2000/svg">
<path d="M51.2164 5.7829C47.8263 2.39283 43.3175 0.525208 38.5229 0.525208C33.7277 0.524356 29.2197 2.39254 25.8285 5.78375C23.1788 8.43348 21.4586 11.7665 20.8342 15.3869C20.7705 15.7526 20.7188 16.1205 20.6793 16.4915C20.639 16.8557 20.6103 17.2236 20.5927 17.5929C20.5779 17.8864 20.5708 18.1815 20.5708 18.4776L20.5717 20.9182V22.0165L20.5708 23.1157L20.5699 36.4296L33.8856 36.4288H34.984H36.0822C36.1007 36.1299 36.1101 35.8276 36.1109 35.5234V33.1114L35.0149 33.1106H23.889L23.8899 23.0807V20.8901L23.889 18.4773C23.8899 18.1727 23.8992 17.8707 23.9177 17.5719C23.9401 17.2023 23.9765 16.8375 24.0268 16.4759C24.0771 16.1048 24.1421 15.7392 24.2214 15.3798C24.824 12.5852 26.2291 10.0866 28.1802 8.13547C30.8299 5.48546 34.4882 3.84426 38.5229 3.84369C46.5917 3.84454 53.1559 10.4088 53.1568 18.4776C53.1559 22.5122 51.5147 26.1705 48.865 28.8202C46.9138 30.7714 44.415 32.1765 41.6206 32.7791V33.0825L41.6198 35.5231C41.6198 35.7384 41.6166 35.9538 41.6104 36.166C45.2309 35.5419 48.5658 33.8222 51.2164 31.1717C54.6076 27.7807 56.475 23.2719 56.475 18.4773C56.475 13.6829 54.6076 9.17411 51.2164 5.7829Z" fill="white"/>
<path d="M23.8899 20.89H24.9851H26.0803L36.1101 20.8895L36.111 30.9208V32.016V33.1111V35.5231C36.1101 35.8273 36.1008 36.1296 36.0823 36.4285C36.0598 36.7981 36.0241 37.1634 35.9732 37.5245C35.9235 37.8947 35.8593 38.2595 35.7803 38.6191C35.1763 41.4137 33.7712 43.914 31.8201 45.8652C29.1703 48.5149 25.5118 50.1561 21.4774 50.1569C13.4089 50.1561 6.84437 43.5919 6.84352 35.5231C6.84437 31.4884 8.48557 27.8301 11.1353 25.1804C13.0864 23.2293 15.5859 21.825 18.3805 21.2207V18.4772C18.3805 18.2602 18.3836 18.0449 18.3904 17.8335C14.7702 18.4562 11.435 20.1773 8.78358 22.8284C5.39237 26.2196 3.52417 30.7276 3.52502 35.5228C3.52502 40.3174 5.39265 44.8262 8.78273 48.2163C12.1737 51.6072 16.6825 53.4749 21.4771 53.4749C26.2717 53.4749 30.7806 51.6072 34.1715 48.2163C37.3525 45.035 39.1931 40.8697 39.4076 36.4072C39.4144 36.264 39.4201 36.1208 39.4238 35.9773C39.4255 35.8998 39.4269 35.8225 39.4278 35.7441C39.4286 35.6705 39.4292 35.5969 39.4292 35.5225L39.4286 35.5217V33.0819L39.4292 17.5696L26.1138 17.5704L25.0163 17.571H23.918C23.8996 17.8699 23.8902 18.1719 23.8893 18.4764L23.8899 20.89Z" fill="#9AA8BE"/>
<path d="M3.85029 62.2684C3.56194 62.5351 3.16564 62.701 2.74035 62.701C1.83211 62.701 1.09716 61.9729 1.09716 61.065C1.09716 60.1641 1.83211 59.4289 2.74035 59.4289C3.16564 59.4289 3.56194 59.5945 3.85029 59.8684L4.62132 59.09C4.13126 58.6215 3.4682 58.3331 2.74035 58.3331C1.23409 58.3331 0.00878906 59.5584 0.00878906 61.0647C0.00878906 62.5709 1.23409 63.7962 2.74035 63.7962C3.4682 63.7962 4.13126 63.5079 4.62132 63.0394L3.85029 62.2684Z" fill="white"/>
<path d="M14.5526 61.0647C14.5526 59.5584 13.3273 58.3331 11.8213 58.3331C10.3151 58.3331 9.08978 59.5584 9.08978 61.0647C9.08978 62.5709 10.3151 63.7962 11.8213 63.7962C13.3273 63.7962 14.5526 62.5709 14.5526 61.0647ZM11.8213 62.7079C10.9131 62.7079 10.1779 61.9726 10.1779 61.0647C10.1779 60.1638 10.9131 59.4286 11.8213 59.4286C12.7222 59.4286 13.4571 60.1635 13.4571 61.0647C13.4571 61.9729 12.7222 62.7079 11.8213 62.7079Z" fill="white"/>
<path d="M24.9228 63.7962V58.3334H23.7481L22.1555 62.3261L20.5555 58.3334H19.3807V63.7962H20.4691V61.0647L21.5646 63.7962H22.7393L23.8347 61.0647V63.7962H24.9228Z" fill="white"/>
<path d="M31.2791 58.3334H29.7513V63.7962H30.8396V61.6124H31.2865C32.1874 61.6124 32.9152 60.8775 32.9152 59.9766C32.9152 59.0684 32.1874 58.3334 31.2791 58.3334ZM31.2791 60.517H30.8393V59.4286H31.2791C31.5817 59.4286 31.8269 59.6738 31.8269 59.9763C31.8269 60.2721 31.582 60.517 31.2791 60.517Z" fill="white"/>
<path d="M40.1578 58.3334H38.9973L37.0226 63.7962H38.1828L38.7379 62.2684H40.4172L40.9723 63.7962H42.1326L40.1578 58.3334ZM39.1345 61.1729L39.5743 59.9405L40.0212 61.1729H39.1345Z" fill="white"/>
<path d="M50.2763 61.98L48.0925 58.3334H46.817V63.7962H47.905V60.1565L50.0959 63.7962H51.3644V58.3334H50.2763V61.98Z" fill="white"/>
<path d="M58.5639 63.7962V61.1945L59.9909 58.3334H58.773L58.0233 59.8468L57.2668 58.3334H56.0486L57.4759 61.1945V63.7962H58.5639Z" fill="white"/>
<path d="M0 66.4491H0.633243V68.4511H0.985792V66.4491H1.61931V66.1363H0V66.4491Z" fill="white"/>
<path d="M4.17674 66.1363L3.33527 68.4511H3.70685L3.88469 67.9335H4.76254L4.94209 68.4511H5.31198L4.47021 66.1363H4.17674ZM3.98611 67.6224L4.32106 66.611H4.32732L4.66225 67.6224H3.98611Z" fill="white"/>
<path d="M7.84039 66.6366C7.87732 66.5889 7.9262 66.5491 7.98642 66.5175C8.04552 66.4869 8.11653 66.4704 8.1992 66.4684C8.31141 66.4704 8.4066 66.5028 8.48501 66.5653C8.56001 66.6309 8.612 66.7102 8.6404 66.8034H9.01199C8.97506 66.6096 8.88614 66.4474 8.74552 66.3161C8.60461 66.186 8.42279 66.1198 8.19949 66.1176C8.01739 66.1198 7.86568 66.163 7.74381 66.2477C7.61994 66.3312 7.52988 66.4264 7.47392 66.5335C7.43926 66.5894 7.41312 66.6633 7.39636 66.7542C7.38045 66.8451 7.3725 67.0252 7.3725 67.294C7.3725 67.5585 7.38045 67.7374 7.39636 67.8306C7.4046 67.8803 7.41539 67.9218 7.42818 67.9545C7.44181 67.9863 7.45715 68.0195 7.47419 68.0545C7.53016 68.1616 7.62022 68.2556 7.74409 68.3372C7.86596 68.4218 8.01767 68.4664 8.19977 68.4707C8.43585 68.4664 8.63159 68.3866 8.78727 68.2309C8.94153 68.0744 9.02108 67.8801 9.02534 67.6482V67.1766H8.20289V67.5085H8.6742V67.6292C8.67221 67.7741 8.62676 67.8911 8.53784 67.9801C8.44892 68.0732 8.33613 68.1198 8.19977 68.1198C8.1171 68.1198 8.04607 68.1025 7.98698 68.0676C7.92675 68.038 7.87789 67.9991 7.84096 67.9517C7.79551 67.9019 7.7651 67.8369 7.75033 67.7562C7.73328 67.6758 7.72505 67.5218 7.72505 67.2943C7.72505 67.0667 7.73357 66.9116 7.75033 66.8292C7.76482 66.7502 7.79494 66.686 7.84039 66.6366Z" fill="white"/>
<path d="M11.3853 66.1363V68.4511H12.8634V68.1193H11.7361V66.1363H11.3853Z" fill="white"/>
<path d="M15.4953 66.1363H15.1444V68.4511H15.4953V66.1363Z" fill="white"/>
<path d="M19.318 67.7809H19.3117L18.2637 66.1363H17.9336V68.4511H18.2844V66.8062H18.2907L19.337 68.4511H19.6688V66.1363H19.318V67.7809Z" fill="white"/>
<path d="M23.5868 66.4681V66.1363H22.1086V68.4511H23.5868V68.1193H22.4595V67.4397H23.4214V67.1286H22.4595V66.4681H23.5868Z" fill="white"/>
<path d="M28.8905 66.2474C28.7666 66.3309 28.6768 66.4261 28.6206 66.5332C28.5856 66.5892 28.5598 66.663 28.543 66.7539C28.5271 66.8449 28.5192 67.025 28.5192 67.2937C28.5192 67.5582 28.5271 67.7372 28.543 67.8304C28.5513 67.8801 28.5621 67.9216 28.5748 67.9542C28.5885 67.986 28.6038 68.0193 28.6209 68.0542C28.6771 68.1613 28.7669 68.2554 28.8908 68.3369C29.0126 68.4216 29.1643 68.4662 29.3464 68.4704C29.5825 68.4662 29.7783 68.3863 29.934 68.2307C30.0885 68.0741 30.1678 67.8798 30.172 67.648V67.1764H29.3499V67.5082H29.8212V67.629C29.8192 67.7738 29.7737 67.8909 29.6848 67.9798C29.5959 68.073 29.4831 68.1196 29.3464 68.1196C29.2638 68.1196 29.193 68.1022 29.1337 68.0673C29.0734 68.0378 29.0246 67.9988 28.9876 67.9514C28.9422 67.9017 28.9118 67.8366 28.897 67.7559C28.88 67.6755 28.8717 67.5216 28.8717 67.294C28.8717 67.0664 28.8803 66.9113 28.897 66.8289C28.9118 66.7505 28.9422 66.6866 28.9876 66.6369C29.0246 66.5892 29.0734 66.5494 29.1337 66.5179C29.1928 66.4872 29.2638 66.4707 29.3464 66.4687C29.4587 66.4707 29.5538 66.5031 29.6322 66.5656C29.7072 66.6312 29.7592 66.7105 29.7876 66.8037H30.1592C30.1223 66.6099 30.0334 66.4477 29.8928 66.3164C29.7518 66.1863 29.57 66.1201 29.3467 66.1179C29.1641 66.1196 29.0121 66.1627 28.8905 66.2474Z" fill="white"/>
<path d="M32.5541 66.5332C32.5195 66.5892 32.4933 66.6631 32.4766 66.754C32.4606 66.8449 32.4527 67.025 32.4527 67.2938C32.4527 67.5582 32.4606 67.7372 32.4766 67.8304C32.4848 67.8801 32.4956 67.9216 32.5084 67.9543C32.522 67.9861 32.5374 68.0193 32.5544 68.0542C32.6107 68.1614 32.7004 68.2554 32.8243 68.3369C32.9462 68.4216 33.0979 68.4662 33.28 68.4705C33.4641 68.4662 33.6175 68.4219 33.7405 68.3369C33.8621 68.2554 33.9499 68.1614 34.0038 68.0542C34.0431 67.9983 34.07 67.9236 34.0851 67.8304C34.0987 67.7372 34.1055 67.5582 34.1055 67.2938C34.1055 67.025 34.0987 66.8449 34.0851 66.754C34.07 66.6631 34.0433 66.5892 34.0038 66.5332C33.9499 66.4264 33.8621 66.3312 33.7405 66.2474C33.6178 66.1628 33.4643 66.1193 33.28 66.1173C33.0979 66.1196 32.9462 66.1628 32.8243 66.2474C32.7001 66.3312 32.6104 66.4264 32.5541 66.5332ZM32.8303 66.8287C32.845 66.7503 32.8754 66.6863 32.9209 66.6366C32.9578 66.5889 33.0067 66.5491 33.0669 66.5176C33.126 66.4869 33.197 66.4704 33.2797 66.4685C33.3632 66.4704 33.4357 66.4869 33.4973 66.5176C33.5555 66.5494 33.6021 66.5889 33.6371 66.6366C33.6825 66.6863 33.7138 66.7503 33.7308 66.8287C33.7467 66.9114 33.7544 67.0662 33.7544 67.2938C33.7544 67.5213 33.7467 67.6753 33.7308 67.7557C33.7138 67.8361 33.6825 67.9011 33.6371 67.9511C33.6021 67.9986 33.5555 68.0375 33.4973 68.067C33.4359 68.102 33.3632 68.1193 33.2797 68.1193C33.197 68.1193 33.126 68.102 33.0669 68.067C33.0067 68.0375 32.9578 67.9986 32.9209 67.9511C32.8754 67.9014 32.845 67.8364 32.8303 67.7557C32.8132 67.6753 32.805 67.5213 32.805 67.2938C32.805 67.0662 32.8135 66.9111 32.8303 66.8287Z" fill="white"/>
<path d="M36.4658 68.4511H37.9436V68.1193H36.8163V67.4397H37.7786V67.1286H36.8163V66.4681H37.9436V66.1363H36.4658V68.4511Z" fill="white"/>
<path d="M40.9107 68.1193C40.6567 68.1173 40.4374 68.0406 40.2533 67.8892L40.0232 68.1528C40.2698 68.3645 40.5647 68.4705 40.9076 68.4705C41.438 68.4639 41.7087 68.2395 41.7204 67.7972C41.7204 67.6329 41.6689 67.4892 41.5664 67.3653C41.4627 67.2395 41.3022 67.1616 41.0854 67.1321C40.9752 67.1182 40.8885 67.1062 40.8249 67.0954C40.7107 67.0744 40.6275 67.0364 40.5758 66.9812C40.5241 66.9273 40.4979 66.867 40.4979 66.8003C40.4999 66.6889 40.5388 66.6054 40.6138 66.5494C40.6857 66.4954 40.7758 66.4685 40.8837 66.4685C41.0922 66.4727 41.2834 66.5318 41.457 66.646L41.6525 66.3571C41.4397 66.2037 41.1894 66.1238 40.9016 66.1173C40.6624 66.1196 40.4777 66.1821 40.3476 66.3048C40.2132 66.4287 40.1459 66.5915 40.1459 66.7937C40.1459 66.9619 40.1993 67.1048 40.3061 67.2224C40.4098 67.3366 40.5613 67.4102 40.7604 67.4432C40.8715 67.4591 40.9735 67.4733 41.067 67.4861C41.2701 67.521 41.3706 67.6247 41.3687 67.7972C41.3638 68.0077 41.2113 68.115 40.9107 68.1193Z" fill="white"/>
<path d="M46.7715 68.4511H47.1224V67.4397H48.0386V68.4511H48.3895V66.1363H48.0386V67.1286H47.1224V66.1363H46.7715V68.4511Z" fill="white"/>
<path d="M52.3074 66.4681V66.1363H50.8292V68.4511H52.3074V68.1193H51.1801V67.4397H52.142V67.1286H51.1801V66.4681H52.3074Z" fill="white"/>
<path d="M56.1934 66.7826C56.1872 66.5687 56.1105 66.4042 55.9633 66.2889C55.8415 66.1875 55.6846 66.1366 55.4917 66.1366H54.5883V68.4514H54.9392V67.4622H55.3869L55.8648 68.4514H56.2824L55.7457 67.4241C56.04 67.3108 56.1892 67.0968 56.1934 66.7826ZM54.9392 67.1508V66.4491H55.4886C55.6008 66.4491 55.6863 66.473 55.7457 66.5207C55.8207 66.5747 55.8593 66.6619 55.8616 66.7826C55.8616 66.8832 55.8292 66.9679 55.7647 67.0366C55.6991 67.1108 55.6005 67.1488 55.4696 67.1508H54.9392Z" fill="white"/>
<path d="M58.5222 68.4511H60V68.1193H58.873V67.4397H59.835V67.1286H58.873V66.4681H60V66.1363H58.5222V68.4511Z" fill="white"/>
</svg>
