<svg width="60" height="48" viewBox="0 0 60 48" fill="none" xmlns="http://www.w3.org/2000/svg">
<path d="M7.36549 45.4013V47.1247H7.06239V45.4013H6.60059V45.1163H7.82564V45.4013H7.36549Z" fill="white"/>
<path d="M11.8303 46.6368H10.9705L10.7469 47.1245H10.4204L11.4142 44.9901L12.3727 47.1245H12.041L11.8303 46.6368ZM11.7068 46.3521L11.4089 45.6692L11.0967 46.3521H11.7068Z" fill="white"/>
<path d="M16.2288 46.079H17.0587V46.1453C17.0587 46.296 17.0408 46.4297 17.0053 46.5457C16.9706 46.6533 16.912 46.7539 16.8298 46.8475C16.6433 47.0573 16.4062 47.1621 16.1185 47.1621C15.8377 47.1621 15.597 47.0606 15.3965 46.8576C15.1963 46.6538 15.0962 46.4093 15.0962 46.1241C15.0962 45.8328 15.198 45.5855 15.4018 45.3828C15.6056 45.179 15.8537 45.0773 16.1458 45.0773C16.3025 45.0773 16.4491 45.1094 16.5853 45.1735C16.7154 45.2376 16.8433 45.3419 16.969 45.4857L16.7531 45.6925C16.5883 45.4731 16.3875 45.3636 16.151 45.3636C15.9387 45.3636 15.7604 45.4367 15.6166 45.5833C15.4727 45.7272 15.4007 45.9076 15.4007 46.1244C15.4007 46.348 15.481 46.5323 15.6413 46.6772C15.7912 46.8117 15.9538 46.8788 16.129 46.8788C16.2781 46.8788 16.412 46.8285 16.5308 46.7281C16.6497 46.6266 16.7159 46.5053 16.73 46.3639H16.2291V46.079H16.2288Z" fill="white"/>
<path d="M21.652 45.1163V46.8398H22.2425V47.1247H21.3489V45.1166L21.652 45.1163Z" fill="white"/>
<path d="M25.4965 45.1163V47.1245H25.1934V45.1163H25.4965Z" fill="white"/>
<path d="M28.6428 47.1247V44.9799L30.1074 46.5119V45.1163H30.4105V47.2466L28.9462 45.7184V47.1245L28.6428 47.1247Z" fill="white"/>
<path d="M34.6633 45.4013H33.8582V45.8837H34.6399V46.1686H33.8582V46.8397H34.6633V47.1247H33.5551V45.1166H34.6633V45.4013Z" fill="white"/>
<path d="M39.5401 45.9021H40.4062V45.1166H40.7093V47.1247H40.4062V46.1871H39.5401V47.1247H39.237V45.1166H39.5401V45.9021Z" fill="white"/>
<path d="M44.9624 45.4013H44.1573V45.8837H44.939V46.1686H44.1573V46.8397H44.9624V47.1247H43.8542V45.1166H44.9624V45.4013Z" fill="white"/>
<path d="M48.7041 46.2688L49.3258 47.1245H48.955L48.3815 46.3023H48.3268V47.1245H48.0237V45.1163H48.3788C48.6442 45.1163 48.8356 45.1661 48.9536 45.266C49.0837 45.3771 49.1486 45.5234 49.1486 45.7055C49.1486 45.8477 49.1079 45.9701 49.0265 46.0721C48.9454 46.1747 48.8378 46.2402 48.7041 46.2688ZM48.3271 46.0386H48.4233C48.7105 46.0386 48.8538 45.9288 48.8538 45.7096C48.8538 45.5041 48.714 45.4013 48.4349 45.4013H48.3268V46.0386H48.3271Z" fill="white"/>
<path d="M53.3994 45.4013H52.5944V45.8837H53.3761V46.1686H52.5944V46.8397H53.3994V47.1247H52.2913V45.1166H53.3994V45.4013Z" fill="white"/>
<path d="M2.5637 42.5953C2.22732 42.5953 1.90442 42.5361 1.59582 42.4181C1.28722 42.3001 1.01354 42.1302 0.775079 41.9079C0.539089 41.686 0.350957 41.4151 0.210683 41.0949C0.0701344 40.7747 0 40.4142 0 40.0126C0 39.611 0.0687551 39.2469 0.206553 38.9196C0.344352 38.5925 0.534957 38.3109 0.778923 38.0746C1.02014 37.8408 1.30481 37.6601 1.63349 37.5325C1.96217 37.4049 2.31314 37.3411 2.68665 37.3411C2.96473 37.3411 3.21639 37.3719 3.44166 37.4332C3.66692 37.4945 3.88146 37.5806 4.08554 37.6917L4.24836 37.4511H4.56659L4.60234 39.2425H4.27615C4.23379 39.0678 4.17024 38.8783 4.08525 38.6742C4.00054 38.4701 3.90126 38.2971 3.78739 38.1555C3.66032 37.9951 3.50931 37.8691 3.33438 37.7784C3.15945 37.6876 2.9595 37.6422 2.73452 37.6422C2.47762 37.6422 2.23832 37.6931 2.01719 37.7946C1.79605 37.8961 1.60462 38.0463 1.44317 38.2446C1.28942 38.436 1.16895 38.6794 1.08148 38.9746C0.99402 39.27 0.95029 39.5992 0.95029 39.9631C0.95029 40.2843 0.995944 40.5789 1.08726 40.8471C1.17857 41.1153 1.30921 41.351 1.47864 41.5539C1.64807 41.7547 1.84885 41.9118 2.08044 42.0251C2.31231 42.1384 2.57113 42.1951 2.85745 42.1951C3.07199 42.1951 3.26947 42.1651 3.44963 42.1049C3.62978 42.0446 3.78602 41.9651 3.91859 41.8658C4.05089 41.7619 4.1675 41.6439 4.26817 41.5119C4.36884 41.3798 4.4508 41.2357 4.51461 41.08L4.81304 41.2074C4.5853 41.7055 4.28302 42.0611 3.90675 42.2748C3.53076 42.4886 3.08299 42.5953 2.5637 42.5953Z" fill="white"/>
<path d="M13.128 38.046C13.3772 38.2773 13.5722 38.5565 13.7128 38.8832C13.8533 39.2103 13.9234 39.5719 13.9234 39.9683C13.9234 40.3671 13.8519 40.7293 13.7086 41.0553C13.5653 41.3809 13.3665 41.6584 13.112 41.8873C12.8653 42.1139 12.579 42.2886 12.2528 42.4112C11.9266 42.5339 11.5792 42.5952 11.2106 42.5952C10.8182 42.5952 10.4554 42.5298 10.1226 42.3989C9.78976 42.2679 9.50398 42.0856 9.26524 41.8518C9.0265 41.623 8.83892 41.3449 8.70222 41.0181C8.56552 40.6914 8.49731 40.3413 8.49731 39.9683C8.49731 39.5601 8.56883 39.196 8.71213 38.8761C8.85543 38.5562 9.05292 38.2795 9.30486 38.046C9.55405 37.8147 9.84394 37.6378 10.174 37.5149C10.5043 37.3922 10.8495 37.3309 11.2104 37.3309C11.5842 37.3309 11.937 37.3933 12.2685 37.5184C12.6002 37.6436 12.8868 37.8193 13.128 38.046ZM12.5353 41.6076C12.6838 41.3927 12.7919 41.1496 12.8595 40.8781C12.9272 40.6067 12.961 40.3033 12.961 39.9683C12.961 39.6237 12.9234 39.3073 12.8477 39.0194C12.7721 38.7314 12.6612 38.4861 12.5155 38.2831C12.3697 38.0826 12.1865 37.9261 11.9665 37.8138C11.7464 37.7016 11.4945 37.6455 11.2106 37.6455C10.8924 37.6455 10.6218 37.7104 10.399 37.8403C10.1762 37.9701 9.99466 38.1436 9.85411 38.3606C9.72154 38.5683 9.62282 38.8114 9.55763 39.0901C9.49272 39.3687 9.46026 39.6613 9.46026 39.968C9.46026 40.308 9.49464 40.6147 9.56367 40.8886C9.63271 41.1625 9.74135 41.4054 9.88987 41.618C10.0332 41.8257 10.2133 41.988 10.4309 42.1049C10.6485 42.2217 10.9084 42.28 11.2106 42.28C11.4945 42.28 11.7503 42.2212 11.9783 42.1029C12.2063 41.9852 12.392 41.8199 12.5353 41.6076Z" fill="white"/>
<path d="M24.6848 42.4748H22.1907V42.2234C22.2809 42.2212 22.397 42.2127 22.5387 42.1986C22.6806 42.1846 22.778 42.1645 22.831 42.1384C22.9133 42.0935 22.9735 42.0421 23.012 41.9844C23.0505 41.9266 23.0698 41.854 23.0698 41.7665V38.1128H23.0101L21.0848 42.3931H20.8859L19.0519 38.0242H19.0002V41.0231C19.0002 41.3132 19.0208 41.5341 19.0618 41.6851C19.1028 41.8361 19.1658 41.9447 19.2508 42.0108C19.3091 42.0603 19.4298 42.1076 19.6127 42.1524C19.7956 42.1972 19.915 42.2209 19.9708 42.2231V42.4745H17.6915V42.2231C17.8109 42.2138 17.9363 42.1959 18.0675 42.17C18.1987 42.1442 18.3002 42.1051 18.372 42.0531C18.4647 41.9871 18.5285 41.8856 18.5629 41.7486C18.5972 41.6119 18.6146 41.3828 18.6146 41.0619V38.4915C18.6146 38.3427 18.5948 38.2215 18.5549 38.1268C18.515 38.0325 18.4581 37.9557 18.3838 37.8966C18.3016 37.8328 18.2009 37.7858 18.0815 37.755C17.9622 37.7242 17.8442 37.7066 17.7276 37.7019V37.4505H19.6523L21.2693 41.2214L22.6498 38.0669C22.7001 37.9511 22.743 37.8301 22.779 37.7038C22.8148 37.5776 22.8341 37.4931 22.8368 37.4505H24.6774V37.7019C24.6032 37.7044 24.5083 37.7148 24.393 37.7338C24.2778 37.7528 24.1933 37.7704 24.1405 37.7869C24.0503 37.8152 23.9893 37.8625 23.9576 37.9285C23.9257 37.9945 23.9098 38.0666 23.9098 38.1444V41.7662C23.9098 41.8488 23.9257 41.9186 23.9576 41.9753C23.9895 42.0319 24.0503 42.0815 24.1405 42.1241C24.1884 42.1477 24.2731 42.1695 24.3952 42.1895C24.5171 42.2096 24.6139 42.2209 24.6857 42.2231V42.4748H24.6848Z" fill="white"/>
<path d="M33.0232 38.6902C33.0232 38.9523 32.9657 39.1841 32.8502 39.3857C32.7349 39.5876 32.5751 39.7546 32.3708 39.8866C32.1692 40.0189 31.9478 40.1155 31.7065 40.1768C31.4651 40.2381 31.2093 40.2689 30.9386 40.2689H30.3063V41.7913C30.3063 41.8738 30.3214 41.9464 30.3522 42.0091C30.3827 42.0716 30.4457 42.1194 30.5412 42.1524C30.5888 42.169 30.6729 42.1844 30.7937 42.1984C30.9144 42.2124 31.025 42.2209 31.1259 42.2231V42.4745H28.7033V42.2231C28.7671 42.2185 28.8593 42.2102 28.9797 42.1984C29.1005 42.1866 29.1846 42.1712 29.2322 42.1524C29.3117 42.1219 29.3695 42.0771 29.4052 42.0179C29.441 41.9591 29.4589 41.8835 29.4589 41.7913V38.1659C29.4589 38.0834 29.4457 38.0089 29.419 37.9429C29.3926 37.8769 29.3301 37.8273 29.2319 37.7941C29.131 37.7635 29.0309 37.7415 28.9316 37.7286C28.832 37.7157 28.7468 37.7069 28.675 37.7022V37.4508H31.2527C31.7778 37.4508 32.2041 37.5636 32.5317 37.7888C32.8595 38.0147 33.0232 38.315 33.0232 38.6902ZM31.8141 39.5469C31.9043 39.4336 31.9637 39.3162 31.9931 39.1946C32.0223 39.073 32.0369 38.9638 32.0369 38.867C32.0369 38.7325 32.019 38.5956 31.9833 38.4564C31.9475 38.3172 31.8859 38.1956 31.7984 38.0917C31.7055 37.9808 31.5836 37.8947 31.4323 37.8331C31.281 37.7718 31.0929 37.741 30.8674 37.741H30.3066V39.9609H30.7123C30.9989 39.9609 31.2313 39.9213 31.4103 39.8423C31.5891 39.7637 31.7239 39.6649 31.8141 39.5469Z" fill="white"/>
<path d="M42.1932 42.4747H39.8471V42.2234C40.0539 42.2115 40.2256 42.1879 40.3623 42.1527C40.4987 42.1172 40.5672 42.0737 40.5672 42.0218C40.5672 42.0006 40.5644 41.9744 40.5592 41.9439C40.554 41.9134 40.546 41.8861 40.5355 41.8625L40.068 40.7367H38.0865C38.0123 40.902 37.9517 41.0459 37.9053 41.1686C37.8588 41.2912 37.817 41.4045 37.7798 41.5085C37.7455 41.61 37.7215 41.6925 37.7081 41.7563C37.6949 41.8201 37.6882 41.8721 37.6882 41.912C37.6882 42.0063 37.7719 42.0795 37.9388 42.1315C38.1058 42.1835 38.2942 42.214 38.5038 42.2236V42.475H36.3779V42.2236C36.447 42.219 36.5331 42.2055 36.6365 42.1829C36.7399 42.1604 36.8246 42.1304 36.8912 42.0927C36.9971 42.0289 37.0796 41.9623 37.1379 41.8928C37.1962 41.8232 37.2531 41.7269 37.309 41.6042C37.5925 40.9741 37.9055 40.2659 38.2477 39.48C38.5899 38.694 38.8946 37.9942 39.1625 37.3806H39.4807L41.3623 41.714C41.4022 41.8061 41.4473 41.8804 41.4976 41.937C41.548 41.9937 41.6184 42.0493 41.7083 42.1034C41.7694 42.1364 41.8489 42.1642 41.9471 42.1865C42.0453 42.2091 42.1275 42.2214 42.1935 42.2236L42.1932 42.4747ZM39.9222 40.4215L39.0671 38.472L38.2243 40.4215H39.9222Z" fill="white"/>
<path d="M51.4469 37.7025C51.3726 37.7049 51.2585 37.7236 51.1048 37.7591C50.951 37.7946 50.841 37.8312 50.7747 37.8689C50.6793 37.928 50.6149 38.0413 50.5819 38.2088C50.5486 38.3763 50.5321 38.5889 50.5321 38.8461V42.5246H50.1861L46.7651 38.4143V41.0058C46.7651 41.2962 46.7857 41.5193 46.8267 41.675C46.8677 41.8306 46.9306 41.9418 47.0156 42.0078C47.0767 42.0598 47.2027 42.1082 47.3935 42.153C47.5844 42.1978 47.7104 42.2215 47.7715 42.2237V42.4751H45.4564V42.2237C45.5279 42.219 45.6487 42.1959 45.8184 42.1546C45.9881 42.1134 46.0942 42.0763 46.1366 42.043C46.2293 41.977 46.2931 41.876 46.3275 41.7401C46.3618 41.6045 46.3792 41.3727 46.3792 41.0446V38.57C46.3792 38.4613 46.358 38.353 46.3156 38.2443C46.2733 38.1357 46.2161 38.0521 46.1446 37.9929C46.0491 37.9151 45.9198 37.8482 45.7567 37.793C45.5936 37.7374 45.4616 37.7074 45.361 37.7027V37.4514H46.9736L50.1462 41.2814V38.892C50.1462 38.5994 50.125 38.3747 50.0827 38.2176C50.0403 38.0609 49.9793 37.9563 49.8998 37.9043C49.8255 37.8595 49.7042 37.8158 49.5359 37.7734C49.3676 37.7308 49.2394 37.7074 49.1519 37.7027V37.4514H51.4472V37.7025H51.4469Z" fill="white"/>
<path d="M60 37.7024C59.9549 37.7049 59.8834 37.7209 59.7852 37.7503C59.687 37.78 59.6168 37.8086 59.5742 37.8369C59.4708 37.8936 59.4007 37.9373 59.3633 37.9679C59.3261 37.9987 59.2543 38.0787 59.1485 38.2085C58.9416 38.4682 58.7507 38.7314 58.5758 38.9979C58.4009 39.2647 58.1819 39.6033 57.9195 40.0139C57.8213 40.1649 57.7564 40.2865 57.7245 40.3786C57.6926 40.4708 57.6767 40.6042 57.6767 40.7788V41.7382C57.6767 41.8232 57.6959 41.8969 57.7344 41.9593C57.7729 42.022 57.8384 42.0721 57.9314 42.1098C57.9872 42.1288 58.0865 42.1519 58.2298 42.1788C58.3731 42.206 58.4883 42.2206 58.5758 42.2231V42.4745H55.9345V42.2231C56.0088 42.2184 56.1199 42.2096 56.2687 42.1967C56.4172 42.1838 56.5206 42.1667 56.579 42.1453C56.6744 42.1098 56.7401 42.0616 56.7759 42C56.8116 41.9387 56.8295 41.8631 56.8295 41.7734V40.5519C56.8295 40.5142 56.8037 40.4452 56.752 40.3448C56.7003 40.2444 56.6387 40.133 56.5671 40.0103C56.4082 39.7367 56.2316 39.4402 56.0382 39.1217C55.8446 38.8032 55.6763 38.5303 55.533 38.3037C55.4455 38.1692 55.3679 38.0677 55.3003 37.9992C55.2326 37.9307 55.155 37.8705 55.0676 37.8188C55.0038 37.7833 54.9276 37.7563 54.8387 37.7374C54.7499 37.7184 54.6696 37.7066 54.5981 37.7019V37.4505H57.0069V37.7019C56.7366 37.7066 56.5454 37.7231 56.434 37.7514C56.3226 37.7797 56.2671 37.8196 56.2671 37.8713C56.2671 37.8853 56.275 37.9101 56.291 37.9456C56.3069 37.9808 56.3295 38.0256 56.3584 38.0798C56.3928 38.1411 56.4337 38.2113 56.4813 38.2905C56.5289 38.3694 56.574 38.4456 56.6164 38.5188C56.7407 38.7289 56.8678 38.9382 56.9973 39.147C57.1268 39.3557 57.2963 39.6278 57.5053 39.9628C57.9215 39.3659 58.2386 38.9005 58.4573 38.5666C58.6759 38.2327 58.7854 38.033 58.7854 37.967C58.7854 37.9129 58.7628 37.8694 58.7177 37.8364C58.6726 37.8034 58.6129 37.7775 58.5387 37.7586C58.4617 37.7398 58.3781 37.7275 58.2881 37.7214C58.1979 37.7156 58.1143 37.709 58.0375 37.7019V37.4505H60V37.7024Z" fill="white"/>
<path d="M30.0166 21.6618H11.358L11.3743 21.6802L20.6868 32.1796L30.0007 21.6802L30.0166 21.6618Z" fill="#BAC4DE"/>
<path d="M48.6419 21.6618H29.9833L30.0007 21.6802L39.3132 32.1796L48.626 21.6802L48.6419 21.6618Z" fill="#BAC4DE"/>
<path d="M20.7038 11.1624H2.04553L11.358 21.6618L11.3743 21.6802L11.3902 21.6618L20.6868 11.1808H20.6879L20.7038 11.1624Z" fill="#BAC4DE"/>
<path d="M39.3294 11.1624H20.6708L20.6868 11.1808H20.6879L29.9834 21.6618H29.9845L30.0007 21.6802L30.0166 21.6618L39.3132 11.1808L39.3294 11.1624Z" fill="#BAC4DE"/>
<path d="M57.9547 11.1624H39.2961L39.3132 11.1808L48.6098 21.6618L48.626 21.6802L48.6419 21.6618L57.9547 11.1624Z" fill="#BAC4DE"/>
<path d="M30.0166 0.664429H11.358L20.6708 11.1624L20.6868 11.1808L20.7027 11.1624H20.7038L30.0007 0.682584L30.0166 0.664429Z" fill="#BAC4DE"/>
<path d="M48.6419 0.664429H29.9833L30.0007 0.682584L39.2961 11.1624H39.2972L39.3132 11.1808L39.3294 11.1624L48.6419 0.664429Z" fill="#BAC4DE"/>
<path d="M29.9833 21.6618L20.6879 11.1808H20.6868L11.3902 21.6618H29.9833Z" fill="white"/>
<path d="M48.6097 21.6618L39.3132 11.1808L30.0166 21.6618H48.6097Z" fill="white"/>
<path d="M39.2961 11.1624L30.0006 0.682556L20.7038 11.1624H39.2961Z" fill="white"/>
<path d="M39.3294 11.1624H20.6708L20.6868 11.1808H20.6879L29.9834 21.6618H29.9845L30.0007 21.6802L30.0166 21.6618L39.3132 11.1808L39.3294 11.1624Z" fill="#BAC4DE"/>
</svg>
