<svg width="60" height="77" viewBox="0 0 60 77" fill="none" xmlns="http://www.w3.org/2000/svg">
<path d="M18.2131 19.1755L36.9029 0.484497L29.4752 2.51787C21.7455 4.63232 15.232 8.29767 10.1174 13.4126L4.35544 19.1758C6.26873 21.0882 8.77598 22.0454 11.2841 22.0454C13.7926 22.0451 16.2996 21.0876 18.2131 19.1755ZM11.9797 15.2743C16.2698 10.983 21.6322 7.77712 27.9424 5.72225L16.3514 17.3132C14.998 18.6666 13.1993 19.4123 11.2844 19.4123C10.2866 19.4123 9.31956 19.2087 8.43048 18.8235L11.9797 15.2743Z" fill="white"/>
<path d="M15.6727 47.5966L21.4347 53.3586C23.348 51.4453 24.3043 48.9381 24.3043 46.4299C24.3043 43.9218 23.3483 41.4145 21.4347 39.5012L2.74495 20.8115L4.77709 28.2392C6.89124 35.9682 10.5578 42.482 15.6727 47.5966ZM19.5727 41.3632C21.7099 43.5004 22.2126 46.6621 21.0806 49.2817L17.5338 45.7346C13.2438 41.4446 10.0367 36.0822 7.98301 29.772L19.5727 41.3632Z" fill="#9AA8BE"/>
<path d="M48.7156 33.4604C46.2083 33.4604 43.7002 34.4176 41.7869 36.3312L23.0971 55.021L30.5249 52.9889C38.2542 50.8744 44.7677 47.2078 49.8826 42.0932L55.6446 36.3309C54.6882 35.3749 53.5827 34.6569 52.4027 34.1781C51.2238 33.6996 49.9695 33.4604 48.7156 33.4604ZM48.02 40.2309C43.73 44.5222 38.3675 47.7293 32.0573 49.783L43.6486 38.192C45.002 36.8386 46.802 36.0929 48.7153 36.0929C49.7134 36.0929 50.6802 36.2965 51.5692 36.6817L48.02 40.2309Z" fill="white"/>
<path d="M38.5653 16.0043L57.2551 34.694L55.2232 27.2663C53.1084 19.5369 49.4419 13.0234 44.3273 7.90884L38.5653 2.14685C34.7381 5.97374 34.7381 12.1771 38.5653 16.0043ZM38.9194 6.22373L42.4662 9.77054C46.7565 14.0618 49.9633 19.423 52.017 25.7332L40.427 14.1432C38.2898 12.006 37.7874 8.84307 38.9194 6.22373Z" fill="#9AA8BE"/>
<path d="M0.64369 70.839C0.822735 70.9882 1.02451 71.093 1.2484 71.1525C1.47259 71.2121 1.69248 71.2422 1.90899 71.2422C2.16266 71.2422 2.40006 71.1918 2.61995 71.0911C2.84015 70.9904 3.03239 70.8543 3.1967 70.6823C3.361 70.5107 3.48968 70.3147 3.58304 70.0945C3.6764 69.8747 3.72277 69.6409 3.72277 69.3946V68.902H2.58063V69.2939C2.58063 69.4508 2.55821 69.5814 2.51338 69.6858C2.46854 69.7905 2.41265 69.8725 2.34539 69.9321C2.27076 69.992 2.1903 70.0347 2.10462 70.0608C2.01863 70.0872 1.93847 70.1001 1.86384 70.1001C1.60219 70.1001 1.4216 70.0218 1.32056 69.8648C1.21983 69.7079 1.16946 69.5138 1.16946 69.2822V65.2063C1.16946 64.9376 1.21583 64.7155 1.3095 64.5402C1.40286 64.3648 1.59112 64.277 1.87489 64.277C2.09141 64.277 2.26308 64.3593 2.39023 64.5233C2.51706 64.6876 2.58063 64.8814 2.58063 65.1055V65.4864H3.72277V65.0386C3.72277 64.7625 3.67609 64.5067 3.58304 64.2714C3.48968 64.0362 3.36069 63.8329 3.1967 63.6612C2.86072 63.3105 2.42401 63.1348 1.88657 63.1348C1.61017 63.1348 1.35833 63.1815 1.13077 63.2749C0.90289 63.3682 0.706963 63.4972 0.542966 63.6612C0.378663 63.8255 0.25182 64.0196 0.162144 64.2435C0.0724681 64.4674 0.0276337 64.7103 0.0276337 64.9713V69.3609C0.0276337 69.7266 0.085371 70.027 0.201151 70.2625C0.316932 70.4975 0.464338 70.6897 0.64369 70.839Z" fill="white"/>
<path d="M12.8946 65.0828C12.8946 64.7619 12.8387 64.4781 12.7266 64.2318C12.6145 63.9855 12.469 63.7801 12.2899 63.6161C12.1032 63.4591 11.8962 63.34 11.6686 63.2577C11.4407 63.1757 11.2113 63.1345 10.9798 63.1345C10.7482 63.1345 10.5188 63.1757 10.2909 63.2577C10.0631 63.34 9.85975 63.4591 9.6807 63.6161C9.49398 63.7804 9.34472 63.9855 9.23262 64.2318C9.12053 64.4781 9.06464 64.7619 9.06464 65.0828V69.2933C9.06464 69.6293 9.12053 69.9167 9.23262 70.1557C9.34472 70.3946 9.49398 70.5924 9.6807 70.7493C9.85975 70.9136 10.0634 71.0368 10.2909 71.1191C10.5185 71.2011 10.7482 71.2422 10.9798 71.2422C11.211 71.2422 11.4404 71.2011 11.6686 71.1191C11.8962 71.0368 12.1035 70.9139 12.2899 70.7493C12.469 70.5927 12.6148 70.3949 12.7266 70.1557C12.8387 69.9167 12.8946 69.6296 12.8946 69.2933V65.0828ZM11.7525 69.2936C11.7525 69.57 11.6757 69.7736 11.5227 69.9038C11.3698 70.0347 11.1886 70.0998 10.9798 70.0998C10.7706 70.0998 10.5894 70.0347 10.4365 69.9038C10.2833 69.7733 10.2068 69.57 10.2068 69.2936V65.0831C10.2068 64.807 10.2833 64.6037 10.4365 64.4729C10.5894 64.3424 10.7706 64.277 10.9798 64.277C11.1886 64.277 11.3698 64.3424 11.5227 64.4729C11.6757 64.6037 11.7525 64.807 11.7525 65.0831V69.2936Z" fill="white"/>
<path d="M20.9685 67.4233H20.9461L19.479 63.2018H18.3817V71.175H19.5239V66.326H19.5463L20.666 69.7527H21.2372L22.3683 66.326H22.3907V71.175H23.5329V63.2018H22.4242L20.9685 67.4233Z" fill="white"/>
<path d="M32.2788 63.7616C32.0847 63.5528 31.8682 63.4072 31.6292 63.3249C31.3903 63.2429 31.1142 63.2018 30.8006 63.2018H29.0873V71.175H30.2294V68.0618H30.8117C31.2374 68.0618 31.5807 67.989 31.8421 67.8434C32.1034 67.6979 32.3122 67.4946 32.4692 67.2332C32.6037 67.0167 32.6912 66.7854 32.7324 66.5388C32.7732 66.2925 32.7938 65.99 32.7938 65.6319C32.7938 65.1541 32.7563 64.7751 32.682 64.4953C32.6074 64.2152 32.4729 63.9708 32.2788 63.7616ZM31.702 66.1918C31.691 66.3561 31.6553 66.494 31.5958 66.6061C31.5359 66.7259 31.4425 66.8189 31.3157 66.8862C31.1885 66.9534 31.0095 66.9869 30.7779 66.9869H30.2291V64.277H30.8228C31.0469 64.277 31.2183 64.3105 31.3378 64.3777C31.4572 64.445 31.5469 64.542 31.6065 64.6688C31.6664 64.7957 31.6999 64.9431 31.7075 65.1111C31.7149 65.2791 31.7186 65.4563 31.7186 65.643C31.7189 65.8445 31.7134 66.0275 31.702 66.1918Z" fill="white"/>
<path d="M38.9756 63.2018L37.1949 71.175H38.3371L38.6731 69.4616H40.2298L40.5658 71.175H41.7079L39.9273 63.2018H38.9756ZM38.8745 68.3864L39.4347 65.4974H39.4571L40.017 68.3864H38.8745Z" fill="white"/>
<path d="M50.6887 71.175V63.2018H49.5466V68.0056H49.5242L47.7998 63.2018H46.7021V71.175H47.8446V66.3819H47.867L49.6138 71.175H50.6887Z" fill="white"/>
<path d="M55.6943 63.2018L57.2621 67.8041V71.175H58.4043V67.8041L59.9721 63.2018H58.7627L57.8444 66.3708H57.822L56.9037 63.2018H55.6943Z" fill="white"/>
<path d="M0.633564 76.4919H0.985819V74.4899H1.61938V74.1772H0V74.4899H0.633564V76.4919Z" fill="white"/>
<path d="M4.76234 75.9744L4.942 76.4922H5.31207L4.47058 74.1776H4.17699L3.33551 76.4922H3.70711L3.88493 75.9744H4.76234ZM4.32102 74.652H4.32748L4.66253 75.6633H3.98627L4.32102 74.652Z" fill="white"/>
<path d="M7.84051 74.6775C7.87767 74.6299 7.92619 74.59 7.98669 74.5584C8.04596 74.5277 8.11691 74.5114 8.19952 74.5089C8.31162 74.5111 8.40682 74.5433 8.48544 74.6057C8.56037 74.6714 8.61258 74.7506 8.64083 74.8437H9.01243C8.97558 74.6502 8.88652 74.4874 8.74587 74.3563C8.60521 74.2261 8.42309 74.16 8.19982 74.1579C8.0177 74.16 7.866 74.2033 7.74408 74.2881C7.62031 74.3716 7.53033 74.4668 7.47413 74.574C7.43942 74.6302 7.41331 74.7036 7.39642 74.7945C7.38045 74.8854 7.37247 75.0654 7.37247 75.3344C7.37247 75.5989 7.38045 75.7779 7.39642 75.871C7.40471 75.9207 7.41546 75.9619 7.42836 75.9947C7.44188 76.0263 7.45724 76.0598 7.47413 76.0948C7.53033 76.2017 7.62031 76.296 7.74408 76.3774C7.866 76.4621 8.0177 76.5067 8.19982 76.511C8.43599 76.5067 8.63161 76.4268 8.78732 76.2711C8.9418 76.1145 9.02134 75.9204 9.02534 75.6885V75.2168H8.20289V75.5488H8.67431V75.6695C8.67216 75.8144 8.62671 75.9315 8.53795 76.0202C8.4492 76.1136 8.33618 76.1599 8.19982 76.1599C8.11721 76.1599 8.04627 76.1424 7.987 76.1077C7.92649 76.0779 7.87798 76.0392 7.84082 75.992C7.79536 75.9422 7.76496 75.8771 7.75022 75.7966C7.73332 75.7162 7.72472 75.562 7.72472 75.3347C7.72472 75.1072 7.73302 74.9521 7.75022 74.8695C7.76465 74.7912 7.79506 74.7273 7.84051 74.6775Z" fill="white"/>
<path d="M11.3852 74.1772V76.4919H12.8633V76.1603H11.7359V74.1772H11.3852Z" fill="white"/>
<path d="M15.4955 74.1772H15.1445V76.4919H15.4955V74.1772Z" fill="white"/>
<path d="M17.9337 74.1772V76.4919H18.2844V74.8471H18.2908L19.3369 76.4919H19.6688V74.1772H19.3178V75.8221H19.3117L18.2638 74.1772H17.9337Z" fill="white"/>
<path d="M23.5866 74.5089V74.1772H22.1085V76.4919H23.5866V76.1603H22.4592V75.4806H23.4214V75.1695H22.4592V74.5089H23.5866Z" fill="white"/>
<path d="M28.6205 74.5743C28.5857 74.6305 28.5596 74.7039 28.5428 74.7948C28.5268 74.8857 28.5188 75.0657 28.5188 75.3347C28.5188 75.5992 28.5268 75.7782 28.5428 75.8713C28.551 75.921 28.5618 75.9622 28.5747 75.995C28.5885 76.0267 28.6036 76.0601 28.6205 76.0951C28.6767 76.202 28.7666 76.2963 28.8904 76.3777C29.0123 76.4625 29.164 76.507 29.3462 76.5113C29.582 76.507 29.7779 76.4271 29.9337 76.2714C30.0881 76.1148 30.1677 75.9207 30.1717 75.6888V75.2171H29.3492V75.5491H29.8206V75.6698C29.8185 75.8148 29.773 75.9318 29.6843 76.0205C29.5955 76.1139 29.4828 76.1603 29.3462 76.1603C29.2635 76.1603 29.1926 76.1427 29.1333 76.108C29.0731 76.0783 29.0246 76.0396 28.9871 75.9923C28.9417 75.9425 28.9113 75.8774 28.8965 75.7969C28.8796 75.7165 28.8714 75.5623 28.8714 75.335C28.8714 75.1075 28.88 74.9524 28.8965 74.8698C28.9113 74.7915 28.9417 74.7276 28.9871 74.6778C29.0243 74.6302 29.0728 74.5903 29.1333 74.5587C29.1926 74.528 29.2635 74.5117 29.3462 74.5092C29.4582 74.5114 29.5538 74.5436 29.6321 74.606C29.7073 74.6717 29.7592 74.7509 29.7875 74.844H30.1591C30.1219 74.6505 30.0332 74.4877 29.8922 74.3566C29.7515 74.2264 29.5694 74.1604 29.3462 74.1582C29.164 74.1604 29.0123 74.2037 28.8904 74.2884C28.7663 74.372 28.6767 74.4672 28.6205 74.5743Z" fill="white"/>
<path d="M32.5542 74.5743C32.5192 74.6305 32.4934 74.7039 32.4765 74.7948C32.4605 74.8857 32.4526 75.0657 32.4526 75.3347C32.4526 75.5992 32.4605 75.7782 32.4765 75.8713C32.4848 75.921 32.4956 75.9622 32.5082 75.995C32.522 76.0267 32.5373 76.0601 32.5542 76.0951C32.6104 76.202 32.7004 76.2963 32.8242 76.3777C32.9458 76.4625 33.0978 76.507 33.2799 76.5113C33.4642 76.507 33.6174 76.4625 33.7403 76.3777C33.8619 76.2963 33.9497 76.202 34.0038 76.0951C34.0428 76.0389 34.0698 75.9643 34.0848 75.8713C34.0984 75.7782 34.1051 75.5992 34.1051 75.3347C34.1051 75.066 34.0984 74.8861 34.0848 74.7948C34.0698 74.7039 34.0428 74.6302 34.0038 74.5743C33.9497 74.4675 33.8619 74.372 33.7403 74.2884C33.6174 74.2037 33.4642 74.1604 33.2799 74.1582C33.0978 74.1604 32.9461 74.2037 32.8242 74.2884C32.7001 74.372 32.6101 74.4672 32.5542 74.5743ZM32.8303 74.8695C32.8451 74.7912 32.8751 74.7273 32.9209 74.6775C32.9581 74.6299 33.0066 74.59 33.0671 74.5584C33.1264 74.5277 33.1973 74.5114 33.2799 74.5089C33.3635 74.5111 33.4359 74.5274 33.4974 74.5584C33.5554 74.59 33.6021 74.6296 33.6371 74.6775C33.6825 74.7273 33.7139 74.7912 33.7308 74.8695C33.7467 74.9518 33.7547 75.1069 33.7547 75.3347C33.7547 75.5623 33.7467 75.7162 33.7308 75.7966C33.7139 75.8771 33.6825 75.9422 33.6371 75.992C33.6021 76.0396 33.5554 76.0783 33.4974 76.1077C33.4359 76.1428 33.3635 76.1599 33.2799 76.1599C33.1973 76.1599 33.1264 76.1424 33.0671 76.1077C33.0066 76.078 32.9581 76.0393 32.9209 75.992C32.8755 75.9422 32.8451 75.8771 32.8303 75.7966C32.8134 75.7162 32.8048 75.562 32.8048 75.3347C32.8048 75.1069 32.8134 74.9518 32.8303 74.8695Z" fill="white"/>
<path d="M36.4655 76.4919H37.9437V76.1603H36.8166V75.4806H37.7784V75.1695H36.8166V74.5089H37.9437V74.1772H36.4655V76.4919Z" fill="white"/>
<path d="M40.9107 76.1603C40.6567 76.1581 40.4377 76.0813 40.2532 75.9299L40.0231 76.1934C40.2698 76.405 40.5646 76.511 40.9073 76.511C41.4377 76.5045 41.7085 76.28 41.7202 75.8378C41.7202 75.6738 41.6689 75.5298 41.5664 75.406C41.4626 75.2801 41.3022 75.2021 41.0851 75.1726C40.9752 75.1588 40.8883 75.1465 40.8247 75.136C40.7105 75.1149 40.6272 75.0768 40.5756 75.0218C40.5237 74.9677 40.4979 74.9076 40.4979 74.8409C40.5001 74.7297 40.5388 74.6462 40.6137 74.59C40.6856 74.5359 40.7755 74.5089 40.8837 74.5089C41.0922 74.5132 41.2832 74.5725 41.4567 74.6867L41.652 74.3977C41.4395 74.2445 41.1889 74.1643 40.9012 74.1582C40.6622 74.1604 40.4774 74.2227 40.3471 74.3455C40.2126 74.4693 40.1457 74.6324 40.1457 74.8345C40.1457 75.0028 40.1991 75.1456 40.306 75.2632C40.4098 75.3777 40.5612 75.4511 40.7599 75.484C40.8711 75.5 40.973 75.5141 41.0664 75.527C41.2697 75.562 41.3701 75.6655 41.368 75.8381C41.3637 76.0485 41.211 76.156 40.9107 76.1603Z" fill="white"/>
<path d="M48.3894 76.4919V74.1772H48.0384V75.1695H47.1223V74.1772H46.7716V76.4919H47.1223V75.4806H48.0384V76.4919H48.3894Z" fill="white"/>
<path d="M52.3072 74.5089V74.1772H50.8291V76.4919H52.3072V76.1603H51.1801V75.4806H52.142V75.1695H51.1801V74.5089H52.3072Z" fill="white"/>
<path d="M56.1934 74.8234C56.1869 74.6097 56.1101 74.445 55.9633 74.3296C55.8414 74.2279 55.6845 74.1772 55.4916 74.1772H54.5884V76.4919H54.9394V75.5027H55.3872L55.8651 76.4919H56.2827L55.7459 75.4646C56.0398 75.3516 56.1891 75.1379 56.1934 74.8234ZM55.7646 75.0774C55.6989 75.1514 55.6003 75.1895 55.4692 75.1916H54.9388V74.4899H55.4882C55.6003 74.4899 55.686 74.5138 55.7453 74.5614C55.8205 74.6155 55.8592 74.7027 55.8611 74.8234C55.8614 74.9238 55.8291 75.0086 55.7646 75.0774Z" fill="white"/>
<path d="M60 74.5089V74.1772H58.5219V76.4919H60V76.1603H58.8729V75.4806H59.8348V75.1695H58.8729V74.5089H60Z" fill="white"/>
</svg>
