<svg width="60" height="57" viewBox="0 0 60 57" fill="none" xmlns="http://www.w3.org/2000/svg">
<path d="M17.9997 39.5333L17.997 39.5277L16.5309 36.9891L4.90786 16.8574H1.97571L15.0649 39.5287L15.0619 39.5333H15.0676H17.9934H17.9997Z" fill="#9AA8BE"/>
<path d="M29.7247 39.5333L29.7218 39.5277L28.2559 36.9891L26.7906 34.4513L25.3245 31.9125L23.8594 29.3736L22.3933 26.8348L16.6326 16.8574H13.7014L20.9273 29.3736L22.3933 31.9125L23.8594 34.4513L25.3245 36.9891L26.7906 39.5277L26.7869 39.5333H26.7935H29.7181H29.7247Z" fill="#9AA8BE"/>
<path d="M34.1182 36.9891L32.6531 34.4513L31.1868 31.9125L29.7217 29.3736L28.2559 26.8348L26.7905 24.297L25.3245 21.7581L22.4951 16.8574H19.564L23.8584 24.296L26.7905 29.3736L28.2559 31.9125L29.7217 34.4513L31.1868 36.9891L32.6531 39.5277L32.6492 39.5333H32.6558H35.5814H35.587L35.5843 39.5287L34.1182 36.9891Z" fill="#9AA8BE"/>
<path d="M40.4369 0.6604H37.5048L26.8054 19.1934L28.2715 21.7322L40.4369 0.6604Z" fill="white"/>
<path d="M20.9309 39.5333H23.8557H23.8623L23.8594 39.5277L22.3933 36.9891L20.9282 34.4513L19.4621 31.9125L10.7702 16.8574H7.83905L17.9961 34.4503L19.4621 36.9891L20.9282 39.5277L20.9245 39.5333H20.9309Z" fill="#9AA8BE"/>
<path d="M31.2027 26.8089L46.2993 0.6604H43.3682L29.7366 24.2701L29.7523 24.297L31.2027 26.8089Z" fill="white"/>
<path d="M34.1339 31.8866L52.162 0.6604H49.2308L32.6678 29.3468L32.6837 29.3736L34.1339 31.8866Z" fill="white"/>
<path d="M58.0243 0.6604H55.0931L35.5992 34.4244L35.6149 34.4513L37.0653 36.9632L58.0243 0.6604Z" fill="white"/>
<path d="M3.85049 50.1333C3.56221 50.4 3.16595 50.5657 2.74061 50.5657C1.83253 50.5657 1.09717 49.8377 1.09717 48.9296C1.09717 48.0286 1.83228 47.2935 2.74061 47.2935C3.1657 47.2935 3.56221 47.4593 3.85049 47.7332L4.62177 46.9548C4.13169 46.4865 3.46865 46.198 2.74086 46.198C1.23471 46.198 0.00927734 47.4232 0.00927734 48.9296C0.00927734 50.436 1.23471 51.6612 2.74086 51.6612C3.46865 51.6612 4.13169 51.3729 4.62177 50.9043L3.85049 50.1333Z" fill="#9AA8BE"/>
<path d="M11.8212 46.1982C10.3151 46.1982 9.08966 47.4234 9.08966 48.9298C9.08966 50.4362 10.3151 51.6614 11.8212 51.6614C13.3274 51.6614 14.5526 50.4362 14.5526 48.9298C14.5526 47.4234 13.3274 46.1982 11.8212 46.1982ZM11.8212 50.5728C10.9132 50.5728 10.1778 49.8377 10.1778 48.9296C10.1778 48.0286 10.9129 47.2935 11.8212 47.2935C12.722 47.2935 13.4571 48.0286 13.4571 48.9296C13.4571 49.8377 12.722 50.5728 11.8212 50.5728Z" fill="#9AA8BE"/>
<path d="M22.1553 50.1909L20.5554 46.1982H19.3807V51.6612H20.4689V48.9296L21.5643 51.6612H22.7392L23.8347 48.9296V51.6612H24.9228V46.1982H23.7482L22.1553 50.1909Z" fill="#9AA8BE"/>
<path d="M31.2792 46.1982H29.7513V51.6612H30.8397V49.4773H31.2865C32.1875 49.4773 32.9153 48.7422 32.9153 47.8414C32.915 46.9334 32.1873 46.1982 31.2792 46.1982ZM31.2792 48.3818H30.8394V47.2935H31.2792C31.5816 47.2935 31.8269 47.5385 31.8269 47.8412C31.8269 48.1368 31.5816 48.3818 31.2792 48.3818Z" fill="#9AA8BE"/>
<path d="M38.9976 46.1982L37.0228 51.6612H38.1833L38.7381 50.1333H40.4175L40.9723 51.6612H42.1327L40.158 46.1982H38.9976ZM39.1344 49.0378L39.5741 47.8055L40.021 49.0378H39.1344Z" fill="#9AA8BE"/>
<path d="M51.3643 46.1982H50.2761V49.845L48.0923 46.1982H46.8168V51.6612H47.9049V48.0215L50.0961 51.6612H51.3643V46.1982Z" fill="#9AA8BE"/>
<path d="M58.564 51.6612V49.0593L59.9907 46.1982H58.7728L58.0233 47.7117L57.2667 46.1982H56.0486L57.4756 49.0593V51.6612H58.564Z" fill="#9AA8BE"/>
<path d="M0 54.3141H0.633481V56.3159H0.985774V54.3141H1.61926V54.0013H0V54.3141Z" fill="#9AA8BE"/>
<path d="M4.17665 54.0013L3.33527 56.3161H3.70662L3.88447 55.7985H4.76226L4.94158 56.3161H5.31171L4.47007 54.0013H4.17665ZM3.9861 55.4872L4.32104 54.4758H4.32739L4.66234 55.4872H3.9861Z" fill="#9AA8BE"/>
<path d="M8.20258 55.3729H8.67385V55.4936C8.67165 55.6387 8.62621 55.7555 8.53753 55.8444C8.4486 55.9375 8.33574 55.9842 8.19917 55.9842C8.11659 55.9842 8.04574 55.9668 7.98638 55.9319C7.92604 55.9023 7.87741 55.8637 7.84028 55.8161C7.79484 55.7662 7.76454 55.7012 7.74989 55.6209C7.73303 55.5405 7.72448 55.3866 7.72448 55.1589C7.72448 54.9312 7.73303 54.7763 7.74989 54.6937C7.76479 54.6155 7.79484 54.5515 7.84028 54.5017C7.87741 54.4541 7.92604 54.4145 7.98638 54.3827C8.04574 54.3522 8.11659 54.3356 8.19917 54.3334C8.31155 54.3356 8.40682 54.3678 8.485 54.4304C8.56025 54.4958 8.61204 54.5755 8.64062 54.6686H9.01221C8.97532 54.4748 8.8864 54.3124 8.74568 54.1812C8.60496 54.051 8.42295 53.9847 8.19941 53.9825C8.0174 53.9847 7.86544 54.028 7.74378 54.1128C7.61992 54.1963 7.53001 54.2916 7.47382 54.3986C7.43888 54.4545 7.41299 54.5283 7.39613 54.6192C7.3805 54.7103 7.37219 54.8901 7.37219 55.1589C7.37219 55.4235 7.38025 55.6023 7.39613 55.6954C7.40468 55.7452 7.41519 55.7865 7.42789 55.8192C7.44157 55.851 7.45696 55.8845 7.47382 55.9194C7.53001 56.0264 7.61992 56.1205 7.74378 56.2021C7.86544 56.2868 8.0174 56.3311 8.19941 56.3355C8.43541 56.3311 8.63134 56.2512 8.78696 56.0958C8.94136 55.9392 9.02076 55.745 9.02516 55.5131V55.0416H8.20283V55.3729H8.20258Z" fill="#9AA8BE"/>
<path d="M11.736 54.0013H11.3851V56.3159H12.8632V55.9841H11.736V54.0013Z" fill="#9AA8BE"/>
<path d="M15.4954 54.0013H15.1445V56.3161H15.4954V54.0013Z" fill="#9AA8BE"/>
<path d="M19.3179 55.646H19.3116L18.2638 54.0013H17.9335V56.3159H18.2845V54.6712H18.2906L19.337 56.3159H19.6688V54.0013H19.3179V55.646Z" fill="#9AA8BE"/>
<path d="M22.1085 56.3159H23.5865V55.9841H22.4593V55.3047H23.4214V54.9935H22.4593V54.3329H23.5865V54.0013H22.1085V56.3159Z" fill="#9AA8BE"/>
<path d="M29.3492 55.3729H29.8207V55.4936C29.8185 55.6387 29.7731 55.7555 29.6841 55.8444C29.5952 55.9375 29.4826 55.9842 29.346 55.9842C29.2634 55.9842 29.1926 55.9668 29.1332 55.9319C29.0729 55.9023 29.0243 55.8637 28.9871 55.8161C28.9417 55.7662 28.9114 55.7012 28.8965 55.6209C28.8796 55.5405 28.8711 55.3866 28.8711 55.1589C28.8711 54.9312 28.8796 54.7763 28.8965 54.6937C28.9114 54.6155 28.9415 54.5515 28.9871 54.5017C29.0243 54.4541 29.0729 54.4145 29.1332 54.3827C29.1926 54.3522 29.2634 54.3356 29.346 54.3334C29.4582 54.3356 29.5534 54.3678 29.6319 54.4304C29.7069 54.4958 29.7589 54.5755 29.7875 54.6686H30.1591C30.1222 54.4748 30.033 54.3124 29.8923 54.1812C29.7516 54.051 29.5696 53.9847 29.3463 53.9825C29.1643 53.9847 29.0123 54.028 28.8906 54.1128C28.7668 54.1963 28.6769 54.2916 28.6207 54.3986C28.5857 54.4545 28.5598 54.5283 28.543 54.6192C28.5271 54.7103 28.519 54.8901 28.519 55.1589C28.519 55.4235 28.5271 55.6023 28.543 55.6954C28.5513 55.7452 28.562 55.7865 28.5747 55.8192C28.5884 55.851 28.6038 55.8845 28.6207 55.9194C28.6769 56.0264 28.7668 56.1205 28.8906 56.2021C29.0125 56.2868 29.1643 56.3311 29.3463 56.3355C29.5823 56.3311 29.7782 56.2512 29.9336 56.0958C30.088 55.9392 30.1674 55.745 30.1718 55.5131V55.0416H29.3494V55.3729H29.3492Z" fill="#9AA8BE"/>
<path d="M34.0034 54.3981C33.9494 54.2911 33.8617 54.1958 33.7401 54.1123C33.6172 54.0277 33.4638 53.9843 33.2796 53.9821C33.0975 53.9843 32.9456 54.0275 32.8239 54.1123C32.7001 54.1958 32.6102 54.2911 32.5542 54.3981C32.5193 54.4541 32.4931 54.5278 32.4765 54.6187C32.4606 54.7098 32.4526 54.8897 32.4526 55.1584C32.4526 55.423 32.4606 55.6018 32.4765 55.6949C32.4848 55.7447 32.4956 55.786 32.5083 55.8187C32.522 55.8505 32.5374 55.884 32.5542 55.9189C32.6102 56.0259 32.7003 56.12 32.8239 56.2016C32.9458 56.2863 33.0975 56.3306 33.2796 56.335C33.4638 56.3306 33.6172 56.2863 33.7401 56.2016C33.8617 56.1202 33.9494 56.0259 34.0034 55.9189C34.0428 55.8627 34.0696 55.7882 34.0845 55.6949C34.0982 55.6018 34.1051 55.423 34.1051 55.1584C34.1051 54.8894 34.0982 54.7096 34.0845 54.6187C34.0696 54.5278 34.0428 54.4543 34.0034 54.3981ZM33.7305 55.6206C33.7137 55.701 33.6824 55.7662 33.6367 55.8158C33.6018 55.8634 33.5554 55.902 33.497 55.9316C33.4357 55.9665 33.3631 55.9839 33.2796 55.9839C33.197 55.9839 33.1261 55.9665 33.0668 55.9316C33.0062 55.902 32.9578 55.8634 32.9207 55.8158C32.8752 55.766 32.8449 55.701 32.83 55.6206C32.8132 55.5402 32.8046 55.3863 32.8046 55.1586C32.8046 54.9309 32.8132 54.776 32.83 54.6935C32.8449 54.6153 32.8752 54.5513 32.9207 54.5014C32.9578 54.4538 33.0064 54.4142 33.0668 54.3825C33.1259 54.3519 33.197 54.3353 33.2796 54.3331C33.3631 54.3353 33.4357 54.3517 33.497 54.3825C33.5551 54.4142 33.6018 54.4538 33.6367 54.5014C33.6822 54.5513 33.7134 54.6153 33.7305 54.6935C33.7464 54.776 33.7542 54.9312 33.7542 55.1586C33.7542 55.3863 33.7464 55.5402 33.7305 55.6206Z" fill="#9AA8BE"/>
<path d="M36.4658 56.3159H37.9436V55.9841H36.8163V55.3047H37.7784V54.9935H36.8163V54.3329H37.9436V54.0013H36.4658V56.3159Z" fill="#9AA8BE"/>
<path d="M41.0854 54.9966C40.9754 54.983 40.8885 54.9708 40.8252 54.9602C40.7109 54.9392 40.6276 54.9009 40.5758 54.8459C40.524 54.7919 40.4981 54.7316 40.4981 54.6649C40.5003 54.5537 40.5389 54.4702 40.6139 54.414C40.6859 54.36 40.7758 54.3329 40.8838 54.3329C41.0925 54.3373 41.2833 54.3964 41.457 54.5107L41.6524 54.2217C41.4396 54.0683 41.1892 53.9882 40.9014 53.9821C40.6622 53.9843 40.4778 54.0465 40.3473 54.1694C40.213 54.2933 40.1455 54.4562 40.1455 54.6585C40.1455 54.8266 40.199 54.9695 40.3058 55.0871C40.4096 55.2014 40.5608 55.2749 40.76 55.3076C40.8711 55.3235 40.9732 55.3379 41.0663 55.3504C41.2696 55.3853 41.37 55.4892 41.3678 55.6617C41.3636 55.8722 41.2112 55.9797 40.9105 55.9839C40.6564 55.9819 40.4372 55.9052 40.2533 55.7537L40.0231 56.0174C40.2696 56.2292 40.5645 56.335 40.9075 56.335C41.4377 56.3286 41.7086 56.1043 41.7203 55.6619C41.7203 55.498 41.669 55.3538 41.5664 55.23C41.4628 55.1041 41.3023 55.0262 41.0854 54.9966Z" fill="#9AA8BE"/>
<path d="M48.0386 54.9935H47.1224V54.0013H46.7716V56.3159H47.1224V55.3047H48.0386V56.3159H48.3894V54.0013H48.0386V54.9935Z" fill="#9AA8BE"/>
<path d="M50.829 56.3159H52.307V55.9841H51.18V55.3047H52.1421V54.9935H51.18V54.3329H52.307V54.0013H50.829V56.3159Z" fill="#9AA8BE"/>
<path d="M56.1932 54.6473C56.1869 54.4336 56.1102 54.2689 55.9631 54.1536C55.8414 54.052 55.6841 54.0012 55.4916 54.0012H54.5881V56.3159H54.939V55.327H55.3865L55.8644 56.3159H56.2819L55.7454 55.2886C56.0398 55.1755 56.1891 54.9618 56.1932 54.6473ZM54.9392 55.0157V54.3141H55.4886C55.6008 54.3141 55.6865 54.3378 55.7459 54.3855C55.8209 54.4394 55.8595 54.5269 55.8617 54.6473C55.8617 54.748 55.8294 54.8325 55.7649 54.9014C55.6992 54.9754 55.6008 55.0136 55.4696 55.0157H54.9392Z" fill="#9AA8BE"/>
<path d="M58.5219 56.3159H60V55.9841H58.8727V55.3047H59.8348V54.9935H58.8727V54.3329H60V54.0013H58.5219V56.3159Z" fill="#9AA8BE"/>
</svg>
