<svg width="60" height="72" viewBox="0 0 60 72" fill="none" xmlns="http://www.w3.org/2000/svg">
<path d="M34.5599 39.2033L30.0056 41.834H30.0046L24.1623 45.207L19.6045 42.5764V7.63636L5.85745 15.5742L0.0165405 18.9472V12.2011L5.85745 8.82812L19.6045 0.89171L20.2094 0.543579L25.4483 3.56813V39.2023L30.0046 41.833L34.5599 39.2033Z" fill="#BAC4DE"/>
<path d="M59.9916 12.2011V18.9472L54.1482 15.5742L40.4011 7.63636V42.5753L35.8458 45.206L30.2374 48.4447L30.0046 48.5801L20.2094 54.2343L0.0165405 42.5764V18.9472L5.85745 15.5742V39.2023L20.2094 47.4893L24.1623 45.207L30.0046 41.834H30.0056L34.5599 39.2033V3.56813L39.7988 0.543579L59.9916 12.2011Z" fill="white"/>
<path d="M59.9916 18.9472V42.5764L39.7988 54.2343L30.0046 48.5801L30.2374 48.4447L35.8459 45.206L40.4012 42.5753L35.847 45.207L39.7988 47.4892L54.1482 39.2023V15.5742L59.9916 18.9472Z" fill="#BAC4DE"/>
<path d="M13.4731 69.6995H14.059V71.3671H14.4775V69.6995H15.0637V69.2811H13.4731V69.6995Z" fill="white"/>
<path d="M17.3863 69.2811L16.6323 71.3671H17.0754L17.2871 70.7837H17.9285L18.1406 71.3671H18.5836L17.8297 69.2811H17.3863ZM17.4383 70.3652L17.606 69.8947L17.7766 70.3652H17.4383Z" fill="white"/>
<path d="M21.9022 70.2829H21.4841H21.2777V70.7013H21.7784C21.6627 70.8526 21.4813 70.9517 21.2777 70.9517C20.9309 70.9517 20.6503 70.6711 20.6503 70.3244C20.6503 69.9805 20.9309 69.6998 21.2777 69.6998C21.4401 69.6998 21.5913 69.7631 21.7014 69.8676L21.9957 69.5704C21.8087 69.3914 21.5555 69.2814 21.2777 69.2814C20.7024 69.2814 20.2347 69.7491 20.2347 70.3244C20.2347 70.8997 20.7027 71.3674 21.2777 71.3674C21.8526 71.3674 22.3207 70.8997 22.3207 70.3244C22.3207 70.3107 22.3179 70.2969 22.3179 70.2832L21.9022 70.2829Z" fill="white"/>
<path d="M25.3751 69.2811H24.9595V71.3671H26.1347V70.9489H25.3751V69.2811Z" fill="white"/>
<path d="M28.394 69.2811H27.9783V71.3671H28.394V69.2811Z" fill="white"/>
<path d="M31.5585 70.6736L30.7248 69.2811H30.2377V71.3671H30.653V69.9773L31.4896 71.3671H31.9742V69.2811H31.5585V70.6736Z" fill="white"/>
<path d="M33.8175 71.3671H35.0754V70.9489H34.2332V70.5333H35.0754V70.1148H34.2332V69.6995H35.0754V69.2811H33.8175V71.3671Z" fill="white"/>
<path d="M38.9696 70.1148H38.21V69.2811H37.7944V71.3671H38.21V70.5333H38.9696V71.3671H39.3849V69.2811H38.9696V70.1148Z" fill="white"/>
<path d="M41.2286 71.3671H42.4861V70.9489H41.6442V70.5333H42.4861V70.1148H41.6442V69.6995H42.4861V69.2811H41.2286V71.3671Z" fill="white"/>
<path d="M45.5792 69.9084C45.5792 69.5617 45.3014 69.2811 44.9543 69.2811H44.3298V71.3671H44.7454V70.5333H44.8281L45.205 71.3671H45.6618L45.2518 70.4587C45.4473 70.3543 45.5792 70.1451 45.5792 69.9084ZM44.9547 70.1148H44.7454V69.6992H44.9547C45.0703 69.6992 45.1639 69.7927 45.1639 69.9084C45.1635 70.0213 45.07 70.1148 44.9547 70.1148Z" fill="white"/>
<path d="M47.464 71.3671H48.7218V70.9489H47.8796V70.5333H48.7218V70.1148H47.8796V69.6995H48.7218V69.2811H47.464V71.3671Z" fill="white"/>
<path d="M3.19228 61.7448C3.68916 61.7448 4.15264 61.9386 4.48952 62.2586L5.3908 61.3489C4.81796 60.8014 4.04292 60.4645 3.19228 60.4645C1.43192 60.4645 0 61.8964 0 63.6568C0 65.4171 1.43192 66.849 3.19228 66.849C4.04292 66.849 4.81796 66.5122 5.3908 65.9646L4.48952 65.0634C4.15264 65.3749 3.68916 65.5687 3.19228 65.5687C2.131 65.5687 1.27192 64.718 1.27192 63.6568C1.27192 62.6043 2.131 61.7448 3.19228 61.7448Z" fill="#BAC4DE"/>
<path d="M12.1214 60.4645C10.361 60.4645 8.92908 61.8964 8.92908 63.6568C8.92908 65.4171 10.361 66.849 12.1214 66.849C13.8817 66.849 15.314 65.4171 15.314 63.6568C15.3136 61.8964 13.8817 60.4645 12.1214 60.4645ZM12.1214 65.5775C11.0601 65.5775 10.201 64.7184 10.201 63.6571C10.201 62.6043 11.0601 61.7448 12.1214 61.7448C13.1742 61.7448 14.0336 62.6039 14.0336 63.6571C14.0333 64.7184 13.1742 65.5775 12.1214 65.5775Z" fill="#BAC4DE"/>
<path d="M25.7503 66.8494V60.4645H24.3771L22.5155 65.1312L20.6458 60.4645H19.2726V66.8494H20.5445V63.6571L21.8249 66.8494H23.1981L24.4784 63.6571V66.8494H25.7503Z" fill="#BAC4DE"/>
<path d="M31.4948 60.4645H29.7092V66.8494H30.9811V64.2971H31.5033C32.5561 64.2971 33.4068 63.438 33.4068 62.3852C33.4071 61.3239 32.5565 60.4645 31.4948 60.4645ZM31.4948 63.0168H30.9811V61.7448H31.4948C31.8486 61.7448 32.1349 62.0311 32.1349 62.3848C32.1352 62.7305 31.8486 63.0168 31.4948 63.0168Z" fill="#BAC4DE"/>
<path d="M38.8317 60.4645L36.5238 66.8494H37.8801L38.5286 65.0637H40.4911L41.1396 66.8494H42.4959L40.188 60.4645H38.8317ZM38.9917 63.7833L39.5054 62.343L40.0276 63.7833H38.9917Z" fill="#BAC4DE"/>
<path d="M50.3296 64.7268L47.7773 60.4645H46.2867V66.8494H47.5586V62.5958L50.1193 66.8494H51.6015V60.4645H50.3296V64.7268Z" fill="#BAC4DE"/>
<path d="M58.5765 60.4645L57.7002 62.2336L56.8158 60.4645H55.3923L57.0602 63.8087V66.8494H58.3321V63.8087L60 60.4645H58.5765Z" fill="#BAC4DE"/>
</svg>
