<svg width="60" height="62" viewBox="0 0 60 62" fill="none" xmlns="http://www.w3.org/2000/svg">
<path d="M5.77932 54.7139L4.82394 54.4775L4.80506 54.5342C4.69152 55.045 4.47403 55.4329 4.16186 55.6974C3.84041 55.953 3.45243 56.0854 2.98897 56.0854C2.6106 56.0854 2.26068 55.9907 1.92964 55.8017C1.60787 55.6124 1.3715 55.3194 1.22022 54.9314C1.05933 54.5437 0.983852 54.08 0.983852 53.5599C0.983852 53.153 1.05006 52.7558 1.18248 52.3774C1.31489 51.9991 1.54198 51.6965 1.85415 51.4694C2.1756 51.2519 2.58244 51.1383 3.05549 51.1383C3.47161 51.1383 3.81225 51.233 4.08636 51.4409C4.36079 51.6395 4.5687 51.9613 4.7107 52.4059L4.72958 52.4532L5.67537 52.2357L5.6565 52.1788C5.47674 51.5922 5.16457 51.1287 4.71998 50.7977C4.2754 50.4763 3.72686 50.3154 3.07405 50.3154C2.50633 50.3154 1.97667 50.4382 1.49434 50.6938C1.02129 50.9586 0.642909 51.337 0.387666 51.8289C0.132423 52.3208 0 52.9074 0 53.5599C0 54.1654 0.113548 54.7424 0.340637 55.2625C0.567726 55.7921 0.908048 56.2082 1.35263 56.4827C1.78763 56.7664 2.36463 56.9084 3.06477 56.9084C3.73645 56.9084 4.31345 56.719 4.78619 56.3598C5.25924 56.0003 5.5807 55.4614 5.76045 54.7708L5.77932 54.7139Z" fill="#BAC4DE"/>
<path d="M13.4697 50.7315C12.9874 50.4478 12.4385 50.3058 11.8426 50.3058C10.925 50.3058 10.1686 50.6084 9.59155 51.2046C9.01455 51.8004 8.72125 52.6423 8.72125 53.6923C8.72125 54.2505 8.84408 54.7801 9.09963 55.2813C9.34559 55.7825 9.71437 56.1798 10.1967 56.4731C10.679 56.7664 11.2276 56.9081 11.833 56.9081C12.4008 56.9081 12.9304 56.7757 13.4128 56.5108C13.9047 56.2553 14.2831 55.858 14.5572 55.3472C14.822 54.846 14.9544 54.2594 14.9544 53.6162C14.9544 52.9823 14.822 52.4149 14.5761 51.9137C14.3211 51.4128 13.952 51.0155 13.4697 50.7315ZM13.3657 55.4422C12.9685 55.8679 12.4481 56.0854 11.8334 56.0854C11.2279 56.0854 10.7174 55.8679 10.3106 55.4518C9.91331 55.0261 9.7051 54.4398 9.7051 53.7019C9.7051 52.7843 9.92259 52.1129 10.3387 51.7249C10.7548 51.337 11.2656 51.1384 11.8426 51.1384C12.2588 51.1384 12.6279 51.2423 12.9589 51.4409C13.2803 51.6395 13.5359 51.9329 13.7061 52.3016C13.8762 52.6704 13.9613 53.1153 13.9613 53.6165C13.9616 54.4018 13.763 55.0168 13.3657 55.4422Z" fill="#BAC4DE"/>
<path d="M24.4804 50.5236H23.5628V56.9084H24.4804V50.5236Z" fill="#BAC4DE"/>
<path d="M21.4156 55.764L21.1604 55.0072L19.6373 50.5236H19.5333V52.8412L20.9426 56.9087H21.7844L23.2221 52.8508V50.5805L21.6993 54.9221C21.5765 55.2721 21.4818 55.5465 21.4156 55.764Z" fill="#BAC4DE"/>
<path d="M19.1927 50.5236H18.2658V56.9084H19.1927V50.5236Z" fill="#BAC4DE"/>
<path d="M28.7465 50.5236H27.7911V56.9084H28.7465V50.5236Z" fill="#BAC4DE"/>
<path d="M32.0477 50.8924C31.8302 50.7411 31.5557 50.6369 31.2436 50.5898C31.0165 50.5425 30.6854 50.5236 30.2597 50.5236H29.0869V51.3751H30.3259C30.7043 51.3751 30.9596 51.3939 31.1016 51.4317C31.3095 51.4883 31.4799 51.6018 31.6028 51.7816C31.7352 51.9613 31.7918 52.1695 31.7918 52.4248C31.7918 52.7654 31.6879 53.0303 31.4704 53.2193C31.2529 53.4083 30.8745 53.503 30.3448 53.503H29.0869V54.3637H30.3355C31.2436 54.3637 31.8964 54.1651 32.2463 53.7867C32.6058 53.4083 32.7855 52.9449 32.7855 52.3963C32.7855 52.0746 32.7193 51.7816 32.5869 51.5167C32.4449 51.2519 32.2748 51.0344 32.0477 50.8924Z" fill="#BAC4DE"/>
<path d="M39.5772 50.5236H38.5934L36.096 56.9084H37.108L37.3917 56.1612H37.3824L38.1014 54.222L38.2527 53.8248L38.7824 52.4155H38.792C38.9055 52.1033 39.0002 51.7819 39.0757 51.4697C39.1704 51.7723 39.3028 52.1414 39.4637 52.5575L40.1069 54.2223H38.4705L38.1772 55.0075H40.4098L41.1569 56.9087H42.2447L39.5772 50.5236Z" fill="#BAC4DE"/>
<path d="M46.6906 52.5668L49.3203 56.4261V54.7898L46.6906 50.9398V52.5668Z" fill="#BAC4DE"/>
<path d="M49.6798 55.3194L49.6606 55.2909V56.9084H50.6067V50.5236H49.6798V55.3194Z" fill="#BAC4DE"/>
<path d="M46.3502 50.5236H45.4611V56.9084H46.3502V50.5236Z" fill="#BAC4DE"/>
<path d="M58.8741 50.5236L57.6162 52.3966C57.3702 52.7654 57.1527 53.1157 56.9634 53.4182V53.4086L56.4337 54.2127V56.9087H57.3987V54.2127L60 50.5236H58.8741Z" fill="#BAC4DE"/>
<path d="M56.3672 52.4437L55.0903 50.5236H53.9175L56.2255 53.9098L56.7648 53.0776L56.3672 52.4437Z" fill="#BAC4DE"/>
<path d="M0.00219727 59.8176H0.713166V61.7998H1.19333V59.8176H1.89842V59.4132H0.00219727V59.8176Z" fill="white"/>
<path d="M5.96467 59.4132L5.03528 61.7998H5.54669L5.74531 61.2584H6.7007L6.90519 61.7998H7.43178L6.47639 59.4132H5.96467ZM5.88856 60.8543L6.21558 59.971L6.54229 60.8543H5.88856Z" fill="white"/>
<path d="M11.8609 60.9202H12.4135V61.2271C12.2396 61.3601 12.0506 61.4266 11.8461 61.4266C11.6249 61.4266 11.4553 61.3508 11.3378 61.1989C11.2199 61.047 11.1611 60.8403 11.1611 60.5783C11.1611 60.0468 11.391 59.781 11.851 59.781C12.1372 59.781 12.3176 59.9088 12.3925 60.164L12.8677 60.0731C12.7653 59.6056 12.4265 59.372 11.851 59.372C11.5209 59.372 11.2406 59.4744 11.0107 59.6789C10.7809 59.8834 10.6658 60.19 10.6658 60.5984C10.6658 60.9635 10.7691 61.262 10.9752 61.4935C11.1815 61.7252 11.4838 61.8409 11.8823 61.8409C12.2941 61.8409 12.6328 61.7181 12.8989 61.473V60.5223H11.8609V60.9202Z" fill="white"/>
<path d="M19.7805 59.4132H19.2954V61.7998H20.9757V61.3958H19.7805V59.4132Z" fill="white"/>
<path d="M24.8687 59.4132H24.3832V61.7998H24.8687V59.4132Z" fill="white"/>
<path d="M29.8458 61.0078L28.8641 59.4132H28.3948V61.7998H28.844V60.2418L29.8096 61.7998H30.2898V59.4132H29.8458V61.0078Z" fill="white"/>
<path d="M34.3473 60.747H35.5425V60.3442H34.3473V59.8176H35.6346V59.4132H33.8622V61.7998H35.6811V61.3958H34.3473V60.747Z" fill="white"/>
<path d="M43.3603 60.3541H42.4161V59.4132H41.9356V61.7998H42.4161V60.7569H43.3603V61.7998H43.8405V59.4132H43.3603V60.3541Z" fill="white"/>
<path d="M47.8882 60.747H49.0834V60.3442H47.8882V59.8176H49.1755V59.4132H47.4031V61.7998H49.2216V61.3958H47.8882V60.747Z" fill="white"/>
<path d="M54.0242 60.747C54.4434 60.6854 54.6529 60.4642 54.6529 60.0833C54.6529 59.8238 54.5755 59.6474 54.4208 59.5537C54.2661 59.4602 54.032 59.4132 53.7185 59.4132H52.7019V61.7998H53.1821V60.803H53.2783C53.4147 60.803 53.5143 60.8209 53.5778 60.8565C53.6409 60.8924 53.6978 60.9496 53.7486 61.0285L54.2699 61.7995H54.8475L54.5557 61.3342C54.3618 61.0285 54.1848 60.8327 54.0242 60.747ZM53.5388 60.42H53.1821V59.8173H53.5601C53.8188 59.8173 53.9831 59.8368 54.053 59.8761C54.1229 59.915 54.1579 59.9942 54.1579 60.113C54.1579 60.2396 54.1152 60.3222 54.0301 60.3612C53.9444 60.4005 53.7807 60.42 53.5388 60.42Z" fill="white"/>
<path d="M58.6545 60.747H59.8493V60.3442H58.6545V59.8176H59.9419V59.4132H58.1691V61.7998H59.988V61.3958H58.6545V60.747Z" fill="white"/>
<path d="M26.9685 6.49283V24.3793V36.5644H15.0287C15.619 33.6547 17.049 30.9813 19.1973 28.8369C21.3448 26.6914 24.0203 25.2657 26.9289 24.6806C26.9134 24.5804 26.8979 24.4802 26.8834 24.3796H15.0834L15.0838 24.3793H15.0834C15.0265 24.4341 14.9705 24.4901 14.9136 24.5461C12.9586 26.4989 11.4209 28.7738 10.3461 31.3077C9.23203 33.9325 8.66555 36.7188 8.66029 39.5915L8.65503 42.6275H32.9396H32.9789V24.3793H32.9841L32.9832 24.1693L32.9792 21.3486V6.44426H32.9916H33.0309V6.43497H44.9707C44.3816 9.34474 42.9516 12.0181 40.8029 14.1625C39.2622 15.7011 37.4511 16.869 35.4766 17.623V18.3166H45.2203C47.1122 16.3947 48.6032 14.1674 49.6541 11.6917C50.7673 9.06692 51.3338 6.2806 51.3387 3.40827L51.344 0.372253H26.9685V6.49283Z" fill="white"/>
<path d="M26.9685 24.6726V24.379H26.8837H15.0841C15.0841 24.3793 15.0838 24.3793 15.0838 24.3793L26.8837 24.379C26.8983 24.4793 26.9138 24.5798 26.9292 24.6804C26.9425 24.6776 26.9549 24.6757 26.9685 24.6726Z" fill="white"/>
<path d="M26.8834 24.3793H26.9682V6.49285C26.905 6.42757 26.8419 6.36353 26.7776 6.29918C24.8226 4.34634 22.5446 2.81272 20.0098 1.74224C17.3828 0.632169 14.5943 0.0700073 11.722 0.0700073H8.66028V24.3793H15.0831H15.0834H26.8834ZM14.723 18.3166V6.4254C17.647 7.00642 20.3371 8.43424 22.4951 10.5891C24.6425 12.7347 26.0734 15.4081 26.6628 18.3166H14.723Z" fill="#BAC4DE"/>
<path d="M35.4769 24.3793H44.9741V36.2705C42.0488 35.6907 39.36 34.2617 37.202 32.1068C36.5622 31.4679 35.9855 30.7814 35.4769 30.0556V38.5804C36.7806 39.5268 38.1886 40.321 39.687 40.9537C42.314 42.0638 45.1025 42.6269 47.9748 42.6269H51.0356V18.3166H45.2203H35.4766V24.3793H35.4769Z" fill="#BAC4DE"/>
<path d="M32.9916 42.6272H33.0312V24.3793H33.0361L33.0352 24.1689L33.0312 21.3486V6.44427H32.9916V42.6272Z" fill="white"/>
</svg>
