<svg width="60" height="88" viewBox="0 0 60 88" fill="none" xmlns="http://www.w3.org/2000/svg">
<path d="M31.4497 65.8236H13.6286L9.39026 62.4044V48.0266L31.4497 65.8236Z" fill="white"/>
<path d="M50.6093 35.9885V50.3663L31.4496 65.8235H13.6285L50.6093 35.9885Z" fill="#BAC4DE"/>
<path d="M31.4497 47.8293H13.6286L9.39026 44.4102V30.0323L31.4497 47.8293Z" fill="white"/>
<path d="M50.6093 17.9942V32.372L31.4496 47.8293H13.6285L50.6093 17.9942Z" fill="#BAC4DE"/>
<path d="M31.4497 29.8351H13.6286L9.39026 26.416V12.0381L31.4497 29.8351Z" fill="white"/>
<path d="M50.6093 0V14.3778L31.4496 29.8351H13.6285L50.6093 0Z" fill="#BAC4DE"/>
<path d="M4.98861 77.0988C4.74096 76.8322 4.50137 76.6546 4.26981 76.5657C4.0379 76.4769 3.80495 76.4324 3.57024 76.4324C3.22116 76.4324 2.9053 76.4943 2.62303 76.6182C2.3404 76.742 2.09767 76.9134 1.89479 77.1324C1.69157 77.3513 1.5345 77.607 1.42362 77.8987C1.31239 78.1908 1.25678 78.5049 1.25678 78.8414C1.25678 79.2031 1.31239 79.5364 1.42362 79.8411C1.5345 80.1457 1.69157 80.4091 1.89479 80.6312C2.09802 80.8533 2.34075 81.0279 2.62303 81.1549C2.9053 81.2818 3.22116 81.3451 3.57024 81.3451C3.84307 81.3451 4.10821 81.2801 4.3653 81.15C4.62239 81.0198 4.86199 80.8121 5.0841 80.5263L6.07434 81.2308C5.76968 81.6498 5.39821 81.9545 4.96028 82.1447C4.52235 82.335 4.05575 82.4305 3.56081 82.4305C3.04033 82.4305 2.56252 82.3462 2.12809 82.1783C1.69331 82.0101 1.31868 81.7722 1.00458 81.4641C0.690474 81.1563 0.444232 80.7865 0.266543 80.3549C0.0888532 79.9233 0 79.4441 0 78.9173C0 78.3779 0.0888532 77.8875 0.266543 77.4465C0.444232 77.0054 0.690125 76.6294 1.00458 76.3184C1.31868 76.0075 1.69331 75.7678 2.12809 75.5996C2.56287 75.4314 3.04033 75.3474 3.56081 75.3474C4.01797 75.3474 4.44155 75.4282 4.83191 75.5902C5.22227 75.7521 5.58569 76.0267 5.92218 76.4135L4.98861 77.0988Z" fill="#BAC4DE"/>
<path d="M8.42557 78.9173C8.42557 78.3779 8.51442 77.8875 8.69211 77.4464C8.8698 77.0054 9.11569 76.6294 9.43015 76.3184C9.74425 76.0074 10.1189 75.7678 10.5536 75.5996C10.9884 75.4313 11.4659 75.3474 11.9864 75.3474C12.5131 75.3411 12.9955 75.4188 13.4338 75.5807C13.8717 75.7427 14.2491 75.9791 14.5667 76.2901C14.884 76.601 15.1316 76.9756 15.3093 77.4136C15.487 77.8515 15.5758 78.3405 15.5758 78.8799C15.5758 79.407 15.487 79.8858 15.3093 80.3175C15.1316 80.7491 14.884 81.1206 14.5667 81.4315C14.2491 81.7425 13.8717 81.9852 13.4338 82.1598C12.9958 82.3343 12.5131 82.4245 11.9864 82.4312C11.4659 82.4312 10.9881 82.3469 10.5536 82.179C10.1189 82.0108 9.74425 81.7729 9.43015 81.4647C9.11604 81.1569 8.8698 80.7872 8.69211 80.3556C8.51442 79.9233 8.42557 79.4441 8.42557 78.9173ZM9.68234 78.841C9.68234 79.2027 9.73796 79.536 9.84919 79.8407C9.96007 80.1454 10.1171 80.4088 10.3203 80.6309C10.5236 80.853 10.7663 81.0275 11.0486 81.1545C11.3309 81.2815 11.6467 81.3448 11.9958 81.3448C12.3449 81.3448 12.6621 81.2815 12.9479 81.1545C13.2333 81.0275 13.4778 80.853 13.6811 80.6309C13.8843 80.4088 14.0413 80.1454 14.1522 79.8407C14.2631 79.536 14.3187 79.2027 14.3187 78.841C14.3187 78.5045 14.2631 78.1904 14.1522 77.8984C14.041 77.6066 13.8839 77.351 13.6811 77.132C13.4778 76.913 13.2337 76.7416 12.9479 76.6178C12.6625 76.494 12.3449 76.4321 11.9958 76.4321C11.6467 76.4321 11.3309 76.494 11.0486 76.6178C10.766 76.7416 10.5232 76.913 10.3203 77.132C10.1171 77.351 9.96007 77.6066 9.84919 77.8984C9.73796 78.1904 9.68234 78.5049 9.68234 78.841Z" fill="#BAC4DE"/>
<path d="M18.6508 75.5184H20.4787L22.278 80.2409L24.0965 75.5184H25.9056V82.2591H24.7632V76.6608H24.7443L22.6974 82.2591H21.8597L19.8128 76.6608H19.7939V82.2591H18.6515V75.5184H18.6508Z" fill="#BAC4DE"/>
<path d="M29.3425 75.5184H31.6084C31.932 75.5184 32.2447 75.5503 32.5462 75.6136C32.8477 75.6772 33.1129 75.7836 33.3413 75.9326C33.5697 76.0819 33.7519 76.2817 33.8887 76.5325C34.0251 76.7833 34.0933 77.096 34.0933 77.4702C34.0933 77.8956 34.0202 78.2384 33.8743 78.4986C33.7281 78.7588 33.5315 78.9603 33.2839 79.103C33.0362 79.2457 32.7491 79.3426 32.422 79.3933C32.095 79.444 31.754 79.4696 31.3986 79.4696H30.5416V82.2591H29.3419V75.5184H29.3425ZM31.266 78.4412C31.4374 78.4412 31.6151 78.4349 31.7991 78.422C31.9831 78.4094 32.1527 78.3713 32.3084 78.3076C32.464 78.2443 32.5906 78.1492 32.6893 78.0222C32.7876 77.8952 32.8369 77.7175 32.8369 77.4891C32.8369 77.2796 32.7925 77.1131 32.7036 76.9893C32.6148 76.8655 32.5004 76.7703 32.3608 76.7035C32.2213 76.6367 32.0656 76.594 31.8942 76.5751C31.7228 76.5562 31.5577 76.5464 31.3993 76.5464H30.5423V78.4412H31.266Z" fill="#BAC4DE"/>
<path d="M38.5398 75.5184H39.5776L42.4815 82.2591H41.1107L40.4822 80.7166H37.5594L36.95 82.2591H35.6076L38.5398 75.5184ZM40.0635 79.6885L39.0257 76.9466L37.969 79.6885H40.0635Z" fill="#BAC4DE"/>
<path d="M45.1377 75.5184H46.7278L49.9934 80.5263H50.0123V75.5184H51.212V82.2591H49.6887L46.3564 77.0893H46.3375V82.2591H45.1377V75.5184Z" fill="#BAC4DE"/>
<path d="M56.2675 79.3741L53.735 75.5181H55.2395L56.896 78.203L58.5718 75.5181H60L57.4676 79.3741V82.2587H56.2678V79.3741H56.2675Z" fill="#BAC4DE"/>
<path d="M0.854891 85.2102H0.00842285V84.7922H2.17251V85.2102H1.32604V87.8854H0.855233L0.854891 85.2102Z" fill="white"/>
<path d="M6.80681 87.1938H5.63363L5.39612 87.8854H4.89978L6.02434 84.7922H6.4168L7.54134 87.8854H7.04711L6.80681 87.1938ZM6.67318 86.778L6.22547 85.4267H6.21742L5.76969 86.778H6.67318Z" fill="white"/>
<path d="M11.8384 86.1819H12.9374V86.8119C12.9318 87.1218 12.8259 87.3813 12.6191 87.5905C12.4114 87.7986 12.1497 87.9053 11.8342 87.9109C11.5911 87.9053 11.3879 87.8458 11.2253 87.7328C11.0598 87.6241 10.9395 87.4981 10.8646 87.3551C10.8419 87.3085 10.8216 87.2638 10.8031 87.2215C10.7859 87.1777 10.7719 87.1225 10.7607 87.056C10.7394 86.9315 10.7289 86.6926 10.7289 86.3389C10.7289 85.9797 10.7394 85.7394 10.7607 85.6177C10.7835 85.496 10.8181 85.3977 10.8646 85.3228C10.9395 85.1798 11.0598 85.0528 11.2253 84.9409C11.3879 84.8279 11.5908 84.7698 11.8342 84.767C12.1326 84.7698 12.376 84.8583 12.5639 85.0322C12.752 85.2074 12.8706 85.4246 12.9203 85.6835H12.424C12.3858 85.5589 12.3166 85.4529 12.2162 85.3652C12.1116 85.2819 11.9843 85.2385 11.8342 85.2357C11.724 85.2385 11.6292 85.2606 11.5498 85.3015C11.4694 85.3438 11.4043 85.397 11.3547 85.4606C11.2938 85.5271 11.2536 85.6128 11.2336 85.7174C11.2109 85.8276 11.1997 86.035 11.1997 86.3389C11.1997 86.6429 11.2109 86.8489 11.2336 86.9563C11.2536 87.0637 11.2938 87.1508 11.3547 87.2173C11.4043 87.2809 11.4694 87.3327 11.5498 87.3722C11.6289 87.4187 11.7237 87.4422 11.8342 87.4422C12.0168 87.4422 12.1672 87.3799 12.2861 87.2554C12.4051 87.1365 12.4656 86.9804 12.4687 86.7867V86.6254H11.8388L11.8384 86.1819Z" fill="white"/>
<path d="M17.5504 84.7922H18.0191V87.4422H19.5252V87.8857H17.5504V84.7922Z" fill="white"/>
<path d="M23.008 84.7922H23.4767V87.8854H23.008V84.7922Z" fill="white"/>
<path d="M27.1697 84.7922H27.6112L29.0114 86.9903H29.0197V84.7922H29.4885V87.8854H29.0449L27.6469 85.6873H27.6385V87.8854H27.1694L27.1697 84.7922Z" fill="white"/>
<path d="M33.1832 84.7922H35.1584V85.2358H33.6523V86.1183H34.938V86.5342H33.6523V87.4422H35.1584V87.8857H33.1832V84.7922Z" fill="white"/>
<path d="M41.6994 86.5342H40.4755V87.8854H40.0064V84.7922H40.4755V86.1183H41.6994V84.7922H42.1681V87.8854H41.6994V86.5342Z" fill="white"/>
<path d="M46.7852 84.7922H48.7604V85.2358H47.2542V86.1183H48.5397V86.5342H47.2542V87.4422H48.7604V87.8857H46.7852V84.7922Z" fill="white"/>
<path d="M52.2429 84.7922H53.45C53.7074 84.7922 53.9173 84.8601 54.0799 84.9958C54.2765 85.1501 54.379 85.3701 54.3874 85.6555C54.3818 86.0756 54.1824 86.3614 53.7893 86.5125L54.5063 87.885H53.9484L53.31 86.5632H52.7119V87.885H52.2432L52.2429 84.7922ZM52.7119 86.148H53.4206C53.5958 86.1452 53.7273 86.0941 53.8151 85.9951C53.9015 85.9031 53.9445 85.7902 53.9445 85.6558C53.9418 85.4946 53.89 85.3781 53.7896 85.3057C53.7102 85.2421 53.5958 85.2102 53.4457 85.2102H52.7119V86.148Z" fill="white"/>
<path d="M57.9338 84.7922H59.9091V85.2358H58.4029V86.1183H59.6883V86.5342H58.4029V87.4422H59.9091V87.8857H57.9338V84.7922Z" fill="white"/>
</svg>
