<svg width="60" height="70" viewBox="0 0 60 70" fill="none" xmlns="http://www.w3.org/2000/svg">
<path d="M54.064 21.2808C52.9569 18.6083 51.3232 16.1541 49.2154 14.0466C45.1101 9.94136 39.6857 7.63231 33.8983 7.51611C35.7518 10.1121 36.7541 13.1325 36.9057 16.1889C37.5607 16.3538 38.2008 16.5668 38.8228 16.8241C40.508 17.5219 42.0546 18.5513 43.3826 19.8794C46.0396 22.5355 47.5021 26.0675 47.5021 29.8241C47.5021 33.5805 46.0396 37.1128 43.3826 39.7689C40.7265 42.4259 37.1945 43.8884 33.4378 43.8884C29.6812 43.8884 26.1495 42.4259 23.4931 39.7689C21.6469 37.9228 20.4221 35.6868 19.819 33.3235C16.7585 33.1799 13.7323 32.1844 11.1307 30.3342C11.2592 36.1041 13.5665 41.5078 17.6603 45.6017C21.8747 49.8166 27.4778 52.1371 33.4375 52.1371C39.3972 52.1371 45.0007 49.8166 49.2147 45.6017C53.4297 41.3873 55.7502 35.7848 55.7502 29.8245C55.7508 26.8447 55.1711 23.9535 54.064 21.2808ZM19.6149 27.2571C20.1133 24.5523 21.4059 21.9671 23.4934 19.8794C25.526 17.8468 28.0714 16.5132 30.8381 15.9985C30.6153 13.7061 29.6272 11.475 27.8751 9.72284C27.4553 9.30307 27.0072 8.92614 26.5372 8.59451C23.2261 9.66613 20.1931 11.5144 17.6606 14.0469C15.1158 16.5918 13.2616 19.643 12.1919 22.9728C12.5235 23.4382 12.8964 23.8786 13.3079 24.291C15.0683 26.0502 17.3117 27.0401 19.6149 27.2571Z" fill="white"/>
<path d="M36.9058 16.189C35.7854 15.906 34.6232 15.7599 33.4379 15.7599C32.5561 15.7599 31.6866 15.8407 30.8379 15.9982C31.1273 18.9612 30.1392 22.0263 27.8748 24.2907C25.6187 26.5467 22.5675 27.5358 19.6143 27.2568C19.2448 29.2654 19.3126 31.339 19.819 33.3229C20.0763 33.3352 20.3337 33.3411 20.591 33.3411C24.7755 33.3411 28.9618 31.7483 32.1474 28.5627C35.333 25.3762 36.9258 21.1917 36.9258 17.0069C36.9264 16.7342 36.9199 16.4611 36.9058 16.189ZM20.5917 6.7111C21.9108 6.7111 23.2296 6.96198 24.4695 7.46435C25.1903 7.75622 25.8856 8.13253 26.5375 8.59453C28.7365 7.88197 31.0585 7.51151 33.4385 7.51151C33.5919 7.51151 33.7461 7.51305 33.8986 7.51644C33.3815 6.79216 32.7983 6.10086 32.1483 5.45086C25.7762 -0.920307 15.4083 -0.920307 9.0362 5.45086C5.94955 8.53751 4.2495 12.6422 4.2495 17.0072C4.2495 21.3723 5.94955 25.4763 9.0362 28.563C9.69544 29.2213 10.3966 29.8118 11.1314 30.3339C11.1274 30.1647 11.1255 29.994 11.1255 29.8242C11.1255 27.4633 11.4892 25.158 12.1922 22.9728C10.9566 21.2423 10.2909 19.1761 10.2909 17.0072C10.2909 14.2556 11.3625 11.6685 13.3082 9.72286C15.3158 7.71492 17.9537 6.7111 20.5917 6.7111Z" fill="#BAC4DE"/>
<path d="M0.729573 66.9117H0.000366211V66.5518H1.86468V66.9117H1.13547V69.2165H0.729573V66.9117Z" fill="white"/>
<path d="M6.60637 68.6207H5.59546L5.39081 69.2165H4.96303L5.93171 66.5515H6.26981L7.23849 69.2165H6.81256L6.60637 68.6207ZM6.4911 68.2626L6.10554 67.0982H6.09814L5.71258 68.2626H6.4911Z" fill="white"/>
<path d="M11.6899 67.7488H12.6367V68.2915C12.6318 68.5584 12.5405 68.7819 12.3624 68.9625C12.1833 69.1416 11.9577 69.2337 11.6862 69.2383C11.4766 69.2334 11.3016 69.1822 11.1616 69.0849C11.0189 68.9912 10.9154 68.8827 10.851 68.7594C10.8316 68.719 10.8137 68.6808 10.798 68.6441C10.7835 68.6065 10.7711 68.5588 10.7613 68.5017C10.7431 68.3945 10.7339 68.1886 10.7339 67.8838C10.7339 67.5744 10.7431 67.3672 10.7613 67.2625C10.7807 67.1577 10.8106 67.0729 10.851 67.0085C10.9154 66.8855 11.0193 66.7758 11.1616 66.6793C11.3019 66.5819 11.4766 66.532 11.6862 66.5295C11.9432 66.532 12.1528 66.6081 12.3149 66.7579C12.4771 66.9089 12.5794 67.096 12.6219 67.3192H12.1941C12.1611 67.2119 12.1014 67.1207 12.0151 67.0452C11.9248 66.9734 11.8153 66.9361 11.6862 66.9336C11.591 66.9361 11.5093 66.9549 11.4412 66.9903C11.3718 67.027 11.3157 67.0726 11.2729 67.1275C11.2205 67.1848 11.1857 67.2584 11.1687 67.3488C11.1493 67.4437 11.1395 67.6221 11.1395 67.8844C11.1395 68.1467 11.1493 68.3236 11.1687 68.4164C11.186 68.5091 11.2205 68.584 11.2729 68.641C11.3154 68.6959 11.3715 68.7403 11.4412 68.7745C11.5093 68.8146 11.591 68.8349 11.6862 68.8349C11.8434 68.8349 11.9731 68.7813 12.0755 68.674C12.1778 68.5717 12.2302 68.437 12.2326 68.27V68.131H11.6899V67.7488Z" fill="white"/>
<path d="M18.2903 66.5518H18.6944V68.8346H19.9922V69.2168H18.2907V66.5518H18.2903Z" fill="white"/>
<path d="M23.7412 66.5518H24.1453V69.2168H23.7412V66.5518Z" fill="white"/>
<path d="M28.0752 66.5518H28.4552L29.6615 68.4454H29.6689V66.5518H30.0729V69.2168H29.6908L28.4863 67.3232H28.4789V69.2168H28.0749L28.0752 66.5518Z" fill="white"/>
<path d="M34.005 66.5518H35.7066V66.9339H34.4087V67.6943H35.5164V68.0524H34.4087V68.8346H35.7066V69.2168H34.005V66.5518Z" fill="white"/>
<path d="M42.8282 68.0524H41.7735V69.2168H41.3695V66.5518H41.7735V67.6943H42.8282V66.5518H43.2323V69.2168H42.8282V68.0524Z" fill="white"/>
<path d="M47.1643 66.5518H48.8659V66.9339H47.5681V67.6943H48.6757V68.0524H47.5681V68.8346H48.8659V69.2168H47.1643V66.5518Z" fill="white"/>
<path d="M52.6152 66.5518H53.6551C53.877 66.5518 54.0579 66.6103 54.1978 66.7271C54.367 66.86 54.4555 67.0495 54.4629 67.2954C54.458 67.6573 54.2863 67.9035 53.9476 68.0339L54.5655 69.2165H54.0847L53.5346 68.0777H53.0193V69.2165H52.6152V66.5518ZM53.0189 67.7195H53.6295C53.7805 67.7171 53.894 67.6733 53.9695 67.5879C54.0437 67.5087 54.081 67.4113 54.081 67.2954C54.0786 67.1565 54.0342 67.056 53.9476 66.994C53.8795 66.9392 53.7805 66.9117 53.6514 66.9117H53.0189V67.7195Z" fill="white"/>
<path d="M58.267 66.5518H59.9686V66.9339H58.6708V67.6943H59.7785V68.0524H58.6708V68.8346H59.9686V69.2168H58.267V66.5518Z" fill="white"/>
<path d="M0.818278 62.6178C0.272759 62.0883 0 61.4162 0 60.6019C0 59.7876 0.272759 59.1157 0.818278 58.5859C1.36349 58.0561 2.03044 57.7914 2.81851 57.7914C3.42906 57.7914 3.97181 57.9532 4.44675 58.2768C4.92169 58.6004 5.25332 59.0492 5.44101 59.6233H3.8439C3.63525 59.2214 3.30116 59.0205 2.84194 59.0205C2.38241 59.0205 2.0212 59.1641 1.75768 59.4511C1.49417 59.7383 1.36226 60.1217 1.36226 60.6019C1.36226 61.0821 1.49386 61.4658 1.75768 61.7527C2.0212 62.04 2.38272 62.1833 2.84194 62.1833C3.30116 62.1833 3.63525 61.9823 3.8439 61.5804H5.44101C5.25332 62.1546 4.92169 62.6034 4.44675 62.927C3.97181 63.2506 3.42906 63.4124 2.81851 63.4124C2.03044 63.4127 1.36349 63.1479 0.818278 62.6178Z" fill="#BAC4DE"/>
<path d="M9.93092 62.6218C9.3854 62.0896 9.11264 61.4162 9.11264 60.6019C9.11264 59.7876 9.3854 59.1157 9.93092 58.5859C10.4761 58.0561 11.1443 57.7914 11.9352 57.7914C12.726 57.7914 13.3914 58.0564 13.9314 58.5859C14.4717 59.1157 14.7417 59.7876 14.7417 60.6019C14.7417 61.4162 14.4701 62.0893 13.9274 62.6218C13.3843 63.1541 12.7189 63.4204 11.9312 63.4204C11.1431 63.4204 10.4761 63.1544 9.93092 62.6218ZM12.9843 61.753C13.2478 61.4661 13.3797 61.0824 13.3797 60.6022C13.3797 60.122 13.2478 59.7386 12.9843 59.4514C12.7208 59.1644 12.3685 59.0208 11.9275 59.0208C11.4864 59.0208 11.1341 59.1644 10.8706 59.4514C10.6071 59.7386 10.4752 60.122 10.4752 60.6022C10.4752 61.0824 10.6068 61.4661 10.8706 61.753C11.1341 62.0403 11.4864 62.1836 11.9275 62.1836C12.3682 62.1836 12.7205 62.04 12.9843 61.753Z" fill="#BAC4DE"/>
<path d="M24.9583 57.8697V63.3656H23.6194V60.2654L22.3432 63.3656H21.3489L20.0729 60.2654V63.3656H18.7341V57.8697H20.2687L21.85 61.6587L23.4237 57.8697H24.9583Z" fill="#BAC4DE"/>
<path d="M33.4527 59.5531C33.4527 59.9236 33.3195 60.2811 33.0532 60.6256C32.9124 60.8032 32.7022 60.948 32.423 61.0602C32.1437 61.1724 31.8136 61.2285 31.4327 61.2285H30.6027V63.3659H29.2639V57.87H31.4324C32.0691 57.87 32.5647 58.0343 32.9198 58.3631C33.2751 58.692 33.4527 59.0886 33.4527 59.5531ZM30.603 60.2108H31.433C31.6364 60.2108 31.797 60.1507 31.9144 60.0308C32.0318 59.9109 32.0907 59.7528 32.0907 59.5571C32.0907 59.3614 32.0306 59.2008 31.9107 59.0757C31.7905 58.9506 31.6315 58.8877 31.4333 58.8877H30.6033L30.603 60.2108Z" fill="#BAC4DE"/>
<path d="M40.8822 63.3655L40.5767 62.4418H38.6039L38.2985 63.3655H36.8737L38.7839 57.8539H40.4125L42.3147 63.3655H40.8822ZM38.9405 61.4242H40.2402L39.5905 59.4671L38.9405 61.4242Z" fill="#BAC4DE"/>
<path d="M49.6817 57.8542H51.0205V63.3658H49.6817L47.4426 59.8976V63.3658H46.1038V57.8542H47.4426L49.6817 61.3225V57.8542Z" fill="#BAC4DE"/>
<path d="M58.0975 63.3656H56.7586V61.5962L54.8564 57.8697H56.3752L57.4321 60.3513L58.4812 57.8697H60L58.0975 61.5962V63.3656Z" fill="#BAC4DE"/>
</svg>
