<svg width="60" height="80" viewBox="0 0 60 80" fill="none" xmlns="http://www.w3.org/2000/svg">
<path d="M26.6896 39.0537C25.7516 38.9956 24.8014 38.9664 23.8357 38.9664C19.6085 38.9664 15.2728 39.5193 10.9451 40.611C9.47506 40.9813 8.03691 41.4048 6.63481 41.881V11.1468C8.97379 10.0316 11.5313 9.1144 14.1788 8.44655C17.4505 7.62237 20.6987 7.20421 23.8357 7.20421C24.8189 7.20421 25.7724 7.24367 26.6949 7.32601V7.4372C27.7467 7.74001 28.8514 7.99006 30.0026 8.18472C31.0678 8.36459 32.1724 8.49702 33.3104 8.57898V1.83412C30.4872 1.01904 27.2762 0.589111 23.836 0.589111C20.265 0.589111 16.448 1.05206 12.5623 2.03258C7.8563 3.21801 3.5961 5.02383 0.0200806 7.21634V52.2099C3.5961 50.0162 7.8563 48.2119 12.5623 47.025C16.448 46.046 20.265 45.5815 23.836 45.5815C24.8071 45.5815 25.7599 45.616 26.69 45.6847L26.6896 39.0537Z" fill="white"/>
<path d="M47.4376 7.23876C43.5519 8.21776 39.7349 8.68223 36.1638 8.68223C35.1928 8.68223 34.24 8.64768 33.3099 8.579C32.1723 8.49704 31.0673 8.36461 30.0022 8.18474C28.8513 7.99008 27.7463 7.74003 26.6945 7.43722C26.6929 7.43722 26.6907 7.43569 26.6891 7.43569V39.0537V45.6848V52.4296C29.5123 53.2447 32.7221 53.6746 36.1635 53.6746C39.733 53.6746 43.5511 53.2117 47.4372 52.2312C52.1432 51.0457 56.4023 49.2399 59.9794 47.0474V2.05347C56.4023 4.24712 52.1436 6.05181 47.4376 7.23876ZM53.3647 43.117C51.0257 44.2322 48.4682 45.149 45.8195 45.8172C42.549 46.6414 39.3008 47.0595 36.1638 47.0595C35.1807 47.0595 34.2271 47.0197 33.3046 46.9377V46.8266C33.3058 46.8266 33.3084 46.8281 33.3099 46.8281V15.2101C34.248 15.2681 35.1981 15.2973 36.1638 15.2973C40.3895 15.2973 44.7267 14.7445 49.054 13.6528C50.5241 13.2824 51.9622 12.8574 53.3643 12.3827L53.3647 43.117Z" fill="#BAC4DE"/>
<path d="M4.78422 71.4659V72.1011C4.78422 72.4187 4.7239 72.7196 4.60361 73.0035C4.48294 73.2873 4.3171 73.54 4.10537 73.7613C3.89363 73.9829 3.64548 74.1582 3.36164 74.2883C3.07781 74.4181 2.77196 74.4834 2.44486 74.4834C2.16558 74.4834 1.88175 74.4446 1.59298 74.3676C1.30421 74.2906 1.04429 74.1559 0.813196 73.9635C0.582105 73.7711 0.392 73.5233 0.242873 73.2201C0.093366 72.9169 0.0189819 72.5295 0.0189819 72.0579V66.3982C0.0189819 66.0613 0.0766715 65.7486 0.192406 65.4598C0.307762 65.1711 0.471288 64.921 0.683405 64.7089C0.895143 64.4971 1.14787 64.3313 1.44119 64.2107C1.73489 64.0904 2.05972 64.03 2.41603 64.03C3.10892 64.03 3.67202 64.2562 4.10537 64.7085C4.3171 64.9301 4.48294 65.1923 4.60361 65.4955C4.7239 65.7987 4.78422 66.1284 4.78422 66.4844V67.0619H3.31155V66.5709C3.31155 66.2821 3.22959 66.0321 3.06605 65.8203C2.90212 65.6086 2.6809 65.5027 2.40199 65.5027C2.0362 65.5027 1.79296 65.6162 1.67267 65.842C1.55239 66.0681 1.49242 66.3546 1.49242 66.701V71.9562C1.49242 72.2544 1.55732 72.5049 1.68747 72.7071C1.81725 72.9094 2.05061 73.0103 2.38756 73.0103C2.48357 73.0103 2.58716 72.9936 2.69796 72.9598C2.80876 72.9261 2.91197 72.871 3.00835 72.7936C3.09487 72.7166 3.16736 72.6107 3.22504 72.476C3.28272 72.3413 3.31155 72.1728 3.31155 71.9706V71.4651H4.78422V71.4659Z" fill="white"/>
<path d="M8.78326 66.5424C8.78326 66.1288 8.85538 65.7626 8.99995 65.445C9.14415 65.1274 9.3369 64.8629 9.57748 64.6508C9.80857 64.4486 10.0708 64.2949 10.3645 64.189C10.6582 64.0832 10.9542 64.03 11.2524 64.03C11.5507 64.03 11.8467 64.0832 12.1404 64.189C12.4337 64.2949 12.7008 64.4489 12.9418 64.6508C13.1729 64.8626 13.3603 65.1274 13.5049 65.445C13.6491 65.7626 13.7216 66.1284 13.7216 66.5424V71.971C13.7216 72.4039 13.6494 72.7747 13.5049 73.0828C13.3607 73.3909 13.1729 73.6459 12.9418 73.8482C12.7012 74.0599 12.4337 74.2189 12.1404 74.3247C11.8467 74.4306 11.5507 74.4837 11.2524 74.4837C10.9538 74.4837 10.6578 74.4306 10.3645 74.3247C10.0708 74.2189 9.80857 74.0603 9.57748 73.8482C9.3369 73.6459 9.14453 73.3913 8.99995 73.0828C8.85576 72.7747 8.78326 72.4043 8.78326 71.971V66.5424ZM10.2563 71.9713C10.2563 72.3276 10.355 72.5899 10.5523 72.7583C10.7493 72.9268 10.983 73.0111 11.2524 73.0111C11.5218 73.0111 11.7552 72.9268 11.9525 72.7583C12.1495 72.5902 12.2485 72.3276 12.2485 71.9713V66.5428C12.2485 66.1869 12.1495 65.9243 11.9525 65.7558C11.7552 65.5877 11.5214 65.5031 11.2524 65.5031C10.9826 65.5031 10.7493 65.5873 10.5523 65.7558C10.355 65.9243 10.2563 66.1865 10.2563 66.5428V71.9713Z" fill="white"/>
<path d="M17.9081 74.3969V64.1169H19.3231L21.2144 69.5599H21.2432L23.12 64.1169H24.5494V74.3969H23.0768V68.1453H23.0479L21.5897 72.5633H20.8531L19.4093 68.1453H19.3804V74.3969H17.9081Z" fill="white"/>
<path d="M28.8232 74.3969V64.1169H31.0321C31.4362 64.1169 31.7921 64.1701 32.1006 64.2759C32.4088 64.3818 32.6876 64.5696 32.9381 64.8391C33.1882 65.1085 33.3616 65.4238 33.4579 65.7847C33.5539 66.1455 33.6025 66.6343 33.6025 67.2501C33.6025 67.7123 33.576 68.102 33.5232 68.4196C33.4701 68.7372 33.357 69.0355 33.184 69.3148C32.9817 69.6517 32.7123 69.9139 32.3754 70.1014C32.0384 70.2892 31.5956 70.3829 31.0473 70.3829H30.2967V74.3965L28.8232 74.3969ZM30.2959 65.5031V68.9972H31.0032C31.3015 68.9972 31.5326 68.9539 31.6961 68.8674C31.8597 68.7809 31.98 68.6606 32.057 68.5065C32.134 68.3623 32.1796 68.184 32.1944 67.9722C32.2088 67.7605 32.216 67.5245 32.216 67.2645C32.216 67.024 32.2111 66.7955 32.2016 66.5789C32.1917 66.3622 32.1484 66.1725 32.0714 66.0085C31.9944 65.845 31.8787 65.7198 31.725 65.6332C31.5709 65.5467 31.3497 65.5035 31.0609 65.5035L30.2959 65.5031Z" fill="white"/>
<path d="M36.3889 74.3969L38.6846 64.1169H39.9117L42.2075 74.3969H40.7348L40.3015 72.188H38.2945L37.8612 74.3969H36.3889ZM40.0271 70.8019L39.305 67.0767H39.2762L38.5544 70.8019H40.0271Z" fill="white"/>
<path d="M45.7589 74.3969V64.1169H47.1739L49.3972 70.3108H49.426V64.1169H50.8987V74.3969H49.5125L47.2604 68.2174H47.2316V74.3969H45.7589Z" fill="white"/>
<path d="M56.4858 74.3969V70.0509L54.4644 64.1169H56.0236L57.2075 68.203H57.2364L58.4203 64.1169H59.9795L57.9581 70.0509V74.3969H56.4858Z" fill="white"/>
<path d="M0.711114 79.2808V77.2982H0V76.894H1.89653V77.2982H1.19151V79.2808H0.711114Z" fill="#BAC4DE"/>
<path d="M7.43129 79.2808H6.9046L6.70007 78.7393H5.74422L5.54576 79.2808H5.03424L5.96392 76.8937H6.47544L7.43129 79.2808ZM6.54147 78.3349L6.21475 77.4515L5.88765 78.3349H6.54147Z" fill="#BAC4DE"/>
<path d="M11.8619 78.4009V78.0029H12.9001V78.9538C12.6341 79.1993 12.2948 79.3219 11.8831 79.3219C11.4847 79.3219 11.1823 79.2061 10.9758 78.9743C10.7694 78.7428 10.6662 78.4442 10.6662 78.0791C10.6662 77.6708 10.7812 77.3642 11.0111 77.1597C11.2411 76.9552 11.5211 76.8527 11.8516 76.8527C12.4273 76.8527 12.7661 77.0865 12.8686 77.554L12.3931 77.645C12.3183 77.3897 12.1377 77.2618 11.8516 77.2618C11.3917 77.2618 11.1614 77.5274 11.1614 78.059C11.1614 78.3212 11.2202 78.528 11.3378 78.6798C11.4555 78.8316 11.6251 78.9075 11.8463 78.9075C12.0508 78.9075 12.2402 78.8411 12.414 78.7079V78.4009H11.8619Z" fill="#BAC4DE"/>
<path d="M19.2977 79.2808V76.8937H19.7831V78.8763H20.9783V79.2805L19.2977 79.2808Z" fill="#BAC4DE"/>
<path d="M24.3871 79.2808V76.8937H24.8724V79.2808H24.3871Z" fill="#BAC4DE"/>
<path d="M28.3995 79.2808V76.8937H28.8685L29.8505 78.4885V76.8937H30.2949V79.2808H29.8145L28.8488 77.7224V79.2808H28.3995Z" fill="#BAC4DE"/>
<path d="M33.8678 79.2808V76.8937H35.641V77.2978H34.3535V77.8245H35.5488V78.2275H34.3535V78.8763H35.6873V79.2805L33.8678 79.2808Z" fill="#BAC4DE"/>
<path d="M41.9431 79.2808V76.8937H42.4234V77.8344H43.3679V76.8937H43.8483V79.2808H43.3679V78.2377H42.4234V79.2808H41.9431Z" fill="#BAC4DE"/>
<path d="M47.4119 79.2808V76.8937H49.1851V77.2978H47.8976V77.8245H49.0929V78.2275H47.8976V78.8763H49.2314V79.2805L47.4119 79.2808Z" fill="#BAC4DE"/>
<path d="M52.7117 79.2808V76.8937H53.7287C54.0425 76.8937 54.2766 76.9403 54.4315 77.0341C54.5863 77.1278 54.6637 77.3042 54.6637 77.5638C54.6637 77.9448 54.4542 78.166 54.0349 78.2275C54.1954 78.3132 54.3726 78.509 54.5665 78.8152L54.8583 79.2808H54.2808L53.759 78.5098C53.7082 78.4309 53.6513 78.3736 53.5879 78.3375C53.5245 78.3015 53.4247 78.284 53.2885 78.284H53.1925V79.2808H52.7117ZM53.1921 77.9008H53.5488C53.7909 77.9008 53.9545 77.881 54.0398 77.8419C54.1248 77.8028 54.1677 77.7201 54.1677 77.5938C54.1677 77.4746 54.1328 77.3957 54.063 77.3566C53.9932 77.3175 53.8289 77.2978 53.5701 77.2978H53.1921V77.9008Z" fill="#BAC4DE"/>
<path d="M58.1805 79.2808V76.8937H59.9537V77.2978H58.6662V77.8245H59.8615V78.2275H58.6662V78.8763H60V79.2805L58.1805 79.2808Z" fill="#BAC4DE"/>
</svg>
