<svg width="60" height="80" viewBox="0 0 60 80" fill="none" xmlns="http://www.w3.org/2000/svg">
<path d="M1.4114 76.0425V79.2233H0.851993V76.0425H0V75.5167H2.26119V76.0425H1.4114Z" fill="white"/>
<path d="M7.19435 78.3228H5.60759L5.19463 79.2229H4.59217L6.42627 75.2838L8.19531 79.2229H7.58311L7.19435 78.3228ZM6.96619 77.7971L6.41652 76.5368L5.84046 77.7971H6.96619Z" fill="white"/>
<path d="M12.8547 77.2929H14.3861V77.4155C14.3861 77.694 14.3535 77.9403 14.2878 78.155C14.224 78.3533 14.1159 78.539 13.9638 78.7119C13.6196 79.0991 13.1822 79.2927 12.6507 79.2927C12.1322 79.2927 11.6881 79.1054 11.3185 78.7311C10.9489 78.3549 10.7638 77.9036 10.7638 77.3772C10.7638 76.8394 10.9518 76.3834 11.328 76.0088C11.7041 75.6326 12.1617 75.4447 12.701 75.4447C12.9908 75.4447 13.2611 75.5041 13.5125 75.6223C13.7526 75.7407 13.9886 75.9328 14.2205 76.1983L13.822 76.5802C13.5181 76.1754 13.1476 75.9727 12.7108 75.9727C12.3185 75.9727 11.9898 76.1078 11.7243 76.3784C11.4587 76.644 11.3258 76.9771 11.3258 77.3769C11.3258 77.7898 11.4738 78.1299 11.7698 78.397C12.0467 78.6449 12.3468 78.7691 12.6699 78.7691C12.9452 78.7691 13.1922 78.6764 13.4116 78.4906C13.6306 78.3033 13.7532 78.0793 13.7787 77.8184H12.8544L12.8547 77.2929Z" fill="white"/>
<path d="M19.808 75.5167V78.6975H20.8979V79.2233H19.2489V75.5167H19.808Z" fill="white"/>
<path d="M24.4457 75.5167V79.2229H23.8863V75.5167H24.4457Z" fill="white"/>
<path d="M27.7943 79.2229V75.2646L30.4973 78.0925V75.5167H31.0567V79.4486L28.3537 76.628V79.2229H27.7943Z" fill="white"/>
<path d="M36.4481 76.0425H34.9622V76.9332H36.405V77.4589H34.9622V78.6975H36.4481V79.2233H34.4028V75.5167H36.4481V76.0425Z" fill="white"/>
<path d="M41.7948 76.9665H43.3935V75.5167H43.9526V79.2229H43.3935V77.4922H41.7948V79.2229H41.2354V75.5167H41.7948V76.9665Z" fill="white"/>
<path d="M49.3442 76.0425H47.8584V76.9332H49.3012V77.4589H47.8584V78.6975H49.3442V79.2233H47.299V75.5167H49.3442V76.0425Z" fill="white"/>
<path d="M53.7925 77.6434L54.9399 79.2229H54.2557L53.1973 77.7059H53.0964V79.2229H52.537V75.5167H53.1922C53.6819 75.5167 54.0354 75.6088 54.2532 75.7927C54.4933 75.9976 54.6131 76.2678 54.6131 76.6041C54.6131 76.8665 54.5379 77.0922 54.3874 77.2811C54.2372 77.4699 54.0389 77.5906 53.7925 77.6434ZM53.0964 77.2185H53.2739C53.8035 77.2185 54.0684 77.0161 54.0684 76.6113C54.0684 76.232 53.8107 76.0425 53.2956 76.0425H53.0964V77.2185Z" fill="white"/>
<path d="M60 76.0425H58.5141V76.9332H59.9569V77.4589H58.5141V78.6975H60V79.2233H57.9547V75.5167H60V76.0425Z" fill="white"/>
<path d="M37.285 0.462402V11.1873L12.0568 36.4152V25.6903L37.285 0.462402Z" fill="#BAC4DE"/>
<path d="M37.285 21.8414V32.5663L12.0568 57.7945V47.0697L37.285 21.8414Z" fill="#BAC4DE"/>
<path d="M47.9433 0.462402V11.1873L22.7153 36.4152V25.6903L47.9433 0.462402Z" fill="white"/>
<path d="M47.9433 21.8414V32.5663L22.7153 57.7945V47.0697L47.9433 21.8414Z" fill="white"/>
<path d="M4.9963 66.4245C4.74865 66.158 4.50918 65.9805 4.27756 65.8915C4.04594 65.8026 3.81275 65.7583 3.57799 65.7583C3.22883 65.7583 2.9133 65.8202 2.63108 65.944C2.34855 66.0679 2.10593 66.2391 1.90291 66.4579C1.69958 66.6769 1.54276 66.9324 1.43182 67.2241C1.32056 67.516 1.26525 67.83 1.26525 68.1662C1.26525 68.528 1.32088 68.8611 1.43182 69.1656C1.54276 69.4702 1.69989 69.7335 1.90291 69.9557C2.10593 70.1779 2.34855 70.3523 2.63108 70.4793C2.9133 70.6063 3.22914 70.6697 3.57799 70.6697C3.85077 70.6697 4.11571 70.6047 4.37278 70.4746C4.62986 70.3445 4.86933 70.1367 5.09121 69.8511L6.08117 70.5554C5.77664 70.974 5.40517 71.2788 4.96738 71.4689C4.5296 71.6594 4.06322 71.7546 3.56824 71.7546C3.04781 71.7546 2.57043 71.6704 2.13579 71.5023C1.70115 71.3341 1.32685 71.0962 1.01258 70.7882C0.698619 70.4806 0.452543 70.111 0.274979 69.6795C0.0974153 69.248 0.00847626 68.769 0.00847626 68.2423C0.00847626 67.703 0.0974153 67.2127 0.274979 66.7718C0.452543 66.3309 0.698619 65.955 1.01258 65.6439C1.32685 65.3331 1.70084 65.0936 2.13579 64.9252C2.57043 64.757 3.04781 64.6728 3.56824 64.6728C4.0252 64.6728 4.44884 64.7536 4.83885 64.9154C5.22917 65.0773 5.59216 65.3516 5.92875 65.7388L4.9963 66.4245Z" fill="#BAC4DE"/>
<path d="M8.43228 68.2425C8.43228 67.7032 8.52122 67.213 8.69878 66.7721C8.87635 66.3311 9.12242 65.9553 9.43638 65.6441C9.75066 65.3333 10.1246 65.0938 10.5596 64.9254C10.9942 64.7572 11.4716 64.673 11.992 64.673C12.5188 64.6667 13.0009 64.7444 13.439 64.9062C13.8767 65.0681 14.2542 65.3044 14.5716 65.6152C14.889 65.9263 15.1363 66.3006 15.3139 66.7384C15.4915 67.1762 15.5804 67.6649 15.5804 68.2042C15.5804 68.7309 15.4915 69.2099 15.3139 69.6414C15.136 70.0729 14.8887 70.4443 14.5716 70.7551C14.2542 71.066 13.8767 71.3089 13.439 71.4833C13.0012 71.6577 12.5188 71.7482 11.992 71.7545C11.4716 71.7545 10.9942 71.6703 10.5596 71.5022C10.125 71.334 9.75066 71.0961 9.43638 70.7881C9.12242 70.4805 8.87635 70.1109 8.69878 69.6794C8.52122 69.2482 8.43228 68.7693 8.43228 68.2425ZM9.68843 68.1662C9.68843 68.5279 9.74406 68.861 9.85499 69.1656C9.96593 69.4701 10.1231 69.7334 10.3261 69.9556C10.5291 70.1778 10.7717 70.3522 11.0543 70.4792C11.3365 70.6062 11.6523 70.6697 12.0012 70.6697C12.35 70.6697 12.6674 70.6062 12.9531 70.4792C13.2385 70.3522 13.483 70.1778 13.686 69.9556C13.889 69.7338 14.0461 69.4704 14.1571 69.1656C14.268 68.861 14.3236 68.5279 14.3236 68.1662C14.3236 67.8299 14.268 67.5159 14.1571 67.224C14.0458 66.9323 13.889 66.6765 13.686 66.4578C13.483 66.2387 13.2385 66.0675 12.9531 65.9439C12.6674 65.8201 12.35 65.7582 12.0012 65.7582C11.652 65.7582 11.3365 65.8201 11.0543 65.9439C10.7717 66.0678 10.5291 66.239 10.3261 66.4578C10.1228 66.6768 9.96593 66.9323 9.85499 67.224C9.74406 67.5159 9.68843 67.8299 9.68843 68.1662Z" fill="#BAC4DE"/>
<path d="M18.6547 64.8443H20.4822L22.2811 69.5653L24.0991 64.8443H25.9074V71.5832H24.7654V65.9867H24.7462L22.7 71.5832H21.8624L19.8159 65.9867H19.7967V71.5832H18.6547V64.8443Z" fill="#BAC4DE"/>
<path d="M29.3434 64.8443H31.6086C31.9323 64.8443 32.2447 64.876 32.5461 64.9395C32.8475 65.003 33.1124 65.1092 33.3409 65.2585C33.5694 65.4078 33.7517 65.6077 33.8884 65.8581C34.0248 66.1089 34.093 66.4213 34.093 66.7956C34.093 67.2208 34.02 67.5634 33.8739 67.8236C33.7278 68.0838 33.531 68.2853 33.2837 68.4279C33.0361 68.5706 32.7491 68.6674 32.4223 68.7183C32.0954 68.7692 31.7545 68.7944 31.399 68.7944H30.5423V71.5832H29.343L29.3434 64.8443ZM31.2661 67.7664C31.4374 67.7664 31.6149 67.7601 31.7991 67.7472C31.9829 67.7347 32.1526 67.6966 32.3082 67.6332C32.4638 67.5697 32.5904 67.4748 32.6891 67.3478C32.7875 67.2208 32.8365 67.0433 32.8365 66.8148C32.8365 66.6055 32.7919 66.4389 32.7032 66.3151C32.6143 66.1913 32.5002 66.096 32.3607 66.0294C32.2212 65.9628 32.0656 65.9201 31.8943 65.9009C31.723 65.8817 31.558 65.8723 31.3993 65.8723H30.5426V67.7664H31.2661Z" fill="#BAC4DE"/>
<path d="M38.538 64.8443H39.5755L42.4784 71.5832H41.1079L40.4796 70.0414H37.5575L36.9485 71.5832H35.6065L38.538 64.8443ZM40.0607 69.0134L39.0233 66.2723L37.9667 69.0134H40.0607Z" fill="#BAC4DE"/>
<path d="M45.1337 64.8443H46.7233L49.988 69.8507H50.0071V64.8443H51.2064V71.5832H49.6834L46.3521 66.415H46.333V71.5832H45.1337V64.8443Z" fill="#BAC4DE"/>
<path d="M56.2605 68.6992L53.7287 64.8443H55.2325L56.8887 67.5285L58.5638 64.8443H59.9915L57.4598 68.6992V71.5832H56.2605V68.6992Z" fill="#BAC4DE"/>
</svg>
