<svg width="60" height="68" viewBox="0 0 60 68" fill="none" xmlns="http://www.w3.org/2000/svg">
<path d="M13.9732 18.8236H18.1351V34.3257L23.8128 28.648L23.8116 13.147H8.29643L8.29556 44.1652L13.9732 38.4875V18.8236Z" fill="white"/>
<path d="M39.3288 28.664L23.8128 28.6631V28.648L18.1351 34.3257V34.3408H33.6523V38.5026H13.9732V38.4875L8.29556 44.1652V44.1803L39.3288 44.1795V28.664Z" fill="#BAC4DE"/>
<path d="M46.012 6.44857H46.0273L46.0282 17.3109H35.165V17.2959L29.4884 22.9724V22.9875H51.7047V0.771179H51.6896L46.012 6.44857Z" fill="#BAC4DE"/>
<path d="M35.165 6.44771L46.012 6.44857L51.6896 0.771179H29.4884V22.9724L35.165 17.2959V6.44771Z" fill="white"/>
<path d="M0.000579834 64.8135H0.729768V67.1183H1.13571V64.8135H1.8649V64.4534H0.000579834V64.8135Z" fill="#BAC4DE"/>
<path d="M5.93215 64.4534L4.96329 67.1183H5.39099L5.59556 66.5223H6.6065L6.8131 67.1183H7.23906L6.2702 64.4534H5.93215ZM5.71279 66.1642L6.09842 64.9998H6.10567L6.4913 66.1642H5.71279Z" fill="#BAC4DE"/>
<path d="M11.6902 66.0325H12.2331V66.1715C12.2308 66.3383 12.1783 66.4729 12.0759 66.5754C11.9734 66.6827 11.8437 66.7361 11.6865 66.7361C11.5913 66.7361 11.5097 66.7161 11.4416 66.6758C11.3722 66.6418 11.3159 66.5971 11.2736 66.5423C11.221 66.4851 11.1865 66.41 11.1694 66.3174C11.1499 66.2248 11.1401 66.0476 11.1401 65.7855C11.1401 65.5235 11.1499 65.3451 11.1694 65.2499C11.1865 65.1596 11.2213 65.0859 11.2736 65.0288C11.3162 64.9739 11.3722 64.9284 11.4416 64.8915C11.5097 64.8561 11.5913 64.8373 11.6865 64.835C11.8156 64.8373 11.9253 64.8747 12.0155 64.9464C12.102 65.0218 12.1617 65.1132 12.1945 65.2206H12.6222C12.5796 64.9977 12.4772 64.8106 12.3152 64.6594C12.153 64.5094 11.9435 64.4334 11.6865 64.431C11.477 64.4334 11.302 64.4836 11.1618 64.5811C11.0194 64.6774 10.9158 64.7871 10.8511 64.9101C10.811 64.9748 10.7808 65.0592 10.7614 65.164C10.7431 65.2687 10.7341 65.4759 10.7341 65.7855C10.7341 66.0902 10.7431 66.2962 10.7614 66.4033C10.7713 66.4605 10.7835 66.508 10.798 66.5458C10.8139 66.5823 10.8313 66.6206 10.8511 66.661C10.9155 66.784 11.0191 66.8925 11.1618 66.9862C11.302 67.0837 11.477 67.1348 11.6865 67.1397C11.9581 67.1348 12.1835 67.0428 12.3628 66.8638C12.5407 66.6836 12.6321 66.4599 12.637 66.1929V65.65H11.6902V66.0325Z" fill="#BAC4DE"/>
<path d="M18.6943 64.4534H18.2903V67.1183H19.9922V66.7364H18.6943V64.4534Z" fill="#BAC4DE"/>
<path d="M24.1453 64.4534H23.7414V67.1183H24.1453V64.4534Z" fill="#BAC4DE"/>
<path d="M29.6692 66.347H29.6619L28.4554 64.4534H28.0753V67.1183H28.4792V65.2246H28.4865L29.691 67.1183H30.0731V64.4534H29.6692V66.347Z" fill="#BAC4DE"/>
<path d="M34.0052 67.1183H35.7067V66.7364H34.4091V65.9541H35.5166V65.5958H34.4091V64.8352H35.7067V64.4534H34.0052V67.1183Z" fill="#BAC4DE"/>
<path d="M42.8283 65.5958H41.7735V64.4534H41.3696V67.1183H41.7735V65.9541H42.8283V67.1183H43.2322V64.4534H42.8283V65.5958Z" fill="#BAC4DE"/>
<path d="M47.1642 67.1183H48.8657V66.7364H47.5681V65.9541H48.6757V65.5958H47.5681V64.8352H48.8657V64.4534H47.1642V67.1183Z" fill="#BAC4DE"/>
<path d="M54.463 65.1974C54.4558 64.9513 54.3673 64.7618 54.1981 64.6289C54.058 64.512 53.8769 64.4534 53.6552 64.4534H52.6153V67.1183H53.0192V65.9796H53.5345L54.0847 67.1183H54.5655L53.9477 65.9355C54.2863 65.8052 54.4581 65.5592 54.463 65.1974ZM53.0189 65.6213V64.8135H53.6512C53.7803 64.8135 53.8789 64.8407 53.9474 64.8956C54.0339 64.9577 54.0783 65.0584 54.0809 65.1971C54.0809 65.3128 54.0438 65.4103 53.9695 65.4895C53.894 65.5749 53.7806 65.6187 53.6294 65.6213H53.0189Z" fill="#BAC4DE"/>
<path d="M58.2671 67.1183H59.9687V66.7364H58.671V65.9541H59.7786V65.5958H58.671V64.8352H59.9687V64.4534H58.2671V67.1183Z" fill="#BAC4DE"/>
<path d="M3.84441 59.4823C3.63549 59.8841 3.30151 60.0849 2.84247 60.0849C2.38314 60.0849 2.02159 59.9413 1.75812 59.6543C1.49465 59.3674 1.36291 58.9838 1.36291 58.5035C1.36291 58.0233 1.49465 57.6397 1.75812 57.3527C2.02159 57.0658 2.38314 56.9221 2.84247 56.9221C3.3018 56.9221 3.63578 57.1232 3.84441 57.5251H5.44149C5.25375 56.9511 4.92209 56.5023 4.44709 56.1784C3.97209 55.8549 3.42948 55.693 2.81868 55.693C2.03058 55.693 1.36378 55.9579 0.818269 56.4877C0.272756 57.0176 0 57.6893 0 58.5035C0 59.3177 0.272756 59.9898 0.818269 60.5196C1.36349 61.0495 2.03029 61.3141 2.81868 61.3141C3.42919 61.3141 3.97209 61.1525 4.44709 60.8286C4.92209 60.5051 5.25346 60.0562 5.44149 59.482L3.84441 59.4823Z" fill="#BAC4DE"/>
<path d="M11.9354 55.6933C11.1447 55.6933 10.4765 55.9582 9.93123 56.4881C9.38572 57.0179 9.11325 57.6896 9.11325 58.5038C9.11325 59.318 9.38601 59.9912 9.93123 60.5237C10.4765 61.0561 11.1433 61.3222 11.9316 61.3222C12.7197 61.3222 13.3851 61.0561 13.928 60.5237C14.4709 59.9912 14.7422 59.318 14.7422 58.5038C14.7422 57.6896 14.472 57.0176 13.9318 56.4881C13.3915 55.9582 12.7261 55.6933 11.9354 55.6933ZM12.9844 59.6546C12.7209 59.9416 12.3683 60.0853 11.9276 60.0853C11.4865 60.0853 11.1343 59.9416 10.8708 59.6546C10.6073 59.3677 10.4756 58.9841 10.4756 58.5038C10.4756 58.0236 10.6073 57.64 10.8708 57.353C11.1343 57.0661 11.4865 56.9224 11.9276 56.9224C12.3686 56.9224 12.7209 57.0661 12.9844 57.353C13.2478 57.6403 13.3796 58.0239 13.3796 58.5038C13.3799 58.9841 13.2478 59.3677 12.9844 59.6546Z" fill="#BAC4DE"/>
<path d="M21.8507 59.5606L20.2692 55.7716H18.7346V61.2674H20.0734V58.1672L21.3495 61.2674H22.3436L23.6198 58.1672V61.2674H24.9586V55.7716H23.4242L21.8507 59.5606Z" fill="#BAC4DE"/>
<path d="M31.4329 55.7716H29.2642V61.2674H30.603V59.13H31.4329C31.8139 59.13 32.1441 59.074 32.4232 58.9617C32.7023 58.8494 32.9124 58.7046 33.0534 58.5273C33.3195 58.1829 33.4527 57.8254 33.4527 57.4549C33.4527 56.9903 33.2751 56.5936 32.9203 56.2649C32.5654 55.9358 32.0698 55.7716 31.4329 55.7716ZM31.9145 57.9322C31.797 58.0523 31.6366 58.1121 31.4332 58.1121H30.6033V56.7889H31.4332C31.6313 56.7889 31.7906 56.8516 31.9108 56.977C32.0309 57.102 32.0907 57.2628 32.0907 57.4583C32.0904 57.6545 32.0318 57.8123 31.9145 57.9322Z" fill="#BAC4DE"/>
<path d="M40.4123 55.7559H38.7839L36.8737 61.2673H38.2985L38.6037 60.3434H40.5766L40.8818 61.2673H42.3144L40.4123 55.7559ZM38.9406 59.3258L39.5903 57.3687L40.24 59.3258H38.9406Z" fill="#BAC4DE"/>
<path d="M49.6817 59.224L47.4428 55.7559H46.1039V61.2673H47.4428V57.7993L49.6817 61.2673H51.0202V55.7559H49.6817V59.224Z" fill="#BAC4DE"/>
<path d="M58.4813 55.7716L57.432 58.2534L56.3752 55.7716H54.8565L56.7588 59.4979V61.2674H58.0974V59.4979L60 55.7716H58.4813Z" fill="#BAC4DE"/>
</svg>
