<svg width="60" height="68" viewBox="0 0 60 68" fill="none" xmlns="http://www.w3.org/2000/svg">
<path d="M4.9889 57.015C4.74128 56.754 4.50153 56.5801 4.26992 56.493C4.03803 56.4059 3.80497 56.3625 3.57016 56.3625C3.22087 56.3625 2.90508 56.4231 2.62279 56.5443C2.3402 56.6655 2.09753 56.8332 1.89448 57.0477C1.69114 57.2621 1.53411 57.5123 1.42312 57.7984C1.31212 58.0845 1.25648 58.3921 1.25648 58.7216C1.25648 59.0759 1.31212 59.4021 1.42312 59.7007C1.53411 59.9991 1.69114 60.2572 1.89448 60.4748C2.09753 60.6924 2.3402 60.8634 2.62279 60.9875C2.90508 61.1119 3.22087 61.174 3.57016 61.174C3.84284 61.174 4.10795 61.1102 4.36519 60.9828C4.62213 60.8555 4.8616 60.6519 5.08388 60.3719L6.07408 61.0621C5.76936 61.4723 5.39792 61.7709 4.96006 61.9573C4.52221 62.1438 4.05551 62.237 3.56055 62.237C3.03996 62.237 2.56248 62.1546 2.12783 61.99C1.69288 61.8254 1.31853 61.5923 1.00448 61.2905C0.690435 60.989 0.44427 60.6272 0.266563 60.2042C0.088856 59.7814 0 59.3121 0 58.7962C0 58.268 0.088856 57.7876 0.266563 57.3556C0.44427 56.9236 0.690143 56.5553 1.00448 56.2506C1.31853 55.9462 1.69317 55.7114 2.12783 55.5465C2.56248 55.3819 3.04025 55.2994 3.56055 55.2994C4.01764 55.2994 4.44122 55.3787 4.8316 55.5372C5.22197 55.6956 5.58524 55.9645 5.92172 56.3438L4.9889 57.015Z" fill="#BAC4DE"/>
<path d="M8.4259 58.7962C8.4259 58.2681 8.51476 57.7877 8.69247 57.3556C8.87017 56.9236 9.11605 56.5554 9.43038 56.2506C9.74443 55.9462 10.1191 55.7114 10.5537 55.5465C10.9884 55.3819 11.4662 55.2995 11.9865 55.2995C12.5132 55.2934 12.9956 55.3694 13.4337 55.5279C13.8716 55.6864 14.2492 55.918 14.5667 56.2227C14.884 56.5274 15.1316 56.8942 15.3093 57.323C15.487 57.7518 15.5758 58.2308 15.5758 58.7589C15.5758 59.2749 15.487 59.7442 15.3093 60.1669C15.1316 60.5896 14.884 60.9535 14.5667 61.2579C14.2492 61.5626 13.8716 61.8003 13.4337 61.9713C12.9956 62.1424 12.5132 62.2309 11.9865 62.237C11.4659 62.237 10.9884 62.1546 10.5537 61.99C10.1188 61.8254 9.74443 61.5923 9.43038 61.2905C9.11605 60.989 8.87017 60.6272 8.69247 60.2042C8.51476 59.7815 8.4259 59.3122 8.4259 58.7962ZM9.68238 58.7216C9.68238 59.0759 9.73802 59.4022 9.84902 59.7008C9.96001 59.9991 10.117 60.2572 10.3204 60.4748C10.5234 60.6924 10.7661 60.8634 11.0487 60.9875C11.331 61.1119 11.6468 61.174 11.9961 61.174C12.3451 61.174 12.6626 61.1119 12.9481 60.9875C13.2336 60.8631 13.478 60.6924 13.6811 60.4748C13.8841 60.2572 14.0412 59.9994 14.1524 59.7008C14.2634 59.4025 14.3191 59.0759 14.3191 58.7216C14.3191 58.3922 14.2634 58.0845 14.1524 57.7984C14.0414 57.5127 13.8841 57.2621 13.6811 57.0477C13.478 56.8333 13.2336 56.6655 12.9481 56.5443C12.6626 56.4231 12.3451 56.3625 11.9961 56.3625C11.6468 56.3625 11.331 56.4231 11.0487 56.5443C10.7661 56.6655 10.5234 56.8333 10.3204 57.0477C10.117 57.2621 9.96001 57.5124 9.84902 57.7984C9.73802 58.0845 9.68238 58.3922 9.68238 58.7216Z" fill="#BAC4DE"/>
<path d="M18.6511 55.4673H20.4791L22.2786 60.0923L24.0971 55.4673H25.9059V62.069H24.7633V56.5863H24.7444L22.6975 62.069H21.8597L19.8126 56.5863H19.7936V62.069H18.6514V55.4673H18.6511Z" fill="#BAC4DE"/>
<path d="M29.3429 55.4673H31.6088C31.9325 55.4673 32.245 55.4985 32.5466 55.5605C32.8481 55.6229 33.1132 55.7268 33.3416 55.8728C33.57 56.019 33.7524 56.2148 33.889 56.4601C34.0253 56.7057 34.0938 57.0119 34.0938 57.3786C34.0938 57.7952 34.0207 58.1309 33.8747 58.3858C33.7285 58.6407 33.5318 58.8379 33.2845 58.978C33.0369 59.1179 32.7496 59.2128 32.4228 59.2623C32.0959 59.3122 31.7548 59.3369 31.3993 59.3369H30.5426V62.069H29.3429V55.4673ZM31.2659 58.3298C31.4372 58.3298 31.6149 58.3237 31.799 58.3112C31.9829 58.299 32.1527 58.2617 32.3083 58.1993C32.4638 58.1373 32.5906 58.044 32.689 57.9196C32.7872 57.7952 32.8364 57.6213 32.8364 57.3973C32.8364 57.1922 32.7919 57.0291 32.703 56.9079C32.6142 56.7867 32.5 56.6935 32.3604 56.6282C32.2206 56.5629 32.0653 56.521 31.8937 56.5023C31.7224 56.4837 31.5572 56.4744 31.3988 56.4744H30.542V58.3301H31.2659V58.3298Z" fill="#BAC4DE"/>
<path d="M38.54 55.4673H39.5777L42.4816 62.069H41.1106L40.4823 60.5584H37.5594L36.95 62.069H35.6075L38.54 55.4673ZM40.0633 59.5513L39.0256 56.8659L37.9687 59.5513H40.0633Z" fill="#BAC4DE"/>
<path d="M45.1376 55.4673H46.7276L49.9934 60.372H50.0123V55.4673H51.212V62.069H49.6886L46.3565 57.0058H46.3375V62.069H45.1379L45.1376 55.4673Z" fill="#BAC4DE"/>
<path d="M56.2676 59.2437L53.7351 55.4673H55.2395L56.8962 58.0968L58.5719 55.4673H60L57.4675 59.2437V62.069H56.2679L56.2676 59.2437Z" fill="#BAC4DE"/>
<path d="M0.863182 64.9344H0.00872803V64.521H2.19307V64.9344H1.33862V67.5793H0.863182V64.9344Z" fill="white"/>
<path d="M6.87172 66.8953H5.68749L5.44773 67.579H4.94666L6.08165 64.521H6.47784L7.61284 67.579H7.1138L6.87172 66.8953ZM6.73683 66.4842L6.28499 65.1482H6.27654L5.8247 66.4842H6.73683Z" fill="white"/>
<path d="M11.9509 65.8949H13.0602V66.5177C13.0544 66.8239 12.9475 67.0806 12.7389 67.2874C12.5292 67.4931 12.2649 67.5985 11.9465 67.6041C11.7009 67.5985 11.4961 67.5397 11.3318 67.4278C11.1649 67.32 11.0434 67.1956 10.9677 67.0543C10.9449 67.0083 10.924 66.964 10.9056 66.9221C10.8884 66.8787 10.8742 66.8242 10.8628 66.7584C10.8412 66.6354 10.8307 66.3989 10.8307 66.0496C10.8307 65.6945 10.8415 65.4567 10.8628 65.3364C10.8855 65.2161 10.9205 65.1191 10.9677 65.0448C11.0434 64.9035 11.1646 64.7777 11.3318 64.6672C11.4961 64.5554 11.7009 64.498 11.9465 64.4954C12.2477 64.4983 12.4933 64.5857 12.6833 64.7576C12.8732 64.9309 12.9929 65.1456 13.0431 65.4014H12.542C12.5035 65.2784 12.4336 65.1736 12.3322 65.0868C12.2265 65.0043 12.098 64.9618 11.9468 64.9589C11.8355 64.9618 11.7397 64.9833 11.6599 65.0238C11.5786 65.0658 11.5127 65.1182 11.4626 65.1811C11.4012 65.247 11.3607 65.3315 11.3406 65.4349C11.3178 65.5438 11.3065 65.7489 11.3065 66.0496C11.3065 66.3502 11.3178 66.5536 11.3406 66.6599C11.3607 66.7662 11.4012 66.8522 11.4626 66.9177C11.5127 66.9806 11.5783 67.0316 11.6599 67.0709C11.7397 67.117 11.8355 67.14 11.9468 67.14C12.1309 67.14 12.283 67.0785 12.403 66.9556C12.523 66.8382 12.5842 66.6838 12.5871 66.4921V66.3327H11.9512V65.8949H11.9509Z" fill="white"/>
<path d="M17.7171 64.521H18.1905V67.1409H19.7112V67.5793H17.7174V64.521H17.7171Z" fill="white"/>
<path d="M23.2266 64.521H23.7V67.579H23.2266V64.521Z" fill="white"/>
<path d="M27.4275 64.521H27.8729L29.2864 66.694H29.2949V64.521H29.768V67.579H29.3205L27.9093 65.406H27.9009V67.579H27.4275V64.521Z" fill="white"/>
<path d="M33.498 64.521H35.4919V64.9594H33.9714V65.8319H35.2693V66.243H33.9714V67.1406H35.4919V67.579H33.498V64.521Z" fill="white"/>
<path d="M41.5778 66.243H40.3421V67.579H39.8687V64.521H40.3421V65.8319H41.5778V64.521H42.0512V67.579H41.5778V66.243Z" fill="white"/>
<path d="M46.7115 64.521H48.7054V64.9594H47.1849V65.8319H48.4828V66.243H47.1849V67.1406H48.7054V67.579H46.7115V64.521Z" fill="white"/>
<path d="M52.2211 64.521H53.4397C53.6995 64.521 53.9116 64.5883 54.0756 64.7223C54.274 64.8747 54.3777 65.0923 54.3862 65.3746C54.3804 65.7897 54.1791 66.0723 53.7823 66.222L54.5062 67.579H53.9431L53.2984 66.2721H52.6945V67.579H52.2211V64.521ZM52.6945 65.8614H53.4097C53.5868 65.8585 53.7196 65.8084 53.8079 65.7105C53.895 65.6196 53.9387 65.5077 53.9387 65.3749C53.9358 65.2155 53.8837 65.1001 53.7823 65.0288C53.7022 64.9658 53.5868 64.9344 53.4353 64.9344H52.6945V65.8614Z" fill="white"/>
<path d="M57.9662 64.521H59.9601V64.9594H58.4396V65.8319H59.7375V66.243H58.4396V67.1406H59.9601V67.579H57.9662V64.521Z" fill="white"/>
<path d="M30.0191 2.85904L8.34698 23.3452V20.7932L30.0191 0.306763V2.85904Z" fill="white"/>
<path d="M30.0191 9.43942L8.34705 29.9255V27.3736L30.0191 6.88715V9.43942Z" fill="white"/>
<path d="M30.0191 16.0199L8.34705 36.506V33.954L30.0191 13.4676V16.0199Z" fill="white"/>
<path d="M30.0191 22.6002L8.34705 43.0864V40.5344L30.0191 20.048V22.6002Z" fill="white"/>
<path d="M30.0191 29.1806L8.34705 49.6668V47.1148L30.0191 26.6284V29.1806Z" fill="white"/>
<path d="M29.9807 2.85904L51.6524 23.3452V20.7932L29.9807 0.306763V2.85904Z" fill="#BAC4DE"/>
<path d="M29.9807 9.43942L51.6524 29.9255V27.3736L29.9807 6.88715V9.43942Z" fill="#BAC4DE"/>
<path d="M29.9807 16.0199L51.6524 36.506V33.954L29.9807 13.4676V16.0199Z" fill="#BAC4DE"/>
<path d="M29.9807 22.6002L51.6524 43.0864V40.5344L29.9807 20.048V22.6002Z" fill="#BAC4DE"/>
<path d="M29.9807 29.1806L51.6524 49.6668V47.1148L29.9807 26.6284V29.1806Z" fill="#BAC4DE"/>
</svg>
