<svg width="60" height="87" viewBox="0 0 60 87" fill="none" xmlns="http://www.w3.org/2000/svg">
<path d="M54.9572 50.009C54.0679 51.5767 53.0166 53.0514 51.8207 54.4062L51.8539 54.4393L50.7442 55.5536C45.7993 60.5284 39.213 63.2699 32.2001 63.2699C25.2157 63.2699 18.648 60.5487 13.7096 55.6103C8.7711 50.6718 6.04992 44.1041 6.04992 37.1196C6.04992 36.605 6.06558 36.0808 6.09691 35.5616C6.10012 35.4907 6.10475 35.4184 6.10974 35.3443L6.11117 35.324C6.11438 35.2767 6.11758 35.2297 6.12078 35.1809L6.12222 35.1574C6.13005 35.0505 6.13965 34.9419 6.14891 34.8333C6.15674 34.745 6.16459 34.6506 6.17421 34.5562C6.1881 34.4177 6.20269 34.2759 6.21801 34.1346C6.22727 34.0527 6.23689 33.9615 6.24935 33.8717C6.26182 33.7571 6.27927 33.6278 6.29672 33.4989C6.30776 33.4266 6.31702 33.3571 6.32806 33.2863C6.34373 33.1684 6.36437 33.0377 6.3861 32.907C6.39714 32.8379 6.4096 32.7606 6.42242 32.6851C6.43346 32.6221 6.44451 32.5562 6.45698 32.4917C6.47087 32.4084 6.4883 32.3123 6.50575 32.2193C6.52142 32.1377 6.53889 32.0477 6.55634 31.9583C6.57699 31.8561 6.59728 31.7535 6.62078 31.6498C6.77036 30.9369 6.95447 30.2207 7.1653 29.5234L7.17172 29.5045C7.19842 29.4134 7.22657 29.3204 7.25649 29.2292C7.27999 29.152 7.30527 29.0718 7.33198 28.9917C7.47977 28.5355 7.64501 28.0743 7.81987 27.6274C7.84338 27.5661 7.86865 27.4999 7.89536 27.4354C7.92207 27.366 7.95057 27.2955 7.98048 27.2228C8.01503 27.1363 8.05457 27.0419 8.09517 26.9457C8.12508 26.8731 8.15962 26.793 8.19452 26.7128L8.21019 26.6765C8.25898 26.5679 8.30635 26.4593 8.35478 26.3506C8.39111 26.2702 8.42743 26.1915 8.46518 26.1113C9.12474 24.6886 9.92424 23.3132 10.8398 22.0226L10.988 21.8178C11.092 21.6747 11.1956 21.5347 11.2996 21.3962C11.3502 21.3317 11.4018 21.2608 11.4556 21.1932C11.5706 21.0454 11.6857 20.899 11.8018 20.7541C11.8694 20.6707 11.9385 20.5842 12.0094 20.5009C12.0724 20.4222 12.1447 20.3388 12.2156 20.2537C12.2847 20.1704 12.357 20.087 12.4296 20.0051C12.5101 19.9122 12.592 19.8178 12.675 19.7249L9.60443 16.6529C4.51 22.2634 1.71155 29.5063 1.71155 37.1204C1.71155 45.2647 4.88289 52.9197 10.6415 58.6783C16.4001 64.4369 24.0548 67.6083 32.1994 67.6083C40.3691 67.6083 48.0429 64.418 53.8048 58.6281C55.4494 56.9771 56.8988 55.1452 58.1218 53.1747L54.9572 50.009Z" fill="#9AA8BE"/>
<path d="M15.9411 53.3784C20.283 57.7207 26.0577 60.1128 32.2002 60.1128C32.3921 60.1128 32.5841 60.1096 32.7778 60.105C32.874 60.1035 32.9669 60.1003 33.0613 60.0971H33.0756C33.2173 60.0907 33.3573 60.0847 33.499 60.0765C33.6122 60.0701 33.7241 60.064 33.8355 60.0562C33.8939 60.0516 33.9427 60.0484 33.9897 60.0451L34.067 60.0387C34.1692 60.0309 34.2746 60.0213 34.3786 60.0102C34.4716 60.0024 34.5578 59.9946 34.6461 59.985C34.7106 59.9785 34.7657 59.9725 34.8192 59.9661L34.9356 59.9533C35.0111 59.944 35.0866 59.9344 35.1639 59.9237C35.447 59.8888 35.7273 59.8482 35.9997 59.8026C36.0767 59.7898 36.1525 59.7759 36.228 59.7631L36.2533 59.7585C36.3146 59.7474 36.373 59.7378 36.4328 59.7271L36.4627 59.7207C36.5414 59.7065 36.6201 59.6908 36.697 59.6751C36.9047 59.6342 37.1062 59.5932 37.3078 59.5476C37.4431 59.5177 37.5785 59.4846 37.7124 59.4515L37.7294 59.4468C37.764 59.439 37.7971 59.4312 37.832 59.4216C37.9328 59.3966 38.0225 59.3728 38.1123 59.3493C38.191 59.3286 38.2647 59.3101 38.3374 59.2894C38.4018 59.272 38.457 59.2563 38.5122 59.2406C38.5656 59.225 38.6084 59.2139 38.649 59.2015L38.6803 59.1922C38.737 59.1765 38.7936 59.1591 38.8502 59.1416C38.9446 59.1131 39.0283 59.0882 39.1098 59.0615C39.1761 59.0409 39.2359 59.0223 39.2971 59.0031C39.4909 58.9401 39.681 58.8756 39.8716 58.808C39.925 58.7891 39.9756 58.7716 40.0244 58.7531L40.0621 58.7406C40.1298 58.7168 40.1896 58.695 40.2477 58.6712C40.342 58.6366 40.4271 58.605 40.5123 58.5704C40.5845 58.5437 40.6458 58.5198 40.7074 58.4949C40.8253 58.4475 40.9307 58.4052 41.0379 58.361L41.3573 58.2242C41.4581 58.1815 41.5557 58.1391 41.6501 58.0953C41.7067 58.07 41.7541 58.048 41.8029 58.0259L41.8485 58.0056C41.9257 57.9692 42.0059 57.9315 42.0846 57.8938C42.5678 57.6641 43.0447 57.4155 43.5059 57.1541C43.5561 57.1256 43.6035 57.0974 43.6505 57.0707C43.7577 57.0095 43.8631 56.9464 43.9685 56.8852L44.4941 56.5608C44.727 56.413 44.9664 56.2538 45.226 56.0761C45.2969 56.0255 45.3691 55.9753 45.44 55.9251L45.4699 55.9044C45.5234 55.8667 45.5768 55.8289 45.6288 55.7897L45.6444 55.7787C45.684 55.7506 45.7231 55.7221 45.7609 55.6936L45.7751 55.6826C45.841 55.6356 45.9073 55.5864 45.9717 55.538C46.0458 55.4828 46.1167 55.4293 46.1857 55.3759C46.2345 55.3382 46.2755 55.3051 46.3179 55.2719L46.3667 55.2342C46.4393 55.1776 46.5116 55.1192 46.5839 55.0611C46.6594 55.0013 46.7317 54.9414 46.8043 54.8816L46.8232 54.8659C46.9618 54.7527 47.0985 54.6362 47.2356 54.5166C47.2766 54.4803 47.3189 54.4439 47.3617 54.408L44.2865 51.3328C40.92 54.2021 36.6518 55.7741 32.2012 55.7741C21.9148 55.7741 13.5468 47.4061 13.5468 37.12C13.5468 32.1075 15.5077 27.4016 19.0676 23.8731C20.7389 22.2174 22.7392 20.8734 24.9002 19.951L21.6392 16.6899C19.5601 17.7679 17.6623 19.1533 15.9924 20.8136C11.617 25.1619 9.20776 30.9518 9.20776 37.12C9.2067 43.2622 11.5992 49.0365 15.9411 53.3784Z" fill="white"/>
<path d="M58.2873 31.3974C58.2873 23.2544 55.1164 15.5994 49.3578 9.84082C43.5991 4.0822 35.9441 0.910889 27.7998 0.910889C19.6302 0.910889 11.9563 4.09932 6.19451 9.89105C4.5499 11.5403 3.10045 13.374 1.8775 15.3445L5.04241 18.5094C5.93167 16.942 6.98476 15.4673 8.17922 14.1122L8.14609 14.0791L9.25578 12.9648C14.2006 7.98825 20.7869 5.24854 27.7998 5.24854C34.7842 5.24854 41.352 7.96973 46.2904 12.9082C51.2292 17.847 53.95 24.4129 53.95 31.3974C53.95 31.9152 53.9344 32.439 53.903 32.9568C53.8998 33.0259 53.8952 33.1 53.8902 33.1741C53.887 33.2261 53.8824 33.2795 53.8792 33.3347L53.8777 33.36C53.8699 33.4686 53.8603 33.5772 53.851 33.6841C53.8432 33.7738 53.8354 33.8696 53.8257 33.9643C53.8115 34.0997 53.7973 34.2428 53.7816 34.3846C53.772 34.4661 53.7627 34.5559 53.7503 34.6474C53.7374 34.7624 53.7203 34.8913 53.7029 35.0202C53.6919 35.0925 53.6822 35.162 53.6715 35.2311C53.6559 35.3507 53.6352 35.4814 53.6131 35.6118C53.6021 35.6809 53.5896 35.7567 53.5768 35.8336C53.5658 35.8981 53.5547 35.9626 53.5423 36.0274C53.5295 36.1107 53.5109 36.2069 53.4935 36.2998C53.4778 36.3814 53.4604 36.4715 53.4415 36.5609C53.4226 36.6617 53.4023 36.7656 53.3785 36.8693C53.2275 37.5822 53.0448 38.3002 52.8339 38.9957C52.804 39.093 52.7755 39.1909 52.7428 39.2899C52.7193 39.3672 52.694 39.4459 52.6673 39.5274C52.5177 39.9868 52.3542 40.4466 52.1794 40.8918C52.1559 40.953 52.1306 41.0175 52.1057 41.0819C52.0772 41.1528 52.049 41.2237 52.0191 41.296C51.9846 41.3825 51.9436 41.4787 51.9041 41.573C51.8742 41.6457 51.8396 41.7258 51.8051 41.8059L51.7894 41.8423C51.7406 41.9509 51.6936 42.0595 51.6445 42.1664C51.6081 42.2468 51.5722 42.327 51.5341 42.4057C50.8745 43.8284 50.0753 45.2055 49.159 46.4944L49.0127 46.6992C48.9073 46.8438 48.8033 46.9841 48.6993 47.1212C48.6491 47.1874 48.597 47.2579 48.5433 47.3256C48.4286 47.4734 48.3136 47.6198 48.1971 47.7647C48.1295 47.848 48.06 47.9346 47.9895 48.0179C47.9297 48.092 47.8634 48.1707 47.7975 48.2494L47.7847 48.2633C47.7124 48.3466 47.6416 48.4317 47.5693 48.5137C47.4891 48.6066 47.4072 48.701 47.3239 48.7939L50.3945 51.8659C55.4892 46.2554 58.2873 39.0128 58.2873 31.3974Z" fill="white"/>
<path d="M35.1005 48.5674L38.3616 51.8285C40.4406 50.7505 42.3385 49.3655 44.0083 47.7049C48.3834 43.3565 50.793 37.5648 50.793 31.397C50.793 25.2559 48.4008 19.4816 44.0586 15.1397C39.7163 10.7977 33.942 8.40527 27.7995 8.40527C27.6075 8.40527 27.4152 8.40847 27.2218 8.4131C27.126 8.41452 27.0313 8.41629 26.9387 8.42092H26.9245C26.7827 8.42733 26.6427 8.43376 26.501 8.44159C26.3878 8.44801 26.2759 8.45442 26.1641 8.4619C26.1057 8.4651 26.0573 8.47007 26.0099 8.47292L25.9312 8.47933C25.8304 8.48716 25.725 8.49678 25.621 8.50604C25.5281 8.5153 25.4415 8.5235 25.3532 8.53276C25.2888 8.53917 25.2335 8.54521 25.1787 8.55162L25.089 8.56125C25.0779 8.56268 25.0683 8.56446 25.059 8.56588C24.9835 8.57372 24.9109 8.58296 24.8358 8.59258C24.5523 8.6289 24.2723 8.66951 23.9999 8.71545C23.9226 8.72792 23.8471 8.74038 23.7716 8.75462L23.7467 8.75925C23.6869 8.76887 23.6303 8.77991 23.5736 8.79059L23.5359 8.79701C23.4604 8.81125 23.3849 8.82551 23.309 8.84118C23.095 8.88213 22.8934 8.92451 22.6922 8.97009C22.5569 9.00001 22.4215 9.03311 22.2876 9.06623L22.2702 9.07086C22.2356 9.07727 22.2025 9.08655 22.168 9.09438C22.0672 9.11967 21.9775 9.14317 21.8877 9.16668C21.8104 9.18733 21.7367 9.20585 21.6626 9.22793C21.5982 9.24538 21.543 9.26104 21.4864 9.27671C21.4329 9.29238 21.392 9.30341 21.351 9.31588L21.3197 9.32551C21.2631 9.34118 21.2064 9.35684 21.1498 9.37572C21.0554 9.40243 20.9721 9.42913 20.8902 9.45584C20.8239 9.47649 20.7641 9.49501 20.7029 9.51424C20.5095 9.57728 20.3186 9.64175 20.1284 9.70942C20.0764 9.72651 20.0291 9.74396 19.9806 9.76141L19.9365 9.77708C19.872 9.80059 19.8154 9.82123 19.7573 9.84331C19.658 9.87964 19.5732 9.9124 19.4881 9.94552C19.4172 9.97223 19.356 9.99751 19.293 10.0224C19.1747 10.068 19.0693 10.1122 18.9625 10.1564L18.643 10.2935C18.5422 10.3358 18.4461 10.3782 18.3503 10.4224C18.2954 10.4477 18.2463 10.4697 18.1975 10.4918L18.1519 10.5121C18.0746 10.5484 17.9945 10.5862 17.9158 10.624C17.4329 10.854 16.9543 11.1022 16.4948 11.3636C16.4428 11.3921 16.3973 11.4185 16.3499 11.447C16.2491 11.505 16.1487 11.5634 16.0493 11.6232L15.717 11.8248C15.6494 11.8672 15.5771 11.9128 15.5062 11.9569C15.2719 12.1047 15.0326 12.2639 14.7762 12.4416C14.7103 12.4872 14.6437 12.5328 14.5792 12.5788L14.5368 12.6087C14.477 12.651 14.4236 12.6888 14.3702 12.7283L14.3481 12.744C14.3118 12.7707 14.2758 12.7974 14.2395 12.8245L14.2256 12.8355C14.1593 12.8829 14.0935 12.9317 14.029 12.9801C13.9549 13.0353 13.8858 13.0887 13.8164 13.1425C13.7658 13.1802 13.7252 13.2134 13.6843 13.2447L13.6337 13.2839C13.5614 13.3405 13.4888 13.3971 13.4165 13.457C13.3346 13.5214 13.2559 13.5877 13.1771 13.6521C13.0372 13.7654 12.9019 13.8818 12.7647 14.0015C12.7224 14.0378 12.6814 14.0741 12.6387 14.1101L15.7139 17.1853C19.0803 14.3163 23.3486 12.7422 27.7991 12.7422C38.0856 12.7422 46.4532 21.1116 46.4532 31.3966C46.4532 36.4109 44.4923 41.1147 40.9324 44.645C39.2618 46.301 37.2615 47.645 35.1005 48.5674Z" fill="#9AA8BE"/>
<path d="M4.32089 84.2252L3.98578 85.2366H4.66243L4.3273 84.2252H4.32089Z" fill="white"/>
<path d="M4.80455 78.5054C4.69095 79.0161 4.47334 79.4039 4.16137 79.6689C3.83979 79.9242 3.45197 80.0567 2.98865 80.0567C2.61008 80.0567 2.26036 79.962 1.92952 79.7729C1.60794 79.5838 1.37146 79.2903 1.22011 78.9029C1.05914 78.515 0.983638 78.0517 0.983638 77.5314C0.983638 77.1247 1.04987 76.7276 1.18235 76.3494C1.31483 75.9708 1.54168 75.6685 1.85401 75.4413C2.17559 75.2237 2.58195 75.1104 3.05525 75.1104C3.47121 75.1104 3.81202 75.2048 4.08588 75.4131C4.3601 75.6119 4.56843 75.9335 4.71017 76.3779L4.72904 76.4253L5.67458 76.2077L5.65571 76.1507C5.47586 75.5645 5.16388 75.1008 4.71943 74.77C4.27498 74.4484 3.7262 74.2878 3.07377 74.2878C2.5061 74.2878 1.97651 74.4106 1.49431 74.666C1.02137 74.931 0.643166 75.3092 0.387821 75.801C0.132476 76.2928 0 76.879 0 77.5318C0 78.1372 0.113603 78.7141 0.340458 79.2341C0.567668 79.7636 0.908143 80.1799 1.35259 80.4542C1.78778 80.738 2.36471 80.8797 3.06451 80.8797C3.73617 80.8797 4.31308 80.6906 4.78566 80.3313C5.2586 79.972 5.58021 79.4328 5.7597 78.7426L5.77856 78.686L4.82342 78.4495L4.80455 78.5054Z" fill="white"/>
<path d="M13.4678 74.7034C12.9856 74.4196 12.4368 74.2778 11.841 74.2778C10.9236 74.2778 10.1668 74.5805 9.58989 75.1764C9.01296 75.7722 8.71985 76.614 8.71985 77.6639C8.71985 78.2216 8.84272 78.7515 9.09806 79.2526C9.34379 79.754 9.7131 80.1511 10.1953 80.4442C10.6775 80.7373 11.2263 80.8794 11.8314 80.8794C12.399 80.8794 12.9286 80.7469 13.4108 80.4823C13.9026 80.227 14.2812 79.8295 14.555 79.3189C14.82 78.8174 14.9525 78.2312 14.9525 77.5881C14.9525 76.9545 14.82 76.3872 14.5739 75.8858C14.3193 75.3843 13.9503 74.9872 13.4678 74.7034ZM13.3638 79.4136C12.9664 79.8392 12.4464 80.0567 11.8314 80.0567C11.2263 80.0567 10.7156 79.8391 10.3089 79.4232C9.91183 78.9976 9.70349 78.4111 9.70349 77.6735C9.70349 76.7561 9.92108 76.0848 10.337 75.697C10.7534 75.3092 11.2637 75.1105 11.841 75.1105C12.2569 75.1105 12.6259 75.2144 12.9571 75.4132C13.2787 75.6119 13.534 75.905 13.7042 76.274C13.8745 76.6429 13.9596 77.0873 13.9596 77.5884C13.9596 78.373 13.7612 78.9877 13.3638 79.4136Z" fill="white"/>
<path d="M23.2189 74.552L21.6961 78.8933C21.5733 79.243 21.4785 79.5176 21.4123 79.7352L21.1569 78.9784L19.6341 74.4954H19.5302V76.8124L20.9393 80.879H21.7809L23.2186 76.8217L23.2189 74.552Z" fill="white"/>
<path d="M19.1897 74.4954H18.2631V80.8794H19.1897V74.4954Z" fill="white"/>
<path d="M24.4768 74.4954H23.5594V80.8794H24.4768V74.4954Z" fill="white"/>
<path d="M28.7425 74.4954H27.787V80.8794H28.7425V74.4954Z" fill="white"/>
<path d="M32.5823 75.4883C32.4406 75.2233 32.27 75.0061 32.0431 74.8644C31.8255 74.713 31.5513 74.609 31.2394 74.5617C31.0125 74.5143 30.6813 74.4954 30.2557 74.4954H29.0826V75.3466H30.3216C30.7002 75.3466 30.9552 75.3654 31.0973 75.4035C31.3052 75.4602 31.4758 75.5738 31.5987 75.7533C31.7312 75.9328 31.7878 76.1411 31.7878 76.3964C31.7878 76.7369 31.6838 77.0015 31.4662 77.191C31.2486 77.3801 30.8704 77.4748 30.3408 77.4748H29.083V78.3356H30.3312C31.2394 78.3356 31.8918 78.1368 32.2419 77.7586C32.6012 77.3801 32.7811 76.9167 32.7811 76.3683C32.7811 76.0464 32.7144 75.7533 32.5823 75.4883Z" fill="white"/>
<path d="M38.5881 74.4954L36.0912 80.8794H37.1034L37.3868 80.1322H37.3776L38.0963 78.1935L38.2476 77.7964L38.7772 76.3872H38.7868C38.9 76.0749 38.9948 75.7536 39.0703 75.4413C39.165 75.744 39.2975 76.1129 39.4581 76.5289L40.1013 78.1935H38.4648L38.1717 78.9787H40.4036L41.1508 80.8798H42.2384L39.5713 74.4958L38.5881 74.4954Z" fill="white"/>
<path d="M46.3435 74.4954H45.4546V80.8794H46.3435V74.4954Z" fill="white"/>
<path d="M49.6726 79.2903L49.6537 79.2618V80.8794H50.5996V74.4954H49.6726V79.2903Z" fill="white"/>
<path d="M46.684 76.5382L49.3133 80.3968V78.7608L46.684 74.9114V76.5382Z" fill="white"/>
<path d="M58.8657 74.4954L57.6079 76.3679C57.3618 76.7369 57.1442 77.087 56.9551 77.3893V77.3801L56.4255 78.1839V80.8794H57.3903V78.1839L59.9911 74.4954H58.8657Z" fill="white"/>
<path d="M56.7564 77.0489L56.3593 76.4153L55.0826 74.4954H53.9099L56.2176 77.8812L56.7564 77.0489Z" fill="white"/>
<path d="M0 84.0636H0.633204V86.0654H0.985768V84.0636H1.61932V83.7505H0V84.0636Z" fill="white"/>
<path d="M4.17669 83.7505L3.33551 86.0654H3.70694L3.88466 85.5476H4.76251L4.94201 86.0654H5.31202L4.4705 83.7505H4.17669ZM3.9858 85.2367L4.32091 84.2253H4.32732L4.66208 85.2367H3.9858Z" fill="white"/>
<path d="M8.20241 85.1223H8.67392V85.2431C8.67178 85.388 8.6262 85.5048 8.53752 85.5939C8.44849 85.6872 8.33595 85.7335 8.19919 85.7335C8.11657 85.7335 8.04571 85.716 7.98659 85.6811C7.92605 85.6516 7.8776 85.6127 7.84056 85.5654C7.79498 85.5155 7.76472 85.4503 7.75012 85.3699C7.73338 85.2894 7.72484 85.1355 7.72484 84.908C7.72484 84.6804 7.73338 84.5255 7.75012 84.4429C7.76508 84.3645 7.79498 84.3004 7.84056 84.2505C7.8776 84.2028 7.92605 84.1633 7.98659 84.1316C8.04571 84.101 8.11657 84.0846 8.19919 84.0825C8.31137 84.0846 8.40645 84.117 8.48516 84.1793C8.5603 84.2452 8.6123 84.3243 8.64079 84.4176H9.01224C8.97521 84.2238 8.88617 84.0614 8.7455 83.93C8.60482 83.7997 8.42284 83.7338 8.19919 83.7313C8.01721 83.7335 7.86515 83.7769 7.74371 83.8617C7.61977 83.9453 7.52967 84.0408 7.47376 84.1476C7.43886 84.2035 7.41286 84.2772 7.39612 84.3684C7.38009 84.4592 7.37225 84.6395 7.37225 84.9083C7.37225 85.1729 7.38045 85.3517 7.39612 85.445C7.40431 85.4949 7.41499 85.5358 7.42781 85.5689C7.4417 85.6006 7.45667 85.6341 7.47376 85.669C7.52967 85.7759 7.61977 85.8702 7.74371 85.9514C7.8655 86.0362 8.01721 86.0807 8.19919 86.085C8.43531 86.0807 8.63083 86.0009 8.78682 85.8453C8.94138 85.689 9.02043 85.4945 9.0247 85.2627V84.7911H8.20241V85.1223Z" fill="white"/>
<path d="M11.7359 83.7505H11.3851V86.0654H12.8631V85.7335H11.7359V83.7505Z" fill="white"/>
<path d="M15.4952 83.7505H15.1444V86.0654H15.4952V83.7505Z" fill="white"/>
<path d="M19.3179 85.3955H19.3115L18.2637 83.7505H17.9336V86.0654H18.2844V84.4208H18.2904L19.3367 86.0654H19.6687V83.7505H19.3179V85.3955Z" fill="white"/>
<path d="M22.1085 86.0654H23.5865V85.7335H22.4593V85.0543H23.4216V84.7427H22.4593V84.0825H23.5865V83.7505H22.1085V86.0654Z" fill="white"/>
<path d="M29.349 85.1223H29.8205V85.2431C29.8184 85.388 29.7728 85.5048 29.6841 85.5939C29.5954 85.6872 29.4826 85.7335 29.3458 85.7335C29.2632 85.7335 29.1923 85.716 29.1332 85.6811C29.073 85.6516 29.0242 85.6127 28.9872 85.5654C28.9416 85.5155 28.9113 85.4503 28.8967 85.3699C28.88 85.2894 28.8714 85.1355 28.8714 84.908C28.8714 84.6804 28.88 84.5255 28.8967 84.4429C28.9117 84.3645 28.9416 84.3004 28.9872 84.2505C29.0242 84.2028 29.073 84.1633 29.1332 84.1316C29.1923 84.101 29.2632 84.0846 29.3458 84.0825C29.458 84.0846 29.5531 84.117 29.6318 84.1793C29.7069 84.2452 29.7589 84.3243 29.7874 84.4176H30.1588C30.1218 84.2238 30.0331 84.0614 29.8921 83.93C29.7514 83.7997 29.5694 83.7338 29.3458 83.7313C29.1638 83.7335 29.0117 83.7769 28.8903 83.8617C28.7664 83.9453 28.6766 84.0408 28.6203 84.1476C28.5854 84.2035 28.5595 84.2772 28.5427 84.3684C28.5271 84.4592 28.5189 84.6395 28.5189 84.9083C28.5189 85.1729 28.5271 85.3517 28.5427 85.445C28.5509 85.4949 28.5616 85.5358 28.5744 85.5689C28.5883 85.6006 28.6033 85.6341 28.6203 85.669C28.6766 85.7759 28.7664 85.8702 28.8903 85.9514C29.0121 86.0362 29.1638 86.0807 29.3458 86.085C29.5819 86.0807 29.7774 86.0009 29.9334 85.8453C30.088 85.689 30.167 85.4945 30.1713 85.2627V84.7911H29.349V85.1223Z" fill="white"/>
<path d="M34.0036 84.1476C33.9499 84.0408 33.8619 83.9453 33.7401 83.8617C33.6172 83.7769 33.4637 83.7338 33.2796 83.7313C33.0976 83.7335 32.9456 83.7769 32.8241 83.8617C32.7002 83.9453 32.6101 84.0408 32.5542 84.1476C32.5193 84.2035 32.4933 84.2772 32.4765 84.3684C32.4605 84.4592 32.4527 84.6395 32.4527 84.9083C32.4527 85.1729 32.4605 85.3517 32.4765 85.445C32.4847 85.4949 32.4954 85.5358 32.5083 85.5689C32.5221 85.6006 32.5371 85.6341 32.5542 85.669C32.6105 85.7759 32.7006 85.8702 32.8241 85.9514C32.9459 86.0362 33.0976 86.0807 33.2796 86.085C33.4637 86.0807 33.6172 86.0362 33.7401 85.9514C33.8615 85.8699 33.9495 85.7759 34.0036 85.669C34.0428 85.6127 34.0699 85.5383 34.0848 85.4454C34.0987 85.3521 34.1055 85.1733 34.1055 84.9087C34.1055 84.6398 34.0987 84.46 34.0848 84.3688C34.0695 84.2773 34.0428 84.2035 34.0036 84.1476ZM33.7305 85.3699C33.7134 85.4503 33.6824 85.5155 33.6368 85.5654C33.6019 85.6127 33.5553 85.6516 33.4972 85.6811C33.436 85.716 33.3633 85.7335 33.2796 85.7335C33.197 85.7335 33.1261 85.716 33.067 85.6811C33.0065 85.6516 32.958 85.6127 32.921 85.5654C32.8754 85.5155 32.8451 85.4503 32.8305 85.3699C32.8138 85.2894 32.8053 85.1355 32.8053 84.908C32.8053 84.6804 32.8138 84.5255 32.8305 84.4429C32.8455 84.3645 32.8754 84.3004 32.921 84.2505C32.958 84.2028 33.0065 84.1633 33.067 84.1316C33.1261 84.101 33.197 84.0846 33.2796 84.0825C33.3633 84.0846 33.4356 84.101 33.4972 84.1316C33.5553 84.1633 33.6019 84.2032 33.6368 84.2505C33.6824 84.3004 33.7134 84.3642 33.7305 84.4429C33.7461 84.5255 33.7543 84.6804 33.7543 84.908C33.7543 85.1355 33.7461 85.2897 33.7305 85.3699Z" fill="white"/>
<path d="M36.4655 86.0654H37.9434V85.7335H36.8163V85.0543H37.7785V84.7427H36.8163V84.0825H37.9434V83.7505H36.4655V86.0654Z" fill="white"/>
<path d="M41.0852 84.7459C40.9752 84.7324 40.8883 84.7202 40.8249 84.7092C40.7106 84.6882 40.6272 84.6501 40.5756 84.5949C40.5236 84.5411 40.498 84.4806 40.498 84.414C40.5001 84.3029 40.5386 84.2192 40.6137 84.1632C40.6856 84.1095 40.7757 84.0824 40.8836 84.0824C41.0923 84.0867 41.2832 84.1462 41.4567 84.2605L41.6518 83.9713C41.4392 83.8178 41.1889 83.738 40.9011 83.7316C40.6618 83.7338 40.4773 83.7964 40.347 83.919C40.2124 84.0429 40.1454 84.2056 40.1454 84.4079C40.1454 84.5764 40.1988 84.7192 40.3057 84.8367C40.4093 84.951 40.5607 85.0244 40.7597 85.0575C40.8708 85.0732 40.973 85.0874 41.066 85.1002C41.269 85.1351 41.3698 85.2391 41.3676 85.4115C41.3634 85.622 41.2109 85.7295 40.9104 85.7338C40.6564 85.7317 40.4374 85.6551 40.2533 85.5037L40.0233 85.7673C40.2697 85.9788 40.5646 86.0849 40.9075 86.0849C41.4378 86.0785 41.7088 85.8542 41.7202 85.4119C41.7202 85.248 41.6689 85.1038 41.5664 84.9802C41.4624 84.8534 41.3021 84.7758 41.0852 84.7459Z" fill="white"/>
<path d="M48.0383 84.7427H47.122V83.7505H46.7712V86.0654H47.122V85.0543H48.0383V86.0654H48.3891V83.7505H48.0383V84.7427Z" fill="white"/>
<path d="M50.829 86.0654H52.3069V85.7335H51.1798V85.0543H52.142V84.7427H51.1798V84.0825H52.3069V83.7505H50.829V86.0654Z" fill="white"/>
<path d="M56.193 84.3969C56.1866 84.1829 56.11 84.0184 55.9629 83.9033C55.8411 83.8015 55.6841 83.7509 55.4914 83.7509H54.5879V86.0658H54.9387V85.0768H55.3863L55.8643 86.0658H56.282L55.7453 85.0383C56.0395 84.9251 56.1887 84.7114 56.193 84.3969ZM54.939 84.7652V84.0636H55.4882C55.6004 84.0636 55.6862 84.0875 55.7453 84.1352C55.8205 84.1889 55.8589 84.2762 55.8611 84.3969C55.8611 84.4974 55.8286 84.5821 55.7642 84.6508C55.6983 84.7249 55.6 84.763 55.4686 84.7652H54.939Z" fill="white"/>
<path d="M58.5217 86.0654H60V85.7335H58.8729V85.0543H59.8348V84.7427H58.8729V84.0825H60V83.7505H58.5217V86.0654Z" fill="white"/>
</svg>
