<svg width="60" height="69" viewBox="0 0 60 69" fill="none" xmlns="http://www.w3.org/2000/svg">
<path d="M0.64384 63.1033C0.82301 63.2525 1.02462 63.3572 1.24865 63.4167C1.47268 63.4763 1.69256 63.5065 1.90939 63.5065C2.16305 63.5065 2.4001 63.4561 2.62053 63.3553C2.84041 63.2545 3.03288 63.1185 3.19737 62.9465C3.36159 62.7748 3.49035 62.5788 3.58367 62.3586C3.67699 62.1385 3.72352 61.905 3.72352 61.6588V61.1662H2.5812V61.558C2.5812 61.7148 2.55878 61.8455 2.51391 61.9499C2.46905 62.0545 2.41311 62.1365 2.34582 62.1963C2.27105 62.2561 2.19074 62.2991 2.10517 62.3251C2.01904 62.3514 1.93901 62.3644 1.86424 62.3644C1.60283 62.3644 1.422 62.2861 1.32119 62.1293C1.22039 61.9726 1.17 61.7784 1.17 61.5469V57.4706C1.17 57.202 1.21651 56.9799 1.30984 56.8043C1.40316 56.629 1.59148 56.5412 1.87533 56.5412C2.09189 56.5412 2.2633 56.6235 2.39041 56.7877C2.51724 56.9519 2.58093 57.146 2.58093 57.3701V57.7508H3.72325V57.3028C3.72325 57.0267 3.67672 56.7708 3.5834 56.5357C3.49007 56.3006 3.3613 56.0973 3.19708 55.9254C2.86117 55.5745 2.42447 55.3989 1.88696 55.3989C1.61059 55.3989 1.35859 55.4457 1.13123 55.5388C0.903321 55.6321 0.707539 55.7611 0.543323 55.9254C0.379106 56.0896 0.252274 56.2837 0.16255 56.5077C0.0731035 56.7318 0.0282288 56.9744 0.0282288 57.2355V61.6253C0.0282288 61.9911 0.0858331 62.2916 0.201865 62.5267C0.317066 62.7618 0.464669 62.954 0.64384 63.1033Z" fill="#9AA8BE"/>
<path d="M9.68076 63.0138C9.85965 63.178 10.0632 63.3013 10.2911 63.3832C10.5187 63.4652 10.7483 63.5065 10.9798 63.5065C11.2113 63.5065 11.4409 63.4655 11.6685 63.3832C11.8962 63.3013 12.1033 63.178 12.2899 63.0138C12.4691 62.8571 12.6148 62.6594 12.7267 62.4201C12.8385 62.1814 12.8948 61.8939 12.8948 61.558V57.3474C12.8948 57.0264 12.8388 56.7426 12.7267 56.4964C12.6148 56.2499 12.4691 56.0447 12.2899 55.8805C12.1033 55.7238 11.8962 55.6044 11.6685 55.5222C11.4406 55.4402 11.211 55.3989 10.9798 55.3989C10.7483 55.3989 10.5187 55.4399 10.2911 55.5222C10.0632 55.6044 9.85993 55.7238 9.68076 55.8805C9.49411 56.0447 9.34485 56.2499 9.2327 56.4964C9.12054 56.7428 9.06461 57.0267 9.06461 57.3474V61.558C9.06461 61.8939 9.12054 62.1814 9.2327 62.4201C9.34485 62.6594 9.49411 62.8568 9.68076 63.0138ZM10.2072 57.3474C10.2072 57.0713 10.2836 56.868 10.4368 56.737C10.5896 56.6066 10.7707 56.5412 10.9798 56.5412C11.1889 56.5412 11.37 56.6066 11.5229 56.737C11.6757 56.8677 11.7524 57.0713 11.7524 57.3474V61.558C11.7524 61.8344 11.676 62.0377 11.5229 62.1684C11.3697 62.2991 11.1886 62.3644 10.9798 62.3644C10.771 62.3644 10.5896 62.2994 10.4368 62.1684C10.2836 62.0379 10.2072 61.8344 10.2072 61.558V57.3474Z" fill="#9AA8BE"/>
<path d="M20.9685 59.6879H20.9463L19.4792 55.4662H18.3817V63.4394H19.5241V58.5905H19.5462L20.6661 62.0171H21.2374L22.3684 58.5905H22.3908V63.4394H23.5331V55.4662H22.4243L20.9685 59.6879Z" fill="#9AA8BE"/>
<path d="M32.279 56.0261C32.0846 55.8173 31.8683 55.6717 31.6293 55.5894C31.3903 55.5074 31.1142 55.4662 30.8007 55.4662H29.0874V63.4394H30.2297V60.3262H30.8121C31.2377 60.3262 31.5808 60.2534 31.8423 60.1077C32.1034 59.9621 32.3125 59.7588 32.4695 59.4974C32.6038 59.2808 32.6916 59.0493 32.7326 58.8031C32.7736 58.5567 32.794 58.2543 32.794 57.8962C32.794 57.4185 32.7567 57.0397 32.6822 56.7597C32.6074 56.4795 32.4731 56.2349 32.279 56.0261ZM31.7021 58.4559C31.6911 58.6201 31.6556 58.7583 31.5958 58.8702C31.536 58.9895 31.4427 59.0828 31.3158 59.1501C31.189 59.2174 31.0095 59.2509 30.7783 59.2509H30.2294V56.5409H30.8229C31.0469 56.5409 31.2186 56.5744 31.338 56.6417C31.4573 56.709 31.5468 56.806 31.6066 56.9328C31.6664 57.0599 31.6999 57.2072 31.7074 57.375C31.7146 57.5431 31.7187 57.7206 31.7187 57.907C31.719 58.1089 31.7132 58.2919 31.7021 58.4559Z" fill="#9AA8BE"/>
<path d="M38.9756 55.4662L37.1952 63.4394H38.3375L38.6735 61.7261H40.23L40.566 63.4394H41.7083L39.9276 55.4662H38.9756ZM38.8748 60.6508L39.4347 57.7616H39.4572L40.0171 60.6508H38.8748Z" fill="#9AA8BE"/>
<path d="M46.7023 63.4394H47.8444V58.6464H47.8668L49.6139 63.4394H50.6889V55.4662H49.5466V60.2703H49.5242L47.7998 55.4662H46.7023V63.4394Z" fill="#9AA8BE"/>
<path d="M57.2623 63.4394H58.4044V60.0687L59.972 55.4662H58.7627L57.8444 58.635H57.8223L56.904 55.4662H55.6944L57.2623 60.0687V63.4394Z" fill="#9AA8BE"/>
<path d="M0.985853 68.7564V66.7545H1.61946V66.4416H0V66.7545H0.633612V68.7564H0.985853Z" fill="#9AA8BE"/>
<path d="M3.70692 68.7564L3.88472 68.2389H4.76257L4.94202 68.7564H5.31199L4.47041 66.4419H4.1766L3.3353 68.7564H3.70692ZM4.32115 66.9163H4.32752L4.66261 67.9276H3.98635L4.32115 66.9163Z" fill="#9AA8BE"/>
<path d="M7.42797 68.2593C7.44182 68.2912 7.45705 68.3244 7.47395 68.3593C7.53016 68.4662 7.62016 68.5604 7.74394 68.642C7.86579 68.7268 8.01754 68.7711 8.19976 68.7752C8.4357 68.7711 8.63149 68.6911 8.7874 68.5354C8.94192 68.379 9.02113 68.1846 9.02528 67.9528V67.4812H8.20309V67.8129H8.67442V67.9334C8.67221 68.0785 8.62678 68.1954 8.53789 68.2843C8.449 68.3773 8.33628 68.4238 8.19976 68.4238C8.11724 68.4238 8.04634 68.4064 7.98708 68.3715C7.92671 68.3419 7.87826 68.3031 7.84088 68.2557C7.79546 68.2059 7.76527 68.1408 7.75031 68.0605C7.73342 67.9802 7.72484 67.8259 7.72484 67.5986C7.72484 67.371 7.73342 67.2159 7.75031 67.1334C7.76499 67.055 7.79546 66.991 7.84088 66.9412C7.87798 66.8935 7.92671 66.8539 7.98708 66.8221C8.04634 66.7914 8.11724 66.7747 8.19976 66.7728C8.31192 66.7747 8.40719 66.8071 8.48556 66.8697C8.56061 66.9354 8.61238 67.0146 8.64118 67.1079H9.01254C8.9757 66.9143 8.88655 66.7518 8.74587 66.6205C8.60519 66.4903 8.42296 66.4242 8.19976 66.4219C8.01782 66.4242 7.86579 66.4674 7.74394 66.5521C7.62016 66.6357 7.53016 66.731 7.47395 66.8379C7.43905 66.8941 7.41302 66.9675 7.39613 67.0586C7.38034 67.1497 7.37231 67.3297 7.37231 67.5983C7.37231 67.8631 7.38034 68.0419 7.39613 68.135C7.40444 68.1854 7.41523 68.2267 7.42797 68.2593Z" fill="#9AA8BE"/>
<path d="M11.3855 66.4416V68.7564H12.8634V68.4246H11.7361V66.4416H11.3855Z" fill="#9AA8BE"/>
<path d="M15.4953 66.4416H15.1445V68.7561H15.4953V66.4416Z" fill="#9AA8BE"/>
<path d="M17.9337 66.4416V68.7564H18.2845V67.1117H18.2909L19.3371 68.7564H19.6689V66.4416H19.318V68.0862H19.3117L18.2641 66.4416H17.9337Z" fill="#9AA8BE"/>
<path d="M23.5866 66.7736V66.4416H22.1086V68.7564H23.5866V68.4246H22.4595V67.7451H23.4215V67.4338H22.4595V66.7736H23.5866Z" fill="#9AA8BE"/>
<path d="M28.6205 66.8384C28.5856 66.8946 28.5596 66.968 28.5427 67.0591C28.5269 67.1502 28.5189 67.3303 28.5189 67.5989C28.5189 67.8636 28.5269 68.0425 28.5427 68.1355C28.551 68.1851 28.5615 68.2267 28.5745 68.2593C28.5881 68.2912 28.6033 68.3244 28.6205 68.3593C28.6767 68.4662 28.7664 68.5604 28.8905 68.642C29.0121 68.7268 29.1641 68.7711 29.3463 68.7752C29.5822 68.7711 29.778 68.6911 29.9337 68.5354C30.0882 68.379 30.1677 68.1846 30.1718 67.9528V67.4812H29.3496V67.8129H29.821V67.9334C29.8188 68.0785 29.7733 68.1954 29.6844 68.2843C29.5955 68.3773 29.4828 68.4238 29.3463 68.4238C29.2638 68.4238 29.1926 68.4064 29.1334 68.3715C29.073 68.3419 29.0245 68.3031 28.9874 68.2557C28.942 68.2059 28.9118 68.1408 28.8969 68.0605C28.8797 67.9802 28.8714 67.8259 28.8714 67.5986C28.8714 67.371 28.8797 67.2159 28.8969 67.1334C28.9115 67.055 28.942 66.991 28.9874 66.9412C29.0245 66.8935 29.0733 66.8539 29.1334 66.8221C29.1926 66.7914 29.2635 66.7747 29.3463 66.7728C29.4585 66.7747 29.5537 66.8071 29.6321 66.8697C29.7072 66.9354 29.7592 67.0146 29.7877 67.1079H30.1591C30.122 66.9143 30.0331 66.7518 29.8924 66.6205C29.7517 66.4903 29.5695 66.4242 29.3463 66.4219C29.1641 66.4242 29.0123 66.4674 28.8905 66.5521C28.7664 66.6366 28.6767 66.7318 28.6205 66.8384Z" fill="#9AA8BE"/>
<path d="M32.5542 66.8384C32.5193 66.8946 32.4933 66.968 32.4764 67.0591C32.4604 67.1502 32.4526 67.3302 32.4526 67.5989C32.4526 67.8636 32.4606 68.0425 32.4764 68.1355C32.4847 68.1851 32.4952 68.2267 32.5083 68.2593C32.5218 68.2912 32.5371 68.3244 32.5542 68.3593C32.6102 68.4662 32.7002 68.5603 32.8242 68.642C32.9461 68.7268 33.0978 68.7711 33.2801 68.7752C33.4642 68.7711 33.6176 68.7265 33.7406 68.642C33.8622 68.5603 33.9499 68.4665 34.0039 68.3593C34.0433 68.3031 34.0701 68.2286 34.0851 68.1355C34.0986 68.0425 34.1056 67.8636 34.1056 67.5989C34.1056 67.33 34.0989 67.15 34.0851 67.0591C34.0701 66.968 34.0433 66.8946 34.0039 66.8384C33.9499 66.7315 33.8622 66.6363 33.7406 66.5526C33.6176 66.4679 33.4642 66.4247 33.2801 66.4225C33.0978 66.4247 32.9461 66.4679 32.8242 66.5526C32.7002 66.6365 32.6102 66.7318 32.5542 66.8384ZM32.8303 67.1339C32.8453 67.0555 32.8755 66.9916 32.9209 66.9417C32.958 66.8941 33.0067 66.8545 33.0668 66.8226C33.1261 66.7919 33.197 66.7753 33.2798 66.7733C33.3634 66.7753 33.4357 66.7919 33.4972 66.8226C33.5553 66.8545 33.6018 66.8941 33.6367 66.9417C33.6822 66.9916 33.7134 67.0555 33.7303 67.1339C33.7464 67.2164 33.7541 67.3715 33.7541 67.5991C33.7541 67.8268 33.7464 67.9807 33.7303 68.061C33.7134 68.1416 33.6822 68.2064 33.6367 68.2563C33.6018 68.3039 33.5553 68.3424 33.4972 68.372C33.4357 68.4069 33.3634 68.4244 33.2798 68.4244C33.197 68.4244 33.1261 68.4069 33.0668 68.372C33.0064 68.3424 32.9577 68.3036 32.9209 68.2563C32.8752 68.2064 32.8453 68.1414 32.8303 68.061C32.8134 67.9807 32.8048 67.8265 32.8048 67.5991C32.8048 67.3715 32.8134 67.2164 32.8303 67.1339Z" fill="#9AA8BE"/>
<path d="M36.4658 68.7564H37.9437V68.4246H36.8166V67.7451H37.7787V67.4338H36.8166V66.7736H37.9437V66.4416H36.4658V68.7564Z" fill="#9AA8BE"/>
<path d="M40.9107 68.4247C40.6568 68.4227 40.4377 68.3457 40.2536 68.1945L40.0234 68.4582C40.2702 68.67 40.5648 68.7755 40.9077 68.7755C41.438 68.7692 41.7088 68.5448 41.7204 68.1023C41.7204 67.9384 41.6692 67.7944 41.5665 67.6703C41.4626 67.5443 41.3023 67.4668 41.0855 67.4369C40.9752 67.4233 40.8886 67.4111 40.8251 67.4003C40.7108 67.3793 40.6277 67.341 40.5759 67.2859C40.5241 67.2319 40.4981 67.1716 40.4981 67.1048C40.5003 66.9938 40.5391 66.9102 40.6141 66.8542C40.6861 66.8002 40.7761 66.7731 40.8841 66.7731C41.0926 66.7772 41.2837 66.8365 41.4571 66.9509L41.6526 66.6618C41.4396 66.5083 41.1896 66.4283 40.9016 66.4219C40.6623 66.4242 40.4776 66.4865 40.3474 66.6091C40.2131 66.7329 40.1458 66.896 40.1458 67.0982C40.1458 67.2663 40.1993 67.4092 40.3062 67.5269C40.41 67.6412 40.5612 67.7146 40.7603 67.7476C40.8714 67.7634 40.9736 67.7778 41.0666 67.7905C41.2699 67.8254 41.3704 67.9292 41.3682 68.1018C41.3638 68.3131 41.2112 68.4202 40.9107 68.4247Z" fill="#9AA8BE"/>
<path d="M46.7716 66.4416V68.7564H47.1224V67.7451H48.0385V68.7564H48.3894V66.4416H48.0385V67.4338H47.1224V66.4416H46.7716Z" fill="#9AA8BE"/>
<path d="M52.3073 68.4246H51.1799V67.7451H52.142V67.4338H51.1799V66.7736H52.3073V66.4416H50.8291V68.7564H52.3073V68.4246Z" fill="#9AA8BE"/>
<path d="M54.9392 67.7672H55.387L55.865 68.7561H56.2826L55.7459 67.729C56.0402 67.6157 56.1892 67.402 56.1934 67.0876C56.187 66.8739 56.1103 66.7094 55.9633 66.5939C55.8417 66.4923 55.6844 66.4416 55.4917 66.4416H54.5883V68.7561H54.9392V67.7672ZM54.9392 66.7545H55.4886C55.6008 66.7545 55.6863 66.7783 55.7459 66.826C55.8209 66.88 55.8597 66.9672 55.8616 67.0879C55.8616 67.1885 55.8292 67.2732 55.7647 67.3421C55.6991 67.4161 55.6005 67.4543 55.4695 67.4565H54.9392V66.7545Z" fill="#9AA8BE"/>
<path d="M60 66.7736V66.4416H58.5221V68.7564H60V68.4246H58.8729V67.7451H59.835V67.4338H58.8729V66.7736H60Z" fill="#9AA8BE"/>
<path d="M39.8512 27.2428V34.994H20.2809C19.7686 34.994 19.2701 34.9469 18.7855 34.8527C18.7163 34.8389 18.647 34.8223 18.5778 34.8084C17.4867 34.5703 16.4815 34.1078 15.6064 33.4709C13.6236 32.0226 12.3304 29.6853 12.3304 27.049V0.220459C16.2627 2.45801 18.7855 6.67836 18.7855 11.3058V24C18.7855 26.5062 20.8209 28.5416 23.3271 28.5416H36.6749C37.91 28.5416 39.0315 28.0459 39.8512 27.2428Z" fill="#9AA8BE"/>
<path d="M47.6688 0.220459V15.1966C46.2786 13.1418 44.1048 11.6409 41.5294 11.1507C41.4269 11.1313 41.3244 11.1119 41.2192 11.0981C41.2912 6.55097 43.7974 2.42478 47.6688 0.220459Z" fill="#9AA8BE"/>
<path d="M47.6688 20.5911V47.4141C43.7392 45.1765 41.2164 40.9562 41.2164 36.3287V23.6345C41.2164 21.1311 39.1783 19.0929 36.6749 19.0929H23.3271C22.092 19.0929 20.9704 19.5886 20.1507 20.3917V12.6406H39.721C40.2334 12.6406 40.7318 12.6876 41.2164 12.7818C44.8857 13.4824 47.6688 16.7169 47.6688 20.5911Z" fill="white"/>
<path d="M18.7827 36.5364C18.7107 41.0835 16.2046 45.2097 12.3304 47.414V32.4324C12.9452 33.3407 13.7205 34.1493 14.6289 34.8112C15.7089 35.6004 16.919 36.1459 18.2206 36.4312L18.2649 36.4422C18.3341 36.4561 18.4033 36.4699 18.4698 36.4838C18.5723 36.5032 18.6775 36.5226 18.7827 36.5364Z" fill="white"/>
</svg>
