<svg width="60" height="63" viewBox="0 0 60 63" fill="none" xmlns="http://www.w3.org/2000/svg">
<path d="M17.0772 13.4809H1.81024L20.0078 33.5185H35.2748L17.0772 13.4809ZM6.29006 15.4638H16.1998L30.795 31.5355H20.8852L6.29006 15.4638Z" fill="white"/>
<path d="M32.4395 0.630554L17.0772 12.7088H1.81024L5.17199 10.0665C12.9459 3.9547 22.5498 0.630554 32.4395 0.630554Z" fill="#9AA8BE"/>
<path d="M39.9928 13.4107H24.7258L42.9233 33.4483H58.1903L39.9928 13.4107ZM29.2056 15.3937H39.1128L53.7105 31.4654H43.8007L29.2056 15.3937Z" fill="white"/>
<path d="M58.1903 34.2204L54.8285 36.8627C50.9428 39.9186 46.5959 42.2776 41.9882 43.8719C37.3805 45.4688 32.5071 46.2986 27.561 46.2986L42.9233 34.2204H58.1903Z" fill="#9AA8BE"/>
<path d="M3.85035 56.1635C3.5623 56.4302 3.16571 56.5959 2.74054 56.5959C1.8323 56.5959 1.09702 55.8679 1.09702 54.9599C1.09702 54.059 1.8323 53.324 2.74054 53.324C3.16571 53.324 3.56205 53.4899 3.85035 53.7637L4.62147 52.9853C4.13137 52.5167 3.4683 52.2287 2.74054 52.2287C1.23415 52.2287 0.0090332 53.4538 0.0090332 54.9602C0.0090332 56.4664 1.2344 57.6917 2.74054 57.6917C3.4683 57.6917 4.13137 57.4034 4.62147 56.9349L3.85035 56.1635Z" fill="white"/>
<path d="M11.8213 52.2285C10.3152 52.2285 9.08978 53.4536 9.08978 54.96C9.08978 56.4661 10.3152 57.6915 11.8213 57.6915C13.3274 57.6915 14.5528 56.4664 14.5528 54.96C14.5526 53.4536 13.3274 52.2285 11.8213 52.2285ZM11.8213 56.6032C10.913 56.6032 10.178 55.868 10.178 54.96C10.178 54.059 10.9133 53.324 11.8213 53.324C12.7223 53.324 13.4573 54.0592 13.4573 54.96C13.4573 55.868 12.7223 56.6032 11.8213 56.6032Z" fill="white"/>
<path d="M22.1554 56.2212L20.5555 52.2285H19.3808V57.6912H20.469V54.96L21.5646 57.6912H22.7393L23.8348 54.96V57.6912H24.923V52.2285H23.7481L22.1554 56.2212Z" fill="white"/>
<path d="M31.2792 52.2285H29.7513V57.6915H30.8395V55.5077H31.2865C32.1875 55.5077 32.9152 54.7727 32.9152 53.8717C32.915 52.9635 32.1872 52.2285 31.2792 52.2285ZM31.2792 54.4122H30.8395V53.324H31.2792C31.5818 53.324 31.827 53.5691 31.827 53.8717C31.827 54.167 31.5818 54.4122 31.2792 54.4122Z" fill="white"/>
<path d="M38.9978 52.2285L37.0231 57.6915H38.1833L38.7383 56.1635H40.4174L40.9724 57.6915H42.1326L40.1579 52.2285H38.9978ZM39.1344 55.068L39.5741 53.8356L40.0208 55.068H39.1344Z" fill="white"/>
<path d="M51.3645 52.2285H50.2762V55.8752L48.0925 52.2285H46.8167V57.6912H47.9049V54.0517L50.096 57.6912H51.3645V52.2285Z" fill="white"/>
<path d="M58.5638 57.6912V55.0898L59.991 52.2285H58.7729L58.0233 53.7419L57.2667 52.2285H56.0486L57.4758 55.0898V57.6912H58.5638Z" fill="white"/>
<path d="M0 60.3443H0.633242V62.3463H0.985711V60.3443H1.61945V60.0314H0V60.3443Z" fill="white"/>
<path d="M4.17676 60.0314L3.33545 62.346H3.70697L3.88471 61.8284H4.76262L4.94212 62.346H5.31214L4.47057 60.0314H4.17676ZM3.98599 61.5175L4.32091 60.5062H4.32743L4.66235 61.5175H3.98599Z" fill="white"/>
<path d="M8.20254 61.4032H8.67409V61.524C8.67183 61.6689 8.62646 61.786 8.53746 61.8747C8.44847 61.968 8.33591 62.0143 8.19929 62.0143C8.11656 62.0143 8.04586 61.997 7.98645 61.962C7.92603 61.9324 7.8774 61.8938 7.8403 61.8461C7.79492 61.7965 7.76459 61.7313 7.7498 61.6508C7.733 61.5704 7.72448 61.4165 7.72448 61.1888C7.72448 60.9612 7.733 60.8063 7.7498 60.7238C7.76459 60.6453 7.79492 60.5814 7.8403 60.5315C7.8774 60.4839 7.92603 60.4443 7.98645 60.4124C8.04561 60.3816 8.11656 60.3653 8.19929 60.3633C8.31159 60.3653 8.40686 60.3976 8.48507 60.4601C8.56003 60.5257 8.61192 60.605 8.64075 60.6982H9.01227C8.97517 60.5047 8.88642 60.3422 8.74554 60.2109C8.60465 60.0808 8.42265 60.0146 8.19929 60.0123C8.01728 60.0146 7.86537 60.058 7.74378 60.1424C7.61994 60.2259 7.52995 60.3212 7.47379 60.4282C7.43894 60.4844 7.41287 60.5581 7.39608 60.6488C7.38028 60.7398 7.37201 60.9198 7.37201 61.1886C7.37201 61.4533 7.38003 61.632 7.39608 61.7253C7.40435 61.7749 7.41513 61.8163 7.42791 61.8491C7.4417 61.881 7.45699 61.9143 7.47379 61.9492C7.52995 62.056 7.61994 62.1502 7.74378 62.2317C7.86537 62.3164 8.01728 62.3608 8.19929 62.3651C8.43518 62.3608 8.63122 62.2808 8.78665 62.1254C8.94108 61.9687 9.02054 61.7747 9.0248 61.5428V61.0712H8.20254V61.4032Z" fill="white"/>
<path d="M11.736 60.0314H11.3853V62.3463H12.8631V62.0144H11.736V60.0314Z" fill="white"/>
<path d="M15.4954 60.0314H15.1444V62.346H15.4954V60.0314Z" fill="white"/>
<path d="M19.3182 61.6762H19.3116L18.264 60.0314H17.9336V62.3463H18.2846V60.7015H18.2908L19.337 62.3463H19.6689V60.0314H19.3182V61.6762Z" fill="white"/>
<path d="M22.1086 62.3463H23.5866V62.0144H22.4595V61.335H23.4217V61.0236H22.4595V60.3633H23.5866V60.0314H22.1086V62.3463Z" fill="white"/>
<path d="M29.3492 61.4032H29.8205V61.524C29.8185 61.6689 29.7729 61.786 29.6839 61.8747C29.5951 61.968 29.4823 62.0143 29.3457 62.0143C29.263 62.0143 29.1923 61.997 29.1331 61.962C29.0727 61.9324 29.0241 61.8938 28.987 61.8461C28.9413 61.7965 28.9113 61.7313 28.8965 61.6508C28.8794 61.5704 28.8709 61.4165 28.8709 61.1888C28.8709 60.9612 28.8794 60.8063 28.8965 60.7238C28.9113 60.6453 28.9413 60.5814 28.987 60.5315C29.0241 60.4839 29.0727 60.4443 29.1331 60.4124C29.1923 60.3816 29.263 60.3653 29.3457 60.3633C29.458 60.3653 29.5533 60.3976 29.6315 60.4601C29.7067 60.5257 29.7586 60.605 29.7872 60.6982H30.1587C30.1218 60.5047 30.0328 60.3422 29.892 60.2109C29.7513 60.0808 29.5691 60.0146 29.3457 60.0123C29.1637 60.0146 29.012 60.058 28.8902 60.1424C28.7664 60.2259 28.6764 60.3212 28.6202 60.4282C28.5854 60.4844 28.5593 60.5581 28.5425 60.6488C28.5264 60.7398 28.5187 60.9198 28.5187 61.1886C28.5187 61.4533 28.5267 61.632 28.5425 61.7253C28.5508 61.7749 28.5615 61.8163 28.5741 61.8491C28.5879 61.881 28.6032 61.9143 28.6202 61.9492C28.6764 62.056 28.7664 62.1502 28.8902 62.2317C29.012 62.3164 29.1637 62.3608 29.3457 62.3651C29.5818 62.3608 29.7776 62.2808 29.9333 62.1254C30.0877 61.9687 30.1672 61.7747 30.1712 61.5428V61.0712H29.349V61.4032H29.3492Z" fill="white"/>
<path d="M34.0038 60.4282C33.9499 60.3214 33.8619 60.2262 33.7403 60.1424C33.6175 60.0577 33.4641 60.0143 33.2798 60.0123C33.0978 60.0146 32.9459 60.058 32.824 60.1424C32.7002 60.2259 32.6105 60.3212 32.5541 60.4282C32.5192 60.4844 32.4931 60.5581 32.4763 60.6488C32.4605 60.7398 32.4523 60.9198 32.4523 61.1886C32.4523 61.4533 32.4603 61.632 32.4763 61.7253C32.4846 61.7749 32.4951 61.8163 32.5082 61.8491C32.522 61.881 32.5373 61.9143 32.5541 61.9492C32.6102 62.056 32.7002 62.1502 32.824 62.2317C32.9459 62.3164 33.0978 62.3608 33.2798 62.3651C33.4641 62.3608 33.6175 62.3164 33.7403 62.2317C33.8619 62.1502 33.9499 62.056 34.0038 61.9492C34.0429 61.893 34.07 61.8185 34.0848 61.7253C34.0986 61.632 34.1053 61.4533 34.1053 61.1886C34.1053 60.9198 34.0986 60.7398 34.0848 60.6488C34.0697 60.5581 34.0429 60.4846 34.0038 60.4282ZM33.7308 61.6508C33.7137 61.7313 33.6827 61.7965 33.637 61.8461C33.6022 61.8938 33.5556 61.9324 33.4974 61.962C33.436 61.997 33.3635 62.0143 33.2798 62.0143C33.1971 62.0143 33.1264 61.997 33.067 61.962C33.0065 61.9324 32.9579 61.8938 32.9208 61.8461C32.8754 61.7965 32.8451 61.7313 32.8303 61.6508C32.8135 61.5704 32.8047 61.4165 32.8047 61.1888C32.8047 60.9612 32.8133 60.8063 32.8303 60.7238C32.8451 60.6453 32.8754 60.5814 32.9208 60.5315C32.9579 60.4839 33.0065 60.4443 33.067 60.4124C33.1261 60.3816 33.1971 60.3653 33.2798 60.3633C33.3633 60.3653 33.436 60.3818 33.4974 60.4124C33.5556 60.444 33.6022 60.4839 33.637 60.5315C33.6827 60.5814 33.7137 60.6453 33.7308 60.7238C33.7466 60.8063 33.7546 60.9615 33.7546 61.1888C33.7544 61.4165 33.7466 61.5704 33.7308 61.6508Z" fill="white"/>
<path d="M36.4658 62.3463H37.9436V62.0144H36.8165V61.335H37.7787V61.0236H36.8165V60.3633H37.9436V60.0314H36.4658V62.3463Z" fill="white"/>
<path d="M41.0855 61.0269C40.9754 61.0131 40.8887 61.0008 40.8253 60.9903C40.7109 60.9693 40.6277 60.9312 40.5758 60.876C40.5242 60.8221 40.4981 60.7617 40.4981 60.695C40.5001 60.584 40.539 60.5002 40.6139 60.4443C40.6859 60.3904 40.7759 60.3633 40.8839 60.3633C41.0925 60.3676 41.2835 60.4268 41.457 60.5411L41.6523 60.2523C41.4395 60.0989 41.1893 60.0189 40.9012 60.0126C40.6621 60.0149 40.4773 60.0773 40.3472 60.1999C40.2128 60.3237 40.1456 60.4867 40.1456 60.6887C40.1456 60.8569 40.199 61.0001 40.3061 61.1174C40.4096 61.2317 40.5613 61.3054 40.7601 61.338C40.8711 61.3538 40.9734 61.3681 41.0667 61.3809C41.27 61.416 41.3703 61.5195 41.3683 61.692C41.364 61.9026 41.2118 62.0101 40.911 62.0144C40.6571 62.0124 40.4379 61.9357 40.2537 61.7843L40.0236 62.0477C40.2702 62.2593 40.565 62.3654 40.908 62.3654C41.4382 62.3591 41.7092 62.1347 41.7207 61.6923C41.7207 61.5283 41.6693 61.3841 41.5668 61.2606C41.4628 61.1345 41.3023 61.0565 41.0855 61.0269Z" fill="white"/>
<path d="M48.0386 61.0236H47.1223V60.0314H46.7716V62.3463H47.1223V61.335H48.0386V62.3463H48.3893V60.0314H48.0386V61.0236Z" fill="white"/>
<path d="M50.8293 62.3463H52.3073V62.0144H51.18V61.335H52.1421V61.0236H51.18V60.3633H52.3073V60.0314H50.8293V62.3463Z" fill="white"/>
<path d="M56.1933 60.6777C56.187 60.4639 56.1101 60.2994 55.9632 60.1838C55.8413 60.0823 55.6844 60.0314 55.4916 60.0314H54.5881V62.346H54.9388V61.3571H55.3866L55.8644 62.346H56.282L55.7453 61.3187C56.0399 61.2056 56.1893 60.9921 56.1933 60.6777ZM54.9391 61.046V60.3443H55.4884C55.6004 60.3443 55.6861 60.3681 55.7456 60.4157C55.8205 60.4696 55.8594 60.5569 55.8614 60.6777C55.8614 60.7782 55.829 60.863 55.7646 60.9317C55.6989 61.0056 55.6004 61.0437 55.4693 61.046H54.9391Z" fill="white"/>
<path d="M58.5219 62.3463H60V62.0144H58.8729V61.335H59.835V61.0236H58.8729V60.3633H60V60.0314H58.5219V62.3463Z" fill="white"/>
</svg>
