<svg width="60" height="63" viewBox="0 0 60 63" fill="none" xmlns="http://www.w3.org/2000/svg">
<path d="M2.74088 58.1912C3.46879 58.1912 4.13191 57.9029 4.6219 57.4344L3.85071 56.6632C3.56243 56.93 3.16609 57.0958 2.74088 57.0958C1.83277 57.0958 1.09752 56.3679 1.09752 55.4597C1.09752 54.559 1.83277 53.8237 2.74088 53.8237C3.16609 53.8237 3.56243 53.9895 3.85071 54.2634L4.6219 53.4851C4.13191 53.0166 3.46879 52.7283 2.74088 52.7283C1.23471 52.7283 0.00946049 53.9536 0.00946049 55.4597C0.00919818 56.9659 1.23444 58.1912 2.74088 58.1912Z" fill="white"/>
<path d="M14.5526 55.4597C14.5526 53.9536 13.3274 52.7283 11.8212 52.7283C10.315 52.7283 9.08978 53.9536 9.08978 55.4597C9.08978 56.9662 10.315 58.1912 11.8212 58.1912C13.3274 58.1912 14.5526 56.9659 14.5526 55.4597ZM11.8212 57.1029C10.9131 57.1029 10.1778 56.3676 10.1778 55.4595C10.1778 54.5587 10.9131 53.8235 11.8212 53.8235C12.7222 53.8235 13.4572 54.5587 13.4572 55.4595C13.4572 56.3676 12.7222 57.1029 11.8212 57.1029Z" fill="white"/>
<path d="M24.923 58.1911V52.728H23.7481L22.1557 56.7209L20.5556 52.728H19.381V58.1911H20.469V55.4597L21.5647 58.1911H22.7393L23.835 55.4597V58.1911H24.923Z" fill="white"/>
<path d="M30.8394 56.0074H31.2864C32.1871 56.0074 32.9151 55.2722 32.9151 54.3714C32.9151 53.4633 32.1871 52.728 31.2793 52.728H29.7513V58.1909H30.8394V56.0074ZM30.8394 53.8237H31.2793C31.5817 53.8237 31.827 54.0687 31.827 54.3714C31.827 54.6668 31.5817 54.9118 31.2793 54.9118H30.8394V53.8237Z" fill="white"/>
<path d="M40.1576 52.728H38.9975L37.0228 58.1909H38.183L38.738 56.6629H40.4171L40.9721 58.1909H42.1323L40.1576 52.728ZM39.1344 55.5678L39.574 54.3355L40.021 55.5678H39.1344Z" fill="white"/>
<path d="M51.3643 58.1911V52.728H50.2762V56.3749L48.0922 52.728H46.8166V58.1911H47.9049V54.5516L50.096 58.1911H51.3643Z" fill="white"/>
<path d="M57.2665 52.728H56.0486L57.4755 55.5893V58.1911H58.5639V55.5893L59.9908 52.728H58.7727L58.0232 54.2416L57.2665 52.728Z" fill="white"/>
<path d="M0.633476 62.8461H0.986018V60.8439H1.61949V60.5312H0V60.8439H0.633476V62.8461Z" fill="white"/>
<path d="M4.17673 60.5312L3.33551 62.8461H3.70694L3.88479 62.3285H4.76273L4.94215 62.8461H5.31227L4.47078 60.5312H4.17673ZM3.98604 62.0172L4.32101 61.006H4.3273L4.66227 62.0172H3.98604Z" fill="white"/>
<path d="M7.84041 61.0314C7.87766 60.9837 7.92619 60.944 7.98652 60.9123C8.0458 60.8816 8.11662 60.8651 8.19925 60.863C8.31152 60.8651 8.40674 60.8974 8.48517 60.9598C8.56019 61.0254 8.61213 61.1049 8.64072 61.198H9.01215C8.97516 61.0044 8.88624 60.8418 8.74538 60.7106C8.60452 60.5802 8.42274 60.5141 8.19925 60.512C8.01721 60.5141 7.86533 60.5577 7.74362 60.6424C7.61981 60.7261 7.52984 60.8213 7.47371 60.928C7.43882 60.9842 7.41285 61.0576 7.39606 61.1486C7.38006 61.2397 7.37219 61.4196 7.37219 61.6885C7.37219 61.9532 7.38006 62.132 7.39606 62.2252C7.40446 62.275 7.41521 62.3162 7.4278 62.349C7.44171 62.3807 7.45692 62.414 7.47371 62.4489C7.52984 62.5559 7.61981 62.6501 7.74362 62.7314C7.86533 62.8161 8.01721 62.8605 8.19925 62.8647C8.43533 62.8605 8.63101 62.7805 8.78683 62.6249C8.94133 62.4683 9.0208 62.2742 9.02474 62.0423V61.571H8.2024V61.9028H8.67377V62.0235C8.67167 62.1685 8.62603 62.2855 8.53737 62.3742C8.44845 62.4673 8.33565 62.514 8.19925 62.514C8.11662 62.514 8.0458 62.4964 7.98652 62.4615C7.92619 62.4319 7.8774 62.3933 7.84041 62.3456C7.79504 62.2957 7.76487 62.2307 7.74992 62.1501C7.73313 62.0696 7.72447 61.9159 7.72447 61.6882C7.72447 61.4608 7.73313 61.3058 7.74992 61.2231C7.76487 61.145 7.79504 61.081 7.84041 61.0314Z" fill="white"/>
<path d="M11.3855 60.5312V62.8461H12.8634V62.5142H11.7362V60.5312H11.3855Z" fill="white"/>
<path d="M15.4954 60.5312H15.1447V62.8461H15.4954V60.5312Z" fill="white"/>
<path d="M19.318 62.1759H19.3117L18.2638 60.5312H17.9335V62.8461H18.2845V61.2011H18.2908L19.3369 62.8461H19.669V60.5312H19.318V62.1759Z" fill="white"/>
<path d="M23.5868 60.863V60.5312H22.1087V62.8461H23.5868V62.5142H22.4594V61.8346H23.4216V61.5235H22.4594V60.863H23.5868Z" fill="white"/>
<path d="M28.8902 60.6424C28.7664 60.7261 28.6764 60.8213 28.6203 60.9281C28.5854 60.9842 28.5594 61.0576 28.5426 61.1487C28.5266 61.2397 28.5187 61.4196 28.5187 61.6885C28.5187 61.9532 28.5266 62.1321 28.5426 62.2252C28.551 62.275 28.5618 62.3162 28.5743 62.349C28.5883 62.3807 28.6035 62.414 28.6203 62.4489C28.6764 62.556 28.7664 62.6501 28.8902 62.7314C29.0119 62.8162 29.1638 62.8605 29.3458 62.8647C29.5819 62.8605 29.7776 62.7805 29.9334 62.6249C30.0879 62.4683 30.1673 62.2742 30.1713 62.0424V61.571H29.3489V61.9028H29.8203V62.0235C29.8182 62.1685 29.7726 62.2855 29.6839 62.3742C29.595 62.4673 29.4822 62.514 29.3455 62.514C29.2629 62.514 29.1921 62.4964 29.1328 62.4615C29.0725 62.4319 29.0237 62.3933 28.9867 62.3456C28.9413 62.2957 28.9112 62.2307 28.8962 62.1502C28.8794 62.0696 28.8708 61.9159 28.8708 61.6882C28.8708 61.4608 28.8794 61.3058 28.8962 61.2232C28.9112 61.1447 28.9411 61.0807 28.9867 61.0311C29.0239 60.9834 29.0725 60.9438 29.1328 60.9121C29.1921 60.8814 29.2629 60.8649 29.3455 60.8628C29.4578 60.8649 29.553 60.8971 29.6315 60.9595C29.7065 61.0251 29.7584 61.1046 29.787 61.1977H30.1584C30.1214 61.0041 30.0325 60.8415 29.8917 60.7104C29.7508 60.58 29.569 60.5139 29.3455 60.5118C29.164 60.5144 29.0121 60.5577 28.8902 60.6424Z" fill="white"/>
<path d="M34.0036 62.4489C34.0427 62.3928 34.0697 62.3183 34.0847 62.2249C34.0983 62.1318 34.1051 61.9529 34.1051 61.6882C34.1051 61.4194 34.0983 61.2397 34.0847 61.1484C34.0697 61.0574 34.0427 60.9837 34.0036 60.9278C33.9496 60.8208 33.862 60.7256 33.7403 60.6421C33.6175 60.5574 33.4641 60.5141 33.2799 60.5118C33.0979 60.5139 32.946 60.5574 32.8243 60.6421C32.7005 60.7258 32.6105 60.821 32.5544 60.9278C32.5195 60.9839 32.4935 61.0574 32.4767 61.1484C32.461 61.2394 32.4529 61.4194 32.4529 61.6882C32.4529 61.9529 32.4607 62.1318 32.4767 62.2249C32.4851 62.2748 32.4956 62.3159 32.5085 62.3487C32.5221 62.3805 32.5376 62.4138 32.5544 62.4487C32.6105 62.5557 32.7005 62.6499 32.8243 62.7312C32.946 62.8159 33.0981 62.8602 33.2799 62.8644C33.4641 62.8602 33.6175 62.8156 33.7403 62.7312C33.862 62.6501 33.9498 62.556 34.0036 62.4489ZM33.6369 62.3458C33.602 62.3936 33.5553 62.4321 33.4971 62.4618C33.4357 62.4967 33.3631 62.5142 33.2796 62.5142C33.197 62.5142 33.1262 62.4967 33.0669 62.4618C33.0066 62.4321 32.9581 62.3936 32.9208 62.3458C32.8754 62.296 32.845 62.231 32.8303 62.1504C32.8133 62.0699 32.8049 61.9162 32.8049 61.6885C32.8049 61.4611 32.8133 61.3061 32.8303 61.2234C32.845 61.145 32.8752 61.081 32.9208 61.0314C32.9581 60.9837 33.0066 60.9441 33.0669 60.9123C33.1262 60.8816 33.197 60.8651 33.2796 60.863C33.3631 60.8651 33.4357 60.8814 33.4971 60.9123C33.5553 60.9441 33.602 60.9837 33.6369 61.0314C33.6823 61.0813 33.7138 61.1453 33.7306 61.2234C33.7466 61.3058 33.7544 61.4611 33.7544 61.6885C33.7544 61.9162 33.7466 62.0702 33.7306 62.1504C33.7138 62.231 33.6823 62.296 33.6369 62.3458Z" fill="white"/>
<path d="M37.9438 60.863V60.5312H36.4657V62.8461H37.9438V62.5142H36.8166V61.8346H37.7785V61.5235H36.8166V60.863H37.9438Z" fill="white"/>
<path d="M40.9107 62.5142C40.6568 62.5121 40.4378 62.4353 40.2534 62.2839L40.0233 62.5473C40.2699 62.759 40.5645 62.8649 40.9076 62.8649C41.4377 62.8586 41.7087 62.6344 41.7205 62.1919C41.7205 62.0279 41.6693 61.8839 41.5665 61.7601C41.4626 61.6342 41.3024 61.5563 41.0854 61.5266C40.9753 61.513 40.8887 61.5007 40.825 61.4902C40.7106 61.4689 40.6274 61.4309 40.5758 61.3758C40.5238 61.3218 40.4979 61.2614 40.4979 61.1948C40.5 61.0839 40.5388 61.0002 40.6138 60.9441C40.6857 60.89 40.7759 60.863 40.8837 60.863C41.0923 60.8672 41.2832 60.9265 41.4569 61.0409L41.6523 60.7518C41.4395 60.5983 41.1893 60.5183 40.9013 60.512C40.6621 60.5141 40.4774 60.5766 40.3473 60.6993C40.213 60.8231 40.1456 60.986 40.1456 61.1883C40.1456 61.3567 40.1991 61.4994 40.3059 61.6169C40.4097 61.7312 40.5608 61.8047 40.7599 61.8375C40.8711 61.8532 40.9732 61.8676 41.0665 61.8805C41.2696 61.9154 41.3703 62.0193 41.3679 62.1919C41.3637 62.4025 41.2113 62.5098 40.9107 62.5142Z" fill="white"/>
<path d="M48.3892 62.8461V60.5312H48.0385V61.5235H47.1222V60.5312H46.7715V62.8461H47.1222V61.8346H48.0385V62.8461H48.3892Z" fill="white"/>
<path d="M52.307 60.863V60.5312H50.8292V62.8461H52.307V62.5142H51.1799V61.8346H52.142V61.5235H51.1799V60.863H52.307Z" fill="white"/>
<path d="M54.939 61.8569H55.3868L55.8647 62.8461H56.2823L55.7456 61.8189C56.0399 61.7056 56.1892 61.4918 56.1934 61.1776C56.1871 60.9638 56.1105 60.7993 55.963 60.6839C55.8413 60.5824 55.6842 60.5315 55.4917 60.5315H54.5883V62.8464H54.939V61.8569ZM54.939 60.8439H55.4883C55.6005 60.8439 55.6861 60.8678 55.7453 60.9153C55.8204 60.9693 55.8592 61.0566 55.8613 61.1773C55.8613 61.2778 55.829 61.3625 55.7645 61.4312C55.6989 61.5054 55.6003 61.5435 55.4691 61.5456H54.9387V60.8439H54.939Z" fill="white"/>
<path d="M60 60.863V60.5312H58.5219V62.8461H60V62.5142H58.8729V61.8346H59.8348V61.5235H58.8729V60.863H60Z" fill="white"/>
<path d="M44.2507 5.17904L44.2568 5.18376L44.2505 5.17852C44.2132 5.14704 44.1744 5.11661 44.1364 5.08671L44.1358 5.08618L44.1361 5.08645C44.1739 5.11687 44.213 5.1473 44.2507 5.17904Z" fill="white"/>
<path d="M43.7439 4.77956L43.7476 4.78192L43.75 4.78427C43.8777 4.88159 44.0057 4.98153 44.1277 5.08016L44.1301 5.08121L44.1282 5.0799C44.0057 4.98153 43.8785 4.88186 43.7508 4.78402L43.7476 4.78139L43.7442 4.77876C43.7106 4.75253 43.6757 4.72631 43.6411 4.70007L43.5989 4.66833L43.6406 4.70007C43.6757 4.72709 43.7098 4.7528 43.7439 4.77956Z" fill="white"/>
<path d="M43.5559 4.63631C43.5538 4.63473 43.5519 4.63342 43.5498 4.63185L43.5535 4.63447L43.5485 4.6308L43.5501 4.63211C43.5522 4.63342 43.554 4.63473 43.5559 4.63631Z" fill="white"/>
<path d="M43.5409 4.62507L43.5349 4.62088L43.463 4.56763L43.5346 4.62114L43.5409 4.62507Z" fill="white"/>
<path d="M43.2532 4.41415C43.2718 4.42727 43.2901 4.44065 43.3088 4.45403C43.2904 4.44091 43.2723 4.42753 43.2537 4.41415L43.2138 4.38556L43.2143 4.38609L43.2532 4.41415Z" fill="white"/>
<path d="M43.2093 4.3824L43.2067 4.38056C43.1684 4.35302 43.1301 4.32548 43.0916 4.29846C43.1298 4.32548 43.1684 4.3525 43.2067 4.38109L43.2093 4.3824Z" fill="white"/>
<path d="M42.7574 4.06503L42.7537 4.06267C42.7112 4.03356 42.6687 4.00444 42.6257 3.97559C42.6687 4.00444 42.7112 4.03355 42.7535 4.06293L42.7574 4.06503Z" fill="white"/>
<path d="M33.724 0.435742H33.7264L33.7245 0.435478C33.6335 0.420002 33.5425 0.405569 33.4515 0.391667C33.409 0.385109 33.367 0.379342 33.3245 0.373047C33.367 0.379342 33.409 0.385373 33.4509 0.391931C33.5425 0.405308 33.6338 0.420004 33.724 0.435742Z" fill="white"/>
<path d="M39.5879 2.2556L39.591 2.25638L39.5884 2.25507C39.3584 2.14726 39.148 2.05283 38.945 1.96653L38.9392 1.96417L38.9447 1.96679C39.148 2.05335 39.3589 2.14726 39.5879 2.2556Z" fill="white"/>
<path d="M42.1982 3.69543C42.2441 3.72455 42.2902 3.75472 42.3361 3.78462C42.2902 3.75446 42.2441 3.72455 42.1982 3.69543L42.1911 3.69071L42.19 3.69019L42.1906 3.69045L42.1982 3.69543Z" fill="white"/>
<path d="M36.8623 1.18906C36.8077 1.17148 36.7529 1.15365 36.6978 1.13686C36.6409 1.11955 36.5845 1.1025 36.5281 1.08545C36.5845 1.1025 36.6411 1.11981 36.6975 1.13739C36.7523 1.15417 36.8072 1.17122 36.8623 1.18906Z" fill="white"/>
<path d="M36.0058 0.935971C35.9806 0.929151 35.9557 0.922066 35.9308 0.915246L35.9156 0.911316L35.9311 0.915775C35.956 0.922332 35.9809 0.929151 36.0058 0.935971Z" fill="white"/>
<path d="M36.0602 0.943503L36.0595 0.94574L36.062 0.946583L36.0627 0.944346L36.0602 0.943503Z" fill="white"/>
<path d="M38.7572 1.88653L38.7779 1.89493C38.8277 1.91565 38.8765 1.93637 38.9253 1.95841L38.9306 1.96024L38.9258 1.95814C38.8768 1.93637 38.828 1.91539 38.7784 1.89493L38.7572 1.88653L38.743 1.87997L38.7399 1.87866L38.7425 1.8805L38.7572 1.88653Z" fill="white"/>
<path d="M41.503 3.26682L41.5022 3.2663L41.5025 3.26656L41.503 3.26682Z" fill="white"/>
<path d="M41.6268 3.34106L41.7412 3.41056C41.8144 3.45332 41.8863 3.49844 41.9568 3.5433L41.9665 3.54933L41.9678 3.55012L41.966 3.54907L41.9573 3.54356C41.8865 3.49818 41.8139 3.45385 41.7415 3.41031L41.6268 3.34106L41.6255 3.33948C41.6082 3.32899 41.5906 3.31876 41.5731 3.30853C41.5906 3.31903 41.6077 3.32925 41.6258 3.34001L41.6268 3.34106Z" fill="white"/>
<path d="M44.4262 5.32282L44.4446 5.33777L44.4259 5.3223C44.3743 5.27901 44.3236 5.23756 44.273 5.1969L44.2651 5.19061L44.2727 5.19717C44.3236 5.23756 44.3737 5.27901 44.4262 5.32282Z" fill="white"/>
<path d="M41.3029 3.15088C41.3551 3.18104 41.407 3.21069 41.4587 3.24085C41.407 3.21043 41.3553 3.18052 41.3034 3.15036L41.264 3.12779C41.2459 3.1173 41.2284 3.10734 41.2103 3.09711C41.2281 3.1076 41.2459 3.1173 41.264 3.12779L41.3029 3.15088Z" fill="white"/>
<path d="M39.6267 2.27401L39.8206 2.36661C39.8948 2.40071 39.9677 2.43612 40.0396 2.47389L40.047 2.47757L40.0493 2.47861L40.0462 2.47704L40.0391 2.47336C39.967 2.43638 39.894 2.40123 39.8203 2.36608L39.6265 2.27375L39.626 2.27296C39.6202 2.27034 39.6142 2.26745 39.6086 2.26483C39.6144 2.26745 39.6204 2.27008 39.6254 2.27296L39.6267 2.27401Z" fill="white"/>
<path d="M37.9519 1.56599C38.1164 1.62684 38.2955 1.6974 38.5135 1.78528C38.5282 1.79105 38.5424 1.79708 38.557 1.80311C38.5424 1.79708 38.5279 1.79104 38.5132 1.78501C38.295 1.69714 38.1166 1.62737 37.9519 1.56599Z" fill="white"/>
<path d="M7.57391 19.6695L7.57234 19.6789L7.57129 19.6881L7.57286 19.6789L7.57391 19.6695Z" fill="white"/>
<path d="M7.56838 19.7109L7.56655 19.7254L7.56628 19.728L7.56681 19.7254L7.56838 19.7109Z" fill="white"/>
<path d="M7.60091 19.478C7.6059 19.4392 7.61193 19.4001 7.61797 19.3611L7.62216 19.3333L7.61744 19.3611C7.61193 19.3996 7.6059 19.439 7.60091 19.478L7.60039 19.4817L7.60013 19.4843L7.60091 19.4817V19.478Z" fill="white"/>
<path d="M7.59673 19.5079C7.59358 19.531 7.59043 19.5541 7.58702 19.5775L7.57837 19.6388L7.58755 19.578C7.59044 19.5541 7.59385 19.531 7.59673 19.5079Z" fill="white"/>
<path d="M7.50362 20.2432C7.50651 20.2172 7.5094 20.192 7.51228 20.1661C7.5094 20.192 7.50625 20.217 7.50362 20.2432L7.50336 20.2453L7.50284 20.249L7.50362 20.2456V20.2432Z" fill="white"/>
<path d="M7.39841 21.5133C7.39605 21.5582 7.39343 21.603 7.39107 21.6479L7.39081 21.6518L7.39133 21.6476C7.39343 21.6028 7.39605 21.5579 7.39841 21.5133Z" fill="white"/>
<path d="M7.44643 20.8213C7.44433 20.847 7.44197 20.8724 7.43987 20.8984C7.43882 20.9115 7.43803 20.9249 7.43698 20.9378C7.43803 20.9246 7.43882 20.9113 7.44039 20.8981C7.44197 20.8727 7.44433 20.847 7.44643 20.8213Z" fill="white"/>
<path d="M7.42439 21.1054C7.42517 21.0941 7.42596 21.0823 7.42674 21.071C7.4257 21.0826 7.42517 21.0941 7.42412 21.1059C7.4173 21.1893 7.41127 21.277 7.40576 21.3779V21.3795L7.40629 21.3785C7.41101 21.2772 7.41704 21.1896 7.42439 21.1054Z" fill="white"/>
<path d="M26.5412 0.392976L26.5409 0.393241C26.542 0.392978 26.5433 0.392718 26.5443 0.392456C26.5433 0.392456 26.5422 0.392714 26.5412 0.392976Z" fill="white"/>
<path d="M30.852 0.146912C31.3632 0.16606 31.8739 0.201207 32.381 0.253931C31.8739 0.200944 31.3632 0.16606 30.852 0.146912Z" fill="white"/>
<path d="M40.075 2.49115C40.4039 2.65483 40.7316 2.82742 41.0524 3.00684C40.7313 2.82716 40.4034 2.65431 40.075 2.49115Z" fill="white"/>
<path d="M44.7478 5.59431C44.7045 5.55706 44.6615 5.51981 44.6166 5.48256L44.5285 5.40912L44.6161 5.48256C44.6615 5.51955 44.7045 5.5568 44.7478 5.59431Z" fill="white"/>
<path d="M22.5929 10.0055C24.5222 7.92596 26.8914 6.31145 29.5601 5.27848C30.3683 4.96528 31.1935 4.70979 32.0326 4.51306C31.1935 4.70979 30.368 4.96502 29.5596 5.27769C26.8911 6.31067 24.5217 7.9257 22.5929 10.0055Z" fill="white"/>
<path d="M26.622 38.8123C24.3902 37.4627 22.4586 35.6562 20.9414 33.4819C20.3913 32.6939 19.9061 31.8711 19.4879 31.0201C19.9063 31.8713 20.3916 32.6939 20.9417 33.4822C22.4578 35.6564 24.3895 37.4627 26.622 38.8123Z" fill="white"/>
<path d="M7.36459 22.5782L7.36432 22.5788C7.36432 22.604 7.36406 22.6286 7.36406 22.6538C7.3638 22.6758 7.3638 22.6979 7.3638 22.7199C7.3638 22.6976 7.3638 22.6758 7.36459 22.6535V22.5782Z" fill="white"/>
<path d="M12.2223 34.38C9.15406 31.3543 7.42912 27.3163 7.36564 23.0116L7.36459 22.9507V22.8789C7.3638 22.8568 7.36406 22.8356 7.3638 22.8135C7.3638 22.835 7.3638 22.8566 7.36406 22.8781C7.36406 22.9022 7.36432 22.9263 7.36432 22.9502L7.36538 23.0113C7.42912 27.3166 9.1538 31.3538 12.2218 34.3795C15.2929 37.4084 19.36 39.0767 23.6742 39.0767C24.3606 39.0767 25.0403 39.0316 25.7128 38.9479C25.0403 39.0313 24.3604 39.0764 23.6747 39.0764C19.3602 39.0769 15.2931 37.4095 12.2223 34.38Z" fill="white"/>
<path d="M45.253 6.04152L45.2603 6.04887C45.3005 6.08481 45.3401 6.12154 45.3799 6.15905C45.3401 6.12154 45.3005 6.08507 45.2603 6.04834L45.253 6.04152L45.2003 5.99353C45.1919 5.98592 45.1832 5.97831 45.1746 5.9707C45.1835 5.97857 45.1919 5.98618 45.2008 5.99405L45.253 6.04152Z" fill="white"/>
<path d="M45.6347 6.39855L45.6263 6.39068L45.6226 6.38727L45.626 6.3912L45.6347 6.39855Z" fill="white"/>
<path d="M45.8574 6.6139C45.8592 6.61469 45.8605 6.61678 45.8621 6.61836C45.8629 6.61862 45.8634 6.61914 45.8642 6.61941C45.8621 6.61731 45.86 6.61521 45.8581 6.61338C45.8314 6.58767 45.8044 6.56144 45.7776 6.53494C45.7422 6.50006 45.7057 6.4657 45.6693 6.43134C45.7055 6.4657 45.7419 6.50032 45.7774 6.53468C45.8036 6.5617 45.8316 6.58845 45.8574 6.6139Z" fill="white"/>
<path d="M45.519 6.28939C45.4841 6.2566 45.4513 6.2246 45.4146 6.19076L45.4101 6.18683L45.414 6.19129C45.451 6.2246 45.4841 6.25634 45.519 6.28939Z" fill="white"/>
<path d="M7.39028 21.6625L7.39002 21.6654C7.38976 21.6707 7.38976 21.6757 7.3895 21.6804C7.38976 21.6757 7.39002 21.6709 7.39028 21.6657V21.6625Z" fill="white"/>
<path d="M7.38286 21.7204L7.38275 21.7217L7.3838 21.7218L7.38391 21.7205L7.38286 21.7204Z" fill="white"/>
<path d="M7.36956 22.2992V22.2687C7.36956 22.254 7.36956 22.2396 7.37061 22.226C7.37192 22.1371 7.37428 22.0508 7.37795 21.9582C7.37848 21.9364 7.37953 21.9149 7.38032 21.8934C7.37953 21.9149 7.37848 21.9361 7.37769 21.9576C7.37402 22.0508 7.37166 22.1378 7.36982 22.226C7.36982 22.2404 7.36956 22.2546 7.36904 22.2687V22.2766V22.2913L7.36877 22.3C7.36694 22.3721 7.36615 22.4445 7.36536 22.5177C7.36563 22.4442 7.3672 22.3723 7.36956 22.2992Z" fill="white"/>
<path d="M7.62533 19.3125L7.62218 19.3335L7.61798 19.3613C7.61195 19.4001 7.60592 19.4392 7.60093 19.4783V19.482L7.60015 19.4846L7.59962 19.4856C7.59884 19.493 7.59779 19.5009 7.59674 19.5082C7.59359 19.5313 7.59044 19.5541 7.58756 19.5782L7.57838 19.6391L7.5768 19.6501L7.57444 19.6685L7.57418 19.6698L7.57313 19.6792L7.57156 19.6884L7.57077 19.6929L7.56867 19.7115L7.5671 19.7259L7.56657 19.7285L7.56447 19.7382C7.55477 19.8125 7.54506 19.888 7.53536 19.9636C7.52749 20.0299 7.51988 20.0987 7.51254 20.1666C7.50965 20.1926 7.50677 20.2177 7.50388 20.2437V20.2461L7.50309 20.2495L7.50283 20.2511C7.49312 20.3326 7.48447 20.4155 7.47608 20.4971C7.47004 20.558 7.46506 20.6201 7.45902 20.6823V20.6883L7.45299 20.7492C7.45063 20.7733 7.4488 20.7977 7.44696 20.8218C7.44486 20.8475 7.4425 20.8733 7.44066 20.8987C7.43935 20.9118 7.43856 20.9252 7.43725 20.9383C7.43542 20.958 7.43358 20.9777 7.43227 20.9973C7.4307 21.0222 7.42886 21.0466 7.42729 21.0713C7.4265 21.0828 7.42571 21.0944 7.42493 21.1057C7.41758 21.1896 7.41155 21.2775 7.40656 21.3785L7.40604 21.3795L7.40525 21.3808V21.3845C7.40289 21.4275 7.40079 21.4703 7.39869 21.5133C7.39633 21.5581 7.39371 21.6027 7.39187 21.6476L7.39135 21.6518L7.39083 21.6562V21.6625V21.6659C7.39056 21.6712 7.3903 21.6759 7.39004 21.6806C7.38951 21.6906 7.38925 21.7003 7.38846 21.7111V21.7244V21.7255V21.7268L7.38742 21.7412C7.38479 21.7916 7.38322 21.8425 7.38138 21.8934C7.3806 21.9151 7.37955 21.9364 7.37902 21.9582C7.37535 22.0508 7.37299 22.1373 7.37168 22.226C7.37063 22.2394 7.37063 22.254 7.37063 22.2687V22.2992C7.36827 22.3723 7.36695 22.4442 7.36695 22.5171L7.36617 22.5583L7.36591 22.5767V22.578V22.6533C7.36512 22.6753 7.36538 22.6973 7.36512 22.7196C7.36512 22.7354 7.36459 22.7511 7.36459 22.7669C7.36459 22.7821 7.36512 22.7981 7.36512 22.8138C7.36512 22.8356 7.36512 22.8568 7.36591 22.8791V22.951L7.36695 23.0119C7.43043 27.3166 9.15511 31.3546 12.2236 34.3803C15.2942 37.4097 19.3616 39.0772 23.676 39.0772C24.3617 39.0772 25.0416 39.0321 25.7141 38.9487C26.0189 38.9109 26.3227 38.8676 26.6238 38.8128L26.623 38.8126C24.3905 37.463 22.4592 35.6567 20.9427 33.4827C20.3927 32.6945 19.9074 31.8716 19.489 31.0207C19.3949 30.8289 19.3049 30.6353 19.2175 30.441C19.2078 30.4197 19.1973 30.399 19.1879 30.3778C18.1295 27.9999 17.5797 25.4196 17.5797 22.7674C17.5797 18.9099 18.743 15.2042 20.9427 12.0521C21.448 11.3276 22.0009 10.6456 22.594 10.0061C24.523 7.92622 26.8924 6.31145 29.5606 5.27821C30.3691 4.96528 31.1946 4.71031 32.0337 4.51358C33.4321 4.18569 34.8682 4.02017 36.3258 4.02017C39.7327 4.02017 43.0058 4.92514 45.8647 6.6207C45.8644 6.62018 45.8637 6.61991 45.8634 6.61939C45.8621 6.61755 45.8605 6.61572 45.8587 6.61493C45.833 6.58949 45.8049 6.56247 45.7781 6.53571C45.7427 6.50135 45.7065 6.46673 45.6701 6.43237C45.6591 6.42161 45.6478 6.41112 45.6368 6.40036L45.6357 6.39958L45.6271 6.39197L45.6239 6.3883L45.6187 6.38226C45.588 6.35289 45.5531 6.32115 45.5203 6.29045C45.4854 6.25767 45.4524 6.22567 45.4154 6.19235L45.4114 6.18789L45.408 6.1837L45.3994 6.17635C45.3933 6.17058 45.3873 6.16534 45.3815 6.15983C45.3417 6.12232 45.3021 6.08559 45.2619 6.04966L45.2546 6.04232L45.2024 5.99484C45.1935 5.98697 45.1851 5.97936 45.1762 5.97149C45.1182 5.91876 45.0607 5.86683 45.0036 5.81594C44.9377 5.75745 44.8745 5.70263 44.8113 5.6478C44.7913 5.63023 44.7696 5.61265 44.7494 5.59507C44.7061 5.55783 44.6631 5.52058 44.6177 5.48333L44.5301 5.40989L44.4823 5.37001L44.4813 5.36765L44.4459 5.3388L44.4275 5.32385C44.3751 5.28004 44.3252 5.2386 44.2741 5.1982L44.2665 5.19164L44.2631 5.18876L44.2581 5.18482L44.252 5.1801C44.2143 5.14836 44.1752 5.11794 44.1377 5.08751L44.1374 5.08724L44.134 5.08383L44.1314 5.08253L44.129 5.08148C44.0073 4.98285 43.8793 4.88291 43.7513 4.78559L43.7489 4.78323L43.7453 4.78087C43.7112 4.75385 43.6771 4.7284 43.6416 4.70165L43.5999 4.66992L43.5748 4.6505C43.5692 4.64578 43.5632 4.64185 43.5572 4.63765C43.5553 4.63634 43.5532 4.63503 43.5517 4.63345L43.5501 4.63214L43.5456 4.62847L43.5422 4.62637L43.5359 4.62244L43.4643 4.56893L43.4384 4.54951L43.3408 4.47764C43.3308 4.4703 43.3201 4.46295 43.3098 4.45534C43.2912 4.44196 43.2728 4.42859 43.2542 4.41548L43.2151 4.3874L43.2146 4.38688L43.2128 4.38505L43.2107 4.38399L43.208 4.38269C43.1698 4.3541 43.1315 4.32708 43.0929 4.30006C43.0837 4.29377 43.0748 4.28668 43.0654 4.28038L43.0546 4.27304L43.0449 4.26596C42.951 4.20012 42.8573 4.13454 42.7621 4.06844L42.7598 4.06739L42.7587 4.06687L42.7548 4.06503C42.7125 4.03565 42.6701 4.00627 42.627 3.97768C42.6168 3.97086 42.6068 3.96351 42.5963 3.95669L42.5953 3.95539L42.5916 3.95303C42.5281 3.91158 42.4644 3.86882 42.3999 3.82712C42.3965 3.82475 42.3931 3.82239 42.3894 3.82029L42.3891 3.82003L42.3844 3.81662L42.3784 3.81295C42.3647 3.80404 42.3511 3.79538 42.3374 3.78646C42.2915 3.75655 42.2454 3.72639 42.1995 3.69727L42.1921 3.69229L42.1916 3.69202L42.1848 3.68731C42.1166 3.64219 42.0471 3.59943 41.9762 3.55589L41.9692 3.55169L41.9678 3.5509L41.9581 3.54487C41.8873 3.49976 41.8154 3.45464 41.7425 3.41214L41.6282 3.34263L41.6271 3.34132C41.6093 3.33057 41.592 3.32033 41.5744 3.30984C41.5526 3.29672 41.5303 3.28335 41.5088 3.27076L41.5044 3.2684L41.5041 3.26813L41.5023 3.2663L41.4991 3.2642C41.4857 3.25607 41.4723 3.24873 41.459 3.24086C41.4073 3.21069 41.3554 3.18105 41.3032 3.15088L41.2641 3.1278C41.246 3.1173 41.2284 3.10734 41.2106 3.09711C41.1626 3.06931 41.1148 3.04124 41.0668 3.01448C41.0621 3.01186 41.0571 3.0095 41.0527 3.00714C40.7318 2.82745 40.4042 2.65512 40.0753 2.49144C40.0679 2.48776 40.0609 2.48357 40.0535 2.4799L40.0499 2.47859L40.0475 2.47754L40.0401 2.47386C39.9683 2.43609 39.8954 2.40068 39.8211 2.36658L39.6273 2.27399L39.6262 2.27267C39.621 2.26979 39.6149 2.26716 39.6094 2.26454C39.6058 2.26297 39.6021 2.26113 39.5984 2.2593L39.5934 2.25694L39.5919 2.25667L39.5887 2.25589C39.3597 2.14755 39.1491 2.05364 38.9455 1.96708L38.94 1.96446L38.9356 1.96236L38.9308 1.96079L38.9256 1.95895C38.8768 1.93692 38.828 1.91619 38.7782 1.89547L38.7575 1.88708L38.7428 1.88104L38.7401 1.87921L38.7394 1.87868L38.6517 1.84223C38.6208 1.82964 38.5893 1.81678 38.5578 1.80392C38.5431 1.79789 38.529 1.79186 38.5143 1.78609C38.2963 1.69822 38.1172 1.62765 37.9527 1.5668L37.8541 1.53034L37.8404 1.52536L37.7368 1.48653C37.4603 1.38659 37.1728 1.28796 36.884 1.19668L36.8804 1.19563L36.8767 1.19432C36.872 1.19275 36.8673 1.19144 36.8625 1.18987C36.8074 1.17203 36.7526 1.15497 36.6978 1.13819C36.6414 1.12061 36.5847 1.10356 36.5284 1.08625C36.4948 1.07602 36.4612 1.06579 36.4274 1.0553C36.3017 1.01858 36.1824 0.984474 36.068 0.952997L36.0622 0.952213L36.0607 0.951948L36.0575 0.9509L36.0533 0.949587C36.0378 0.94539 36.0221 0.941192 36.0064 0.936995C35.9814 0.930437 35.9563 0.923618 35.9316 0.916798L35.9161 0.912339L35.8938 0.905783C35.6559 0.842042 35.413 0.784858 35.1696 0.7282C35.0264 0.694624 34.8834 0.662884 34.7386 0.631931C34.496 0.580256 34.2528 0.528585 34.0081 0.484254C33.9165 0.468254 33.8266 0.452515 33.7353 0.437825L33.7303 0.436777H33.7266H33.7243C33.634 0.420776 33.5428 0.406343 33.4512 0.392965C33.409 0.386407 33.367 0.380377 33.3248 0.374081C33.2718 0.36595 33.2185 0.357819 33.1663 0.350474C32.9059 0.314276 32.6441 0.28227 32.381 0.25499C31.8742 0.202266 31.3635 0.166857 30.852 0.147971C30.5676 0.137216 30.283 0.13092 29.9992 0.13092C29.5205 0.13092 29.0402 0.148233 28.5612 0.178398C28.5109 0.181546 28.4603 0.182857 28.4099 0.186267C27.8806 0.22299 27.3536 0.277813 26.8321 0.35021C26.7385 0.363588 26.6446 0.378275 26.552 0.391652C26.5493 0.392439 26.547 0.392705 26.5444 0.393229C26.5433 0.393229 26.5423 0.393489 26.5409 0.394014L7.62664 19.3073L7.62533 19.3125Z" fill="white"/>
<path d="M52.3789 26.1921L52.3812 26.175L52.3836 26.1567C52.3883 26.125 52.3933 26.0922 52.397 26.0604L52.3983 26.0531L52.3993 26.041L52.4017 26.0276C52.4077 25.9862 52.4151 25.9437 52.42 25.902L52.4224 25.8739L52.4274 25.8458C52.4298 25.8325 52.4311 25.8191 52.4334 25.807L52.4505 25.6656L52.4639 25.5683C52.4759 25.4744 52.4856 25.3868 52.4956 25.2992L52.4966 25.2871C52.5063 25.2032 52.515 25.124 52.5224 25.0434C52.5284 24.9766 52.5357 24.9131 52.5407 24.8509V24.8472L52.5467 24.7864C52.5515 24.7413 52.5554 24.6975 52.5578 24.6537L52.5588 24.6366L52.5601 24.6196C52.5662 24.5624 52.5698 24.5049 52.5735 24.4477V24.4394L52.5748 24.4247C52.5822 24.3418 52.5882 24.2542 52.5932 24.1555V24.1495C52.5992 24.0606 52.6042 23.974 52.6089 23.8888L52.6102 23.8631V23.8276L52.6113 23.7925C52.616 23.7206 52.6186 23.6474 52.621 23.5743C52.6246 23.4756 52.627 23.382 52.6296 23.2881L52.6307 23.276V23.2335C52.632 23.1664 52.633 23.0982 52.633 23.03V22.9531L52.6344 22.941C52.6354 22.8826 52.6354 22.8241 52.6354 22.7669C52.6354 22.706 52.6354 22.6438 52.6344 22.584V22.5791L52.633 22.5206C52.5698 18.2158 50.8449 14.1778 47.7777 11.1521C44.7058 8.12269 40.6387 6.4552 36.324 6.4552C35.3277 6.4552 34.3422 6.54412 33.3762 6.71961C35.6089 8.06945 37.5408 9.87701 39.0572 12.0513C41.2572 15.2035 42.4203 18.9091 42.4203 22.7666C42.4203 26.6244 41.257 30.3298 39.0572 33.4822C36.9087 36.5614 33.9278 38.9038 30.438 40.2547C28.2834 41.0891 26.0079 41.513 23.6741 41.513C20.2673 41.513 16.9955 40.6081 14.1353 38.9138L14.1403 38.9185L14.1536 38.9306L14.1657 38.9429C14.1791 38.9576 14.1925 38.971 14.2072 38.9831L14.2523 39.0269C14.2887 39.0633 14.3252 39.0987 14.363 39.1342L14.369 39.1402L14.3763 39.1462C14.4372 39.2047 14.5091 39.274 14.5796 39.3385L14.5907 39.3472L14.6004 39.3569C14.6465 39.4007 14.6927 39.4447 14.7404 39.4872L14.7441 39.4909L14.7488 39.4946C14.8304 39.5701 14.9133 39.6443 14.9985 39.7186L15.0035 39.7223L15.0085 39.727C15.0633 39.7758 15.1179 39.8246 15.174 39.8733L15.185 39.8817L15.2218 39.9135L15.2254 39.9148L15.3862 40.0536L15.419 40.0816L15.4264 40.089C15.4702 40.1254 15.5129 40.1621 15.5581 40.1973L15.5751 40.2107L15.5908 40.2254C15.6286 40.2581 15.6714 40.2922 15.7188 40.33L15.7348 40.3421L15.7495 40.3542C15.7836 40.3833 15.8177 40.4113 15.8505 40.4357L15.8615 40.4444L15.8712 40.4528C15.9916 40.5504 16.1173 40.6477 16.244 40.7439C16.2707 40.766 16.2988 40.7867 16.3256 40.8074C16.3573 40.8318 16.3877 40.8549 16.4192 40.878C16.4376 40.8914 16.4546 40.9034 16.4704 40.9168L16.5008 40.9386C16.5509 40.9763 16.6018 41.0141 16.6529 41.0519L16.7004 41.086C16.7261 41.1041 16.7516 41.1225 16.777 41.1408L16.7867 41.1479L16.7977 41.1552C16.8342 41.1833 16.8733 41.2101 16.911 41.2368L16.9525 41.2659C17.0451 41.3318 17.14 41.3974 17.235 41.4632L17.2436 41.4682L17.2523 41.4742C17.2937 41.5033 17.3362 41.5314 17.3777 41.5595L17.4094 41.5802L17.5141 41.6497L17.625 41.7239C17.6809 41.7604 17.7397 41.7995 17.7992 41.8359C17.859 41.8748 17.9173 41.9115 17.9747 41.9479H18.1184L18.3755 42.1927C18.4143 42.2171 18.4547 42.2415 18.4949 42.2645C18.5728 42.3107 18.652 42.3569 18.7312 42.4009L18.7385 42.4057L18.7459 42.4107C18.8081 42.4471 18.8702 42.4812 18.9334 42.5166C19.2671 42.7055 19.6057 42.8844 19.9444 43.0515C20.0199 43.089 20.0942 43.1257 20.1684 43.1609C20.1794 43.1669 20.1904 43.1719 20.2014 43.1779C20.2723 43.2107 20.3415 43.2435 20.4121 43.2776C20.6253 43.3775 20.8433 43.4748 21.0563 43.5664L21.0613 43.5677L21.066 43.5701C21.1185 43.5932 21.1733 43.6162 21.2255 43.6383C21.2415 43.6443 21.2585 43.6516 21.2766 43.6603C21.3472 43.6894 21.4178 43.7188 21.4899 43.7479C21.6641 43.8187 21.8529 43.8916 22.0502 43.9661L22.0562 43.9685L22.0623 43.9711C22.1231 43.9942 22.184 44.0173 22.2461 44.0393L22.2545 44.0417L22.2619 44.044C22.5507 44.15 22.8369 44.2473 23.1123 44.3339L23.122 44.3376L23.1304 44.3399C23.1865 44.3594 23.2413 44.3764 23.2972 44.3937L23.3059 44.3948L23.3132 44.3971C23.3971 44.4241 23.4814 44.4496 23.5653 44.475L23.6361 44.4958C23.7371 44.5238 23.837 44.5532 23.937 44.581C23.9929 44.597 24.043 44.6101 24.0928 44.6238L24.1049 44.6261C24.7286 44.7943 25.3632 44.9356 25.9893 45.0463L25.9966 45.0487L26.004 45.05C26.0795 45.0634 26.1611 45.0781 26.2634 45.0951H26.2694L26.2744 45.0962C26.3757 45.1132 26.4596 45.1266 26.5365 45.1376L26.5485 45.1389L26.5606 45.1413C26.6485 45.156 26.7371 45.168 26.825 45.1804L26.8323 45.1814C27.875 45.3265 28.9397 45.4007 29.9981 45.4007C31.0579 45.4007 32.1239 45.3265 33.1663 45.1814L33.1883 45.1777C33.2723 45.1657 33.3552 45.1547 33.4381 45.1413L33.4501 45.1389L33.4588 45.1376L52.3731 26.2233C52.3752 26.2141 52.3765 26.2031 52.3789 26.1921Z" fill="#9AA8BE"/>
</svg>
