<svg width="60" height="67" viewBox="0 0 60 67" fill="none" xmlns="http://www.w3.org/2000/svg">
<path d="M26.933 11.0372L32.2333 20.2196C32.8315 20.2084 33.4329 20.2039 34.0381 20.2039C35.5892 20.2039 37.1205 20.2389 38.6266 20.3065L26.933 0.0524902L14.0836 22.3085C16.3152 21.7995 18.6822 21.3735 21.1571 21.0413L26.933 11.0372ZM17.4183 19.9122L26.9332 3.43194L35.6471 18.5266C35.111 18.5177 34.5737 18.5143 34.0384 18.5143C33.7623 18.5143 33.4843 18.5154 33.2024 18.5177L28.3965 10.1925L26.9332 7.65772L25.4688 10.1925L20.1064 19.4809C19.1993 19.6112 18.3013 19.7556 17.4183 19.9122Z" fill="#9AA8BE"/>
<path d="M19.0525 50.5946C12.4251 47.6822 8.37493 43.7845 8.37493 39.5023C8.37493 38.077 8.82327 36.6948 9.66652 35.3766H47.3274L40.4661 23.4933C43.0765 23.2765 45.7796 23.1624 48.548 23.1624C52.2767 23.1624 55.8875 23.3691 59.3128 23.7565C59.1154 23.6924 58.912 23.632 58.7112 23.5696C58.912 23.6317 59.1156 23.6924 59.3128 23.7562C59.543 23.7819 59.7715 23.8082 60 23.8359C59.3962 23.6829 58.782 23.5369 58.1563 23.3976C58.156 23.3974 58.1557 23.3974 58.1552 23.3971C52.5609 22.1497 46.1242 21.4356 39.2736 21.4281C39.233 21.4272 39.1919 21.4272 39.1513 21.4272C37.5921 21.4272 36.0546 21.4639 34.5432 21.5352C34.0395 21.559 33.5386 21.5864 33.0408 21.618C28.2676 21.9173 23.7809 22.5628 19.7439 23.4883C19.3951 23.5682 19.0497 23.6502 18.7077 23.7341C16.3141 24.3226 14.0909 25.0117 12.0741 25.7867C4.63301 28.6429 0 32.6662 0 37.123C0 42.8453 7.63824 47.8526 19.0525 50.5946ZM34.5239 24.1861L37.8133 29.8841H16.0694C20.6744 27.3155 27.0767 25.3143 34.5239 24.1861Z" fill="white"/>
<path d="M3.63257 61.8408C3.83982 61.746 4.02077 61.6179 4.17544 61.456C4.32983 61.2943 4.45121 61.11 4.53903 60.9025C4.62686 60.6952 4.67077 60.4757 4.67077 60.2438V59.7798H3.59537V60.1487C3.59537 60.2964 3.5744 60.4195 3.53216 60.5176C3.48993 60.6161 3.43735 60.6933 3.37414 60.7495C3.30366 60.806 3.22814 60.8463 3.14732 60.8709C3.06649 60.8955 2.99097 60.9078 2.92049 60.9078C2.67464 60.9078 2.50432 60.834 2.40922 60.6863C2.31441 60.5386 2.26686 60.356 2.26686 60.1381V56.3008C2.26686 56.0477 2.31049 55.8388 2.39859 55.6735C2.48614 55.5085 2.66374 55.4257 2.93084 55.4257C3.13473 55.4257 3.29611 55.5031 3.41581 55.6578C3.53524 55.8125 3.59509 55.9951 3.59509 56.206V56.5643H4.67049V56.1428C4.67049 55.8827 4.62658 55.6421 4.53875 55.4206C4.45093 55.1991 4.32955 55.0078 4.17516 54.8462C3.85884 54.5158 3.4477 54.3508 2.94175 54.3508C2.68164 54.3508 2.44446 54.3947 2.22994 54.4826C2.01542 54.5704 1.83111 54.6915 1.67644 54.8462C1.52178 55.0008 1.40235 55.1835 1.31789 55.3943C1.2337 55.6052 1.19147 55.8337 1.19147 56.0796V60.2119C1.19147 60.5565 1.24573 60.8393 1.3548 61.0605C1.4636 61.282 1.60261 61.463 1.77126 61.6034C1.93991 61.7441 2.12954 61.8422 2.34042 61.8984C2.5513 61.9547 2.75855 61.9829 2.96244 61.9829C3.20185 61.9832 3.42532 61.9356 3.63257 61.8408Z" fill="#9AA8BE"/>
<path d="M13.305 56.185C13.305 55.8829 13.2521 55.6158 13.1469 55.384C13.0415 55.1518 12.9045 54.9588 12.7358 54.8042C12.5602 54.6565 12.3649 54.5443 12.1507 54.4669C11.9362 54.3897 11.72 54.3511 11.5024 54.3511C11.2845 54.3511 11.0683 54.3897 10.8541 54.4669C10.6396 54.5443 10.4483 54.6565 10.2796 54.8042C10.104 54.9588 9.96328 55.1521 9.85784 55.384C9.7524 55.6158 9.69981 55.8829 9.69981 56.185V60.1487C9.69981 60.465 9.7524 60.7357 9.85784 60.9603C9.96328 61.1855 10.1037 61.3715 10.2796 61.5192C10.4483 61.6738 10.6396 61.7899 10.8541 61.8671C11.0683 61.9443 11.2845 61.9832 11.5024 61.9832C11.7203 61.9832 11.9362 61.9443 12.1507 61.8671C12.3649 61.7899 12.5599 61.6738 12.7358 61.5192C12.9045 61.3718 13.0415 61.1855 13.1469 60.9603C13.2524 60.7355 13.305 60.465 13.305 60.1487V56.185ZM12.2296 60.1487C12.2296 60.4088 12.1574 60.6004 12.0134 60.7232C11.8693 60.8462 11.6987 60.9078 11.5021 60.9078C11.3052 60.9078 11.1349 60.8462 10.9908 60.7232C10.8468 60.6004 10.7749 60.4088 10.7749 60.1487V56.185C10.7749 55.9251 10.8468 55.7336 10.9908 55.6105C11.1349 55.4877 11.3052 55.4259 11.5021 55.4259C11.6987 55.4259 11.8693 55.4877 12.0134 55.6105C12.1574 55.7336 12.2296 55.9251 12.2296 56.185V60.1487Z" fill="#9AA8BE"/>
<path d="M20.9054 58.3884H20.8845L19.5034 54.414H18.4705V61.9199H19.5456V57.3552H19.5669L20.621 60.5811H21.1586L22.2233 57.3552H22.2443V61.9199H23.3197V54.414H22.2762L20.9054 58.3884Z" fill="#9AA8BE"/>
<path d="M31.5531 54.9412C31.3702 54.7443 31.1666 54.6075 30.9417 54.5301C30.7168 54.4529 30.457 54.414 30.1616 54.414H28.5487V61.9199H29.6241V58.9891H30.1723C30.5728 58.9891 30.8961 58.9206 31.142 58.7835C31.3878 58.6465 31.5847 58.4552 31.7324 58.2091C31.8591 58.0052 31.9413 57.7873 31.9802 57.5554C32.0188 57.3233 32.0381 57.0389 32.0381 56.7016C32.0381 56.2518 32.0028 55.8952 31.9326 55.6315C31.8621 55.368 31.7357 55.1378 31.5531 54.9412ZM31.0099 57.2285C30.9993 57.3832 30.966 57.5132 30.9098 57.6186C30.8536 57.7311 30.7658 57.8189 30.6463 57.8821C30.5269 57.9456 30.3583 57.9769 30.1404 57.9769H29.6238V55.4256H30.1823C30.3932 55.4256 30.5549 55.4572 30.6673 55.5204C30.7795 55.5837 30.8639 55.6751 30.9202 55.7945C30.9764 55.9142 31.008 56.0527 31.015 56.211C31.022 56.369 31.0256 56.5363 31.0256 56.7119C31.0259 56.9018 31.0206 57.0741 31.0099 57.2285Z" fill="#9AA8BE"/>
<path d="M37.8572 54.414L36.1811 61.9199H37.2565L37.5728 60.307H39.0381L39.3544 61.9199H40.4295L38.7533 54.414H37.8572ZM37.7621 59.2948L38.2894 56.5749H38.3103L38.8375 59.2948H37.7621Z" fill="#9AA8BE"/>
<path d="M48.8842 61.9199V54.414H47.8088V58.9365H47.7875L46.1642 54.414H45.131V61.9199H46.2064V57.408H46.2274L47.872 61.9199H48.8842Z" fill="#9AA8BE"/>
<path d="M56.1473 61.9199V58.7466L57.6232 54.414H56.4846L55.6201 57.3974H55.5991L54.7346 54.414H53.5963L55.0722 58.7466V61.9199H56.1473Z" fill="#9AA8BE"/>
<path d="M2.094 66.9252V65.0407H2.69029V64.7462H1.166V65.0407H1.76229V66.9252H2.094Z" fill="#9AA8BE"/>
<path d="M5.09785 64.7462L4.30578 66.9252H4.65567L4.82292 66.438H5.64939L5.81832 66.9252H6.16653L5.37418 64.7462H5.09785ZM4.91857 66.1452L5.23378 65.1932H5.23993L5.55514 66.1452H4.91857Z" fill="#9AA8BE"/>
<path d="M8.54695 65.2172C8.58192 65.1724 8.62778 65.1349 8.68456 65.105C8.74022 65.0762 8.80706 65.0608 8.88482 65.0586C8.99054 65.0605 9.08004 65.091 9.15387 65.1498C9.22463 65.2116 9.27358 65.2862 9.30015 65.3738H9.64976C9.6148 65.1914 9.53117 65.0384 9.39888 64.9151C9.26631 64.7926 9.09514 64.7302 8.88482 64.7283C8.71337 64.7302 8.57045 64.7711 8.45578 64.8508C8.33943 64.9294 8.2544 65.0191 8.20154 65.1198C8.16882 65.1727 8.14421 65.2418 8.12854 65.3276C8.11344 65.4135 8.10589 65.5827 8.10589 65.8358C8.10589 66.085 8.11344 66.2534 8.12854 66.3409C8.13637 66.3879 8.14644 66.4268 8.15847 66.4576C8.17134 66.4875 8.18588 66.5188 8.20154 66.5515C8.2544 66.6522 8.33915 66.7409 8.45578 66.8175C8.57045 66.8972 8.71337 66.9389 8.88482 66.9431C9.10689 66.9389 9.29148 66.8637 9.43803 66.7174C9.58347 66.57 9.65815 66.3871 9.66206 66.1689V65.7251H8.88789V66.0375H9.33175V66.151C9.3298 66.2875 9.287 66.3977 9.20338 66.4813C9.11947 66.5692 9.01347 66.6128 8.88482 66.6128C8.80706 66.6128 8.74022 66.5963 8.68456 66.5636C8.6275 66.5356 8.58192 66.4992 8.54695 66.4545C8.50416 66.4078 8.47591 66.3463 8.46193 66.2707C8.44599 66.1949 8.43816 66.0501 8.43816 65.8358C8.43816 65.6216 8.44599 65.4756 8.46193 65.3981C8.47563 65.3243 8.50416 65.2639 8.54695 65.2172Z" fill="#9AA8BE"/>
<path d="M11.8839 64.7462V66.9252H13.2753V66.6131H12.2142V64.7462H11.8839Z" fill="#9AA8BE"/>
<path d="M15.7531 64.7462H15.4228V66.9252H15.7531V64.7462Z" fill="#9AA8BE"/>
<path d="M18.0487 64.7462V66.9252H18.3787V65.3769H18.3849L19.3697 66.9252H19.6821V64.7462H19.3518V66.2948H19.3459L18.3594 64.7462H18.0487Z" fill="#9AA8BE"/>
<path d="M23.3703 65.0586V64.7462H21.9789V66.9252H23.3703V66.6131H22.3092V65.9735H23.2148V65.6804H22.3092V65.0586H23.3703Z" fill="#9AA8BE"/>
<path d="M28.109 65.1198C28.0763 65.1727 28.0517 65.2418 28.0358 65.3276C28.0209 65.4135 28.0134 65.5827 28.0134 65.8358C28.0134 66.085 28.0209 66.2534 28.0358 66.3409C28.0436 66.3879 28.0537 66.4268 28.0657 66.4576C28.0786 66.4875 28.0931 66.5188 28.109 66.5515C28.1619 66.6522 28.2467 66.7409 28.3633 66.8175C28.478 66.8972 28.6209 66.9389 28.7923 66.9431C29.0144 66.9389 29.1987 66.8637 29.3453 66.7174C29.4907 66.57 29.5654 66.3871 29.5693 66.1689V65.7251H28.7951V66.0375H29.239V66.151C29.237 66.2875 29.194 66.3977 29.1103 66.4813C29.0267 66.5692 28.9204 66.6128 28.792 66.6128C28.7143 66.6128 28.6474 66.5963 28.5918 66.5636C28.535 66.5356 28.4891 66.4992 28.4542 66.4545C28.4114 66.4078 28.3829 66.3463 28.3689 66.2707C28.3529 66.1949 28.3451 66.0501 28.3451 65.8358C28.3451 65.6216 28.3529 65.4756 28.3689 65.3981C28.3829 65.3243 28.4114 65.2639 28.4542 65.2172C28.4891 65.1724 28.5347 65.1349 28.5918 65.105C28.6474 65.0762 28.7143 65.0608 28.792 65.0586C28.8975 65.0605 28.9873 65.091 29.0611 65.1498C29.1316 65.2116 29.1805 65.2862 29.2074 65.3738H29.5573C29.5226 65.1914 29.4387 65.0384 29.3064 64.9151C29.1738 64.7926 29.0024 64.7302 28.7923 64.7283C28.6209 64.7302 28.478 64.7711 28.3633 64.8508C28.2464 64.9296 28.1619 65.0194 28.109 65.1198Z" fill="#9AA8BE"/>
<path d="M31.8121 65.1198C31.7791 65.1727 31.7548 65.2418 31.7388 65.3276C31.7237 65.4135 31.7162 65.5827 31.7162 65.8358C31.7162 66.085 31.7237 66.2534 31.7388 66.3409C31.7467 66.3879 31.7567 66.4268 31.7688 66.4576C31.7816 66.4875 31.7962 66.5188 31.8121 66.5515C31.865 66.6522 31.9497 66.7409 32.0661 66.8175C32.1807 66.8972 32.3237 66.9389 32.4951 66.9431C32.6685 66.9389 32.8128 66.8972 32.9286 66.8175C33.0433 66.7409 33.1258 66.6522 33.1767 66.5515C33.2136 66.4987 33.2391 66.4285 33.253 66.3409C33.2659 66.2534 33.2723 66.085 33.2723 65.8358C33.2723 65.5827 33.2659 65.4135 33.253 65.3276C33.2391 65.2421 33.2136 65.1727 33.1767 65.1198C33.1258 65.0191 33.0433 64.9294 32.9286 64.8508C32.8128 64.7711 32.6685 64.7302 32.4951 64.7283C32.3237 64.7302 32.1807 64.7711 32.0661 64.8508C31.9497 64.9296 31.865 65.0194 31.8121 65.1198ZM32.0722 65.3981C32.0862 65.3243 32.1144 65.2639 32.1575 65.2172C32.1925 65.1724 32.2381 65.1349 32.2951 65.105C32.3508 65.0762 32.4176 65.0608 32.4954 65.0586C32.574 65.0605 32.6425 65.0762 32.7001 65.105C32.7549 65.1349 32.7988 65.1724 32.8316 65.2172C32.8744 65.2639 32.9037 65.3243 32.9199 65.3981C32.935 65.4756 32.9423 65.6219 32.9423 65.8358C32.9423 66.0501 32.935 66.1949 32.9199 66.2707C32.904 66.3463 32.8746 66.4078 32.8316 66.4545C32.7988 66.4992 32.7549 66.5359 32.7001 66.5636C32.6425 66.5963 32.574 66.6128 32.4954 66.6128C32.4176 66.6128 32.3508 66.5963 32.2951 66.5636C32.2381 66.5356 32.1925 66.4992 32.1575 66.4545C32.1147 66.4078 32.0862 66.3463 32.0722 66.2707C32.0563 66.1949 32.0482 66.0501 32.0482 65.8358C32.0482 65.6216 32.0563 65.4756 32.0722 65.3981Z" fill="#9AA8BE"/>
<path d="M35.4944 66.9252H36.8859V66.6131H35.8247V65.9735H36.7304V65.6804H35.8247V65.0586H36.8859V64.7462H35.4944V66.9252Z" fill="#9AA8BE"/>
<path d="M39.6788 66.6131C39.4397 66.6111 39.2335 66.5387 39.0601 66.3963L38.8434 66.6444C39.0755 66.8436 39.353 66.9434 39.676 66.9434C40.1753 66.9375 40.4303 66.7261 40.4412 66.3096C40.4412 66.1553 40.3928 66.0196 40.2961 65.903C40.1985 65.7844 40.0474 65.7111 39.8433 65.6834C39.7395 65.6706 39.6578 65.6591 39.5983 65.649C39.4909 65.6292 39.4123 65.5934 39.3636 65.5413C39.3149 65.4904 39.2903 65.4337 39.2903 65.371C39.2923 65.2664 39.3289 65.1878 39.3994 65.135C39.4674 65.0841 39.5521 65.0589 39.6536 65.0589C39.85 65.0628 40.0298 65.1187 40.1932 65.2264L40.3769 64.9543C40.1766 64.8097 39.9409 64.7345 39.6699 64.7286C39.4447 64.7305 39.271 64.7893 39.1482 64.9048C39.0215 65.0214 38.9583 65.1747 38.9583 65.3651C38.9583 65.5234 39.0087 65.658 39.1094 65.7687C39.207 65.8764 39.3496 65.9455 39.5367 65.9765C39.6416 65.9914 39.7375 66.0051 39.8254 66.0168C40.0167 66.0498 40.1112 66.1474 40.1092 66.3096C40.1053 66.5079 39.9618 66.6092 39.6788 66.6131Z" fill="#9AA8BE"/>
<path d="M46.7191 66.9252V64.7462H46.389V65.6804H45.5265V64.7462H45.1962V66.9252H45.5265V65.9735H46.389V66.9252H46.7191Z" fill="#9AA8BE"/>
<path d="M50.4076 65.0586V64.7462H49.0162V66.9252H50.4076V66.6131H49.3465V65.9735H50.2521V65.6804H49.3465V65.0586H50.4076Z" fill="#9AA8BE"/>
<path d="M53.6444 65.9584C53.9213 65.8518 54.062 65.6504 54.0659 65.3545C54.06 65.1532 53.9876 64.9985 53.8491 64.8897C53.7345 64.794 53.5868 64.7462 53.4053 64.7462H52.555V66.9252H52.8853V65.9942H53.3068L53.7566 66.9252H54.1498L53.6444 65.9584ZM52.8851 65.7013V65.0407H53.4022C53.5079 65.0407 53.5885 65.0631 53.6444 65.1079C53.7149 65.1588 53.7515 65.241 53.7535 65.3545C53.7535 65.4491 53.723 65.5291 53.6623 65.5937C53.6005 65.6636 53.5079 65.6994 53.3843 65.7013H52.8851Z" fill="#9AA8BE"/>
<path d="M57.6492 65.0586V64.7462H56.2581V66.9252H57.6492V66.6131H56.5884V65.9735H57.494V65.6804H56.5884V65.0586H57.6492Z" fill="#9AA8BE"/>
</svg>
