<?xml version="1.0" encoding="UTF-8" standalone="no"?>
<!-- Created with Inkscape (http://www.inkscape.org/) -->

<svg
   width="49.996559mm"
   height="50.000004mm"
   viewBox="0 0 49.996559 50.000004"
   version="1.1"
   id="svg1"
   xml:space="preserve"
   inkscape:version="1.3 (0e150ed6c4, 2023-07-21)"
   sodipodi:docname="drawing.svg"
   xmlns:inkscape="http://www.inkscape.org/namespaces/inkscape"
   xmlns:sodipodi="http://sodipodi.sourceforge.net/DTD/sodipodi-0.dtd"
   xmlns="http://www.w3.org/2000/svg"
   xmlns:svg="http://www.w3.org/2000/svg"><sodipodi:namedview
     id="namedview1"
     pagecolor="#ffffff"
     bordercolor="#000000"
     borderopacity="0.25"
     inkscape:showpageshadow="2"
     inkscape:pageopacity="0.0"
     inkscape:pagecheckerboard="0"
     inkscape:deskcolor="#d1d1d1"
     inkscape:document-units="mm"
     inkscape:zoom="5.7941077"
     inkscape:cx="491.36125"
     inkscape:cy="309.02083"
     inkscape:window-width="1920"
     inkscape:window-height="1009"
     inkscape:window-x="-8"
     inkscape:window-y="-8"
     inkscape:window-maximized="1"
     inkscape:current-layer="layer5" /><defs
     id="defs1" /><g
     inkscape:groupmode="layer"
     id="layer2"
     inkscape:label="Layer 5"
     transform="matrix(0.39367373,0,0,0.39367373,-12.627806,-51.928379)"><path
       style="fill:#9cb5e2;fill-opacity:1"
       d="m 81.517083,258.41064 c -0.58947,-0.4768 -0.63289,-0.71876 -0.77149,-4.29948 -0.12928,-3.34018 -0.22895,-3.97309 -0.83289,-5.28861 -2.01113,-4.38071 -7.14973,-6.35861 -11.40608,-4.39032 -1.04287,0.48227 -2.334,1.47998 -4.01103,3.0995 -2.1156,2.04305 -2.60156,2.3883 -3.36174,2.3883 -0.81598,0 -1.67236,-0.78481 -10.47491,-9.59955 -8.74777,-8.75989 -9.58628,-9.6763 -9.58628,-10.47685 0,-0.74963 0.3653,-1.25431 2.51057,-3.46844 3.04912,-3.14701 3.65202,-4.3217 3.66802,-7.14682 0.0208,-3.68032 -1.62208,-6.43048 -4.76617,-7.97831 -1.6536,-0.81406 -1.93126,-0.86408 -5.56908,-1.0033 -3.61726,-0.13842 -3.85661,-0.18101 -4.33394,-0.77114 -0.48242,-0.59642 -0.50523,-1.23127 -0.50523,-14.05975 0,-12.82848 0.0228,-13.46333 0.50523,-14.05975 0.47758,-0.59044 0.71598,-0.63269 4.35562,-0.77192 3.7326,-0.14279 3.90504,-0.17517 5.63638,-1.05833 3.88114,-1.9798 5.65871,-6.5468 4.20711,-10.80909 -0.39163,-1.14994 -1.00078,-1.96571 -3.09799,-4.14878 -2.23596,-2.3275 -2.61052,-2.8436 -2.61052,-3.59705 0,-0.80399 0.82528,-1.70472 9.59249,-10.46946 8.78647,-8.784 9.6668,-9.58978 10.47684,-9.58978 0.75857,0 1.25292,0.35709 3.47552,2.51057 3.147,3.04911 4.3217,3.65201 7.14682,3.66801 3.68031,0.0208 6.43048,-1.62208 7.97831,-4.76617 0.81406,-1.6536 0.86408,-1.93126 1.00329,-5.56908 0.19122,-4.99673 0.0304,-4.83917 4.93833,-4.83917 h 3.54257 v 2.11667 2.11667 h -2.11667 -2.11667 v 2.22108 c 0,5.03394 -2.56788,9.3384 -6.87916,11.53132 -2.15247,1.09484 -4.098,1.59343 -6.21771,1.59343 -3.42843,0 -6.42086,-1.2515 -9.0662,-3.79169 l -1.67352,-1.607 -7.44365,7.44365 -7.44364,7.44364 1.67174,1.7871 c 2.71264,2.89982 3.94482,6.27793 3.61388,9.90772 -0.6537,7.16971 -5.99481,12.15408 -13.02398,12.15408 h -2.22109 v 10.58333 10.58333 h 2.22109 c 5.03394,0 9.3384,2.56789 11.53131,6.87917 1.09485,2.15247 1.59344,4.098 1.59344,6.21771 0,3.42843 -1.2515,6.42086 -3.79169,9.0662 l -1.607,1.67352 7.44787,7.44788 7.44788,7.44787 1.41099,-1.33446 c 2.9541,-2.79386 5.49582,-3.87105 9.20028,-3.89911 7.60603,-0.0576 13.22916,5.45259 13.22916,12.96347 v 2.22108 h 6.35001 6.35 v 2.11667 2.11667 h -7.7759 c -7.25863,0 -7.81745,-0.0336 -8.40052,-0.50523 z m 20.409747,-1.61144 v -2.11667 h 2.11666 2.11667 v -2.11666 -2.11667 h -6.758897 -6.7589 l -0.64943,-0.64943 c -0.38688,-0.38688 -0.64943,-0.95548 -0.64943,-1.40646 0,-0.86434 31.626987,-55.96546 32.572127,-56.74775 0.76966,-0.63706 1.93317,-0.58 2.69796,0.13229 0.35155,0.32742 3.35754,5.29828 6.67997,11.04635 3.32244,5.74808 6.24146,10.78584 6.48671,11.19503 l 0.44593,0.74399 0.79348,-1.67003 c 2.10821,-4.43716 6.45365,-7.09399 11.60272,-7.09399 h 2.22109 v -10.58333 -10.58333 h -2.22109 c -5.03393,0 -9.33839,-2.56789 -11.53131,-6.87917 -2.75474,-5.41583 -1.95796,-10.95564 2.19825,-15.28391 l 1.60701,-1.67352 -7.45759,-7.45759 -7.45759,-7.45759 -1.39332,1.36872 c -3.47509,3.41375 -7.96129,4.74604 -12.25179,3.63848 -6.37476,-1.64559 -10.1759,-6.39619 -10.1759,-12.71767 v -2.22108 h -6.349997 -6.35 v -2.11667 -2.11667 h 7.775897 c 9.79631,0 8.96926,-0.43324 9.172,4.80471 0.12928,3.34018 0.22896,3.97309 0.8329,5.28861 1.46333,3.18747 4.38317,5.07485 7.87861,5.09272 2.85104,0.0146 4.39044,-0.76179 7.53849,-3.8019 2.11164,-2.03923 2.60248,-2.3883 3.35824,-2.3883 0.81116,0 1.68646,0.80156 10.47491,9.59248 8.784,8.78647 9.58978,9.6668 9.58978,10.47684 0,0.75857 -0.35709,1.25292 -2.51057,3.47552 -3.04912,3.14701 -3.65201,4.3217 -3.66801,7.14682 -0.0208,3.68032 1.62207,6.43048 4.76616,7.97831 1.6536,0.81406 1.93126,0.86408 5.56909,1.0033 3.61726,0.13842 3.85661,0.18101 4.33394,0.77114 0.48241,0.59642 0.50523,1.23127 0.50523,14.05975 0,12.82808 -0.0228,13.46335 -0.50519,14.05975 -0.47844,0.59155 -0.71312,0.63254 -4.43177,0.77409 -4.49067,0.17093 -5.58912,0.51041 -7.57525,2.34117 -2.11494,1.94948 -3.27629,5.65817 -2.60573,8.32121 0.16878,0.67026 3.52127,6.74062 7.70831,13.95743 4.98681,8.59531 7.40963,13.01808 7.40963,13.52605 0,0.44858 -0.26346,1.01822 -0.64944,1.4042 l -0.64943,0.64943 H 134.24888 110.7198 l -0.15954,0.59531 c -0.0877,0.32742 -0.16117,1.94018 -0.16315,3.5839 -0.003,2.8179 -0.0407,3.02568 -0.65305,3.63802 -0.62559,0.6256 -0.78098,0.64944 -4.23333,0.64944 h -3.5839 z m 47.67756,-16.873 c -1.99344,-3.45932 -8.26788,-14.35025 -13.94319,-24.20206 -5.67531,-9.85181 -10.37828,-17.91181 -10.45104,-17.91111 -0.0728,7.1e-4 -4.77573,8.0606 -10.45104,17.91088 -5.67531,9.85028 -11.94975,20.74063 -13.94319,24.20078 l -3.624437,6.29118 h 28.018667 28.01867 z m -26.5109,-0.0603 v -2.1167 h 2.11667 2.11667 v 2.11667 2.11666 h -2.11667 -2.11667 z m 0,-19.05 v -12.7 h 2.11667 2.11667 v 12.7 12.7 h -2.11667 -2.11667 z m -32.543737,12.52376 c -12.59165,-1.98315 -22.52599,-8.89467 -28.64961,-19.93209 -2.3234,-4.18779 -4.03704,-10.17676 -4.33415,-15.1474 l -0.17001,-2.84427 h 2.12955 2.12956 l 0.18096,2.18281 c 0.73406,8.85416 4.17507,16.20605 10.38873,22.19604 5.15488,4.96931 11.39003,8.03548 18.48178,9.0885 1.57762,0.23426 2.88815,0.4497 2.9123,0.47876 0.0241,0.0291 -0.0173,0.97558 -0.0922,2.10337 l -0.13609,2.05052 -1.08968,-0.036 c -0.59933,-0.0198 -1.38734,-0.0829 -1.75114,-0.14021 z m 2.08073,-32.3084 c -1.02912,-0.53268 -1.6704,-1.11455 -2.33281,-2.11666 l -0.91354,-1.38203 h -7.48698 -7.48699 v -2.11667 -2.11667 h 7.50226 7.50226 l 0.76597,-1.21377 c 0.42128,-0.66758 1.33152,-1.5806 2.02274,-2.02894 l 1.25677,-0.81516 v -7.49606 -7.49607 h 2.11667 2.11667 v 7.50108 7.50108 l 1.29529,0.8052 c 4.186547,2.6025 3.826287,9.01121 -0.62302,11.08308 -1.90206,0.88571 -3.88721,0.84819 -5.73529,-0.10841 z m 4.28962,-4.27209 c 0.42537,-0.42537 0.7734,-1.02984 0.7734,-1.34327 0,-0.73651 -1.38016,-2.11667 -2.11667,-2.11667 -0.31343,0 -0.9179,0.34803 -1.34327,0.7734 -0.42537,0.42537 -0.7734,1.02984 -0.7734,1.34327 0,0.73651 1.38016,2.11667 2.11667,2.11667 0.31343,0 0.9179,-0.34803 1.34327,-0.7734 z m 32.523387,-3.32676 c 0,-0.10866 -0.1873,-1.459 -0.41623,-3.00077 -1.60805,-10.82965 -8.28168,-20.13598 -18.00531,-25.10831 -3.80119,-1.94379 -7.46079,-3.02432 -12.365227,-3.65093 -1.2674,-0.16193 -1.28343,-0.17577 -1.12448,-0.97054 0.0887,-0.44345 0.16126,-1.4038 0.16126,-2.13411 v -1.32784 l 1.88503,0.1752 c 9.454137,0.87867 19.028667,5.95513 25.186937,13.35423 5.00889,6.01812 8.13456,13.35421 8.81663,20.69307 l 0.17071,1.83682 h -1.32783 c -0.73031,0 -1.69991,0.0744 -2.15466,0.16537 -0.45476,0.0909 -0.82683,0.0765 -0.82683,-0.0322 z M 59.273893,191.2024 c -0.68511,-0.0957 -1.32604,-0.2544 -1.4243,-0.35266 -0.27794,-0.27794 0.60405,-4.66167 1.47275,-7.32 3.79884,-11.62491 13.13645,-20.87988 24.70996,-24.49127 2.95781,-0.92295 6.90436,-1.7226 8.50168,-1.7226 h 0.85659 l 0.13609,2.05052 c 0.0748,1.12779 0.11634,2.0743 0.0922,2.10337 -0.0241,0.0291 -1.33468,0.2445 -2.9123,0.47876 -14.03916,2.08461 -25.55822,13.00548 -28.18412,26.72048 -0.55683,2.90834 -0.49742,2.78107 -1.28034,2.74277 -0.39741,-0.0195 -1.2831,-0.11366 -1.96821,-0.20937 z"
       id="path8" /><path
       style="fill:#aac030;fill-opacity:1"
       d="m 106.16016,250.4492 h -6.758897 -6.7589 l -0.64943,-0.64943 c -0.38688,-0.38688 -0.64943,-0.95548 -0.64943,-1.40646 0,-0.86434 31.626987,-55.96546 32.572127,-56.74775 0.76966,-0.63706 1.93317,-0.58 2.69796,0.13229 0.35155,0.32742 3.35754,5.29828 6.67997,11.04635 4.88991,8.45993 6.18897,10.69828 6.93264,11.93902 8.23391,14.48124 0.45514,1.17101 11.441,20.1063 4.98681,8.59531 7.40963,13.01808 7.40963,13.52605 0,0.44858 -0.26346,1.01822 -0.64944,1.4042 l -0.64943,0.64943 H 134.24888 110.7198 Z m 43.44423,-10.523 c -1.99344,-3.45932 -8.26788,-14.35025 -13.94319,-24.20206 -5.67531,-9.85181 -10.37828,-17.91181 -10.45104,-17.91111 -0.0728,7.1e-4 -4.77573,8.0606 -10.45104,17.91088 -5.67531,9.85028 -11.94975,20.74063 -13.94319,24.20078 l -3.624437,6.29118 h 28.018667 28.01867 z m -26.5109,-0.0603 v -2.1167 h 2.11667 2.11667 v 2.11667 2.11666 h -2.11667 -2.11667 z m 0,-19.05 v -12.7 h 2.11667 2.11667 v 12.7 12.7 h -2.11667 -2.11667 z"
       id="path10"
       sodipodi:nodetypes="cccssssscsssccccssssscccscccccccccccccccccc" /></g></svg>
