<svg width="448" height="512" viewBox="0 0 448 512" fill="none" xmlns="http://www.w3.org/2000/svg">
<g clip-path="url(#clip0_89_2)">
<path fill-rule="evenodd" clip-rule="evenodd" d="M407 72.6562V116.25C407 156.393 315.879 188.906 203.5 188.906C91.1208 188.906 0 156.393 0 116.25V72.6562C0 32.5137 91.1208 0 203.5 0C315.879 0 407 32.5137 407 72.6562ZM357.215 194.991C376.112 188.271 393.464 179.643 407 169.017V261.562C407 268.364 404.384 274.947 399.492 281.19C385.876 272.232 369.571 267 352 267C312.184 267 278.69 293.881 268.482 330.437C248.075 332.89 226.222 334.219 203.5 334.219C91.1208 334.219 0 301.705 0 261.562V169.017C13.5364 179.733 30.8884 188.271 49.7848 194.991C90.5757 209.522 144.903 217.969 203.5 217.969C262.097 217.969 316.424 209.522 357.215 194.991ZM250.13 361.458C235.026 362.658 219.421 363.281 203.5 363.281C144.903 363.281 90.5757 354.835 49.7848 340.304C30.8884 333.583 13.5364 325.046 0 314.329V392.344C0 432.486 91.1208 465 203.5 465C212.826 465 222.006 464.776 231 464.342V402C231 385.704 238.443 371.101 250.13 361.458ZM343.78 349.5C345.344 346.507 348.462 344.5 352 344.5C355.501 344.5 358.608 346.432 360.222 349.5H343.78Z" fill="#9CB5E2"/>
<path d="M317.714 353.875C317.714 334.883 333.057 319.5 352 319.5C365.671 319.5 377.457 327.492 382.986 339.137C386.243 346.012 394.429 348.934 401.243 345.668C408.057 342.402 411.014 334.195 407.757 327.363C397.857 306.48 376.643 292 352 292C317.929 292 290.286 319.715 290.286 353.875V374.5H283.429C268.3 374.5 256 386.832 256 402V484.5C256 499.668 268.3 512 283.429 512H420.571C435.7 512 448 499.668 448 484.5V402C448 386.832 435.7 374.5 420.571 374.5H317.714V353.875Z" fill="#AAC030"/>
</g>
<defs>
<clipPath id="clip0_89_2">
<rect width="448" height="512" fill="white"/>
</clipPath>
</defs>
</svg>
