<?xml version="1.0" encoding="UTF-8" standalone="no"?>
<!-- Created with Inkscape (http://www.inkscape.org/) -->

<svg
   width="41.700489mm"
   height="50.00005mm"
   viewBox="0 0 41.700489 50.00005"
   version="1.1"
   id="svg1"
   xml:space="preserve"
   inkscape:version="1.3 (0e150ed6c4, 2023-07-21)"
   sodipodi:docname="drawing.svg"
   xmlns:inkscape="http://www.inkscape.org/namespaces/inkscape"
   xmlns:sodipodi="http://sodipodi.sourceforge.net/DTD/sodipodi-0.dtd"
   xmlns="http://www.w3.org/2000/svg"
   xmlns:svg="http://www.w3.org/2000/svg"><sodipodi:namedview
     id="namedview1"
     pagecolor="#ffffff"
     bordercolor="#000000"
     borderopacity="0.25"
     inkscape:showpageshadow="2"
     inkscape:pageopacity="0.0"
     inkscape:pagecheckerboard="0"
     inkscape:deskcolor="#d1d1d1"
     inkscape:document-units="mm"
     inkscape:zoom="5.7941077"
     inkscape:cx="491.36125"
     inkscape:cy="309.02083"
     inkscape:window-width="1920"
     inkscape:window-height="1009"
     inkscape:window-x="-8"
     inkscape:window-y="-8"
     inkscape:window-maximized="1"
     inkscape:current-layer="layer5" /><defs
     id="defs1" /><g
     inkscape:groupmode="layer"
     id="layer10"
     inkscape:label="Layer 9"
     transform="translate(-66.176309,-193.79501)"><path
       style="fill:#aac030;fill-opacity:1;stroke-width:0.396997"
       d="m 73.711671,243.65324 c -0.527797,-0.19141 -1.029451,-0.64373 -1.273822,-1.14853 -0.314687,-0.65005 -0.315914,-2.1269 -0.0023,-2.77473 0.262359,-0.54196 0.798898,-1.00912 1.347909,-1.17361 0.254254,-0.0762 1.372514,-0.11989 3.066755,-0.11989 h 2.666583 l 0.449209,-1.70688 c 0.247064,-0.93879 0.447825,-1.74092 0.446135,-1.78252 -0.0017,-0.0416 -2.850938,-0.0889 -6.331662,-0.10504 l -6.328589,-0.0294 -0.501286,-0.29466 c -0.275708,-0.16207 -0.630214,-0.48949 -0.787791,-0.7276 l -0.286505,-0.43294 v -13.14518 -13.14519 l 0.286505,-0.43294 c 0.157577,-0.23811 0.512083,-0.56553 0.787791,-0.7276 l 0.501286,-0.29466 2.65223,-0.0328 2.65223,-0.0328 v -2.93453 c 0,-2.79448 0.01003,-2.94456 0.210078,-3.14461 0.204731,-0.20474 0.350129,-0.21008 5.712978,-0.21008 5.260203,0 5.513838,0.009 5.750875,0.20066 l 0.247974,0.20065 0.03234,2.95051 0.03234,2.95051 h 1.884613 1.884613 l 0.01969,-0.89283 c 0.01083,-0.49106 0.02265,-1.00923 0.02626,-1.1515 0.0053,-0.20923 -0.162705,-0.37487 -0.879024,-0.86657 -1.611274,-1.10604 -1.770519,-2.11285 -0.607404,-3.84025 0.383502,-0.56956 1.15246,-1.02172 1.737557,-1.02172 0.202498,0 0.816645,0.20612 1.399389,0.46967 l 1.038517,0.46967 0.69608,-0.46683 c 0.382844,-0.25676 0.900881,-0.54505 1.151193,-0.64065 0.507096,-0.19366 0.510851,-0.20357 0.60619,-1.59897 0.104025,-1.52251 0.893927,-2.22437 2.503381,-2.22437 1.750939,0 2.417549,0.66682 2.556304,2.55712 l 0.0749,1.02033 0.737426,0.37009 c 0.405581,0.20355 0.936451,0.51302 1.179711,0.68771 l 0.44228,0.31762 0.8469,-0.42581 c 0.99752,-0.50155 1.48799,-0.60081 2.12585,-0.43021 0.90619,0.24237 1.88628,1.64946 1.88628,2.70807 0,0.97325 -0.23084,1.31589 -1.43787,2.13432 l -0.75513,0.51201 0.0199,1.1456 0.0199,1.1456 1.05039,0.0399 c 1.24928,0.0474 1.79551,0.28785 2.30619,1.01521 l 0.31978,0.45547 v 13.16427 13.16428 l -0.31978,0.45546 c -0.17588,0.2505 -0.53038,0.57363 -0.78779,0.71806 l -0.46801,0.2626 -6.328587,0.0294 c -3.480724,0.0162 -6.329972,0.0634 -6.331664,0.10504 -0.0016,0.0416 0.199071,0.84374 0.446134,1.78252 l 0.44921,1.70688 h 2.666582 c 1.694241,0 2.812505,0.0437 3.066755,0.1199 0.54901,0.16449 1.08555,0.63164 1.34791,1.1736 0.31236,0.64525 0.31236,2.12474 0,2.76998 -0.26236,0.54196 -0.7989,1.00912 -1.34791,1.17361 -0.582248,0.17444 -26.074639,0.15494 -26.557891,-0.0203 z m 26.272965,-1.65307 c 0.247124,-0.19438 0.276764,-0.28919 0.276764,-0.8852 0,-0.59601 -0.0297,-0.69082 -0.276764,-0.88521 -0.27652,-0.21751 -0.287779,-0.2177 -12.958127,-0.2177 -12.670347,0 -12.681606,1.9e-4 -12.958128,0.2177 -0.247118,0.19439 -0.276762,0.2892 -0.276762,0.88521 0,0.59601 0.02964,0.69082 0.276762,0.8852 0.276522,0.21752 0.287781,0.2177 12.958128,0.2177 12.670348,0 12.681607,-1.8e-4 12.958127,-0.2177 z m -7.405692,-4.69286 c -0.168161,-0.62104 -0.381213,-1.42459 -0.473449,-1.78566 l -0.167702,-0.65649 h -4.911284 -4.911284 l -0.167702,0.65649 c -0.09224,0.36107 -0.305288,1.16462 -0.473449,1.78566 l -0.305748,1.12917 h 5.858183 5.858183 z m 13.553606,-4.27035 c 0.20705,-0.18738 0.2211,-0.30585 0.2211,-1.86444 v -1.66434 H 87.026509 67.699368 v 1.66434 c 0,1.74924 0.02817,1.85882 0.525194,2.04298 0.08666,0.0321 8.601658,0.0501 18.922225,0.04 18.291563,-0.0179 18.770243,-0.0235 18.985763,-0.21851 z m -11.438206,-1.11289 c -0.288847,-0.28884 -0.278795,-0.87315 0.01981,-1.15133 0.205633,-0.19158 0.366806,-0.21417 1.527835,-0.21417 1.238024,0 1.309861,0.0119 1.555777,0.25782 0.141803,0.1418 0.257821,0.38029 0.257821,0.52997 0,0.14968 -0.116018,0.38816 -0.257821,0.52997 -0.246337,0.24633 -0.31653,0.25782 -1.575583,0.25782 -1.177707,0 -1.340087,-0.0223 -1.527835,-0.21008 z m 5.375286,-0.033 c -0.323168,-0.344 -0.301667,-0.83943 0.0484,-1.11477 0.24481,-0.19257 0.42121,-0.2177 1.52784,-0.2177 1.18825,0 1.26402,0.0129 1.5089,0.25782 0.33083,0.33083 0.33698,0.78661 0.0147,1.08937 -0.22286,0.20937 -0.35256,0.22839 -1.55728,0.22839 -1.23786,0 -1.32742,-0.0141 -1.54255,-0.24311 z m 6.28402,-14.18345 v -10.11996 l -0.22108,-0.2001 c -0.21384,-0.19355 -0.563,-0.20101 -10.661442,-0.22786 L 85.030771,207.132 v 2.15479 2.1548 h 1.514472 c 0.83296,0 1.594496,0.0307 1.692302,0.0682 0.266192,0.10215 0.467888,0.65782 0.350677,0.96611 -0.169911,0.4469 -9.042201,12.32044 -9.290901,12.43376 -0.554999,0.25287 -0.585491,0.21761 -5.311247,-6.14186 -4.901828,-6.59643 -4.912004,-6.61291 -4.385975,-7.10298 0.222774,-0.20755 0.353116,-0.22328 1.850128,-0.22328 h 1.61047 l -0.02844,-2.12703 -0.02843,-2.12704 h -2.431289 c -2.243524,0 -2.448353,0.0154 -2.65223,0.2001 l -0.22094,0.2001 v 10.11996 10.11997 h 19.327141 19.327141 z m -15.965899,8.12423 c -0.205307,-0.20531 -0.210078,-0.35013 -0.210078,-6.37758 v -6.1675 l 1.710408,-1.71041 1.710408,-1.71041 h 4.386619 4.386612 l 0.25783,0.25782 0.25782,0.25782 v 7.55341 c 0,7.48253 -0.002,7.556 -0.2177,7.83016 l -0.2177,0.27677 h -5.927072 c -5.787018,0 -5.932033,-0.005 -6.137147,-0.21008 z m 10.924039,-7.87791 v -6.51241 h -3.491026 -3.491022 l -1.288244,1.28515 -1.288242,1.28515 v 5.22726 5.22726 h 4.779264 4.77927 z m -8.246776,4.51531 c -0.289263,-0.31963 -0.246522,-0.82474 0.09462,-1.11817 0.285891,-0.24591 0.286717,-0.24598 3.383524,-0.24598 h 3.097562 l 0.257822,0.25783 c 0.318298,0.31829 0.339738,0.81569 0.04774,1.10768 -0.200996,0.20099 -0.350128,0.21007 -3.45,0.21007 -3.113449,0 -3.247393,-0.008 -3.431268,-0.21143 z m 0.131071,-3.49118 c -0.426171,-0.32362 -0.376939,-1.2018 0.07714,-1.37605 0.09781,-0.0375 1.58375,-0.0682 3.302096,-0.0682 h 3.12426 l 0.228389,0.24311 c 0.32317,0.344 0.30167,0.83943 -0.04837,1.11477 -0.265869,0.20914 -0.399427,0.21771 -3.393687,0.21771 -2.331298,0 -3.160503,-0.0331 -3.289827,-0.1313 z m 0.132753,-3.57352 c -0.39721,-0.20458 -0.57077,-0.63567 -0.399627,-0.9926 0.257808,-0.53767 0.40544,-0.55853 3.744013,-0.52914 l 3.081793,0.0271 0.20067,0.24797 c 0.110373,0.13638 0.200673,0.3793 0.200673,0.53982 0,0.16051 -0.0903,0.40343 -0.200673,0.53981 l -0.20067,0.24798 -3.081793,0.0272 c -2.351521,0.0207 -3.144015,-0.005 -3.344386,-0.10811 z m -10.721711,2.56136 c 1.96849,-2.6509 3.579072,-4.84884 3.579072,-4.88431 0,-0.0354 -0.514706,-0.0645 -1.143791,-0.0645 -0.969553,0 -1.181565,-0.0306 -1.391764,-0.20075 l -0.247974,-0.20076 -0.02882,-5.8915 -0.02882,-5.8915 h -4.356553 -4.356552 v 5.83443 5.83443 l -0.257822,0.25782 c -0.242848,0.24285 -0.325717,0.25783 -1.426777,0.25783 -0.642926,0 -1.1532,0.0395 -1.133942,0.0877 0.04558,0.11415 7.145708,9.68092 7.184853,9.68092 0.0164,0 1.640398,-2.16892 3.608886,-4.81982 z m 9.657743,-13.27315 c -6.75e-4,-1.74819 0.885615,-3.17259 2.429172,-3.9041 0.634505,-0.3007 0.765351,-0.32371 1.840971,-0.32371 1.093521,0 1.196363,0.0189 1.849209,0.34046 0.861722,0.42439 1.569571,1.16357 2.015308,2.10449 0.30102,0.63543 0.33455,0.80358 0.33455,1.67769 v 0.97149 l 0.91908,1.2e-4 0.9191,1.3e-4 v -0.83514 c 0,-0.45933 -0.0516,-1.07555 -0.11458,-1.36939 -0.15381,-0.7172 -0.0345,-0.88129 1.27362,-1.75227 1.15946,-0.77198 1.20406,-0.85728 0.8087,-1.54669 -0.43993,-0.76712 -0.51687,-0.772 -1.85117,-0.11715 -0.6486,0.31833 -1.26737,0.57877 -1.37504,0.57877 -0.10766,0 -0.40031,-0.16429 -0.65033,-0.36509 -0.65713,-0.52778 -1.418148,-0.97046 -2.103655,-1.2237 -0.897451,-0.33152 -0.944614,-0.41662 -1.055905,-1.90535 -0.115006,-1.53837 -0.181967,-1.65276 -0.967581,-1.65276 -0.845667,0 -0.887804,0.0658 -1.010139,1.57638 -0.115113,1.42141 -0.226797,1.71608 -0.694507,1.83242 -0.573804,0.14272 -1.58315,0.68936 -2.234928,1.21037 -0.363103,0.29026 -0.765338,0.52773 -0.893855,0.52773 -0.128517,0 -0.748786,-0.25062 -1.378376,-0.55694 -0.62959,-0.30633 -1.225757,-0.53952 -1.324816,-0.51821 -0.243565,0.0524 -0.839056,1.10752 -0.752444,1.33323 0.03716,0.0968 0.556842,0.50433 1.154851,0.90556 0.767006,0.5146 1.106879,0.80753 1.153791,0.99445 0.03658,0.14573 0.0081,0.64014 -0.0632,1.0987 -0.07133,0.45856 -0.0976,1.04779 -0.05837,1.30941 l 0.07133,0.47567 h 0.879767 0.879767 z m 6.818138,0.68275 c 0.15941,-0.3882 0.06886,-1.43533 -0.162443,-1.87856 -0.494452,-0.94748 -1.191833,-1.41024 -2.238008,-1.4851 -1.129552,-0.0808 -2.048084,0.44701 -2.557761,1.46979 -0.268858,0.53953 -0.352256,1.29023 -0.204561,1.84135 l 0.06334,0.23634 h 2.51198 c 2.293575,0 2.518537,-0.016 2.587456,-0.18382 z"
       id="path29" /><path
       style="fill:#9cb5e2;fill-opacity:1;stroke-width:0.396997"
       d="m 73.711671,243.65324 c -0.527797,-0.19141 -1.029451,-0.64373 -1.273822,-1.14853 -0.314687,-0.65005 -0.315914,-2.1269 -0.0023,-2.77473 0.262359,-0.54196 0.798898,-1.00912 1.347909,-1.17361 0.254254,-0.0762 1.372514,-0.11989 3.066755,-0.11989 h 2.666583 l 0.449209,-1.70688 c 0.247064,-0.93879 0.447825,-1.74092 0.446135,-1.78252 -0.0017,-0.0416 -2.850938,-0.0889 -6.331662,-0.10504 l -6.328589,-0.0294 -0.501286,-0.29466 c -0.275708,-0.16207 -0.630214,-0.48949 -0.787791,-0.7276 l -0.286505,-0.43294 v -13.14518 -13.14519 l 0.286505,-0.43294 c 0.157577,-0.23811 0.512083,-0.56553 0.787791,-0.7276 l 0.501286,-0.29466 2.65223,-0.0328 c 5.507401,-0.0652 11.015687,-0.0208 16.523428,-0.0197 h 1.884613 l 0.01969,-0.89283 c 0.01083,-0.49106 0.02265,-1.00923 0.02626,-1.1515 0.0053,-0.20923 -0.162705,-0.37487 -0.879024,-0.86657 -1.611274,-1.10604 -1.770519,-2.11285 -0.607404,-3.84025 0.383502,-0.56956 1.15246,-1.02172 1.737557,-1.02172 0.202498,0 0.816645,0.20612 1.399389,0.46967 l 1.038517,0.46967 0.69608,-0.46683 c 0.382844,-0.25676 0.900881,-0.54505 1.151193,-0.64065 0.507096,-0.19366 0.510851,-0.20357 0.60619,-1.59897 0.104025,-1.52251 0.893927,-2.22437 2.503381,-2.22437 1.750939,0 2.417549,0.66682 2.556304,2.55712 l 0.0749,1.02033 0.737426,0.37009 c 0.405581,0.20355 0.936451,0.51302 1.179711,0.68771 l 0.44228,0.31762 0.8469,-0.42581 c 0.99752,-0.50155 1.48799,-0.60081 2.12585,-0.43021 0.90619,0.24237 1.88628,1.64946 1.88628,2.70807 0,0.97325 -0.23084,1.31589 -1.43787,2.13432 l -0.75513,0.51201 0.0199,1.1456 0.0199,1.1456 1.05039,0.0399 c 1.24928,0.0474 1.79551,0.28785 2.30619,1.01521 l 0.31978,0.45547 v 13.16427 13.16428 l -0.31978,0.45546 c -0.17588,0.2505 -0.53038,0.57363 -0.78779,0.71806 l -0.46801,0.2626 -6.328587,0.0294 c -3.480724,0.0162 -6.329972,0.0634 -6.331664,0.10504 -0.0016,0.0416 0.199071,0.84374 0.446134,1.78252 l 0.44921,1.70688 h 2.666582 c 1.694241,0 2.812505,0.0437 3.066755,0.1199 0.54901,0.16449 1.08555,0.63164 1.34791,1.1736 0.31236,0.64525 0.31236,2.12474 0,2.76998 -0.26236,0.54196 -0.7989,1.00912 -1.34791,1.17361 -0.582248,0.17444 -26.074639,0.15494 -26.557891,-0.0203 z m 26.272965,-1.65307 c 0.247124,-0.19438 0.276764,-0.28919 0.276764,-0.8852 0,-0.59601 -0.0297,-0.69082 -0.276764,-0.88521 -0.27652,-0.21751 -0.287779,-0.2177 -12.958127,-0.2177 -12.670347,0 -12.681606,1.9e-4 -12.958128,0.2177 -0.247118,0.19439 -0.276762,0.2892 -0.276762,0.88521 0,0.59601 0.02964,0.69082 0.276762,0.8852 0.276522,0.21752 0.287781,0.2177 12.958128,0.2177 12.670348,0 12.681607,-1.8e-4 12.958127,-0.2177 z m -7.405692,-4.69286 c -0.168161,-0.62104 -0.381213,-1.42459 -0.473449,-1.78566 l -0.167702,-0.65649 h -4.911284 -4.911284 l -0.167702,0.65649 c -0.09224,0.36107 -0.305288,1.16462 -0.473449,1.78566 l -0.305748,1.12917 h 5.858183 5.858183 z m 13.553606,-4.27035 c 0.20705,-0.18738 0.2211,-0.30585 0.2211,-1.86444 v -1.66434 H 87.026509 67.699368 v 1.66434 c 0,1.74924 0.02817,1.85882 0.525194,2.04298 0.08666,0.0321 8.601658,0.0501 18.922225,0.04 18.291563,-0.0179 18.770243,-0.0235 18.985763,-0.21851 z m -11.438206,-1.11289 c -0.288847,-0.28884 -0.278795,-0.87315 0.01981,-1.15133 0.205633,-0.19158 0.366806,-0.21417 1.527835,-0.21417 1.238024,0 1.309861,0.0119 1.555777,0.25782 0.141803,0.1418 0.257821,0.38029 0.257821,0.52997 0,0.14968 -0.116018,0.38816 -0.257821,0.52997 -0.246337,0.24633 -0.31653,0.25782 -1.575583,0.25782 -1.177707,0 -1.340087,-0.0223 -1.527835,-0.21008 z m 5.375286,-0.033 c -0.323168,-0.344 -0.301667,-0.83943 0.0484,-1.11477 0.24481,-0.19257 0.42121,-0.2177 1.52784,-0.2177 1.18825,0 1.26402,0.0129 1.5089,0.25782 0.33083,0.33083 0.33698,0.78661 0.0147,1.08937 -0.22286,0.20937 -0.35256,0.22839 -1.55728,0.22839 -1.23786,0 -1.32742,-0.0141 -1.54255,-0.24311 z m 6.28402,-14.18345 v -10.11996 l -0.22108,-0.2001 c -0.21384,-0.19355 -0.563,-0.20101 -10.661442,-0.22786 -17.902078,-0.12418 -1.78471,0.0278 -24.89859,0.0278 -2.243524,0 -2.448353,0.0154 -2.65223,0.2001 l -0.22094,0.2001 v 10.11996 10.11997 h 19.327141 19.327141 z m -15.965899,8.12423 c -0.205307,-0.20531 -0.210078,-0.35013 -0.210078,-6.37758 v -6.1675 l 1.710408,-1.71041 1.710408,-1.71041 h 4.386619 4.386612 l 0.25783,0.25782 0.25782,0.25782 v 7.55341 c 0,7.48253 -0.002,7.556 -0.2177,7.83016 l -0.2177,0.27677 h -5.927072 c -5.787018,0 -5.932033,-0.005 -6.137147,-0.21008 z m 10.924039,-7.87791 v -6.51241 h -3.491026 -3.491022 l -1.288244,1.28515 -1.288242,1.28515 v 5.22726 5.22726 h 4.779264 4.77927 z m -8.246776,4.51531 c -0.289263,-0.31963 -0.246522,-0.82474 0.09462,-1.11817 0.285891,-0.24591 0.286717,-0.24598 3.383524,-0.24598 h 3.097562 l 0.257822,0.25783 c 0.318298,0.31829 0.339738,0.81569 0.04774,1.10768 -0.200996,0.20099 -0.350128,0.21007 -3.45,0.21007 -3.113449,0 -3.247393,-0.008 -3.431268,-0.21143 z m 0.131071,-3.49118 c -0.426171,-0.32362 -0.376939,-1.2018 0.07714,-1.37605 0.09781,-0.0375 1.58375,-0.0682 3.302096,-0.0682 h 3.12426 l 0.228389,0.24311 c 0.32317,0.344 0.30167,0.83943 -0.04837,1.11477 -0.265869,0.20914 -0.399427,0.21771 -3.393687,0.21771 -2.331298,0 -3.160503,-0.0331 -3.289827,-0.1313 z m 0.132753,-3.57352 c -0.39721,-0.20458 -0.57077,-0.63567 -0.399627,-0.9926 0.257808,-0.53767 0.40544,-0.55853 3.744013,-0.52914 l 3.081793,0.0271 0.20067,0.24797 c 0.110373,0.13638 0.200673,0.3793 0.200673,0.53982 0,0.16051 -0.0903,0.40343 -0.200673,0.53981 l -0.20067,0.24798 -3.081793,0.0272 c -2.351521,0.0207 -3.144015,-0.005 -3.344386,-0.10811 z M 92.26487,204.69276 c -6.75e-4,-1.74819 0.885615,-3.17259 2.429172,-3.9041 0.634505,-0.3007 0.765351,-0.32371 1.840971,-0.32371 1.093521,0 1.196363,0.0189 1.849209,0.34046 0.861722,0.42439 1.569571,1.16357 2.015308,2.10449 0.30102,0.63543 0.33455,0.80358 0.33455,1.67769 v 0.97149 l 0.91908,1.2e-4 0.9191,1.3e-4 v -0.83514 c 0,-0.45933 -0.0516,-1.07555 -0.11458,-1.36939 -0.15381,-0.7172 -0.0345,-0.88129 1.27362,-1.75227 1.15946,-0.77198 1.20406,-0.85728 0.8087,-1.54669 -0.43993,-0.76712 -0.51687,-0.772 -1.85117,-0.11715 -0.6486,0.31833 -1.26737,0.57877 -1.37504,0.57877 -0.10766,0 -0.40031,-0.16429 -0.65033,-0.36509 -0.65713,-0.52778 -1.418148,-0.97046 -2.103655,-1.2237 -0.897451,-0.33152 -0.944614,-0.41662 -1.055905,-1.90535 -0.115006,-1.53837 -0.181967,-1.65276 -0.967581,-1.65276 -0.845667,0 -0.887804,0.0658 -1.010139,1.57638 -0.115113,1.42141 -0.226797,1.71608 -0.694507,1.83242 -0.573804,0.14272 -1.58315,0.68936 -2.234928,1.21037 -0.363103,0.29026 -0.765338,0.52773 -0.893855,0.52773 -0.128517,0 -0.748786,-0.25062 -1.378376,-0.55694 -0.62959,-0.30633 -1.225757,-0.53952 -1.324816,-0.51821 -0.243565,0.0524 -0.839056,1.10752 -0.752444,1.33323 0.03716,0.0968 0.556842,0.50433 1.154851,0.90556 0.767006,0.5146 1.106879,0.80753 1.153791,0.99445 0.03658,0.14573 0.0081,0.64014 -0.0632,1.0987 -0.07133,0.45856 -0.0976,1.04779 -0.05837,1.30941 l 0.07133,0.47567 h 0.879767 0.879767 z m 6.818138,0.68275 c 0.15941,-0.3882 0.06886,-1.43533 -0.162443,-1.87856 -0.494452,-0.94748 -1.191833,-1.41024 -2.238008,-1.4851 -1.129552,-0.0808 -2.048084,0.44701 -2.557761,1.46979 -0.268858,0.53953 -0.352256,1.29023 -0.204561,1.84135 l 0.06334,0.23634 h 2.51198 c 2.293575,0 2.518537,-0.016 2.587456,-0.18382 z"
       id="path28"
       sodipodi:nodetypes="csssscssccsscccssccccsssssscssssscsscssssccccscccsscccscsssssccssssssssssscccsscccssscccssssssssssssssssssssssccscssccccccsscccccccsscssccccccccccccsscssscssscsssssssscsssccssssscsscccscssssssssssssssssssscccsssssscsss" /></g></svg>
