<?xml version="1.0" encoding="UTF-8" standalone="no"?>
<!-- Created with Inkscape (http://www.inkscape.org/) -->

<svg
   width="53.779182mm"
   height="49.999985mm"
   viewBox="0 0 53.779182 49.999985"
   version="1.1"
   id="svg1"
   xml:space="preserve"
   inkscape:version="1.3 (0e150ed6c4, 2023-07-21)"
   sodipodi:docname="drawing.svg"
   xmlns:inkscape="http://www.inkscape.org/namespaces/inkscape"
   xmlns:sodipodi="http://sodipodi.sourceforge.net/DTD/sodipodi-0.dtd"
   xmlns="http://www.w3.org/2000/svg"
   xmlns:svg="http://www.w3.org/2000/svg"><sodipodi:namedview
     id="namedview1"
     pagecolor="#ffffff"
     bordercolor="#000000"
     borderopacity="0.25"
     inkscape:showpageshadow="2"
     inkscape:pageopacity="0.0"
     inkscape:pagecheckerboard="0"
     inkscape:deskcolor="#d1d1d1"
     inkscape:document-units="mm"
     inkscape:zoom="5.7941077"
     inkscape:cx="491.36125"
     inkscape:cy="309.02083"
     inkscape:window-width="1920"
     inkscape:window-height="1009"
     inkscape:window-x="-8"
     inkscape:window-y="-8"
     inkscape:window-maximized="1"
     inkscape:current-layer="layer5" /><defs
     id="defs1" /><g
     inkscape:groupmode="layer"
     id="layer7"
     inkscape:label="Layer 6"
     style="fill:#9cb5e2;fill-opacity:1"
     transform="translate(-66.978342,-130.3733)"><path
       style="fill:#aac030;fill-opacity:1;stroke-width:0.396992"
       d="m 71.723335,180.13007 c -0.409725,-0.43613 -0.308676,-0.78943 0.559396,-1.95584 0.433279,-0.58219 0.78778,-1.15276 0.78778,-1.26795 0,-0.20394 -0.07294,-0.20941 -2.788265,-0.20941 h -2.788265 l -0.257819,-0.25782 -0.257819,-0.25782 v -4.89379 -4.89379 l 0.257819,-0.25782 0.257819,-0.25782 h 7.834834 7.834834 l 0.257819,0.25782 0.257819,0.25782 v 4.93391 4.93391 l -0.276759,0.2177 c -0.264094,0.20773 -0.403479,0.2177 -3.046084,0.2177 -3.302223,0 -3.175503,-0.0932 -1.981545,1.45711 0.887898,1.15289 1.000094,1.56297 0.544677,1.99081 -0.239149,0.22467 -0.297814,0.22839 -3.605481,0.22839 h -3.362376 z m 4.748273,-1.56879 c -0.04264,-0.0722 -0.187234,-0.27756 -0.321311,-0.45632 -0.181459,-0.24194 -0.243777,-0.46346 -0.243777,-0.86656 v -0.54153 h -0.577705 -0.577706 v 0.54153 c 0,0.4031 -0.06232,0.62462 -0.243776,0.86656 -0.461344,0.61511 -0.499773,0.58761 0.821482,0.58761 0.947589,0 1.202999,-0.0293 1.142793,-0.13129 z m 5.527081,-7.22133 v -3.67631 h -6.669874 -6.669874 v 3.67631 3.67632 h 6.669874 6.669874 z"
       id="path14" /><path
       style="fill:#9cb5e2;fill-opacity:1;stroke-width:0.396992"
       d="m 91.163325,156.36828 c -0.28025,-0.19629 -0.39098,-0.60728 -0.5508,-2.04438 -0.160692,-1.44491 -0.149385,-1.41662 -0.629416,-1.57504 l -0.414679,-0.13686 -1.269504,0.96099 c -0.856151,0.64808 -1.359802,0.96098 -1.546829,0.96098 -0.218767,0 -0.664873,-0.38578 -2.112723,-1.82704 -1.588793,-1.58155 -1.835399,-1.87075 -1.835399,-2.15234 0,-0.24858 0.226085,-0.6203 0.958563,-1.57606 l 0.958562,-1.25076 -0.169209,-0.43076 c -0.09306,-0.23692 -0.221122,-0.432 -0.284572,-0.43352 -0.06345,-0.002 -0.775802,-0.0917 -1.583004,-0.20042 -2.07298,-0.27919 -1.946075,-0.0689 -1.946075,-3.22448 v -2.4706 l 0.288853,-0.28728 c 0.264629,-0.26318 0.416581,-0.30292 1.811895,-0.47383 0.837673,-0.1026 1.524443,-0.19421 1.526157,-0.20357 0.0017,-0.009 0.08621,-0.1996 0.187769,-0.42276 l 0.184654,-0.40574 -0.654301,-0.85471 c -0.359865,-0.47008 -0.768062,-0.99384 -0.907104,-1.16389 -0.38929,-0.47613 -0.461832,-0.75468 -0.296902,-1.1401 0.07916,-0.18499 0.900217,-1.0808 1.824567,-1.99069 1.420221,-1.39799 1.729685,-1.65433 1.997177,-1.65433 0.331013,0 0.693006,0.22693 2.066937,1.29575 0.773683,0.60187 0.794858,0.61074 1.16537,0.48846 0.2082,-0.0687 0.41931,-0.22579 0.47093,-0.35041 0.05146,-0.12423 0.169243,-0.84025 0.261743,-1.59116 0.24345,-1.97633 0.003,-1.83835 3.20193,-1.83835 3.19879,0 2.95847,-0.13798 3.20193,1.83835 0.0925,0.75091 0.21028,1.46693 0.26174,1.59116 0.0517,0.12494 0.26299,0.28179 0.47272,0.351 0.3739,0.1234 0.39111,0.11598 1.24121,-0.53539 0.47413,-0.36329 1.026425,-0.79302 1.227345,-0.95497 0.23946,-0.19301 0.48815,-0.29444 0.7219,-0.29444 0.3192,0 0.53282,0.17347 2.03723,1.65433 0.92435,0.90989 1.74541,1.8057 1.82457,1.99069 0.16493,0.38542 0.0924,0.66397 -0.2969,1.1401 -0.13905,0.17005 -0.5453,0.6913 -0.90279,1.15832 l -0.65,0.84913 0.18139,0.42473 0.18139,0.42474 1.52511,0.19042 c 1.39407,0.17407 1.54994,0.21509 1.81397,0.47744 l 0.28885,0.287 v 2.4706 c 0,3.15556 0.1269,2.94529 -1.94608,3.22448 -0.8072,0.10872 -1.51955,0.19891 -1.583,0.20042 -0.0635,0.002 -0.1915,0.1966 -0.28457,0.43352 l -0.16921,0.43076 0.95856,1.25076 c 0.73248,0.95576 0.95856,1.32748 0.95856,1.57606 0,0.28159 -0.2466,0.57079 -1.83539,2.15234 -1.44785,1.44126 -1.89396,1.82704 -2.11272,1.82704 -0.18703,0 -0.69068,-0.3129 -1.546835,-0.96098 l -1.2695,-0.96099 -0.41468,0.13686 c -0.48003,0.15842 -0.46872,0.13013 -0.62941,1.57504 -0.15983,1.4371 -0.27056,1.84809 -0.5508,2.04438 -0.34157,0.23925 -5.06761,0.23925 -5.40918,0 z m 4.3159,-2.94018 c 0.097,-0.78155 0.2327,-1.51136 0.30168,-1.6218 0.14754,-0.23626 2.10895,-1.0799 2.51716,-1.08268 0.19029,-0.001 0.60772,0.24922 1.29145,0.77507 0.555645,0.42734 1.078995,0.82398 1.162995,0.88143 0.11849,0.081 0.37979,-0.12261 1.16541,-0.90823 l 1.01267,-1.01267 -0.85638,-1.08749 c -0.9219,-1.17068 -1.05257,-1.44845 -0.87853,-1.86753 0.0617,-0.14868 0.2371,-0.57756 0.38967,-0.95307 0.53727,-1.32228 0.49047,-1.28874 2.05103,-1.46978 0.54883,-0.0637 1.12784,-0.1409 1.28671,-0.17163 l 0.28886,-0.0559 v -1.40766 c 0,-1.6359 0.20684,-1.42885 -1.6622,-1.66388 -1.36699,-0.1719 -1.49005,-0.24564 -1.80218,-1.07989 -0.11694,-0.31255 -0.307,-0.75327 -0.42235,-0.97938 -0.34012,-0.66669 -0.28538,-0.83551 0.68627,-2.11645 l 0.896,-1.18121 -0.9727,-0.97677 c -0.53499,-0.53722 -1.01309,-0.97677 -1.06245,-0.97677 -0.0494,0 -0.58419,0.3829 -1.188515,0.85088 -1.01028,0.78235 -1.1301,0.84677 -1.48789,0.79992 -0.47225,-0.0618 -2.05389,-0.71608 -2.32558,-0.96197 -0.15175,-0.13732 -0.23799,-0.50717 -0.38264,-1.64098 l -0.18673,-1.46371 h -1.43307 -1.43307 l -0.18674,1.46371 c -0.14465,1.13381 -0.23089,1.50366 -0.38263,1.64098 -0.27248,0.2466 -1.853977,0.90022 -2.328128,0.96221 -0.362511,0.0474 -0.476823,-0.0152 -1.535786,-0.84162 l -1.144122,-0.89283 -1.014596,1.01842 -1.014596,1.01842 0.896043,1.18127 c 0.971691,1.28099 1.026432,1.44981 0.686312,2.1165 -0.115353,0.22611 -0.305411,0.66683 -0.422351,0.97938 -0.31878,0.85202 -0.423687,0.91071 -2.016287,1.12807 -0.767563,0.10475 -1.407387,0.19352 -1.421829,0.19725 -0.01444,0.004 -0.02626,0.64114 -0.02626,1.41645 v 1.40966 l 0.288853,0.0559 c 0.158869,0.0307 0.737887,0.10797 1.286708,0.17164 1.560563,0.18103 1.513764,0.14749 2.05103,1.46978 0.152575,0.3755 0.327929,0.80439 0.389675,0.95307 0.174039,0.41908 0.04337,0.69684 -0.878531,1.86753 l -0.856384,1.08748 1.012674,1.01267 c 0.78562,0.78563 1.046919,0.98926 1.165405,0.90823 0.084,-0.0574 0.607355,-0.45409 1.163006,-0.88143 0.683735,-0.52585 1.101157,-0.77637 1.29145,-0.77507 0.408213,0.003 2.369614,0.84642 2.517164,1.08268 0.069,0.11045 0.20473,0.84026 0.30168,1.6218 l 0.17627,1.42099 h 1.43504 1.43504 z m -3.23939,-4.02976 c -1.09673,-0.32005 -1.940677,-0.82272 -2.730973,-1.62662 -0.853831,-0.86853 -1.339333,-1.71968 -1.630659,-2.85875 -0.262937,-1.02808 -0.262937,-1.8928 0,-2.92088 1.229093,-4.80571 7.168002,-6.33375 10.524022,-2.70776 2.250065,2.43109 2.179645,6.10213 -0.16262,8.4772 -0.82146,0.83298 -1.77122,1.38533 -2.87291,1.67081 -0.84062,0.21783 -2.31899,0.20175 -3.12686,-0.034 z m 2.37481,-1.58893 c 1.43033,-0.27126 2.62575,-1.18435 3.26698,-2.49539 0.3267,-0.66798 0.34534,-0.76842 0.34534,-1.86149 0,-1.08263 -0.0212,-1.20023 -0.33703,-1.86692 -0.20479,-0.43236 -0.55507,-0.92928 -0.89281,-1.26658 -2.17914,-2.17632 -5.8264,-1.53034 -7.151239,1.26658 -0.315794,0.66669 -0.337024,0.78429 -0.337024,1.86692 0,1.1001 0.01705,1.1903 0.356202,1.88425 0.449782,0.92031 1.182851,1.65977 2.045751,2.06356 1.02797,0.48105 1.74903,0.59014 2.70383,0.40907 z"
       id="path18"
       inkscape:export-filename="img\path18.svg"
       inkscape:export-xdpi="96"
       inkscape:export-ydpi="96" /><path
       style="fill:#9cb5e2;fill-opacity:1;stroke-width:0.396992"
       d="m 74.880196,164.86237 c -0.362612,-0.14589 -0.444199,-0.62272 -0.444199,-2.59609 0,-1.06787 0.04697,-2.06511 0.104369,-2.21609 0.2243,-0.58995 0.04941,-0.57946 9.660734,-0.57946 h 8.826515 v -0.76947 c 0,-0.66851 0.0319,-0.79944 0.2431,-0.99786 0.33314,-0.31296 0.90784,-0.30596 1.20911,0.0147 0.19061,0.20289 0.22839,0.36756 0.22839,0.99548 v 0.75237 l 8.604635,0.0286 8.60464,0.0286 0.27102,0.25464 0.27101,0.25465 v 2.19225 c 0,2.18752 -3.9e-4,2.1928 -0.25781,2.45007 -0.34115,0.34114 -0.88148,0.34779 -1.1944,0.0147 -0.21379,-0.22757 -0.22838,-0.34504 -0.22838,-1.83816 v -1.59505 h -8.03536 -8.035355 v 0.79256 c 0,0.70143 -0.0297,0.8222 -0.25782,1.05038 -0.3411,0.34109 -0.82387,0.34109 -1.16496,0 -0.22818,-0.22818 -0.25782,-0.34895 -0.25782,-1.05038 v -0.79256 h -8.402992 -8.40299 v 1.47575 c 0,1.88151 -0.141346,2.21554 -0.927668,2.19227 -0.154144,-0.005 -0.34034,-0.0325 -0.413769,-0.062 z"
       id="path17" /><path
       style="fill:#aac030;fill-opacity:1;stroke-width:0.396992"
       d="m 103.17578,180.15383 c -0.32117,-0.25264 -0.58977,-0.72401 -0.58977,-1.035 0,-0.11792 0.3883,-1.12469 0.8629,-2.23726 l 0.8629,-2.02286 0.0562,-4.12086 0.0562,-4.12086 0.34335,-0.34323 0.34334,-0.34323 6.48409,-0.0272 c 6.3573,-0.0267 6.49088,-0.023 6.83177,0.18611 0.63154,0.38746 0.65017,0.52438 0.65017,4.77844 v 3.84121 l 0.84029,2.03387 c 0.46217,1.11863 0.84031,2.1827 0.84031,2.36459 0,0.18189 -0.0717,0.46936 -0.15934,0.63883 -0.33712,0.65192 0.0221,0.62679 -8.95954,0.62679 -8.14026,0 -8.18545,-10e-4 -8.46282,-0.21935 z m 15.0321,-2.98516 -0.63483,-1.52391 -5.8842,0.0271 -5.8842,0.0271 -0.61139,1.47052 c -0.33627,0.80879 -0.61142,1.48234 -0.61146,1.49678 -5e-5,0.0144 3.20864,0.0262 7.13041,0.0262 h 7.1305 z m -0.91664,-6.3539 v -3.15113 h -5.6195 -5.61949 v 3.15113 3.15112 h 5.61949 5.6195 z"
       id="path16" /><path
       style="fill:#aac030;fill-opacity:1;stroke-width:0.396992"
       d="m 89.267908,180.14809 c -0.190295,-0.12185 -0.438446,-0.40277 -0.551446,-0.62427 -0.197733,-0.38759 -0.205455,-0.66164 -0.205455,-7.29104 0,-6.64479 0.0073,-6.90266 0.206809,-7.2937 0.113745,-0.22296 0.367475,-0.50468 0.563844,-0.62605 0.345664,-0.21363 0.479087,-0.22065 4.189225,-0.22065 3.80191,0 3.83497,0.002 4.18342,0.23669 0.19318,0.13018 0.44831,0.40196 0.56698,0.60396 0.21176,0.36047 0.21576,0.49568 0.21576,7.29975 0,6.80406 -0.004,6.93926 -0.21576,7.29974 -0.11867,0.202 -0.3738,0.47378 -0.56698,0.60396 -0.34863,0.23494 -0.37963,0.23668 -4.19581,0.23492 -3.729999,-0.002 -3.854909,-0.008 -4.190587,-0.22331 z m 7.436017,-7.91531 v -6.45981 h -3.20364 -3.203643 v 6.45981 6.45979 h 3.203643 3.20364 z m -3.52095,6.03936 c -1.35308,-0.29157 -1.63272,-2.0072 -0.44517,-2.73126 0.93614,-0.57077 2.18387,0.13248 2.19915,1.2395 0.0132,0.95377 -0.84874,1.68682 -1.75398,1.49176 z m 0.45079,-1.45054 c 0.0229,-0.0686 -0.0333,-0.12473 -0.12473,-0.12473 -0.0915,0 -0.16631,0.0748 -0.16631,0.1663 0,0.18549 0.22612,0.15319 0.29104,-0.0416 z"
       id="path15" /></g></svg>
