<?xml version="1.0" encoding="UTF-8" standalone="no"?>
<!-- Created with Inkscape (http://www.inkscape.org/) -->

<svg
   width="38.875404mm"
   height="48.445976mm"
   viewBox="0 0 38.875404 48.445976"
   version="1.1"
   id="svg1"
   xml:space="preserve"
   inkscape:version="1.3 (0e150ed6c4, 2023-07-21)"
   sodipodi:docname="drawing.svg"
   xmlns:inkscape="http://www.inkscape.org/namespaces/inkscape"
   xmlns:sodipodi="http://sodipodi.sourceforge.net/DTD/sodipodi-0.dtd"
   xmlns="http://www.w3.org/2000/svg"
   xmlns:svg="http://www.w3.org/2000/svg"><sodipodi:namedview
     id="namedview1"
     pagecolor="#ffffff"
     bordercolor="#000000"
     borderopacity="0.25"
     inkscape:showpageshadow="2"
     inkscape:pageopacity="0.0"
     inkscape:pagecheckerboard="0"
     inkscape:deskcolor="#d1d1d1"
     inkscape:document-units="mm"
     inkscape:zoom="5.7941077"
     inkscape:cx="491.36125"
     inkscape:cy="309.02083"
     inkscape:window-width="1920"
     inkscape:window-height="1009"
     inkscape:window-x="-8"
     inkscape:window-y="-8"
     inkscape:window-maximized="1"
     inkscape:current-layer="layer5" /><defs
     id="defs1" /><g
     inkscape:groupmode="layer"
     id="layer9"
     inkscape:label="Layer 8"
     transform="translate(-14.722609,-194.41702)"><path
       style="fill:#9cb5e2;fill-opacity:1"
       d="m 17.194699,242.68043 c -2.35987,-0.87479 -3.223401,-3.73661 -1.738051,-5.76006 0.3991,-0.54368 1.186283,-1.11483 1.789602,-1.29847 l 0.415039,-0.12632 v -2.05881 c 0,-2.02578 0.0036,-2.06222 0.22602,-2.27114 l 0.226021,-0.21234 h 7.635308 7.635307 v -6.10352 -6.10351 h -7.080078 -7.080078 v 1.51367 c 0,1.14579 0.02967,1.51369 0.12207,1.51375 0.06714,4e-5 0.385742,0.12684 0.708008,0.28177 0.733991,0.35288 1.422394,1.05692 1.777392,1.81776 0.242456,0.51964 0.273278,0.69644 0.272405,1.5625 -8.8e-4,0.87308 -0.03032,1.03656 -0.277838,1.54272 -0.35295,0.72177 -1.067932,1.43714 -1.791415,1.7924 -0.513509,0.25215 -0.662367,0.27816 -1.591872,0.27816 -0.936938,0 -1.075828,-0.0248 -1.610082,-0.28707 -0.744744,-0.36565 -1.3993,-1.02021 -1.764955,-1.76495 -0.262309,-0.53426 -0.287073,-0.67315 -0.287073,-1.61009 0,-0.93713 0.0243,-1.07336 0.282345,-1.58271 0.373623,-0.7375 1.04763,-1.40437 1.768437,-1.7497 0.322265,-0.15439 0.640869,-0.28075 0.708008,-0.28079 0.09384,-6e-5 0.12207,-0.48174 0.12207,-2.08266 0,-2.05064 0.0035,-2.08585 0.22602,-2.29493 l 0.226021,-0.21233 h 7.635308 7.635307 v -1.31836 -1.31836 h -0.368896 c -0.529897,0 -0.751983,-0.2042 -1.039005,-0.95533 l -0.253562,-0.66356 -0.911468,-0.35951 -0.911467,-0.35951 -0.69153,0.29055 c -0.579028,0.24328 -0.736468,0.27376 -0.967762,0.18737 -0.371774,-0.13888 -2.068357,-1.81872 -2.242168,-2.22004 -0.129393,-0.29877 -0.119064,-0.36702 0.153859,-1.01659 l 0.292564,-0.69633 -0.359508,-0.91146 -0.359509,-0.91147 -0.663565,-0.25356 c -0.364962,-0.13946 -0.729212,-0.34729 -0.809446,-0.46184 -0.211608,-0.30211 -0.211608,-3.15252 0,-3.45463 0.08023,-0.11455 0.444484,-0.32238 0.809446,-0.46183 l 0.663565,-0.25357 0.359509,-0.91146 0.359508,-0.91147 -0.29055,-0.69153 c -0.243282,-0.57903 -0.273763,-0.73647 -0.187365,-0.96776 0.138874,-0.37178 1.818713,-2.06836 2.220039,-2.24217 0.298767,-0.1294 0.367012,-0.11907 1.01659,0.15386 l 0.696323,0.29256 0.911467,-0.35951 0.911468,-0.35951 0.253562,-0.66356 c 0.13946,-0.36496 0.347286,-0.72921 0.461836,-0.80945 0.302112,-0.21161 3.152518,-0.21161 3.45463,0 0.11455,0.0802 0.322376,0.44449 0.461836,0.80945 l 0.253563,0.66356 0.911467,0.35951 0.911468,0.35951 0.696322,-0.29256 c 0.649578,-0.27293 0.717823,-0.28326 1.01659,-0.15386 0.401326,0.17381 2.081166,1.87039 2.220039,2.24217 0.0864,0.23129 0.05592,0.38873 -0.187365,0.96776 l -0.29055,0.69153 0.359509,0.91147 0.359508,0.91146 0.663566,0.25357 c 0.364961,0.13945 0.729211,0.34728 0.809446,0.46183 0.114224,0.16308 0.14588,0.53791 0.14588,1.72732 0,1.18941 -0.03166,1.56423 -0.14588,1.72731 -0.08024,0.11455 -0.444485,0.32238 -0.809446,0.46184 l -0.663566,0.25356 -0.359508,0.91147 -0.359509,0.91146 0.292564,0.69633 c 0.272924,0.64957 0.283252,0.71782 0.153859,1.01659 -0.173811,0.40132 -1.870394,2.08116 -2.242168,2.22004 -0.231293,0.0864 -0.388734,0.0559 -0.967762,-0.18737 l -0.691529,-0.29055 -0.911468,0.35951 -0.911467,0.35951 -0.253563,0.66356 c -0.280176,0.73322 -0.510392,0.95533 -0.990177,0.95533 h -0.320068 v 1.31836 1.31836 h 7.600165 7.600165 l 0.212335,0.22602 c 0.204215,0.21738 0.212335,0.30514 0.212335,2.29492 0,1.58998 0.02826,2.06892 0.122071,2.06898 0.06714,4e-5 0.385742,0.12494 0.708007,0.27755 0.719054,0.3405 1.389132,1.0039 1.766397,1.74877 0.260369,0.51408 0.284385,0.64809 0.284385,1.58688 0,0.93694 -0.02476,1.07583 -0.287072,1.61009 -0.365656,0.74474 -1.020211,1.3993 -1.764956,1.76495 -0.534254,0.26231 -0.673144,0.28707 -1.610082,0.28707 -0.929504,0 -1.078363,-0.026 -1.591872,-0.27816 -0.723483,-0.35526 -1.438465,-1.07063 -1.791414,-1.7924 -0.247519,-0.50616 -0.276959,-0.66964 -0.277839,-1.54272 -8.73e-4,-0.86606 0.02995,-1.04286 0.272405,-1.5625 0.354998,-0.76084 1.043401,-1.46488 1.777392,-1.81776 0.322266,-0.15493 0.640869,-0.28173 0.708008,-0.28177 0.0924,-6e-5 0.12207,-0.36796 0.12207,-1.51375 v -1.51367 h -7.03125 -7.03125 v 6.10351 6.10352 h 7.600165 7.600165 l 0.212335,0.22602 c 0.204072,0.21722 0.212335,0.30571 0.212335,2.2736 v 2.04758 l 0.438016,0.12933 c 0.998969,0.29496 1.99981,1.32954 2.351351,2.43061 0.244818,0.7668 0.159671,1.94671 -0.193944,2.68753 -0.342501,0.71755 -1.057616,1.4357 -1.785125,1.79273 -0.513017,0.25176 -0.662402,0.27783 -1.591548,0.27783 -0.938798,0 -1.072807,-0.024 -1.58688,-0.28438 -0.727339,-0.36838 -1.375881,-1.01461 -1.76475,-1.75844 -0.291448,-0.55749 -0.310479,-0.65675 -0.310479,-1.61929 0,-0.94103 0.02362,-1.07205 0.28717,-1.59256 0.157943,-0.31195 0.490278,-0.77338 0.738522,-1.02539 0.433216,-0.43981 1.383456,-0.99533 1.702536,-0.99533 0.13184,0 0.152631,-0.20619 0.152631,-1.51367 v -1.51367 h -7.080078 -7.080078 v 1.48989 1.4899 l 0.406834,0.12697 c 1.029776,0.32139 1.961179,1.24919 2.344228,2.33516 0.283724,0.80437 0.219872,2.00674 -0.147313,2.77397 -0.340522,0.71152 -1.083433,1.4605 -1.79514,1.8098 -0.511113,0.25086 -0.661391,0.27704 -1.589859,0.27704 -0.921855,0 -1.080774,-0.0272 -1.573897,-0.26948 -0.705854,-0.3468 -1.478496,-1.12242 -1.811749,-1.81873 -0.366514,-0.76581 -0.430156,-1.9689 -0.146666,-2.7726 0.38305,-1.08597 1.314452,-2.01377 2.344228,-2.33516 l 0.406834,-0.12697 v -1.4899 -1.48989 h -7.080078 -7.080078 v 1.51367 c 0,1.30748 0.02079,1.51367 0.152632,1.51367 0.286138,0 1.200605,0.51269 1.601397,0.8978 0.8488,0.81561 1.215503,1.73031 1.159789,2.89298 -0.06561,1.36915 -0.826044,2.52806 -2.079688,3.16944 -0.779817,0.39898 -2.052318,0.47767 -2.86322,0.17708 z m 2.152843,-1.6295 c 0.759025,-0.38359 1.176705,-1.05606 1.176705,-1.89452 0,-1.99039 -2.45567,-2.84786 -3.72964,-1.30231 -1.389903,1.68619 0.603299,4.18211 2.552935,3.19683 z m 15.722656,0 c 0.760809,-0.38449 1.183966,-1.0616 1.183966,-1.89452 0,-1.18415 -0.905172,-2.0896 -2.088969,-2.0896 -1.699186,0 -2.687756,1.86021 -1.733606,3.26216 0.594643,0.87372 1.725853,1.18324 2.638609,0.72196 z m 15.785082,-0.0344 c 1.12452,-0.57368 1.477899,-1.97977 0.763854,-3.03934 -1.153281,-1.71135 -3.812113,-0.88914 -3.813299,1.17921 -9.17e-4,1.59776 1.622573,2.58807 3.049445,1.86013 z M 18.973446,227.42904 c 0.901157,-0.22691 1.550801,-1.08239 1.550801,-2.04216 0,-1.19916 -0.875948,-2.07031 -2.081708,-2.07031 -1.065966,0 -1.860871,0.66631 -2.096398,1.75724 -0.238504,1.10473 0.818719,2.38222 2.02874,2.45142 0.09707,0.006 0.366419,-0.0377 0.598565,-0.0962 z m 31.478809,-0.008 c 0.654091,-0.1647 1.319149,-0.84835 1.480802,-1.52219 0.324656,-1.35332 -0.648516,-2.58184 -2.045206,-2.58184 -1.20576,0 -2.081708,0.87115 -2.081708,2.07031 0,0.92996 0.594431,1.74675 1.469253,2.01887 0.48245,0.15006 0.63238,0.15196 1.176859,0.0148 z m -15.492734,-14.725 c 0.05532,-0.15868 0.195851,-0.47728 0.312303,-0.70801 0.196484,-0.3893 0.266103,-0.4377 0.966822,-0.67223 0.415301,-0.13899 1.020191,-0.39168 1.344201,-0.56152 0.32401,-0.16984 0.659876,-0.3088 0.746369,-0.3088 0.08649,0 0.41852,0.11724 0.737838,0.26055 l 0.580579,0.26054 0.497845,-0.49784 0.497845,-0.49785 -0.260548,-0.58057 c -0.143302,-0.31932 -0.260549,-0.65379 -0.260549,-0.74327 0,-0.0895 0.142201,-0.43555 0.316001,-0.76904 0.173801,-0.33349 0.426487,-0.93594 0.561524,-1.33877 0.2266,-0.67598 0.277854,-0.74874 0.665029,-0.94416 0.230729,-0.11645 0.549332,-0.25698 0.708008,-0.3123 0.283052,-0.0987 0.288501,-0.11367 0.288501,-0.79432 0,-0.68065 -0.0054,-0.69566 -0.288501,-0.79433 -0.158676,-0.0553 -0.477279,-0.19585 -0.708008,-0.3123 -0.387175,-0.19541 -0.438429,-0.26818 -0.665029,-0.94416 -0.135037,-0.40283 -0.387723,-1.00528 -0.561524,-1.33877 -0.1738,-0.33349 -0.316001,-0.67956 -0.316001,-0.76904 0,-0.0895 0.117247,-0.42394 0.260549,-0.74326 l 0.260548,-0.58058 -0.497845,-0.49785 -0.497845,-0.49784 -0.580579,0.26055 c -0.319318,0.1433 -0.651346,0.26054 -0.737838,0.26054 -0.08649,0 -0.422359,-0.13896 -0.746369,-0.3088 -0.32401,-0.16984 -0.9289,-0.42252 -1.344201,-0.56152 -0.700719,-0.23452 -0.770338,-0.28293 -0.966822,-0.67223 -0.116452,-0.23073 -0.256988,-0.54933 -0.312303,-0.70801 -0.09867,-0.28305 -0.113675,-0.2885 -0.794326,-0.2885 -0.68065,0 -0.695653,0.005 -0.794326,0.2885 -0.05531,0.15868 -0.195851,0.47728 -0.312303,0.70801 -0.195412,0.38718 -0.268179,0.43843 -0.944152,0.66503 -0.402832,0.13504 -1.00528,0.38772 -1.338773,0.56152 -0.333493,0.1738 -0.679561,0.316 -0.769039,0.316 -0.08948,0 -0.423947,-0.11724 -0.743266,-0.26054 l -0.580579,-0.26055 -0.497845,0.49784 -0.497845,0.49785 0.260549,0.58058 c 0.143301,0.31932 0.260548,0.65379 0.260548,0.74326 0,0.0895 -0.142201,0.43555 -0.316001,0.76904 -0.173801,0.33349 -0.426486,0.93594 -0.561524,1.33877 -0.226599,0.67598 -0.277854,0.74875 -0.665029,0.94416 -0.230728,0.11645 -0.549332,0.25699 -0.708008,0.3123 -0.283052,0.0987 -0.288501,0.11368 -0.288501,0.79433 0,0.68065 0.0054,0.69565 0.288501,0.79432 0.158676,0.0553 0.47728,0.19585 0.708008,0.3123 0.387175,0.19542 0.43843,0.26818 0.665029,0.94416 0.135038,0.40283 0.387723,1.00528 0.561524,1.33877 0.1738,0.33349 0.316001,0.67956 0.316001,0.76904 0,0.0895 -0.117247,0.42395 -0.260548,0.74327 l -0.260549,0.58057 0.497845,0.49785 0.497845,0.49784 0.580579,-0.26054 c 0.319319,-0.14331 0.653788,-0.26055 0.743266,-0.26055 0.08948,0 0.435546,0.1422 0.769039,0.316 0.333493,0.1738 0.935941,0.42648 1.338773,0.56152 0.675973,0.2266 0.74874,0.27786 0.944152,0.66503 0.116452,0.23073 0.256989,0.54933 0.312303,0.70801 0.09867,0.28305 0.113676,0.2885 0.794326,0.2885 0.680651,0 0.695653,-0.005 0.794326,-0.2885 z m -2.053219,-3.18013 c -1.182623,-0.33178 -2.167357,-0.98761 -2.856525,-1.90246 -2.120204,-2.81451 -0.921352,-6.79174 2.421238,-8.03254 0.825783,-0.30654 2.567655,-0.30456 3.399343,0.004 1.476248,0.54745 2.648343,1.72234 3.194935,3.20258 0.307838,0.83365 0.306624,2.57121 -0.0024,3.41008 -0.544984,1.47949 -1.732981,2.66256 -3.196615,3.18334 -0.766668,0.27279 -2.231005,0.33965 -2.959994,0.13514 z m 2.772565,-1.80362 c 0.622564,-0.30047 1.406132,-1.08238 1.713817,-1.71017 0.207777,-0.42395 0.239308,-0.62339 0.239308,-1.51367 0,-1.2287 -0.187948,-1.71129 -0.97173,-2.49507 -0.783783,-0.78378 -1.266367,-0.97173 -2.495067,-0.97173 -0.890287,0 -1.089726,0.0315 -1.513672,0.23931 -0.626515,0.30705 -1.409655,1.09102 -1.707978,1.70978 -0.309999,0.64297 -0.3837,1.84902 -0.158938,2.60085 0.294388,0.98472 1.24214,1.96503 2.208713,2.28458 0.687242,0.22721 2.070209,0.15311 2.685547,-0.14388 z"
       id="path21" /><path
       style="fill:#aac030;fill-opacity:1"
       d="m 50.791172,221.77368 c 0.06714,4e-5 0.385742,0.12494 0.708007,0.27755 0.719054,0.3405 1.389132,1.0039 1.766397,1.74877 0.260369,0.51408 0.284385,0.64809 0.284385,1.58688 0,0.93694 -0.02476,1.07583 -0.287072,1.61009 -0.365656,0.74474 -1.020211,1.3993 -1.764956,1.76495 -0.534254,0.26231 -0.673144,0.28707 -1.610082,0.28707 -0.929504,0 -1.078363,-0.026 -1.591872,-0.27816 -0.723483,-0.35526 -1.438465,-1.07063 -1.791414,-1.7924 -0.247519,-0.50616 -0.276959,-0.66964 -0.277839,-1.54272 -8.73e-4,-0.86606 0.02995,-1.04286 0.272405,-1.5625 0.354998,-0.76084 1.043401,-1.46488 1.777392,-1.81776 0.322266,-0.15493 0.640869,-0.28173 0.708008,-0.28177 z m -0.338917,5.64736 c 0.654091,-0.1647 1.319149,-0.84835 1.480802,-1.52219 0.324656,-1.35332 -0.648516,-2.58184 -2.045206,-2.58184 -1.20576,0 -2.081708,0.87115 -2.081708,2.07031 0,0.92996 0.594431,1.74675 1.469253,2.01887 0.48245,0.15006 0.63238,0.15196 1.176859,0.0148 z"
       id="path22"
       sodipodi:nodetypes="cssssssssssscccsssscc" /><path
       style="fill:#aac030;fill-opacity:1"
       d="m 19.345859,221.77368 c 0.06714,4e-5 0.385742,0.12684 0.708008,0.28177 0.733991,0.35288 1.422394,1.05692 1.777392,1.81776 0.242456,0.51964 0.273278,0.69644 0.272405,1.5625 -8.8e-4,0.87308 -0.03032,1.03656 -0.277838,1.54272 -0.35295,0.72177 -1.067932,1.43714 -1.791415,1.7924 -0.513509,0.25215 -0.662367,0.27816 -1.591872,0.27816 -0.936938,0 -1.075828,-0.0248 -1.610082,-0.28707 -0.744744,-0.36565 -1.3993,-1.02021 -1.764955,-1.76495 -0.262309,-0.53426 -0.287073,-0.67315 -0.287073,-1.61009 0,-0.93713 0.0243,-1.07336 0.282345,-1.58271 0.373623,-0.7375 1.04763,-1.40437 1.768437,-1.7497 0.322265,-0.15439 0.640869,-0.28075 0.708008,-0.28079 z m -0.372413,5.65536 c 0.901157,-0.22691 1.550801,-1.08239 1.550801,-2.04216 0,-1.19916 -0.875948,-2.07031 -2.081708,-2.07031 -1.065966,0 -1.860871,0.66631 -2.096398,1.75724 -0.238504,1.10473 0.818719,2.38222 2.02874,2.45142 0.09707,0.006 0.366419,-0.0377 0.598565,-0.0962 z"
       id="path23"
       sodipodi:nodetypes="csssssssssssccsssscss" /><path
       style="fill:#aac030;fill-opacity:1"
       d="m 17.194699,242.68043 c -2.35987,-0.87479 -3.223401,-3.73661 -1.738051,-5.76006 0.3991,-0.54368 1.186283,-1.11483 1.789602,-1.29847 l 0.415039,-0.12632 1.715132,0.0476 c 0.286138,0 1.200605,0.51269 1.601397,0.8978 0.8488,0.81561 1.215503,1.73031 1.159789,2.89298 -0.06561,1.36915 -0.826044,2.52806 -2.079688,3.16944 -0.779817,0.39898 -2.052318,0.47767 -2.86322,0.17708 z m 2.152843,-1.6295 c 0.759025,-0.38359 1.176705,-1.05606 1.176705,-1.89452 0,-1.99039 -2.45567,-2.84786 -3.72964,-1.30231 -1.389903,1.68619 0.603299,4.18211 2.552935,3.19683 z"
       id="path24"
       sodipodi:nodetypes="sssccssssssss" /><path
       style="fill:#aac030;fill-opacity:1"
       d="m 34.946445,235.49558 0.406834,0.12697 c 1.029776,0.32139 1.961179,1.24919 2.344228,2.33516 0.283724,0.80437 0.219872,2.00674 -0.147313,2.77397 -0.340522,0.71152 -1.083433,1.4605 -1.79514,1.8098 -0.511113,0.25086 -0.661391,0.27704 -1.589859,0.27704 -0.921855,0 -1.080774,-0.0272 -1.573897,-0.26948 -0.705854,-0.3468 -1.478496,-1.12242 -1.811749,-1.81873 -0.366514,-0.76581 -0.430156,-1.9689 -0.146666,-2.7726 0.38305,-1.08597 1.314452,-2.01377 2.344228,-2.33516 l 0.406834,-0.12697 z m 0.123753,5.55535 c 0.760809,-0.38449 1.183966,-1.0616 1.183966,-1.89452 0,-1.18415 -0.905172,-2.0896 -2.088969,-2.0896 -1.699186,0 -2.687756,1.86021 -1.733606,3.26216 0.594643,0.87372 1.725853,1.18324 2.638609,0.72196 z"
       id="path25"
       sodipodi:nodetypes="csssssssssccsssss" /><path
       style="fill:#aac030;fill-opacity:1"
       d="m 50.669101,235.50049 0.438016,0.12933 c 0.998969,0.29496 1.99981,1.32954 2.351351,2.43061 0.244818,0.7668 0.159671,1.94671 -0.193944,2.68753 -0.342501,0.71755 -1.057616,1.4357 -1.785125,1.79273 -0.513017,0.25176 -0.662402,0.27783 -1.591548,0.27783 -0.938798,0 -1.072807,-0.024 -1.58688,-0.28438 -0.727339,-0.36838 -1.375881,-1.01461 -1.76475,-1.75844 -0.291448,-0.55749 -0.310479,-0.65675 -0.310479,-1.61929 0,-0.94103 0.02362,-1.07205 0.28717,-1.59256 0.157943,-0.31195 0.490278,-0.77338 0.738522,-1.02539 0.433216,-0.43981 1.383456,-0.99533 1.702536,-0.99533 z m 0.186179,5.51604 c 1.12452,-0.57368 1.477899,-1.97977 0.763854,-3.03934 -1.153281,-1.71135 -3.812113,-0.88914 -3.813299,1.17921 -9.17e-4,1.59776 1.622573,2.58807 3.049445,1.86013 z"
       id="path26"
       sodipodi:nodetypes="cssssssssssccssss" /></g></svg>
