<?xml version="1.0" encoding="UTF-8" standalone="no"?>
<!-- Created with Inkscape (http://www.inkscape.org/) -->

<svg
   width="56.241764mm"
   height="50.000004mm"
   viewBox="0 0 56.241764 50.000004"
   version="1.1"
   id="svg1"
   xml:space="preserve"
   xmlns:inkscape="http://www.inkscape.org/namespaces/inkscape"
   xmlns:sodipodi="http://sodipodi.sourceforge.net/DTD/sodipodi-0.dtd"
   xmlns="http://www.w3.org/2000/svg"
   xmlns:svg="http://www.w3.org/2000/svg"><sodipodi:namedview
     id="namedview1"
     pagecolor="#ffffff"
     bordercolor="#000000"
     borderopacity="0.25"
     inkscape:showpageshadow="2"
     inkscape:pageopacity="0.0"
     inkscape:pagecheckerboard="0"
     inkscape:deskcolor="#d1d1d1"
     inkscape:document-units="mm" /><defs
     id="defs1" /><g
     inkscape:label="Layer 1"
     inkscape:groupmode="layer"
     id="layer1"
     transform="matrix(0.36909926,0,0,0.36909926,-9.5677808,-91.522445)"
     inkscape:export-filename="user-gear.svg"
     inkscape:export-xdpi="96"
     inkscape:export-ydpi="96"><path
       style="fill:#aac030;fill-opacity:1;stroke-width:0.264583"
       d="m 137.66074,138.49875 c 0,-1.85208 1.19063,-3.51896 2.98979,-3.91583 2.77813,-0.635 5.68855,-0.97896 8.65188,-0.97896 2.96333,0 5.87375,0.34396 8.65187,0.97896 1.79917,0.39687 2.9898,2.06375 2.9898,3.91583 v 8.09625 c 2.0902,0.89958 4.07458,2.03729 5.9002,3.38667 l 6.58813,-3.78355 c 1.61396,-0.92604 3.62479,-0.71437 4.89479,0.635 2.01083,2.14313 3.78354,4.55084 5.31813,7.19667 1.53458,2.64583 2.7252,5.3975 3.57187,8.20208 0.55563,1.77271 -0.29104,3.6248 -1.905,4.55084 l -6.61458,3.81 c 0.10583,1.05833 0.18521,2.14312 0.18521,3.25437 0,1.11125 -0.0529,2.16959 -0.18521,3.25438 l 6.61458,3.81 c 1.61396,0.92604 2.43417,2.77813 1.905,4.55083 -0.87312,2.80459 -2.06375,5.55625 -3.57187,8.20209 -1.50813,2.64583 -3.3073,5.05354 -5.31813,7.19666 -1.27,1.34938 -3.30729,1.56105 -4.89479,0.635 l -6.58813,-3.78354 c -1.82562,1.34938 -3.78354,2.48709 -5.9002,3.38667 v 8.09625 c 0,1.85208 -1.19063,3.51896 -2.9898,3.91583 -2.77812,0.635 -5.68854,0.97896 -8.65187,0.97896 -2.96333,0 -5.87375,-0.34396 -8.65188,-0.97896 -1.79916,-0.39687 -2.98979,-2.06375 -2.98979,-3.91583 v -8.06979 c -2.11666,-0.89959 -4.1275,-2.03729 -5.95312,-3.41313 l -6.53521,3.78354 c -1.61396,0.92605 -3.62479,0.71438 -4.89479,-0.635 -2.01083,-2.14312 -3.78354,-4.55083 -5.31812,-7.19666 -1.53459,-2.64584 -2.72521,-5.3975 -3.57188,-8.20209 -0.55562,-1.7727 0.29104,-3.62479 1.905,-4.55083 l 6.56167,-3.78354 c -0.10583,-1.0848 -0.18521,-2.16959 -0.18521,-3.28084 0,-1.11125 0.0529,-2.19604 0.18521,-3.28083 l -6.58813,-3.81 c -1.61395,-0.92604 -2.43416,-2.77813 -1.905,-4.55083 0.87313,-2.80459 2.0373,-5.55625 3.57188,-8.20209 1.53458,-2.64583 3.30729,-5.05354 5.31812,-7.19666 1.27,-1.34938 3.28083,-1.56105 4.89479,-0.635 l 6.56167,3.78354 c 1.82562,-1.34938 3.83646,-2.48709 5.95312,-3.41313 v -8.06979 z m 24.36813,35.32187 a 12.726458,12.726458 0 1 0 -25.42646,0 12.726458,12.726458 0 1 0 25.42646,0 z"
       id="path3" /><g
       id="g3"
       inkscape:label="user"
       transform="matrix(0.99998671,0,0,0.99998671,2.9646519e-4,0.00107363)"><path
         style="fill:#9cb5e2;fill-opacity:1;stroke-width:0.264583"
         d="m 69.477621,161.2 h 24.182917 c 3.122083,0 6.19125,0.3175 9.128122,0.87312 -0.55562,4.8948 1.95792,9.41917 5.76792,11.85334 -4.39208,2.80458 -7.06437,8.36083 -5.29167,14.10229 1.05834,3.41313 2.48709,6.74688 4.33917,9.94834 1.85208,3.20145 4.02167,6.11187 6.45583,8.73125 4.15396,4.47145 10.4775,4.86833 15.13417,2.30187 v 0.23813 c 0,2.43416 0.71437,4.89479 2.0902,6.95854 l -101.123742,0.0265 c -4.339166,0 -7.858125,-3.51896 -7.858125,-7.85813 0,-26.06146 21.11375,-47.17521 47.175208,-47.17521 z"
         id="path2" /><path
         style="fill:#9cb5e2;fill-opacity:1;stroke-width:0.264583"
         d="m 81.56908,80.766665 a 33.866667,33.866667 0 1 1 0,67.733335 33.866667,33.866667 0 1 1 0,-67.733335 z"
         id="path1" /></g></g><g
     inkscape:groupmode="layer"
     id="layer5"
     inkscape:label="Layer 4"
     transform="matrix(0.3690893,0,0,0.3690893,61.018942,-46.753845)"><path
       d="m 165.76861,173.72246 c 9.33979,-2.19604 16.29833,-10.58333 16.29833,-20.61104 0,-11.69459 -9.47208,-21.16667 -21.16667,-21.16667 -11.48292,0 -20.82271,9.12813 -21.16667,20.50521 l -48.630411,19.47333 c -3.83646,-3.78354 -9.07521,-6.11187 -14.86959,-6.11187 -11.69458,0 -21.16666,9.47208 -21.16666,21.16666 0,11.69459 9.47208,21.16667 21.16666,21.16667 3.22792,0 6.29709,-0.71437 9.02229,-2.01083 l 38.523341,33.70791 c -0.635,2.01084 -0.97896,4.18042 -0.97896,6.40292 0,11.69458 9.47208,21.16667 21.16667,21.16667 11.69458,0 21.16667,-9.47209 21.16667,-21.16667 0,-7.32896 -3.70417,-13.78479 -9.36625,-17.56833 z M 96.421309,193.381 c 0.58208,-1.82562 0.92604,-3.75708 0.97896,-5.74146 l 48.630421,-19.44687 c 0.9525,0.92604 1.95791,1.77271 3.06916,2.51354 l -10.00125,54.9275 c -1.45521,0.34396 -2.8575,0.82021 -4.18041,1.45521 z"
       id="path1-2"
       style="fill:#aac030;fill-opacity:1;stroke-width:0.264583" /><g
       id="g9"
       style="fill:#9cb5e2;fill-opacity:1"><ellipse
         style="fill:#9cb5e2;fill-opacity:1;stroke:none;stroke-width:0.564928"
         id="path7"
         cx="160.88762"
         cy="153.12474"
         rx="21.17659"
         ry="21.181892" /><ellipse
         style="fill:#9cb5e2;fill-opacity:1;stroke:none;stroke-width:0.564928"
         id="ellipse8"
         cx="76.25692"
         cy="186.9964"
         rx="21.17659"
         ry="21.181892" /><ellipse
         style="fill:#9cb5e2;fill-opacity:1;stroke:none;stroke-width:0.564928"
         id="ellipse9"
         cx="143.96794"
         cy="246.183"
         rx="21.17659"
         ry="21.181892" /></g></g><g
     inkscape:groupmode="layer"
     id="layer3"
     inkscape:label="Layer 2"
     transform="matrix(0.10632509,0,0,0.10632509,76.56182,-83.302207)"
     inkscape:export-filename=".\network.svg"
     inkscape:export-xdpi="96"
     inkscape:export-ydpi="96"><path
       d="m 241.17996,294.26192 h 117.56397 v 58.78199 H 241.17996 Z m -14.6955,-58.78199 c -24.33941,0 -44.08649,19.74708 -44.08649,44.08649 v 88.17298 c 0,24.33942 19.74708,44.0865 44.08649,44.0865 h 44.08649 v 29.39099 H 35.442995 c -16.25689,0 -29.3909904,13.1341 -29.3909904,29.39099 0,16.2569 13.1341004,29.391 29.3909904,29.391 h 88.172985 v 29.39099 H 79.52949 c -24.339415,0 -44.086495,19.74708 -44.086495,44.08649 v 88.17299 c 0,24.33941 19.74708,44.08649 44.086495,44.08649 h 146.95497 c 24.33942,0 44.08649,-19.74708 44.08649,-44.08649 v -88.17299 c 0,-24.33941 -19.74707,-44.08649 -44.08649,-44.08649 h -44.08649 v -29.39099 h 235.12795 v 29.39099 h -44.0865 c -24.33941,0 -44.08649,19.74708 -44.08649,44.08649 v 88.17299 c 0,24.33941 19.74708,44.08649 44.08649,44.08649 H 520.3944 c 24.33941,0 44.08649,-19.74708 44.08649,-44.08649 v -88.17299 c 0,-24.33941 -19.74708,-44.08649 -44.08649,-44.08649 h -44.0865 v -29.39099 h 88.17299 c 16.25689,0 29.39099,-13.1341 29.39099,-29.391 0,-16.25689 -13.1341,-29.39099 -29.39099,-29.39099 H 329.35293 V 411.8259 h 44.08649 c 24.33942,0 44.0865,-19.74708 44.0865,-44.0865 v -88.17298 c 0,-24.33941 -19.74708,-44.08649 -44.0865,-44.08649 z M 94.224987,646.95385 V 588.17186 H 211.78897 v 58.78199 z M 388.13492,588.17186 H 505.6989 v 58.78199 H 388.13492 Z"
       id="path4"
       style="fill:#9cb5e2;fill-opacity:1;stroke-width:0.918469" /><path
       d="M 270.57095,441.21689 H 35.442995 c -16.25689,0 -29.3909904,13.1341 -29.3909904,29.39099 0,16.2569 13.1341004,29.391 29.3909904,29.391 h 88.172985 58.78199 235.12795 58.78198 88.17299 c 16.25689,0 29.39099,-13.1341 29.39099,-29.391 0,-16.25689 -13.1341,-29.39099 -29.39099,-29.39099 H 329.35293 Z"
       id="path1-4"
       style="fill:#aac030;fill-opacity:1;stroke-width:0.918469"
       sodipodi:nodetypes="csssccccssscc" /></g><g
     inkscape:groupmode="layer"
     id="layer4"
     inkscape:label="Layer 3"
     transform="matrix(0.36904044,0,0,0.36904044,-3.147018,-40.062017)"><path
       style="fill:#aac030;fill-opacity:1;stroke-width:0.264583"
       d="m 120.47278,168.27371 c 1.50812,-0.60854 3.20146,-0.60854 4.70958,0 l 31.75,12.7 c 2.40771,0.97896 3.99521,3.30729 3.99521,5.90021 0,16.74813 -6.85271,44.66166 -35.66583,56.67375 -1.56105,0.66145 -3.33375,0.66145 -4.8948,0 -28.786662,-12.01209 -35.63937,-39.92562 -35.63937,-56.67375 0,-2.59292 1.5875,-4.92125 3.995208,-5.90021 z m 27.59604,22.83354 -25.24125,-10.10708 v 49.68875 c 18.04458,-8.73125 24.20937,-26.19375 25.24125,-39.60812 z"
       id="path6" /><g
       id="g6"
       style="fill:#9cb5e2;fill-opacity:1"><path
         style="fill:#9cb5e2;fill-opacity:1;stroke-width:0.264583"
         d="M 110.12757,142.42392 H 76.260903 v -33.86667 z"
         id="path5" /><path
         style="fill:#9cb5e2;fill-opacity:1;stroke-width:0.264583"
         d="m 8.5275698,125.49059 c 0,-9.33979 7.5935412,-16.93334 16.9333332,-16.93334 h 42.333334 v 33.86667 c 0,4.68313 3.783541,8.46667 8.466666,8.46667 H 110.12757 V 163.326 l -24.553333,9.81605 c -5.635625,2.24895 -9.313334,7.69937 -9.313334,13.75833 0,14.97542 5.000625,39.15833 24.923747,55.1127 -2.381247,1.27 -5.106455,2.01084 -7.990413,2.01084 H 25.460903 c -9.339792,0 -16.9333332,-7.59355 -16.9333332,-16.93334 z"
         id="path1-5" /></g></g></svg>
