<?xml version="1.0" encoding="UTF-8" standalone="no"?>
<!-- Created with Inkscape (http://www.inkscape.org/) -->

<svg
   width="47.069584mm"
   height="47.057789mm"
   viewBox="0 0 47.069584 47.057789"
   version="1.1"
   id="svg1"
   xml:space="preserve"
   inkscape:version="1.3 (0e150ed6c4, 2023-07-21)"
   sodipodi:docname="drawing.svg"
   xmlns:inkscape="http://www.inkscape.org/namespaces/inkscape"
   xmlns:sodipodi="http://sodipodi.sourceforge.net/DTD/sodipodi-0.dtd"
   xmlns="http://www.w3.org/2000/svg"
   xmlns:svg="http://www.w3.org/2000/svg"><sodipodi:namedview
     id="namedview1"
     pagecolor="#ffffff"
     bordercolor="#000000"
     borderopacity="0.25"
     inkscape:showpageshadow="2"
     inkscape:pageopacity="0.0"
     inkscape:pagecheckerboard="0"
     inkscape:deskcolor="#d1d1d1"
     inkscape:document-units="mm"
     inkscape:zoom="5.7941077"
     inkscape:cx="491.36125"
     inkscape:cy="309.02083"
     inkscape:window-width="1920"
     inkscape:window-height="1009"
     inkscape:window-x="-8"
     inkscape:window-y="-8"
     inkscape:window-maximized="1"
     inkscape:current-layer="layer5" /><defs
     id="defs1" /><g
     inkscape:groupmode="layer"
     id="layer12"
     inkscape:label="Layer 11"
     transform="translate(-12.602657,-248.64835)"><path
       style="fill:#aac030;fill-opacity:1"
       d="m 56.626061,295.54778 c -0.372861,-0.43417 -0.321295,-0.58296 0.490754,-1.41602 l 0.547361,-0.56152 H 36.360732 c -19.236559,0 -21.318333,-0.0149 -21.456904,-0.15346 -0.138571,-0.13857 -0.15346,-2.22035 -0.15346,-21.45691 v -21.30344 l -0.561523,0.54736 c -0.711472,0.69353 -0.928273,0.81004 -1.220703,0.65604 -0.626528,-0.32994 -0.517954,-0.57265 0.880264,-1.96776 0.915378,-0.91335 1.30982,-1.24371 1.484949,-1.24371 0.345281,0 2.639669,2.30057 2.639669,2.64678 0,0.30312 -0.173857,0.53527 -0.465883,0.62207 -0.182528,0.0542 -0.342277,-0.0505 -0.90332,-0.5921 l -0.681578,-0.65801 v 20.86563 20.86563 h 20.865631 20.865631 l -0.658008,-0.68158 c -0.541641,-0.56104 -0.646352,-0.72079 -0.592098,-0.90332 0.0868,-0.29202 0.318942,-0.46588 0.622068,-0.46588 0.348455,0 2.646776,2.29455 2.646776,2.64244 0,0.17899 -0.321642,0.56217 -1.246475,1.48495 -1.275705,1.27287 -1.508646,1.41173 -1.799707,1.07281 z"
       id="path67" /><g
       id="g83"
       style="fill:#9cb5e2;fill-opacity:1;stroke:#9cb5e2;stroke-width:0.3;stroke-dasharray:none;stroke-opacity:1"><path
         style="fill:#9cb5e2;fill-opacity:1;stroke:#9cb5e2;stroke-width:0.3;stroke-dasharray:none;stroke-opacity:1"
         d="m 48.330523,260.57105 -0.230546,-0.18668 v -3.61166 c 0,-3.41457 0.01015,-3.62287 0.186034,-3.81722 0.182676,-0.20186 0.250598,-0.20557 3.762451,-0.20557 3.078883,0 3.60661,0.0212 3.793458,0.15203 l 0.217042,0.15202 v 3.69986 3.69986 l -0.217042,0.15202 c -0.186727,0.13079 -0.71035,0.15203 -3.748947,0.15203 -3.331988,0 -3.544955,-0.0106 -3.76245,-0.18669 z m 6.556564,-3.81722 v -2.83203 h -2.832031 -2.832032 v 2.83203 2.83203 h 2.832032 2.832031 z"
         id="path83" /><path
         style="fill:#9cb5e2;fill-opacity:1;stroke:#9cb5e2;stroke-width:0.3;stroke-dasharray:none;stroke-opacity:1"
         d="m 38.502566,260.60571 -0.217042,-0.15202 v -3.69026 c 0,-3.45105 0.01158,-3.70074 0.178588,-3.85189 0.159408,-0.14426 0.566827,-0.16162 3.793459,-0.16162 3.378005,0 3.62546,0.0117 3.77649,0.17859 0.144359,0.15952 0.16162,0.57089 0.16162,3.85189 v 3.67329 l -0.217042,0.15202 c -0.186697,0.13077 -0.709315,0.15203 -3.738037,0.15203 -3.028721,0 -3.551339,-0.0213 -3.738036,-0.15203 z m 6.595979,-3.87629 0.02591,-2.80762 h -2.833529 -2.833529 v 2.83353 2.83353 l 2.807618,-0.0259 2.807617,-0.0259 z"
         id="path82" /><path
         style="fill:#9cb5e2;fill-opacity:1;stroke:#9cb5e2;stroke-width:0.3;stroke-dasharray:none;stroke-opacity:1"
         d="m 28.639285,260.60571 -0.217042,-0.15202 v -3.69986 -3.69986 l 0.217042,-0.15202 c 0.186869,-0.13089 0.715339,-0.15203 3.801506,-0.15203 h 3.584464 l 0.205825,0.26167 c 0.201961,0.25675 0.205302,0.32805 0.177986,3.79845 -0.02613,3.31911 -0.03929,3.54944 -0.213872,3.74225 -0.182641,0.2017 -0.251265,0.20545 -3.762451,0.20545 -3.078883,0 -3.60661,-0.0212 -3.793458,-0.15203 z m 6.618896,-3.85188 v -2.83203 h -2.832032 -2.832031 v 2.83203 2.83203 h 2.832031 2.832032 z"
         id="path81" /><path
         style="fill:#9cb5e2;fill-opacity:1;stroke:#9cb5e2;stroke-width:0.3;stroke-dasharray:none;stroke-opacity:1"
         d="m 18.754274,260.56242 c -0.188274,-0.18827 -0.195312,-0.32552 -0.195312,-3.80859 0,-3.48307 0.007,-3.62032 0.195312,-3.80859 0.188238,-0.18824 0.325521,-0.19532 3.789929,-0.19532 2.949347,0 3.628645,0.0249 3.78418,0.13854 0.180812,0.13214 0.190847,0.3049 0.217363,3.74229 0.02729,3.53824 0.02406,3.60851 -0.177987,3.86537 l -0.205785,0.26162 H 22.55578 c -3.475985,0 -3.613245,-0.007 -3.801506,-0.19532 z m 6.640625,-3.80859 v -2.83203 h -2.832031 -2.832031 v 2.83203 2.83203 h 2.832031 2.832031 z"
         id="path80" /><path
         style="fill:#9cb5e2;fill-opacity:1;stroke:#9cb5e2;stroke-width:0.3;stroke-dasharray:none;stroke-opacity:1"
         d="m 48.234005,270.16656 c -0.108302,-0.1305 -0.134028,-0.85864 -0.134028,-3.79359 0,-2.93494 0.02573,-3.66309 0.134028,-3.79358 0.120347,-0.14501 0.510882,-0.1615 3.826033,-0.1615 3.226159,0 3.711367,0.0194 3.845464,0.15346 0.134032,0.13403 0.15346,0.61532 0.15346,3.80162 0,3.1863 -0.01943,3.66759 -0.15346,3.80162 -0.134097,0.1341 -0.619305,0.15346 -3.845464,0.15346 -3.315151,0 -3.705686,-0.0165 -3.826033,-0.16149 z m 6.653082,-3.74476 v -2.83203 h -2.832031 -2.832032 v 2.76692 c 0,1.52181 0.0293,2.79623 0.0651,2.83204 0.03581,0.0358 1.310221,0.0651 2.832031,0.0651 h 2.766927 z"
         id="path79" /><path
         style="fill:#9cb5e2;fill-opacity:1;stroke:#9cb5e2;stroke-width:0.3;stroke-dasharray:none;stroke-opacity:1"
         d="m 38.386617,270.13916 c -0.06446,-0.12045 -0.101093,-1.49803 -0.101093,-3.80162 0,-3.15409 0.01948,-3.63221 0.15346,-3.76619 0.134086,-0.13408 0.618617,-0.15346 3.837891,-0.15346 2.73546,0 3.714614,0.0302 3.801618,0.11719 0.168216,0.16822 0.168216,7.50757 0,7.67578 -0.08706,0.0871 -1.077795,0.11719 -3.853986,0.11719 -3.594516,0 -3.740647,-0.007 -3.83789,-0.18889 z m 6.711928,-3.74178 0.02591,-2.80761 h -2.833529 -2.833529 v 2.83353 2.83353 l 2.807618,-0.0259 2.807617,-0.0259 z"
         id="path78" /><path
         style="fill:#9cb5e2;fill-opacity:1;stroke:#9cb5e2;stroke-width:0.3;stroke-dasharray:none;stroke-opacity:1"
         d="m 28.575703,270.17459 c -0.134032,-0.13403 -0.15346,-0.61532 -0.15346,-3.80162 0,-3.1863 0.01943,-3.66759 0.15346,-3.80162 0.134097,-0.13409 0.619305,-0.15346 3.845464,-0.15346 3.315151,0 3.705685,0.0165 3.826033,0.1615 0.108302,0.13049 0.134027,0.85864 0.134027,3.79358 0,2.93495 -0.02573,3.66309 -0.134027,3.79359 -0.120348,0.145 -0.510882,0.16149 -3.826033,0.16149 -3.226159,0 -3.711367,-0.0194 -3.845464,-0.15346 z m 6.659561,-3.77721 0.02591,-2.80761 h -2.833529 -2.833529 v 2.83353 2.83353 l 2.807617,-0.0259 2.807617,-0.0259 z"
         id="path77" /><path
         style="fill:#9cb5e2;fill-opacity:1;stroke:#9cb5e2;stroke-width:0.3;stroke-dasharray:none;stroke-opacity:1"
         d="m 18.720582,270.14946 c -0.144262,-0.15941 -0.16162,-0.56683 -0.16162,-3.79346 0,-3.378 0.0117,-3.62546 0.178588,-3.77649 0.159515,-0.14436 0.570887,-0.16162 3.851884,-0.16162 h 3.673297 l 0.152021,0.21704 c 0.130768,0.1867 0.152022,0.70932 0.152022,3.73804 0,3.02872 -0.02125,3.55134 -0.152022,3.73804 l -0.152021,0.21704 h -3.690265 c -3.451045,0 -3.700741,-0.0116 -3.851884,-0.17859 z m 6.651401,-3.75208 0.02591,-2.80761 h -2.833529 -2.833529 v 2.83353 2.83353 l 2.807617,-0.0259 2.807617,-0.0259 z"
         id="path76" /><path
         style="fill:#9cb5e2;fill-opacity:1;stroke:#9cb5e2;stroke-width:0.3;stroke-dasharray:none;stroke-opacity:1"
         d="m 48.330523,279.90699 -0.230546,-0.18668 v -3.61166 c 0,-3.41457 0.01015,-3.62288 0.186034,-3.81722 0.182774,-0.20197 0.249677,-0.20557 3.817873,-0.20557 3.394443,0 3.642402,0.0117 3.793458,0.17859 0.144359,0.15951 0.16162,0.57089 0.16162,3.85188 v 3.6733 l -0.217042,0.15202 c -0.186727,0.13079 -0.71035,0.15202 -3.748947,0.15202 -3.331988,0 -3.544955,-0.0106 -3.76245,-0.18668 z m 6.556564,-3.81722 v -2.83203 h -2.832031 -2.832032 v 2.83203 2.83203 h 2.832032 2.832031 z"
         id="path75" /><path
         style="fill:#9cb5e2;fill-opacity:1;stroke:#9cb5e2;stroke-width:0.3;stroke-dasharray:none;stroke-opacity:1"
         d="m 38.502566,279.94165 -0.217042,-0.15202 v -3.69026 c 0,-3.45105 0.01158,-3.70075 0.178588,-3.85189 0.159408,-0.14426 0.566827,-0.16162 3.793459,-0.16162 3.378005,0 3.62546,0.0117 3.77649,0.17859 0.144359,0.15951 0.16162,0.57089 0.16162,3.85188 v 3.6733 l -0.217042,0.15202 c -0.186697,0.13077 -0.709315,0.15202 -3.738037,0.15202 -3.028721,0 -3.551339,-0.0212 -3.738036,-0.15202 z m 6.595979,-3.8763 0.02591,-2.80761 h -2.833529 -2.833529 v 2.83353 2.83352 l 2.807618,-0.0259 2.807617,-0.0259 z"
         id="path74" /><path
         style="fill:#9cb5e2;fill-opacity:1;stroke:#9cb5e2;stroke-width:0.3;stroke-dasharray:none;stroke-opacity:1"
         d="m 28.639285,279.94165 -0.217042,-0.15202 v -3.69026 c 0,-3.45105 0.01158,-3.70075 0.178588,-3.85189 0.159423,-0.14427 0.567386,-0.16162 3.801506,-0.16162 h 3.622918 l 0.205825,0.26167 c 0.202,0.2568 0.205307,0.32774 0.177986,3.8173 l -0.02784,3.55565 -0.230545,0.18659 c -0.217456,0.17601 -0.431063,0.1866 -3.76245,0.1866 -3.038597,0 -3.56222,-0.0212 -3.748947,-0.15202 z m 6.618896,-3.85188 v -2.83203 h -2.832032 -2.832031 v 2.83203 2.83203 h 2.832031 2.832032 z"
         id="path73" /><path
         style="fill:#9cb5e2;fill-opacity:1;stroke:#9cb5e2;stroke-width:0.3;stroke-dasharray:none;stroke-opacity:1"
         d="m 18.754274,279.89836 c -0.188357,-0.18836 -0.195312,-0.32552 -0.195312,-3.85188 v -3.65658 l 0.217041,-0.15202 c 0.310191,-0.21726 7.256566,-0.22967 7.55238,-0.0135 0.180812,0.13213 0.190847,0.3049 0.217363,3.74229 0.02729,3.53824 0.02406,3.60851 -0.177987,3.86537 l -0.205785,0.26161 H 22.55578 c -3.475985,0 -3.613245,-0.007 -3.801506,-0.19531 z m 6.640625,-3.80859 v -2.83203 h -2.832031 -2.832031 v 2.83203 2.83203 h 2.832031 2.832031 z"
         id="path72" /><path
         style="fill:#9cb5e2;fill-opacity:1;stroke:#9cb5e2;stroke-width:0.3;stroke-dasharray:none;stroke-opacity:1"
         d="m 48.234005,289.50249 c -0.108302,-0.13049 -0.134028,-0.85864 -0.134028,-3.79358 0,-2.93495 0.02573,-3.66309 0.134028,-3.79359 0.120347,-0.14501 0.510882,-0.16149 3.826033,-0.16149 3.226159,0 3.711367,0.0194 3.845464,0.15346 0.134032,0.13403 0.15346,0.61532 0.15346,3.80162 0,3.1863 -0.01943,3.66758 -0.15346,3.80162 -0.134097,0.13409 -0.619305,0.15346 -3.845464,0.15346 -3.315151,0 -3.705686,-0.0165 -3.826033,-0.1615 z m 6.653082,-3.84391 v -2.83353 l -2.807617,0.0259 -2.807618,0.0259 -0.02591,2.80761 -0.02591,2.80762 h 2.833529 2.833529 z"
         id="path71" /><path
         style="fill:#9cb5e2;fill-opacity:1;stroke:#9cb5e2;stroke-width:0.3;stroke-dasharray:none;stroke-opacity:1"
         d="m 38.438984,289.51053 c -0.134085,-0.13409 -0.15346,-0.61862 -0.15346,-3.83789 0,-2.73546 0.03018,-3.71462 0.117188,-3.80162 0.168216,-0.16822 7.507565,-0.16822 7.675781,0 0.08706,0.0871 0.117188,1.07779 0.117188,3.85398 0,3.59452 -0.0072,3.74065 -0.188893,3.83789 -0.120444,0.0645 -1.498027,0.1011 -3.801618,0.1011 -3.154088,0 -3.632208,-0.0195 -3.766186,-0.15346 z m 6.659561,-3.82604 -0.02591,-2.80761 -2.807617,-0.0259 -2.807618,-0.0259 v 2.83353 2.83353 h 2.833529 2.833529 z"
         id="path70" /><path
         style="fill:#9cb5e2;fill-opacity:1;stroke:#9cb5e2;stroke-width:0.3;stroke-dasharray:none;stroke-opacity:1"
         d="m 28.575703,289.51053 c -0.134032,-0.13404 -0.15346,-0.61532 -0.15346,-3.80162 0,-3.1863 0.01943,-3.66759 0.15346,-3.80162 0.134097,-0.1341 0.619305,-0.15346 3.845464,-0.15346 3.315151,0 3.705685,0.0165 3.826033,0.16149 0.108302,0.1305 0.134027,0.85864 0.134027,3.79359 0,2.93494 -0.02573,3.66309 -0.134027,3.79358 -0.120348,0.14501 -0.510882,0.1615 -3.826033,0.1615 -3.226159,0 -3.711367,-0.0194 -3.845464,-0.15346 z m 6.659561,-3.82604 -0.02591,-2.80761 -2.807617,-0.0259 -2.807617,-0.0259 v 2.83353 2.83353 h 2.833529 2.833529 z"
         id="path69" /><path
         style="fill:#9cb5e2;fill-opacity:1;stroke:#9cb5e2;stroke-width:0.3;stroke-dasharray:none;stroke-opacity:1"
         d="m 18.720582,289.4854 c -0.144262,-0.15941 -0.16162,-0.56683 -0.16162,-3.79346 0,-3.378 0.0117,-3.62546 0.178588,-3.77649 0.159515,-0.14436 0.570887,-0.16162 3.851884,-0.16162 h 3.673297 l 0.152021,0.21704 c 0.130768,0.1867 0.152022,0.70932 0.152022,3.73804 0,3.02872 -0.02125,3.55134 -0.152022,3.73803 l -0.152021,0.21705 h -3.690265 c -3.451045,0 -3.700741,-0.0116 -3.851884,-0.17859 z m 6.651401,-3.80091 -0.02591,-2.80761 -2.807617,-0.0259 -2.807617,-0.0259 v 2.83353 2.83353 h 2.833529 2.833529 z"
         id="path68" /></g></g></svg>
