<?xml version="1.0" encoding="UTF-8" standalone="no"?>
<!-- Created with Inkscape (http://www.inkscape.org/) -->

<svg
   width="49.899216mm"
   height="49.999954mm"
   viewBox="0 0 49.899216 49.999954"
   version="1.1"
   id="svg1"
   xml:space="preserve"
   inkscape:version="1.3 (0e150ed6c4, 2023-07-21)"
   sodipodi:docname="drawing.svg"
   xmlns:inkscape="http://www.inkscape.org/namespaces/inkscape"
   xmlns:sodipodi="http://sodipodi.sourceforge.net/DTD/sodipodi-0.dtd"
   xmlns="http://www.w3.org/2000/svg"
   xmlns:svg="http://www.w3.org/2000/svg"><sodipodi:namedview
     id="namedview1"
     pagecolor="#ffffff"
     bordercolor="#000000"
     borderopacity="0.25"
     inkscape:showpageshadow="2"
     inkscape:pageopacity="0.0"
     inkscape:pagecheckerboard="0"
     inkscape:deskcolor="#d1d1d1"
     inkscape:document-units="mm"
     inkscape:zoom="5.7941077"
     inkscape:cx="491.36125"
     inkscape:cy="309.02083"
     inkscape:window-width="1920"
     inkscape:window-height="1009"
     inkscape:window-x="-8"
     inkscape:window-y="-8"
     inkscape:window-maximized="1"
     inkscape:current-layer="layer5" /><defs
     id="defs1" /><g
     inkscape:groupmode="layer"
     id="layer11"
     inkscape:label="Layer 10"
     transform="translate(-121.14947,-192.17155)"><path
       style="fill:#9cb5e2;fill-opacity:1;stroke:none;stroke-width:0.381001;stroke-opacity:1"
       d="m 127.79812,241.92407 c -0.15598,-0.15597 -0.24744,-0.36261 -0.24744,-0.55902 0,-0.19641 0.0915,-0.40305 0.24744,-0.55902 l 0.24743,-0.24743 h 4.18805 4.18805 v -0.9465 c 0,-1.41661 -0.009,-1.40954 1.92277,-1.47286 l 1.53796,-0.0504 0.52944,-1.58554 0.52944,-1.58554 -8.68622,-0.0273 -8.68622,-0.0274 -0.56315,-0.26409 c -0.68587,-0.32164 -1.21047,-0.8295 -1.57899,-1.52859 l -0.27721,-0.52587 v -12.95363 -12.95364 l 0.27721,-0.52586 c 0.35205,-0.66785 0.84762,-1.16342 1.51547,-1.51548 l 0.52587,-0.27721 3.25101,-0.0315 3.25101,-0.0315 v -2.97206 -2.97205 l 0.24743,-0.24743 c 0.24543,-0.24543 0.26305,-0.24744 2.17192,-0.24744 1.90888,0 1.9265,0.002 2.17193,0.24744 l 0.24743,0.24743 v 2.97837 2.97838 h 0.40323 0.40322 v -5.80096 -5.80095 l 0.24744,-0.24744 c 0.24542,-0.24542 0.26304,-0.24743 2.17192,-0.24743 1.90887,0 1.92649,0.002 2.17192,0.24743 l 0.24743,0.24744 v 5.80095 5.80096 h 0.40323 0.40323 v -4.18805 -4.18805 l 0.24743,-0.24744 c 0.24543,-0.24543 0.26305,-0.24743 2.17192,-0.24743 1.90888,0 1.9265,0.002 2.17192,0.24743 l 0.24744,0.24744 v 4.18805 4.18805 h 4.94461 4.94461 l -0.46985,-0.65844 c -2.09748,-2.93935 -1.68921,-6.9743 0.95563,-9.44471 0.84219,-0.78664 1.567,-1.22178 2.70351,-1.62305 0.823,-0.29057 0.97593,-0.3116 2.24407,-0.30851 1.18244,0.003 1.46224,0.0369 2.13374,0.25967 2.60717,0.86479 4.47749,2.96847 4.98158,5.60311 0.36378,1.90132 -0.0787,3.92517 -1.20247,5.49999 l -0.46022,0.64494 0.92793,0.0489 c 0.74011,0.039 1.03435,0.10296 1.45378,0.31591 0.69224,0.35144 1.20404,0.87668 1.52859,1.56876 l 0.2641,0.56315 v 12.85283 12.85283 l -0.2641,0.56315 c -0.33569,0.71583 -0.87628,1.25642 -1.59211,1.59211 l -0.56315,0.26409 -8.68622,0.0274 -8.68622,0.0273 0.52944,1.58554 0.52944,1.58554 1.53796,0.0504 c 1.932,0.0633 1.92277,0.0562 1.92277,1.47286 v 0.9465 h 4.18805 4.18806 l 0.24743,0.24743 c 0.32735,0.32736 0.32735,0.79068 0,1.11804 l -0.24743,0.24743 h -18.05353 -18.05353 z m 26.36548,-1.7687 v -0.40322 h -8.06452 -8.06452 v 0.40322 0.40323 h 8.06452 8.06452 z m -4.07388,-3.60383 -0.53042,-1.5877 h -3.46022 -3.46023 l -0.53041,1.5877 -0.53042,1.5877 h 4.52106 4.52105 z m 18.65201,-3.50925 c 0.60373,-0.45077 0.69131,-0.67516 0.72817,-1.86573 l 0.0341,-1.10184 h -23.39604 -23.39603 v 0.9511 c 0,1.02163 0.0891,1.38147 0.43514,1.75833 0.49567,0.53973 -0.87047,0.51085 23.07059,0.48759 l 22.24565,-0.0216 z m -44.16942,-0.79565 c -0.15597,-0.15597 -0.24744,-0.3626 -0.24744,-0.55901 0,-0.19641 0.0915,-0.40305 0.24744,-0.55902 l 0.24743,-0.24744 h 2.73094 2.73094 l 0.24744,0.24744 c 0.32735,0.32735 0.32735,0.79068 0,1.11803 l -0.24744,0.24744 h -2.73094 -2.73094 z m 7.25807,0 c -0.15598,-0.15597 -0.24744,-0.3626 -0.24744,-0.55901 0,-0.19641 0.0915,-0.40305 0.24744,-0.55902 0.21618,-0.21618 0.33771,-0.24744 0.96224,-0.24744 0.62452,0 0.74606,0.0312 0.96224,0.24744 0.15597,0.15597 0.24744,0.36261 0.24744,0.55902 0,0.19641 -0.0915,0.40304 -0.24744,0.55901 -0.21618,0.21619 -0.33772,0.24744 -0.96224,0.24744 -0.62453,0 -0.74606,-0.0312 -0.96224,-0.24744 z m 37.63195,-14.56375 c -0.0264,-10.70873 -0.0279,-10.78074 -0.23439,-11.05728 -0.49506,-0.66303 -0.59493,-0.6911 -2.58196,-0.72573 -1.76982,-0.0309 -1.83585,-0.0246 -2.48792,0.23649 -1.77954,0.71241 -3.72717,0.70805 -5.50004,-0.0123 l -0.59773,-0.24288 h -5.98061 -5.9806 v 3.22581 3.2258 h 0.40322 0.40323 v -2.57514 -2.57515 l 0.24743,-0.24743 c 0.24543,-0.24543 0.26305,-0.24744 2.17193,-0.24744 1.90887,0 1.92649,0.002 2.17192,0.24744 l 0.24743,0.24743 v 3.13417 3.13416 l -0.24743,0.24743 -0.24744,0.24744 h -13.21481 -13.21482 l -0.24743,-0.24744 -0.24744,-0.24743 v -3.13416 -3.13417 l 0.24744,-0.24743 c 0.24542,-0.24543 0.26304,-0.24744 2.17192,-0.24744 1.90887,0 1.92649,0.002 2.17192,0.24744 l 0.24744,0.24743 v 2.57515 2.57514 h 0.40322 0.40323 v -3.22993 -3.22993 l -3.1178,0.0293 c -2.96733,0.0279 -3.13123,0.0394 -3.39599,0.23717 -0.15301,0.11432 -0.37172,0.3331 -0.48604,0.4862 -0.20648,0.27654 -0.20801,0.34856 -0.23438,11.05729 l -0.0266,10.77892 h 23.3898 23.38979 z m -30.54187,9.85214 c -0.49723,-0.13221 -1.21539,-0.77808 -1.47187,-1.32373 l -0.20687,-0.44011 -4.15407,-1.73085 -4.15406,-1.73085 -0.34946,0.40827 c -0.96758,1.13039 -2.46921,1.19672 -3.50662,0.15488 -1.01976,-1.02411 -1.01976,-2.31586 0,-3.33562 0.70791,-0.70791 1.47057,-0.91009 2.39184,-0.63408 0.52493,0.15728 1.21735,0.78004 1.47375,1.32552 l 0.20687,0.4401 4.1383,1.72429 4.1383,1.72428 0.53081,-0.52765 c 0.99565,-0.98972 2.2575,-1.03596 3.28113,-0.12023 l 0.47548,0.42537 4.23267,-3.18516 c 3.75135,-2.82295 4.24375,-3.22527 4.33017,-3.53797 0.0561,-0.20287 0.31364,-0.56849 0.60605,-0.86027 0.71397,-0.71244 1.46731,-0.90921 2.41217,-0.63004 0.52214,0.15427 1.42103,1.02245 1.51861,1.46673 0.0642,0.29253 0.38661,0.50132 4.30292,2.78694 l 4.23347,2.47072 0.31155,-0.35483 c 0.48366,-0.55088 1.02482,-0.78913 1.79233,-0.78913 2.53202,0 3.31016,3.31493 1.05846,4.50913 -0.56004,0.29703 -1.55855,0.29549 -2.12648,-0.003 -0.50435,-0.26533 -0.98649,-0.79812 -1.16236,-1.28448 -0.1227,-0.33932 -0.40813,-0.5247 -4.35015,-2.82532 l -4.21883,-2.46218 -0.31155,0.35483 c -0.48344,0.55061 -1.02482,0.78907 -1.79233,0.78946 -0.73421,3.7e-4 -1.14718,-0.16787 -1.71371,-0.69817 l -0.35282,-0.33026 -4.23266,3.18915 c -3.74976,2.8253 -4.24379,3.2294 -4.33018,3.54197 -0.0561,0.20287 -0.31363,0.56849 -0.60604,0.86028 -0.70507,0.70355 -1.41847,0.89191 -2.39482,0.6323 z m 1.28602,-1.74 c 0.50002,-0.50002 0.14571,-1.36547 -0.55902,-1.36547 -0.41442,0 -0.80645,0.39202 -0.80645,0.80645 0,0.41442 0.39203,0.80645 0.80645,0.80645 0.19641,0 0.40305,-0.0915 0.55902,-0.24743 z m 25.80646,-1.61291 c 0.15598,-0.15597 0.24744,-0.36261 0.24744,-0.55902 0,-0.1964 -0.0915,-0.40304 -0.24744,-0.55901 -0.15597,-0.15597 -0.36261,-0.24744 -0.55901,-0.24744 -0.19641,0 -0.40305,0.0915 -0.55902,0.24744 -0.15597,0.15597 -0.24744,0.36261 -0.24744,0.55901 0,0.19641 0.0915,0.40305 0.24744,0.55902 0.15597,0.15597 0.36261,0.24744 0.55902,0.24744 0.1964,0 0.40304,-0.0915 0.55901,-0.24744 z m -38.70969,-2.41935 c 0.50002,-0.50002 0.1457,-1.36547 -0.55902,-1.36547 -0.41443,0 -0.80645,0.39202 -0.80645,0.80645 0,0.41442 0.39202,0.80645 0.80645,0.80645 0.19641,0 0.40305,-0.0915 0.55902,-0.24743 z m 25.80646,-3.22581 c 0.15597,-0.15597 0.24744,-0.36261 0.24744,-0.55902 0,-0.19641 -0.0915,-0.40304 -0.24744,-0.55902 -0.15597,-0.15597 -0.36261,-0.24743 -0.55902,-0.24743 -0.1964,0 -0.40304,0.0915 -0.55901,0.24743 -0.15598,0.15598 -0.24744,0.36261 -0.24744,0.55902 0,0.19641 0.0915,0.40305 0.24744,0.55902 0.15597,0.15597 0.36261,0.24743 0.55901,0.24743 0.19641,0 0.40305,-0.0915 0.55902,-0.24743 z m -0.31158,8.87097 c -0.15597,-0.15597 -0.24744,-0.36261 -0.24744,-0.55902 0,-0.19641 0.0915,-0.40304 0.24744,-0.55901 l 0.24743,-0.24744 h 3.13417 3.13416 l 0.24744,0.24744 c 0.15597,0.15597 0.24743,0.3626 0.24743,0.55901 0,0.19641 -0.0915,0.40305 -0.24743,0.55902 l -0.24744,0.24744 h -3.13416 -3.13417 z m 3.22581,-2.41935 c -0.15598,-0.15598 -0.24744,-0.36261 -0.24744,-0.55902 0,-0.19641 0.0915,-0.40305 0.24744,-0.55902 0.24084,-0.24085 0.28793,-0.24744 1.76869,-0.24744 1.48076,0 1.52785,0.007 1.7687,0.24744 0.15597,0.15597 0.24743,0.36261 0.24743,0.55902 0,0.19641 -0.0915,0.40304 -0.24743,0.55902 -0.24085,0.24084 -0.28794,0.24743 -1.7687,0.24743 -1.48076,0 -1.52785,-0.007 -1.76869,-0.24743 z m -31.45163,-8.87098 c -0.15597,-0.15597 -0.24744,-0.3626 -0.24744,-0.55901 0,-0.19641 0.0915,-0.40305 0.24744,-0.55902 l 0.24743,-0.24744 h 4.74707 4.74707 l 0.24744,0.24744 c 0.32735,0.32735 0.32735,0.79068 0,1.11803 l -0.24744,0.24743 h -4.74707 -4.74707 z m 11.29033,0 c -0.15598,-0.15597 -0.24744,-0.3626 -0.24744,-0.55901 0,-0.19641 0.0915,-0.40305 0.24744,-0.55902 0.21618,-0.21618 0.33771,-0.24744 0.96224,-0.24744 0.62452,0 0.74606,0.0312 0.96224,0.24744 0.15597,0.15597 0.24744,0.36261 0.24744,0.55902 0,0.19641 -0.0915,0.40304 -0.24744,0.55901 -0.21618,0.21619 -0.33772,0.24743 -0.96224,0.24743 -0.62453,0 -0.74606,-0.0312 -0.96224,-0.24743 z m 18.54839,-4.03226 c -0.16167,-0.16168 -0.24743,-0.36152 -0.24743,-0.57661 0,-0.29249 0.20537,-0.53455 1.84274,-2.17192 l 1.84274,-1.84275 h 3.95822 3.95821 l 0.24743,0.24744 c 0.15598,0.15597 0.24744,0.36261 0.24744,0.55902 0,0.19641 -0.0915,0.40304 -0.24744,0.55901 l -0.24743,0.24744 h -3.60457 -3.60457 l -1.62366,1.6129 c -1.42411,1.41468 -1.66363,1.61291 -1.94895,1.61291 -0.21097,0 -0.41226,-0.087 -0.57273,-0.24744 z m -26.86035,-1.76869 v -2.01613 h -0.80645 -0.80645 v 2.01613 2.01613 h 0.80645 0.80645 z m 5.64517,-4.43549 v -6.45161 h -0.80646 -0.80645 v 6.45161 6.45162 h 0.80645 0.80646 z m 2.41935,3.22581 v -3.22581 h -0.40322 -0.40323 v 3.22581 3.22581 h 0.40323 0.40322 z m 3.22581,-6.04839 v -9.2742 h -0.80645 -0.80645 v 9.2742 9.2742 h 0.80645 0.80645 z m 2.41936,6.04839 v -3.22581 h -0.40323 -0.40323 v 3.22581 3.22581 h 0.40323 0.40323 z m 3.2258,-4.43549 v -7.66129 h -0.80645 -0.80645 v 7.66129 7.6613 h 0.80645 0.80645 z m 5.64517,5.64517 v -2.01613 h -0.80645 -0.80646 v 2.01613 2.01613 h 0.80646 0.80645 z m 12.59042,-5.39693 c 1.58587,-0.37382 3.01086,-1.51711 3.73499,-2.99664 0.22349,-0.45662 0.4353,-1.02302 0.47069,-1.25866 l 0.0643,-0.42843 h -2.60967 -2.60967 l -1.8639,1.86752 c -1.52166,1.52461 -1.83613,1.8869 -1.71269,1.97309 0.35097,0.24503 1.48953,0.74284 1.96085,0.85734 0.70806,0.172 1.80075,0.16594 2.56505,-0.0142 z m -3.94726,-4.00226 1.84071,-1.83869 v -2.60968 -2.60967 l -0.42842,0.0677 c -0.23564,0.0373 -0.8003,0.24735 -1.25481,0.46685 -2.3347,1.1275 -3.59892,3.79693 -3.00049,6.33561 0.14224,0.60346 0.80246,2.02653 0.94017,2.02653 0.0342,0 0.89045,-0.82742 1.90284,-1.8387 z m 8.14953,-2.7228 c -0.12594,-0.79634 -0.80844,-2.02371 -1.52226,-2.73752 -0.71899,-0.71899 -1.96799,-1.41664 -2.74522,-1.53338 l -0.42843,-0.0643 v 2.38184 2.38183 h 2.38184 2.38183 z"
       id="path30" /><path
       style="fill:#aac030;fill-opacity:1;stroke:none;stroke-width:0.381001;stroke-opacity:1"
       d="m 138.92046,227.53503 c -0.49723,-0.13221 -1.21539,-0.77808 -1.47187,-1.32373 l -0.20687,-0.44011 -4.15407,-1.73085 -4.15406,-1.73085 -0.34946,0.40827 c -0.96758,1.13039 -2.46921,1.19672 -3.50662,0.15488 -1.01976,-1.02411 -1.01976,-2.31586 0,-3.33562 0.70791,-0.70791 1.47057,-0.91009 2.39184,-0.63408 0.52493,0.15728 1.21735,0.78004 1.47375,1.32552 l 0.20687,0.4401 4.1383,1.72429 4.1383,1.72428 0.53081,-0.52765 c 0.99565,-0.98972 2.2575,-1.03596 3.28113,-0.12023 l 0.47548,0.42537 4.23267,-3.18516 c 3.75135,-2.82295 4.24375,-3.22527 4.33017,-3.53797 0.0561,-0.20287 0.31364,-0.56849 0.60605,-0.86027 0.71397,-0.71244 1.46731,-0.90921 2.41217,-0.63004 0.52214,0.15427 1.42103,1.02245 1.51861,1.46673 0.0642,0.29253 0.38661,0.50132 4.30292,2.78694 l 4.23347,2.47072 0.31155,-0.35483 c 0.48366,-0.55088 1.02482,-0.78913 1.79233,-0.78913 2.53202,0 3.31016,3.31493 1.05846,4.50913 -0.56004,0.29703 -1.55855,0.29549 -2.12648,-0.003 -0.50435,-0.26533 -0.98649,-0.79812 -1.16236,-1.28448 -0.1227,-0.33932 -0.40813,-0.5247 -4.35015,-2.82532 l -4.21883,-2.46218 -0.31155,0.35483 c -0.48344,0.55061 -1.02482,0.78907 -1.79233,0.78946 -0.73421,3.7e-4 -1.14718,-0.16787 -1.71371,-0.69817 l -0.35282,-0.33026 -4.23266,3.18915 c -3.74976,2.8253 -4.24379,3.2294 -4.33018,3.54197 -0.0561,0.20287 -0.31363,0.56849 -0.60604,0.86028 -0.70507,0.70355 -1.41847,0.89191 -2.39482,0.6323 z m 1.28602,-1.74 c 0.50002,-0.50002 0.14571,-1.36547 -0.55902,-1.36547 -0.41442,0 -0.80645,0.39202 -0.80645,0.80645 0,0.41442 0.39203,0.80645 0.80645,0.80645 0.19641,0 0.40305,-0.0915 0.55902,-0.24743 z m 25.80646,-1.61291 c 0.15598,-0.15597 0.24744,-0.36261 0.24744,-0.55902 0,-0.1964 -0.0915,-0.40304 -0.24744,-0.55901 -0.15597,-0.15597 -0.36261,-0.24744 -0.55901,-0.24744 -0.19641,0 -0.40305,0.0915 -0.55902,0.24744 -0.15597,0.15597 -0.24744,0.36261 -0.24744,0.55901 0,0.19641 0.0915,0.40305 0.24744,0.55902 0.15597,0.15597 0.36261,0.24744 0.55902,0.24744 0.1964,0 0.40304,-0.0915 0.55901,-0.24744 z m -38.70969,-2.41935 c 0.50002,-0.50002 0.1457,-1.36547 -0.55902,-1.36547 -0.41443,0 -0.80645,0.39202 -0.80645,0.80645 0,0.41442 0.39202,0.80645 0.80645,0.80645 0.19641,0 0.40305,-0.0915 0.55902,-0.24743 z m 25.80646,-3.22581 c 0.15597,-0.15597 0.24744,-0.36261 0.24744,-0.55902 0,-0.19641 -0.0915,-0.40304 -0.24744,-0.55902 -0.15597,-0.15597 -0.36261,-0.24743 -0.55902,-0.24743 -0.1964,0 -0.40304,0.0915 -0.55901,0.24743 -0.15598,0.15598 -0.24744,0.36261 -0.24744,0.55902 0,0.19641 0.0915,0.40305 0.24744,0.55902 0.15597,0.15597 0.36261,0.24743 0.55901,0.24743 0.19641,0 0.40305,-0.0915 0.55902,-0.24743 z"
       id="path66"
       sodipodi:nodetypes="cscccssssscccsscsssssscssscsscssscssscccssscssssssssscssscsssssssss" /></g></svg>
