<?xml version="1.0" encoding="UTF-8" standalone="no"?>
<!-- Created with Inkscape (http://www.inkscape.org/) -->

<svg
   width="43.031002mm"
   height="34.424774mm"
   viewBox="0 0 43.031002 34.424774"
   version="1.1"
   id="svg1"
   xml:space="preserve"
   inkscape:version="1.3 (0e150ed6c4, 2023-07-21)"
   sodipodi:docname="drawing.svg"
   xmlns:inkscape="http://www.inkscape.org/namespaces/inkscape"
   xmlns:sodipodi="http://sodipodi.sourceforge.net/DTD/sodipodi-0.dtd"
   xmlns="http://www.w3.org/2000/svg"
   xmlns:svg="http://www.w3.org/2000/svg"><sodipodi:namedview
     id="namedview1"
     pagecolor="#ffffff"
     bordercolor="#000000"
     borderopacity="0.25"
     inkscape:showpageshadow="2"
     inkscape:pageopacity="0.0"
     inkscape:pagecheckerboard="0"
     inkscape:deskcolor="#d1d1d1"
     inkscape:document-units="mm"
     inkscape:zoom="0.50070255"
     inkscape:cx="575.1918"
     inkscape:cy="642.09779"
     inkscape:window-width="1920"
     inkscape:window-height="1009"
     inkscape:window-x="-8"
     inkscape:window-y="-8"
     inkscape:window-maximized="1"
     inkscape:current-layer="layer6" /><defs
     id="defs1" /><g
     inkscape:groupmode="layer"
     id="layer6"
     inkscape:label="icons"
     transform="matrix(0.68849597,0,0,0.68849597,-62.228022,-6.8815461)"><g
       inkscape:label="Layer 1"
       inkscape:groupmode="layer"
       id="layer1"
       transform="matrix(0.36909925,0,0,0.36909925,3.6094731,-23.262452)"
       inkscape:export-filename="user-gear.svg"
       inkscape:export-xdpi="96"
       inkscape:export-ydpi="96"><path
         style="fill:#aac030;fill-opacity:1;stroke-width:0.264583"
         d="m 137.66074,138.49875 c 0,-1.85208 1.19063,-3.51896 2.98979,-3.91583 2.77813,-0.635 5.68855,-0.97896 8.65188,-0.97896 2.96333,0 5.87375,0.34396 8.65187,0.97896 1.79917,0.39687 2.9898,2.06375 2.9898,3.91583 v 8.09625 c 2.0902,0.89958 4.07458,2.03729 5.9002,3.38667 l 6.58813,-3.78355 c 1.61396,-0.92604 3.62479,-0.71437 4.89479,0.635 2.01083,2.14313 3.78354,4.55084 5.31813,7.19667 1.53458,2.64583 2.7252,5.3975 3.57187,8.20208 0.55563,1.77271 -0.29104,3.6248 -1.905,4.55084 l -6.61458,3.81 c 0.10583,1.05833 0.18521,2.14312 0.18521,3.25437 0,1.11125 -0.0529,2.16959 -0.18521,3.25438 l 6.61458,3.81 c 1.61396,0.92604 2.43417,2.77813 1.905,4.55083 -0.87312,2.80459 -2.06375,5.55625 -3.57187,8.20209 -1.50813,2.64583 -3.3073,5.05354 -5.31813,7.19666 -1.27,1.34938 -3.30729,1.56105 -4.89479,0.635 l -6.58813,-3.78354 c -1.82562,1.34938 -3.78354,2.48709 -5.9002,3.38667 v 8.09625 c 0,1.85208 -1.19063,3.51896 -2.9898,3.91583 -2.77812,0.635 -5.68854,0.97896 -8.65187,0.97896 -2.96333,0 -5.87375,-0.34396 -8.65188,-0.97896 -1.79916,-0.39687 -2.98979,-2.06375 -2.98979,-3.91583 v -8.06979 c -2.11666,-0.89959 -4.1275,-2.03729 -5.95312,-3.41313 l -6.53521,3.78354 c -1.61396,0.92605 -3.62479,0.71438 -4.89479,-0.635 -2.01083,-2.14312 -3.78354,-4.55083 -5.31812,-7.19666 -1.53459,-2.64584 -2.72521,-5.3975 -3.57188,-8.20209 -0.55562,-1.7727 0.29104,-3.62479 1.905,-4.55083 l 6.56167,-3.78354 c -0.10583,-1.0848 -0.18521,-2.16959 -0.18521,-3.28084 0,-1.11125 0.0529,-2.19604 0.18521,-3.28083 l -6.58813,-3.81 c -1.61395,-0.92604 -2.43416,-2.77813 -1.905,-4.55083 0.87313,-2.80459 2.0373,-5.55625 3.57188,-8.20209 1.53458,-2.64583 3.30729,-5.05354 5.31812,-7.19666 1.27,-1.34938 3.28083,-1.56105 4.89479,-0.635 l 6.56167,3.78354 c 1.82562,-1.34938 3.83646,-2.48709 5.95312,-3.41313 v -8.06979 z m 24.36813,35.32187 a 12.726458,12.726458 0 1 0 -25.42646,0 12.726458,12.726458 0 1 0 25.42646,0 z"
         id="path3" /><g
         id="g3"
         inkscape:label="user"
         transform="matrix(0.99998671,0,0,0.99998671,2.9646519e-4,0.00107363)"><path
           style="fill:#9cb5e2;fill-opacity:1;stroke-width:0.264583"
           d="m 69.477621,161.2 h 24.182917 c 3.122083,0 6.19125,0.3175 9.128122,0.87312 -0.55562,4.8948 1.95792,9.41917 5.76792,11.85334 -4.39208,2.80458 -7.06437,8.36083 -5.29167,14.10229 1.05834,3.41313 2.48709,6.74688 4.33917,9.94834 1.85208,3.20145 4.02167,6.11187 6.45583,8.73125 4.15396,4.47145 10.4775,4.86833 15.13417,2.30187 v 0.23813 c 0,2.43416 0.71437,4.89479 2.0902,6.95854 l -101.123742,0.0265 c -4.339166,0 -7.858125,-3.51896 -7.858125,-7.85813 0,-26.06146 21.11375,-47.17521 47.175208,-47.17521 z"
           id="path2" /><path
           style="fill:#9cb5e2;fill-opacity:1;stroke-width:0.264583"
           d="m 81.56908,80.766665 a 33.866667,33.866667 0 1 1 0,67.733335 33.866667,33.866667 0 1 1 0,-67.733335 z"
           id="path1" /></g></g><g
       inkscape:groupmode="layer"
       id="layer5"
       inkscape:label="Layer 4"
       transform="matrix(0.3690893,0,0,0.3690893,74.196197,21.506148)"
       inkscape:export-filename=".\nodes.svg"
       inkscape:export-xdpi="96"
       inkscape:export-ydpi="96"><path
         id="path1-2"
         style="fill:#9cb5e2;fill-opacity:1;stroke-width:0.264583"
         d="m 132.84304,155.2094 -34.772053,13.92387 a 28.192999,28.200058 0 0 1 6.289843,15.72155 l 34.74765,-13.8954 a 28.192999,28.200058 0 0 1 -6.26544,-15.75002 z m 14.92643,22.79838 -7.33103,40.26067 a 28.159231,28.166283 0 0 1 3.53028,-0.25217 28.159231,28.166283 0 0 1 13.14501,3.26185 l 7.3168,-40.20779 a 28.192999,28.200058 0 0 1 -3.54249,0.2542 28.192999,28.200058 0 0 1 -13.11857,-3.31676 z m -45.71878,20.30319 A 28.192999,28.200058 0 0 1 90.882308,211.0574 l 27.298682,23.88634 a 28.159231,28.166283 0 0 1 11.12974,-12.76473 z" /><g
         id="g9"
         style="fill:#aac030;fill-opacity:1"
         inkscape:export-filename="update\nodes.svg"
         inkscape:export-xdpi="96"
         inkscape:export-ydpi="96"><ellipse
           style="fill:#aac030;fill-opacity:1;stroke:none;stroke-width:0.564928"
           id="path7"
           cx="160.88762"
           cy="153.12474"
           rx="21.17659"
           ry="21.181892" /><ellipse
           style="fill:#aac030;fill-opacity:1;stroke:none;stroke-width:0.564928"
           id="ellipse8"
           cx="76.25692"
           cy="186.9964"
           rx="21.17659"
           ry="21.181892" /><ellipse
           style="fill:#aac030;fill-opacity:1;stroke:none;stroke-width:0.564928"
           id="ellipse9"
           cx="143.96794"
           cy="246.183"
           rx="21.17659"
           ry="21.181892" /><g
           id="g4" /></g></g><g
       inkscape:groupmode="layer"
       id="layer3"
       inkscape:label="Layer 2"
       transform="matrix(0.10632509,0,0,0.10632509,89.739073,-15.042214)"
       inkscape:export-filename=".\network.svg"
       inkscape:export-xdpi="96"
       inkscape:export-ydpi="96"><path
         id="path4"
         style="fill:#9cb5e2;fill-opacity:1;stroke-width:0.918469"
         d="m 226.48631,235.47835 c -24.33938,0 -44.09175,19.7453 -44.09175,44.08469 v 88.17644 c 0,24.3394 19.75237,44.08469 44.09175,44.08469 h 44.0847 v 14.52077 h 58.78194 v -14.52077 h 44.08469 c 24.33939,0 44.09175,-19.74529 44.09175,-44.08469 v -88.17644 c 0,-24.33939 -19.75236,-44.08469 -44.09175,-44.08469 z m 14.6902,58.78194 h 117.57094 v 58.78194 H 241.17651 Z M 123.61262,514.86728 v 14.52077 H 79.527932 c -24.339391,0 -44.084692,19.75237 -44.084692,44.09176 v 88.16938 c 0,24.33938 19.745301,44.08469 44.084692,44.08469 H 226.48631 c 24.3394,0 44.0847,-19.74531 44.0847,-44.08469 v -88.16938 c 0,-24.33939 -19.7453,-44.09176 -44.0847,-44.09176 h -44.09175 v -14.52077 z m 293.91677,0 v 14.52077 h -44.09175 c -24.33939,0 -44.08469,19.75237 -44.08469,44.09176 v 88.16938 c 0,24.33938 19.7453,44.08469 44.08469,44.08469 h 146.95838 c 24.33939,0 44.08469,-19.74531 44.08469,-44.08469 v -88.16938 c 0,-24.33939 -19.7453,-44.09176 -44.08469,-44.09176 H 476.31133 V 514.86728 Z M 94.225182,588.17 H 211.78906 v 58.78194 H 94.225182 Z m 293.909708,0 h 117.56388 v 58.78194 H 388.13489 Z"
         inkscape:export-filename="update\network.svg"
         inkscape:export-xdpi="96"
         inkscape:export-ydpi="96" /><path
         d="M 270.57095,441.21689 H 35.442995 c -16.25689,0 -29.3909904,13.1341 -29.3909904,29.39099 0,16.2569 13.1341004,29.391 29.3909904,29.391 h 88.172985 58.78199 235.12795 58.78198 88.17299 c 16.25689,0 29.39099,-13.1341 29.39099,-29.391 0,-16.25689 -13.1341,-29.39099 -29.39099,-29.39099 H 329.35293 Z"
         id="path1-4"
         style="fill:#aac030;fill-opacity:1;stroke-width:0.918469"
         sodipodi:nodetypes="csssccccssscc" /></g><g
       inkscape:groupmode="layer"
       id="layer4"
       inkscape:label="Layer 3"
       transform="matrix(0.36904044,0,0,0.36904044,10.030236,28.197977)"
       inkscape:export-filename=".\file-shield.svg"
       inkscape:export-xdpi="96"
       inkscape:export-ydpi="96"><path
         style="fill:#aac030;fill-opacity:1;stroke-width:0.264583"
         d="m 120.47278,168.27371 c 1.50812,-0.60854 3.20146,-0.60854 4.70958,0 l 31.75,12.7 c 2.40771,0.97896 3.99521,3.30729 3.99521,5.90021 0,16.74813 -6.85271,44.66166 -35.66583,56.67375 -1.56105,0.66145 -3.33375,0.66145 -4.8948,0 -28.786662,-12.01209 -35.63937,-39.92562 -35.63937,-56.67375 0,-2.59292 1.5875,-4.92125 3.995208,-5.90021 z m 27.59604,22.83354 -25.24125,-10.10708 v 49.68875 c 18.04458,-8.73125 24.20937,-26.19375 25.24125,-39.60812 z"
         id="path6" /><g
         id="g6"
         style="fill:#9cb5e2;fill-opacity:1"><path
           style="fill:#9cb5e2;fill-opacity:1;stroke-width:0.264583"
           d="M 110.12757,142.42392 H 76.260903 v -33.86667 z"
           id="path5" /><path
           style="fill:#9cb5e2;fill-opacity:1;stroke-width:0.264583"
           d="m 8.5275698,125.49059 c 0,-9.33979 7.5935412,-16.93334 16.9333332,-16.93334 h 42.333334 v 33.86667 c 0,4.68313 3.783541,8.46667 8.466666,8.46667 H 110.12757 V 163.326 l -24.553333,9.81605 c -5.635625,2.24895 -9.313334,7.69937 -9.313334,13.75833 0,14.97542 5.000625,39.15833 24.923747,55.1127 -2.381247,1.27 -5.106455,2.01084 -7.990413,2.01084 H 25.460903 c -9.339792,0 -16.9333332,-7.59355 -16.9333332,-16.93334 z"
           id="path1-5" /></g></g></g><g
     inkscape:groupmode="layer"
     id="layer2"
     inkscape:label="Layer 5"
     transform="matrix(0.39367373,0,0,0.39367373,-69.974335,68.474188)"
     inkscape:export-filename="img\alarm.svg"
     inkscape:export-xdpi="96"
     inkscape:export-ydpi="96"><path
       style="fill:#9cb5e2;fill-opacity:1"
       d="m 76.147924,179.21555 c -0.58947,-0.4768 -0.63289,-0.71876 -0.77149,-4.29948 -0.12928,-3.34018 -0.22895,-3.97309 -0.83289,-5.28861 -2.01113,-4.38071 -7.14973,-6.35861 -11.40608,-4.39032 -1.04287,0.48227 -2.334,1.47998 -4.01103,3.0995 -2.1156,2.04305 -2.60156,2.3883 -3.36174,2.3883 -0.81598,0 -1.67236,-0.78481 -10.47491,-9.59955 -8.74777,-8.75989 -9.58628,-9.6763 -9.58628,-10.47685 0,-0.74963 0.3653,-1.25431 2.51057,-3.46844 3.04912,-3.14701 3.65202,-4.3217 3.66802,-7.14682 0.0208,-3.68032 -1.62208,-6.43048 -4.76617,-7.97831 -1.6536,-0.81406 -1.93126,-0.86408 -5.56908,-1.0033 -3.61726,-0.13842 -3.85661,-0.18101 -4.33394,-0.77114 -0.48242,-0.59642 -0.50523,-1.23127 -0.50523,-14.05975 0,-12.82848 0.0228,-13.46333 0.50523,-14.05975 0.47758,-0.59044 0.71598,-0.63269 4.35562,-0.77192 3.7326,-0.14279 3.90504,-0.17517 5.63638,-1.05833 3.88114,-1.9798 5.65871,-6.5468 4.20711,-10.80909 -0.39163,-1.14994 -1.00078,-1.96571 -3.09799,-4.14878 -2.23596,-2.3275 -2.61052,-2.8436 -2.61052,-3.59705 0,-0.80399 0.82528,-1.70472 9.59249,-10.46946 8.78647,-8.784 9.6668,-9.58978 10.47684,-9.58978 0.75857,0 1.25292,0.35709 3.47552,2.51057 3.147,3.04911 4.3217,3.65201 7.14682,3.66801 3.68031,0.0208 6.43048,-1.62208 7.97831,-4.76617 0.81406,-1.6536 0.86408,-1.93126 1.00329,-5.56908 0.19122,-4.99673 0.0304,-4.83917 4.93833,-4.83917 h 3.54257 v 2.11667 2.11667 h -2.11667 -2.11667 v 2.22108 c 0,5.03394 -2.56788,9.3384 -6.87916,11.53132 -2.15247,1.09484 -4.098,1.59343 -6.21771,1.59343 -3.42843,0 -6.42086,-1.2515 -9.0662,-3.79169 l -1.67352,-1.607 -7.44365,7.44365 -7.44364,7.44364 1.67174,1.7871 c 2.71264,2.89982 3.94482,6.27793 3.61388,9.90772 -0.6537,7.16971 -5.99481,12.15408 -13.02398,12.15408 h -2.22109 v 10.58333 10.58333 h 2.22109 c 5.03394,0 9.3384,2.56789 11.53131,6.87917 1.09485,2.15247 1.59344,4.098 1.59344,6.21771 0,3.42843 -1.2515,6.42086 -3.79169,9.0662 l -1.607,1.67352 7.44787,7.44788 7.44788,7.44787 1.41099,-1.33446 c 2.9541,-2.79386 5.49582,-3.87105 9.20028,-3.89911 7.60603,-0.0576 13.22916,5.45259 13.22916,12.96347 v 2.22108 h 6.35001 6.35 v 2.11667 2.11667 h -7.7759 c -7.25863,0 -7.81745,-0.0336 -8.40052,-0.50523 z m 20.409747,-1.61144 v -2.11667 h 2.11666 2.116669 v -2.11666 -2.11667 h -6.758896 -6.7589 l -0.64943,-0.64943 c -0.38688,-0.38688 -0.64943,-0.95548 -0.64943,-1.40646 0,-0.86434 31.626986,-55.96546 32.572126,-56.74775 0.76966,-0.63706 1.93317,-0.58 2.69796,0.13229 0.35155,0.32742 3.35754,5.29828 6.67997,11.04635 3.32244,5.74808 6.24146,10.78584 6.48671,11.19503 l 0.44593,0.74399 0.79348,-1.67003 c 2.10821,-4.43716 6.45365,-7.09399 11.60272,-7.09399 h 2.22109 v -10.58333 -10.58333 h -2.22109 c -5.03393,0 -9.33839,-2.56789 -11.53131,-6.87917 -2.75474,-5.41583 -1.95796,-10.95564 2.19825,-15.28391 l 1.60701,-1.67352 -7.45759,-7.45759 -7.45759,-7.45759 -1.39332,1.36872 C 119.7436,71.66814 115.2574,73.00043 110.9669,71.89287 104.59214,70.24728 100.791,65.49668 100.791,59.1752 v -2.22108 h -6.349996 -6.35 v -2.11667 -2.11667 h 7.775897 c 9.796309,0 8.969259,-0.43324 9.171999,4.80471 0.12928,3.34018 0.22896,3.97309 0.8329,5.28861 1.46333,3.18747 4.38317,5.07485 7.87861,5.09272 2.85104,0.0146 4.39044,-0.76179 7.53849,-3.8019 2.11164,-2.03923 2.60248,-2.3883 3.35824,-2.3883 0.81116,0 1.68646,0.80156 10.47491,9.59248 8.784,8.78647 9.58978,9.6668 9.58978,10.47684 0,0.75857 -0.35709,1.25292 -2.51057,3.47552 -3.04912,3.14701 -3.65201,4.3217 -3.66801,7.14682 -0.0208,3.68032 1.62207,6.43048 4.76616,7.97831 1.6536,0.81406 1.93126,0.86408 5.56909,1.0033 3.61726,0.13842 3.85661,0.18101 4.33394,0.77114 0.48241,0.59642 0.50523,1.23127 0.50523,14.05975 0,12.82808 -0.0228,13.46335 -0.50519,14.05975 -0.47844,0.59155 -0.71312,0.63254 -4.43177,0.77409 -4.49067,0.17093 -5.58912,0.51041 -7.57525,2.34117 -2.11494,1.94948 -3.27629,5.65817 -2.60573,8.32121 0.16878,0.67026 3.52127,6.74062 7.70831,13.95743 4.98681,8.59531 7.40963,13.01808 7.40963,13.52605 0,0.44858 -0.26346,1.01822 -0.64944,1.4042 l -0.64943,0.64943 h -23.52908 -23.52908 l -0.15954,0.59531 c -0.0877,0.32742 -0.16117,1.94018 -0.16315,3.5839 -0.003,2.8179 -0.0407,3.02568 -0.65305,3.63802 -0.62559,0.6256 -0.78098,0.64944 -4.23333,0.64944 h -3.583899 z m 47.677559,-16.873 c -1.99344,-3.45932 -8.26788,-14.35025 -13.94319,-24.20206 -5.67531,-9.85181 -10.37828,-17.91181 -10.45104,-17.91111 -0.0728,7.1e-4 -4.77573,8.0606 -10.45104,17.91088 -5.67531,9.85028 -11.949749,20.74063 -13.943189,24.20078 l -3.624437,6.29118 H 119.841 147.85967 Z m -26.5109,-0.0603 v -2.1167 h 2.11667 2.11667 v 2.11667 2.11666 h -2.11667 -2.11667 z m 0,-19.05 v -12.7 h 2.11667 2.11667 v 12.7 12.7 h -2.11667 -2.11667 z m -32.543736,12.52376 c -12.59165,-1.98315 -22.52599,-8.89467 -28.64961,-19.93209 -2.3234,-4.18779 -4.03704,-10.17676 -4.33415,-15.1474 l -0.17001,-2.84427 h 2.12955 2.12956 l 0.18096,2.18281 c 0.73406,8.85416 4.17507,16.20605 10.38873,22.19604 5.15488,4.96931 11.39003,8.03548 18.48178,9.0885 1.57762,0.23426 2.88815,0.4497 2.9123,0.47876 0.0241,0.0291 -0.0173,0.97558 -0.0922,2.10337 l -0.13609,2.05052 -1.08968,-0.036 c -0.59933,-0.0198 -1.38734,-0.0829 -1.75114,-0.14021 z m 2.08073,-32.3084 c -1.02912,-0.53268 -1.6704,-1.11455 -2.33281,-2.11666 l -0.91354,-1.38203 h -7.48698 -7.48699 v -2.11667 -2.11667 h 7.50226 7.50226 l 0.76597,-1.21377 c 0.42128,-0.66758 1.33152,-1.5806 2.02274,-2.02894 l 1.25677,-0.81516 v -7.49606 -7.49607 h 2.11667 2.11667 v 7.50108 7.50108 l 1.29529,0.8052 c 4.186547,2.6025 3.826287,9.01121 -0.62302,11.08308 -1.90206,0.88571 -3.88721,0.84819 -5.73529,-0.10841 z m 4.28962,-4.27209 c 0.42537,-0.42537 0.7734,-1.02984 0.7734,-1.34327 0,-0.73651 -1.38016,-2.11667 -2.11667,-2.11667 -0.31343,0 -0.9179,0.34803 -1.34327,0.7734 -0.42537,0.42537 -0.7734,1.02984 -0.7734,1.34327 0,0.73651 1.38016,2.11667 2.11667,2.11667 0.31343,0 0.9179,-0.34803 1.34327,-0.7734 z m 32.523386,-3.32676 c 0,-0.10866 -0.1873,-1.459 -0.41623,-3.00077 -1.60805,-10.82965 -8.28168,-20.13598 -18.00531,-25.10831 -3.80119,-1.94379 -7.460789,-3.02432 -12.365226,-3.65093 -1.2674,-0.16193 -1.28343,-0.17577 -1.12448,-0.97054 0.0887,-0.44345 0.16126,-1.4038 0.16126,-2.13411 v -1.32784 l 1.88503,0.1752 c 9.454136,0.87867 19.028666,5.95513 25.186936,13.35423 5.00889,6.01812 8.13456,13.35421 8.81663,20.69307 l 0.17071,1.83682 h -1.32783 c -0.73031,0 -1.69991,0.0744 -2.15466,0.16537 -0.45476,0.0909 -0.82683,0.0765 -0.82683,-0.0322 z m -70.169596,-2.23001 c -0.68511,-0.0957 -1.32604,-0.2544 -1.4243,-0.35266 -0.27794,-0.27794 0.60405,-4.66167 1.47275,-7.32 3.79884,-11.62491 13.13645,-20.87988 24.70996,-24.49127 2.95781,-0.92295 6.90436,-1.7226 8.50168,-1.7226 h 0.85659 l 0.13609,2.05052 c 0.0748,1.12779 0.11634,2.0743 0.0922,2.10337 -0.0241,0.0291 -1.33468,0.2445 -2.9123,0.47876 -14.03916,2.08461 -25.55822,13.00548 -28.18412,26.72048 -0.55683,2.90834 -0.49742,2.78107 -1.28034,2.74277 -0.39741,-0.0195 -1.2831,-0.11366 -1.96821,-0.20937 z"
       id="path8" /><path
       style="fill:#aac030;fill-opacity:1"
       d="m 100.791,171.25411 h -6.758896 -6.7589 l -0.64943,-0.64943 c -0.38688,-0.38688 -0.64943,-0.95548 -0.64943,-1.40646 0,-0.86434 31.626986,-55.96546 32.572126,-56.74775 0.76966,-0.63706 1.93317,-0.58 2.69796,0.13229 0.35155,0.32742 3.35754,5.29828 6.67997,11.04635 4.88991,8.45993 6.18897,10.69828 6.93264,11.93902 8.23391,14.48124 0.45514,1.17101 11.441,20.1063 4.98681,8.59531 7.40963,13.01808 7.40963,13.52605 0,0.44858 -0.26346,1.01822 -0.64944,1.4042 l -0.64943,0.64943 h -23.52908 -23.52908 z m 43.44423,-10.523 c -1.99344,-3.45932 -8.26788,-14.35025 -13.94319,-24.20206 -5.67531,-9.85181 -10.37828,-17.91181 -10.45104,-17.91111 -0.0728,7.1e-4 -4.77573,8.0606 -10.45104,17.91088 -5.67531,9.85028 -11.949749,20.74063 -13.943189,24.20078 l -3.624437,6.29118 H 119.841 147.85967 Z m -26.5109,-0.0603 v -2.1167 h 2.11667 2.11667 v 2.11667 2.11666 h -2.11667 -2.11667 z m 0,-19.05 v -12.7 h 2.11667 2.11667 v 12.7 12.7 h -2.11667 -2.11667 z"
       id="path10"
       sodipodi:nodetypes="cccssssscsssccccssssscccscccccccccccccccccc" /></g><g
     inkscape:groupmode="layer"
     id="layer7"
     inkscape:label="Layer 6"
     style="fill:#9cb5e2;fill-opacity:1"
     inkscape:export-filename="img\data-management.svg"
     inkscape:export-xdpi="96"
     inkscape:export-ydpi="96"
     transform="translate(-65.916627,-8.9214189)"><path
       style="fill:#aac030;fill-opacity:1;stroke-width:0.396992"
       d="m 69.609638,148.95304 c -0.409725,-0.43613 -0.308676,-0.78943 0.559396,-1.95584 0.433279,-0.58219 0.78778,-1.15276 0.78778,-1.26795 0,-0.20394 -0.07294,-0.20941 -2.788265,-0.20941 h -2.788265 l -0.257819,-0.25782 -0.257819,-0.25782 v -4.89379 -4.89379 l 0.257819,-0.25782 0.257819,-0.25782 h 7.834834 7.834834 l 0.257819,0.25782 0.257819,0.25782 v 4.93391 4.93391 l -0.276759,0.2177 c -0.264094,0.20773 -0.403479,0.2177 -3.046084,0.2177 -3.302223,0 -3.175503,-0.0932 -1.981545,1.45711 0.887898,1.15289 1.000094,1.56297 0.544677,1.99081 -0.239149,0.22467 -0.297814,0.22839 -3.605481,0.22839 h -3.362376 z m 4.748273,-1.56879 c -0.04264,-0.0722 -0.187234,-0.27756 -0.321311,-0.45632 -0.181459,-0.24194 -0.243777,-0.46346 -0.243777,-0.86656 v -0.54153 h -0.577705 -0.577706 v 0.54153 c 0,0.4031 -0.06232,0.62462 -0.243776,0.86656 -0.461344,0.61511 -0.499773,0.58761 0.821482,0.58761 0.947589,0 1.202999,-0.0293 1.142793,-0.13129 z m 5.527081,-7.22133 v -3.67631 h -6.669874 -6.669874 v 3.67631 3.67632 h 6.669874 6.669874 z"
       id="path14" /><path
       style="fill:#9cb5e2;fill-opacity:1;stroke-width:0.396992"
       d="m 89.049628,125.19125 c -0.28025,-0.19629 -0.39098,-0.60728 -0.5508,-2.04438 -0.160692,-1.44491 -0.149385,-1.41662 -0.629416,-1.57504 l -0.414679,-0.13686 -1.269504,0.96099 c -0.856151,0.64808 -1.359802,0.96098 -1.546829,0.96098 -0.218767,0 -0.664873,-0.38578 -2.112723,-1.82704 -1.588793,-1.58155 -1.835399,-1.87075 -1.835399,-2.15234 0,-0.24858 0.226085,-0.6203 0.958563,-1.57606 l 0.958562,-1.25076 -0.169209,-0.43076 c -0.09306,-0.23692 -0.221122,-0.432 -0.284572,-0.43352 -0.06345,-0.002 -0.775802,-0.0917 -1.583004,-0.20042 -2.07298,-0.27919 -1.946075,-0.0689 -1.946075,-3.22448 v -2.4706 l 0.288853,-0.28728 c 0.264629,-0.26318 0.416581,-0.30292 1.811895,-0.47383 0.837673,-0.1026 1.524443,-0.19421 1.526157,-0.20357 0.0017,-0.009 0.08621,-0.1996 0.187769,-0.42276 l 0.184654,-0.40574 -0.654301,-0.85471 c -0.359865,-0.47008 -0.768062,-0.99384 -0.907104,-1.16389 -0.38929,-0.47613 -0.461832,-0.75468 -0.296902,-1.1401 0.07916,-0.18499 0.900217,-1.0808 1.824567,-1.99069 1.420221,-1.39799 1.729685,-1.65433 1.997177,-1.65433 0.331013,0 0.693006,0.22693 2.066937,1.29575 0.773683,0.60187 0.794858,0.61074 1.16537,0.48846 0.2082,-0.0687 0.41931,-0.22579 0.47093,-0.35041 0.05146,-0.12423 0.169243,-0.84025 0.261743,-1.59116 0.24345,-1.976327 0.003,-1.838347 3.20193,-1.838347 3.19879,0 2.95847,-0.13798 3.20193,1.838347 0.0925,0.75091 0.21028,1.46693 0.26174,1.59116 0.0517,0.12494 0.26299,0.28179 0.47272,0.351 0.3739,0.1234 0.39111,0.11598 1.24121,-0.53539 0.47413,-0.36329 1.026425,-0.79302 1.227345,-0.95497 0.23946,-0.19301 0.48815,-0.29444 0.7219,-0.29444 0.3192,0 0.53282,0.17347 2.037227,1.65433 0.92435,0.90989 1.74541,1.8057 1.82457,1.99069 0.16493,0.38542 0.0924,0.66397 -0.2969,1.1401 -0.13905,0.17005 -0.5453,0.6913 -0.90279,1.15832 l -0.65,0.84913 0.18139,0.42473 0.18139,0.42474 1.52511,0.19042 c 1.39407,0.17407 1.54994,0.21509 1.81397,0.47744 l 0.28885,0.287 v 2.4706 c 0,3.15556 0.1269,2.94529 -1.94608,3.22448 -0.8072,0.10872 -1.51955,0.19891 -1.583,0.20042 -0.0635,0.002 -0.1915,0.1966 -0.28457,0.43352 l -0.16921,0.43076 0.95856,1.25076 c 0.73248,0.95576 0.95856,1.32748 0.95856,1.57606 0,0.28159 -0.2466,0.57079 -1.83539,2.15234 -1.447847,1.44126 -1.893957,1.82704 -2.112717,1.82704 -0.18703,0 -0.69068,-0.3129 -1.546835,-0.96098 l -1.2695,-0.96099 -0.41468,0.13686 c -0.48003,0.15842 -0.46872,0.13013 -0.62941,1.57504 -0.15983,1.4371 -0.27056,1.84809 -0.5508,2.04438 -0.34157,0.23925 -5.06761,0.23925 -5.40918,0 z m 4.3159,-2.94018 c 0.097,-0.78155 0.2327,-1.51136 0.30168,-1.6218 0.14754,-0.23626 2.10895,-1.0799 2.51716,-1.08268 0.19029,-10e-4 0.60772,0.24922 1.29145,0.77507 0.555645,0.42734 1.078995,0.82398 1.162995,0.88143 0.11849,0.081 0.37979,-0.12261 1.16541,-0.90823 l 1.012667,-1.01267 -0.856377,-1.08749 c -0.9219,-1.17068 -1.05257,-1.44845 -0.87853,-1.86753 0.0617,-0.14868 0.2371,-0.57756 0.38967,-0.95307 0.537267,-1.32228 0.49047,-1.28874 2.051027,-1.46978 0.54883,-0.0637 1.12784,-0.1409 1.28671,-0.17163 l 0.28886,-0.0559 v -1.40766 c 0,-1.6359 0.20684,-1.42885 -1.6622,-1.66388 -1.36699,-0.1719 -1.490047,-0.24564 -1.802177,-1.07989 -0.11694,-0.31255 -0.307,-0.75327 -0.42235,-0.97938 -0.34012,-0.66669 -0.28538,-0.83551 0.68627,-2.11645 l 0.895997,-1.18121 -0.972697,-0.97677 c -0.53499,-0.53722 -1.01309,-0.97677 -1.06245,-0.97677 -0.0494,0 -0.58419,0.3829 -1.188515,0.85088 -1.01028,0.78235 -1.1301,0.84677 -1.48789,0.79992 -0.47225,-0.0618 -2.05389,-0.71608 -2.32558,-0.96197 -0.15175,-0.13732 -0.23799,-0.50717 -0.38264,-1.64098 l -0.18673,-1.46371 h -1.43307 -1.43307 l -0.18674,1.46371 c -0.14465,1.13381 -0.23089,1.50366 -0.38263,1.64098 -0.27248,0.2466 -1.853977,0.90022 -2.328128,0.96221 -0.362511,0.0474 -0.476823,-0.0152 -1.535786,-0.84162 l -1.144122,-0.89283 -1.014596,1.01842 -1.014596,1.01842 0.896043,1.18127 c 0.971691,1.28099 1.026432,1.44981 0.686312,2.1165 -0.115353,0.22611 -0.305411,0.66683 -0.422351,0.97938 -0.31878,0.85202 -0.423687,0.91071 -2.016287,1.12807 -0.767563,0.10475 -1.407387,0.19352 -1.421829,0.19725 -0.01444,0.004 -0.02626,0.64114 -0.02626,1.41645 v 1.40966 l 0.288853,0.0559 c 0.158869,0.0307 0.737887,0.10797 1.286708,0.17164 1.560563,0.18103 1.513764,0.14749 2.05103,1.46978 0.152575,0.3755 0.327929,0.80439 0.389675,0.95307 0.174039,0.41908 0.04337,0.69684 -0.878531,1.86753 l -0.856384,1.08748 1.012674,1.01267 c 0.78562,0.78563 1.046919,0.98926 1.165405,0.90823 0.084,-0.0574 0.607355,-0.45409 1.163006,-0.88143 0.683735,-0.52585 1.101157,-0.77637 1.29145,-0.77507 0.408213,0.003 2.369614,0.84642 2.517164,1.08268 0.069,0.11045 0.20473,0.84026 0.30168,1.6218 l 0.17627,1.42099 h 1.43504 1.43504 z m -3.23939,-4.02976 c -1.09673,-0.32005 -1.940677,-0.82272 -2.730973,-1.62662 -0.853831,-0.86853 -1.339333,-1.71968 -1.630659,-2.85875 -0.262937,-1.02808 -0.262937,-1.8928 0,-2.92088 1.229093,-4.80571 7.168002,-6.33375 10.524022,-2.70776 2.250065,2.43109 2.179645,6.10213 -0.16262,8.4772 -0.82146,0.83298 -1.77122,1.38533 -2.87291,1.67081 -0.84062,0.21783 -2.31899,0.20175 -3.12686,-0.034 z m 2.37481,-1.58893 c 1.43033,-0.27126 2.62575,-1.18435 3.26698,-2.49539 0.3267,-0.66798 0.34534,-0.76842 0.34534,-1.86149 0,-1.08263 -0.0212,-1.20023 -0.33703,-1.86692 -0.20479,-0.43236 -0.55507,-0.92928 -0.89281,-1.26658 -2.17914,-2.17632 -5.8264,-1.53034 -7.151239,1.26658 -0.315794,0.66669 -0.337024,0.78429 -0.337024,1.86692 0,1.1001 0.01705,1.1903 0.356202,1.88425 0.449782,0.92031 1.182851,1.65977 2.045751,2.06356 1.02797,0.48105 1.74903,0.59014 2.70383,0.40907 z"
       id="path18"
       inkscape:export-filename="img\path18.svg"
       inkscape:export-xdpi="96"
       inkscape:export-ydpi="96" /><path
       style="fill:#9cb5e2;fill-opacity:1;stroke-width:0.396992"
       d="m 72.766499,133.68534 c -0.362612,-0.14589 -0.444199,-0.62272 -0.444199,-2.59609 0,-1.06787 0.04697,-2.06511 0.104369,-2.21609 0.2243,-0.58995 0.04941,-0.57946 9.660734,-0.57946 h 8.826515 v -0.76947 c 0,-0.66851 0.0319,-0.79944 0.2431,-0.99786 0.33314,-0.31296 0.90784,-0.30596 1.20911,0.0147 0.19061,0.20289 0.22839,0.36756 0.22839,0.99548 v 0.75237 l 8.604632,0.0286 8.60464,0.0286 0.27102,0.25464 0.27101,0.25465 v 2.19225 c 0,2.18752 -3.9e-4,2.1928 -0.25781,2.45007 -0.34115,0.34114 -0.88148,0.34779 -1.1944,0.0147 -0.21379,-0.22757 -0.22838,-0.34504 -0.22838,-1.83816 v -1.59505 h -8.03536 -8.035352 v 0.79256 c 0,0.70143 -0.0297,0.8222 -0.25782,1.05038 -0.3411,0.34109 -0.82387,0.34109 -1.16496,0 -0.22818,-0.22818 -0.25782,-0.34895 -0.25782,-1.05038 v -0.79256 h -8.402992 -8.40299 v 1.47575 c 0,1.88151 -0.141346,2.21554 -0.927668,2.19227 -0.154144,-0.005 -0.34034,-0.0325 -0.413769,-0.062 z"
       id="path17" /><path
       style="fill:#aac030;fill-opacity:1;stroke-width:0.396992"
       d="m 101.06208,148.9768 c -0.32117,-0.25264 -0.58977,-0.72401 -0.58977,-1.035 0,-0.11792 0.3883,-1.12469 0.8629,-2.23726 l 0.8629,-2.02286 0.0562,-4.12086 0.0562,-4.12086 0.34335,-0.34323 0.34334,-0.34323 6.48409,-0.0272 c 6.3573,-0.0267 6.49088,-0.023 6.83177,0.18611 0.63154,0.38746 0.65017,0.52438 0.65017,4.77844 v 3.84121 l 0.84029,2.03387 c 0.46217,1.11863 0.84031,2.1827 0.84031,2.36459 0,0.18189 -0.0717,0.46936 -0.15934,0.63883 -0.33712,0.65192 0.0221,0.62679 -8.95954,0.62679 -8.14026,0 -8.18545,-0.001 -8.46282,-0.21935 z m 15.0321,-2.98516 -0.63483,-1.52391 -5.8842,0.0271 -5.8842,0.0271 -0.61139,1.47052 c -0.33627,0.80879 -0.61142,1.48234 -0.61146,1.49678 -5e-5,0.0144 3.20864,0.0262 7.13041,0.0262 h 7.1305 z m -0.91664,-6.3539 v -3.15113 h -5.6195 -5.61949 v 3.15113 3.15112 h 5.61949 5.6195 z"
       id="path16" /><path
       style="fill:#aac030;fill-opacity:1;stroke-width:0.396992"
       d="m 87.154211,148.97106 c -0.190295,-0.12185 -0.438446,-0.40277 -0.551446,-0.62427 -0.197733,-0.38759 -0.205455,-0.66164 -0.205455,-7.29104 0,-6.64479 0.0073,-6.90266 0.206809,-7.2937 0.113745,-0.22296 0.367475,-0.50468 0.563844,-0.62605 0.345664,-0.21363 0.479087,-0.22065 4.189225,-0.22065 3.80191,0 3.83497,0.002 4.18342,0.23669 0.19318,0.13018 0.44831,0.40196 0.56698,0.60396 0.21176,0.36047 0.21576,0.49568 0.21576,7.29975 0,6.80406 -0.004,6.93926 -0.21576,7.29974 -0.11867,0.202 -0.3738,0.47378 -0.56698,0.60396 -0.34863,0.23494 -0.37963,0.23668 -4.19581,0.23492 -3.729999,-0.002 -3.854909,-0.008 -4.190587,-0.22331 z m 7.436017,-7.91531 v -6.45981 h -3.20364 -3.203643 v 6.45981 6.45979 h 3.203643 3.20364 z m -3.52095,6.03936 c -1.35308,-0.29157 -1.63272,-2.0072 -0.44517,-2.73126 0.93614,-0.57077 2.18387,0.13248 2.19915,1.2395 0.0132,0.95377 -0.84874,1.68682 -1.75398,1.49176 z m 0.45079,-1.45054 c 0.0229,-0.0686 -0.0333,-0.12473 -0.12473,-0.12473 -0.0915,0 -0.16631,0.0748 -0.16631,0.1663 0,0.18549 0.22612,0.15319 0.29104,-0.0416 z"
       id="path15" /></g><g
     inkscape:groupmode="layer"
     id="layer8"
     inkscape:label="Layer 7"
     inkscape:export-filename="img\layer8.svg"
     inkscape:export-xdpi="96"
     inkscape:export-ydpi="96"
     transform="translate(-65.916627,-8.9214189)"><path
       style="fill:#9cb5e2;fill-opacity:1;stroke:#9cb5e2;stroke-width:0.581;stroke-dasharray:none;stroke-opacity:1"
       d="m 151.93162,149.69476 -0.38325,-0.40288 -6.3872,-0.026 -6.3872,-0.026 v -3.17861 -3.17861 l 1.79112,-0.0275 1.79112,-0.0276 v -1.0436 c 0,-0.89528 0.0291,-1.08054 0.20445,-1.30351 0.11244,-0.14295 0.29408,-0.28836 0.40363,-0.32313 0.18081,-0.0574 0.19918,-0.15629 0.19918,-1.0723 0,-0.91297 -0.0168,-1.00428 -0.17659,-0.95867 -0.4208,0.12015 -2.74067,0.29007 -3.08312,0.22583 -1.37136,-0.25727 -1.61046,-2.4197 -0.33449,-3.02518 0.41479,-0.19684 0.94699,-0.20025 2.48421,-0.0159 1.08914,0.13059 1.17285,0.12794 1.36226,-0.043 0.36748,-0.33169 0.84115,-0.50849 1.36226,-0.50849 0.52112,0 0.99479,0.1768 1.36226,0.50849 0.18942,0.17096 0.27313,0.17361 1.36226,0.043 1.53723,-0.18432 2.06943,-0.18091 2.48422,0.0159 0.63969,0.30355 0.96135,1.05518 0.80599,1.88335 -0.0859,0.45813 -0.69181,1.05765 -1.15704,1.14493 -0.33005,0.0619 -2.65609,-0.11173 -3.06657,-0.22893 -0.15976,-0.0456 -0.17659,0.0457 -0.17659,0.95867 0,0.91601 0.0184,1.01491 0.19919,1.0723 0.10955,0.0348 0.29118,0.18018 0.40363,0.32313 0.17546,0.22306 0.20445,0.40822 0.20445,1.30584 v 1.04593 h 2.17357 2.17357 l 0.38396,-0.40363 0.38397,-0.40364 h 0.93942 0.93942 l 0.38397,0.40364 0.38397,0.40363 h 2.17357 2.17356 v -2.37539 -2.37538 l -0.40363,-0.38397 -0.40363,-0.38396 v -0.93943 -0.93942 l 0.40363,-0.38397 0.40363,-0.38396 v -3.98683 -3.98683 l -5.92835,-0.0283 c -5.81953,-0.0278 -5.94043,-0.0324 -6.5858,-0.2521 -1.85764,-0.63227 -3.38255,-2.12724 -4.12133,-4.04042 -0.26083,-0.67545 -0.26294,-0.70383 -0.29621,-3.99507 l -0.0335,-3.31479 -0.39732,-0.37796 -0.39732,-0.37797 v -0.93942 -0.93942 l 0.40363,-0.38397 0.40364,-0.38396 -0.002,-2.40062 c -8.4e-4,-1.33195 -0.044,-2.46799 -0.097,-2.55197 -0.0764,-0.12123 -0.43275,-0.16141 -1.78958,-0.20182 l -1.69412,-0.0505 v -3.1786 -3.17861 h 2.47225 c 2.31693,0 2.51438,0.0146 3.14296,0.2318 1.86858,0.6458 3.36904,2.11864 4.10806,4.03242 0.26083,0.67545 0.26293,0.70383 0.2962,3.99507 l 0.0335,3.31479 0.39733,0.37796 0.39732,0.37796 v 0.93943 0.93942 l -0.40363,0.38396 -0.40364,0.38397 v 2.41863 c 0,2.06421 0.0232,2.44186 0.15857,2.5772 0.13996,0.13996 0.75572,0.15857 5.24723,0.15857 h 5.08866 v -3.18265 -3.18265 l -0.40364,-0.38397 -0.40363,-0.38396 v -0.93942 -0.93942 l 0.40271,-0.3831 0.40272,-0.38309 0.0262,-5.17646 0.0261,-5.17646 h 3.17861 3.1786 l 0.0262,5.17646 0.0261,5.17646 0.40272,0.38309 0.40271,0.3831 v 0.93942 0.93942 l -0.40363,0.38396 -0.40363,0.38397 v 10.40163 10.40163 l 0.40363,0.38396 0.40363,0.38397 v 0.93942 0.93942 l -0.40363,0.38397 -0.40363,0.38397 v 2.37538 2.37539 h 1.97177 1.97175 l 0.38397,-0.40363 0.38396,-0.40364 h 0.93942 0.93943 l 0.38396,0.40364 0.38397,0.40363 h 1.16449 1.16448 v -1.60808 -1.60807 l -0.3784,-0.2151 c -0.79276,-0.45064 -0.78204,-0.40087 -0.78204,-3.63233 0,-3.23145 -0.0107,-3.18168 0.78204,-3.63232 l 0.3784,-0.2151 -1.4e-4,-1.58285 0.0134,-1.65927 c 0.96391,0.39255 3.23655,0.006 4.83061,0.0764 l -1.4e-4,1.58726 -1.4e-4,1.58725 0.38822,0.19805 c 0.45004,0.2296 0.71387,0.5874 0.79309,1.07555 l 0.056,0.34503 h 1.06183 1.06184 l 0.37263,0.40364 0.37263,0.40363 h 0.93048 c 0.8381,0 0.92547,-0.0175 0.88005,-0.17659 -0.12015,-0.42081 -0.29007,-2.74067 -0.22582,-3.08312 0.25727,-1.37137 2.41969,-1.61046 3.02518,-0.3345 0.19683,0.4148 0.20024,0.947 0.0159,2.48422 -0.1306,1.08914 -0.12795,1.17284 0.043,1.36226 0.33168,0.36748 0.50849,0.84115 0.50849,1.36226 0,0.52111 -0.17681,0.99478 -0.50849,1.36226 -0.17097,0.18942 -0.17361,0.27312 -0.043,1.36226 0.18431,1.53722 0.1809,2.06942 -0.0159,2.48421 -0.30381,0.64024 -1.05517,0.96136 -1.88508,0.80567 -0.47233,-0.0886 -1.05168,-0.66881 -1.14048,-1.14215 -0.064,-0.34096 0.1064,-2.66156 0.2262,-3.08113 0.0456,-0.15977 -0.0457,-0.17659 -0.95866,-0.17659 -0.91603,0 -1.01491,0.0184 -1.07231,0.1992 -0.0348,0.10955 -0.19242,0.29119 -0.35032,0.40363 -0.24246,0.17264 -0.44453,0.20443 -1.29939,0.20443 h -1.01227 l -0.22017,0.39174 c -0.12109,0.21546 -0.39645,0.49082 -0.61191,0.61191 l -0.39173,0.22017 v 1.60706 1.60705 l 4.61655,0.0262 4.61655,0.0262 v 3.17861 3.17861 l -8.2034,0.0258 -8.2034,0.0258 -0.3834,0.40303 -0.3834,0.40304 h -0.93943 -0.93942 l -0.38396,-0.40363 -0.38397,-0.40363 h -7.37438 -7.37439 l -0.38396,0.40363 -0.38397,0.40363 h -0.93942 -0.93942 z m 1.97137,-0.56295 c 0.13683,-0.13683 0.15857,-0.55784 0.15857,-3.0705 0,-3.3242 0.0238,-3.22906 -0.80727,-3.22906 -0.83105,0 -0.80726,-0.0951 -0.80726,3.22906 0,3.3242 -0.0238,3.22906 0.80726,3.22906 0.31103,0 0.54807,-0.0579 0.6487,-0.15856 z m 18.16347,0 c 0.13683,-0.13683 0.15857,-0.55784 0.15857,-3.0705 0,-3.3242 0.0238,-3.22906 -0.80726,-3.22906 -0.83105,0 -0.80727,-0.0951 -0.80727,3.22906 0,3.3242 -0.0238,3.22906 0.80727,3.22906 0.31102,0 0.54807,-0.0579 0.64869,-0.15856 z m -20.4267,-3.0705 v -2.42179 h -6.05449 -6.05449 v 2.42179 2.4218 h 6.05449 6.05449 z m 18.16348,0 v -2.42179 h -7.46721 -7.46721 v 2.42179 2.4218 h 7.46721 7.46721 z m 18.97074,0 v -2.42179 h -7.87084 -7.87084 v 2.42179 2.4218 h 7.87084 7.87084 z m -42.38145,-4.07957 c 0,-1.17268 0.007,-1.16766 -1.61453,-1.16766 -1.62147,0 -1.61453,-0.005 -1.61453,1.16766 v 0.85051 h 1.61453 1.61453 z m 18.56711,-1.57129 v -2.42179 h -2.42179 -2.4218 v 2.42179 2.4218 h 2.4218 2.42179 z m 14.53079,0.80727 v -1.61453 h -1.61454 -1.61453 v 1.61453 1.61453 h 1.61453 1.61454 z m 8.56248,-0.23525 c 0.25798,-0.20699 0.28835,-0.52362 0.1565,-1.63156 -0.0727,-0.61049 -0.13428,-1.16674 -0.13695,-1.23612 -0.003,-0.0834 -0.1756,-0.12613 -0.50938,-0.12613 -0.33378,0 -0.50618,0.0427 -0.50938,0.12613 -0.003,0.0694 -0.0654,0.62563 -0.13935,1.23612 -0.14947,1.23346 -0.0934,1.51449 0.34601,1.73551 0.25782,0.12967 0.54896,0.0915 0.79255,-0.10395 z m -42.46764,-1.60633 v -0.63067 h -0.80727 -0.80726 v 0.63067 0.63068 h 0.80726 0.80727 z m 34.83596,-0.86052 c 0.22663,-0.22684 0.22964,-0.2628 0.22964,-2.74694 0,-2.48488 -0.003,-2.52005 -0.22985,-2.74695 -0.22583,-0.22583 -0.27027,-0.22985 -2.54513,-0.22985 -2.27424,0 -2.31935,0.004 -2.54513,0.22966 -0.22462,0.22444 -0.23044,0.284 -0.25632,2.62361 -0.0198,1.79341 0.006,2.45675 0.1029,2.64424 0.24511,0.47418 0.4629,0.51144 2.8221,0.48274 2.12934,-0.0259 2.19874,-0.0333 2.42179,-0.25651 z m -34.93687,-0.82401 c 0.5082,-0.35518 0.57987,-1.24763 0.13929,-1.73446 -0.25948,-0.28672 -0.79923,-0.40078 -1.22357,-0.25855 -1.01521,0.34027 -1.02628,1.80903 -0.0163,2.1558 0.39879,0.13691 0.74499,0.0857 1.10054,-0.16279 z m -3.78406,-0.30642 c 0.4995,-0.0563 0.94223,-0.10245 0.98386,-0.10261 0.13667,-3.8e-4 0.0865,-1.00895 -0.0504,-1.0142 -0.0694,-0.003 -0.62563,-0.0654 -1.23613,-0.13936 -1.24965,-0.15143 -1.52215,-0.0933 -1.74525,0.37216 -0.24816,0.51776 0.27496,1.12827 0.88149,1.02873 0.14207,-0.0233 0.66699,-0.0884 1.16649,-0.14472 z m 8.06425,-0.10783 c 0.22552,-0.21649 0.2541,-0.71845 0.0546,-0.95883 -0.24154,-0.29104 -0.52192,-0.32263 -1.66072,-0.1871 -0.6105,0.0727 -1.16675,0.13428 -1.23613,0.13695 -0.0832,0.003 -0.12613,0.17415 -0.12613,0.50212 v 0.49728 l 0.52976,0.0636 c 0.29138,0.035 0.82493,0.10008 1.18568,0.14463 0.75912,0.0938 0.98575,0.0578 1.25294,-0.19867 z m 33.60363,0.14909 c 0.12771,-0.12771 0.15857,-0.41106 0.15857,-1.45596 0,-1.62147 0.005,-1.61453 -1.16765,-1.61453 h -0.85051 v 1.61453 1.61453 h 0.85051 c 0.63865,0 0.89001,-0.0395 1.00908,-0.15857 z m -17.75984,-0.40363 c 0.10063,-0.10062 0.15857,-0.33767 0.15857,-0.64869 0,-0.83105 0.0951,-0.80727 -3.22906,-0.80727 -3.3242,0 -3.22907,-0.0238 -3.22907,0.80727 0,0.83105 -0.0951,0.80726 3.22907,0.80726 2.51266,0 2.93366,-0.0217 3.07049,-0.15857 z m 22.6611,-0.13848 c 0.50819,-0.35518 0.57986,-1.24762 0.13929,-1.73445 -0.25948,-0.28673 -0.79924,-0.40078 -1.22357,-0.25856 -1.01521,0.34027 -1.02628,1.80903 -0.0163,2.1558 0.39879,0.13692 0.74498,0.0857 1.10053,-0.16279 z m -2.67407,-0.91385 v -0.80726 h -0.63067 -0.63068 v 0.80726 0.80727 h 0.63068 0.63067 z m -20.63573,-11.70535 v -10.49445 h -2.42179 -2.4218 v 10.49445 10.49445 h 2.4218 2.42179 z m 23.11282,9.56105 c 0.003,-0.0694 0.0654,-0.62563 0.13935,-1.23612 0.15144,-1.24966 0.0933,-1.52216 -0.37215,-1.74526 -0.22841,-0.10947 -0.32474,-0.10947 -0.55316,0 -0.46548,0.2231 -0.52358,0.4956 -0.37215,1.74526 0.074,0.61049 0.13669,1.16675 0.13935,1.23612 0.003,0.0834 0.1756,0.12614 0.50938,0.12614 0.33378,0 0.50618,-0.0427 0.50938,-0.12614 z m -8.58201,-3.32997 2e-5,-1.43794 h -1.61451 -1.61451 l -4e-5,1.43794 -5e-5,1.43794 h 1.61453 1.61454 z m -20.1817,-7.03835 v -2.42179 h -5.30777 -5.30777 l -0.34309,-0.34309 -0.34309,-0.34309 v -2.68416 -2.68416 h -2.43247 -2.43247 l 0.0452,3.10293 c 0.0413,2.83114 0.0642,3.16038 0.2619,3.75883 0.70616,2.13784 2.4802,3.65119 4.60826,3.9311 0.333,0.0438 3.00076,0.0854 5.92836,0.0924 l 5.3229,0.0128 z m -10.65302,-9.44212 c 0.21371,-0.21371 0.21371,-1.08368 0,-1.29739 -0.13683,-0.13683 -0.55783,-0.15857 -3.07049,-0.15857 -3.3242,0 -3.22906,-0.0238 -3.22906,0.80726 0,0.83105 -0.0951,0.80727 3.22906,0.80727 2.51266,0 2.93366,-0.0217 3.07049,-0.15857 z m 16.95258,-1.2109 c 0.10062,-0.10062 0.15857,-0.33767 0.15857,-0.64869 0,-0.83105 0.0951,-0.80727 -3.22906,-0.80727 -3.32421,0 -3.22907,-0.0238 -3.22907,0.80727 0,0.83105 -0.0951,0.80726 3.22907,0.80726 2.51265,0 2.93366,-0.0217 3.07049,-0.15857 z m -17.62516,-4.15525 c -0.0411,-2.8153 -0.0651,-3.16373 -0.25928,-3.75884 -0.59324,-1.81789 -1.94877,-3.17093 -3.75316,-3.74626 -0.52979,-0.16892 -1.0197,-0.21963 -2.54793,-0.26374 l -1.89203,-0.0546 v 2.43594 2.43594 h 1.47326 1.47326 l 0.34308,0.34309 0.34309,0.34309 v 2.68416 2.68416 h 2.43247 2.43248 z m 16.97646,-2.95157 v -4.84359 h -2.42179 -2.4218 v 4.84359 4.8436 h 2.4218 2.42179 z"
       id="path19"
       sodipodi:nodetypes="ccccccccsssssssssssssssssssscccccccccccccccccccccscsscccccccccccccscsscccccccssscccccccccccccccccccccccccccccccccccccccccccsssccccccsscccccssssssssssssssssscssccccccccccccccccccccccsssssssssssscccccccccccccccccccccccccccssscccsccccccccccccccccccsscsccsscccccccccssssssssssssssscccsssccssscscscssssscccssssssssssssssccccccccccccccccccccssscsccccccccccccccccccccccsccccsssscssssssccssccccccccccccccccccccc" /><path
       style="fill:#aac030;fill-opacity:1;stroke-width:0.381385"
       d="m 175.45339,128.7555 -0.58008,-0.23624 c -1.91075,-0.77816 -3.59966,-2.61375 -4.33203,-4.70826 -0.26196,-0.74918 -0.28234,-0.91981 -0.28332,-2.37134 -0.001,-1.49885 0.0121,-1.60095 0.31526,-2.44816 0.4544,-1.26999 0.87482,-1.92158 1.90366,-2.95043 1.02884,-1.02884 1.68043,-1.44925 2.95043,-1.90366 0.84646,-0.30286 0.95065,-0.31632 2.44816,-0.31632 1.49751,0 1.6017,0.0135 2.44816,0.31632 1.27,0.45441 1.92159,0.87482 2.95043,1.90366 1.02884,1.02885 1.44926,1.68044 1.90366,2.95043 0.30313,0.84721 0.31628,0.94931 0.31526,2.44816 -9.9e-4,1.45153 -0.0214,1.62216 -0.28332,2.37134 -0.73237,2.09451 -2.42128,3.9301 -4.33203,4.70826 l -0.58008,0.23624 z m 4.03708,0.30278 h -1.61451 -1.61451 z m 0.0504,-1.01653 c 1.77543,-0.42039 3.54096,-1.82551 4.36494,-3.47388 0.55961,-1.1195 0.75867,-1.94028 0.75867,-3.12816 0,-1.84685 -0.65571,-3.44996 -1.94379,-4.75228 -2.24881,-2.27368 -5.58717,-2.70863 -8.35051,-1.088 -0.74544,0.43718 -1.8974,1.58914 -2.33458,2.33457 -1.28104,2.18431 -1.28104,4.82711 0,7.01142 0.43718,0.74543 1.58914,1.8974 2.33458,2.33457 1.58936,0.93213 3.35355,1.19203 5.17069,0.76176 z m -3.17861,-0.70594 c -2.12277,-0.55503 -3.84903,-2.29714 -4.38863,-4.4289 -0.1951,-0.77077 -0.1951,-2.16363 0,-2.93439 0.54523,-2.15404 2.28102,-3.88983 4.43506,-4.43507 0.77076,-0.19509 2.16362,-0.19509 2.93439,0 2.15403,0.54524 3.88982,2.28103 4.43506,4.43507 0.1951,0.77076 0.1951,2.16362 0,2.93439 -0.54245,2.143 -2.29205,3.89261 -4.43506,4.43506 -0.74849,0.18946 -2.24448,0.18636 -2.98082,-0.006 z m 1.1308,-1.48136 0.0296,-0.73159 h 0.35318 0.35317 l 0.0297,0.73159 c 0.0342,0.844 0.0592,0.85774 1.0368,0.57059 0.91198,-0.26787 1.67561,-0.73673 2.31751,-1.42292 0.65039,-0.69527 0.99061,-1.28008 1.24657,-2.14278 0.28971,-0.97643 0.27535,-1.00259 -0.56897,-1.0368 l -0.73158,-0.0296 v -0.35318 -0.35318 l 0.73158,-0.0296 c 0.84432,-0.0342 0.85868,-0.0604 0.56897,-1.0368 -0.51306,-1.72922 -1.84358,-3.06035 -3.56408,-3.56571 -0.97761,-0.28715 -1.00259,-0.27341 -1.0368,0.5706 l -0.0297,0.73158 h -0.35317 -0.35318 l -0.0296,-0.73158 c -0.0342,-0.84432 -0.0604,-0.85868 -1.0368,-0.56897 -0.91006,0.27001 -1.52174,0.6388 -2.22351,1.34057 -0.70177,0.70177 -1.07056,1.31345 -1.34057,2.22351 -0.28971,0.97642 -0.27535,1.00258 0.56897,1.0368 l 0.73158,0.0296 v 0.35318 0.35318 l -0.73158,0.0296 c -0.68507,0.0278 -0.73159,0.0442 -0.73159,0.25918 0,0.34129 0.29058,1.25727 0.58042,1.82962 0.31595,0.62391 1.43505,1.75841 2.0432,2.07133 0.57442,0.29556 1.48178,0.59087 1.83715,0.59793 0.26957,0.005 0.27346,-0.004 0.30273,-0.72615 z m 1.52083,-2.61963 c -0.62422,-0.63096 -0.63085,-0.63446 -1.13555,-0.59968 -0.46848,0.0323 -0.53547,0.007 -0.86812,-0.32547 -0.32981,-0.32981 -0.35816,-0.40383 -0.3334,-0.87037 0.0267,-0.50289 0.0183,-0.51869 -0.60592,-1.14857 -0.5277,-0.53243 -0.62745,-0.68721 -0.59967,-0.93051 0.0271,-0.23725 0.0879,-0.29808 0.32516,-0.32517 0.2433,-0.0278 0.39808,0.072 0.93051,0.59968 0.62988,0.62427 0.64568,0.63261 1.14857,0.60592 0.46603,-0.0247 0.54074,0.004 0.86822,0.33125 0.32748,0.32748 0.35599,0.40219 0.33125,0.86822 -0.0267,0.50289 -0.0183,0.51869 0.60593,1.14857 0.5277,0.53243 0.62744,0.68721 0.59967,0.93051 -0.0276,0.24149 -0.0856,0.29689 -0.33604,0.32107 -0.25501,0.0246 -0.40169,-0.0708 -0.93061,-0.60545 z m -0.89294,-1.55004 c 0.0872,-0.0872 0.15857,-0.1975 0.15857,-0.24507 0,-0.1121 -0.29154,-0.40363 -0.40364,-0.40363 -0.1121,0 -0.40363,0.29153 -0.40363,0.40363 0,0.1121 0.29153,0.40363 0.40363,0.40363 0.0476,0 0.15785,-0.0714 0.24507,-0.15856 z"
       id="path20"
       sodipodi:nodetypes="cssssssscssscsccccccssssssssscssssssscccccccsssscccsssccccsssscccccsssccsscsssssscsssssssssss" /></g><g
     inkscape:groupmode="layer"
     id="layer9"
     inkscape:label="Layer 8"
     inkscape:export-filename="img\layer9.svg"
     inkscape:export-xdpi="96"
     inkscape:export-ydpi="96"
     transform="translate(-65.916627,-8.9214189)"><path
       style="fill:#9cb5e2;fill-opacity:1"
       d="m 15.081002,211.5034 c -2.35987,-0.87479 -3.223401,-3.73661 -1.738051,-5.76006 0.3991,-0.54368 1.186283,-1.11483 1.789602,-1.29847 l 0.415039,-0.12632 v -2.05881 c 0,-2.02578 0.0036,-2.06222 0.22602,-2.27114 l 0.226021,-0.21234 h 7.635308 7.635307 v -6.10352 -6.10351 H 24.19017 17.110092 v 1.51367 c 0,1.14579 0.02967,1.51369 0.12207,1.51375 0.06714,4e-5 0.385742,0.12684 0.708008,0.28177 0.733991,0.35288 1.422394,1.05692 1.777392,1.81776 0.242456,0.51964 0.273278,0.69644 0.272405,1.5625 -8.8e-4,0.87308 -0.03032,1.03656 -0.277838,1.54272 -0.35295,0.72177 -1.067932,1.43714 -1.791415,1.7924 -0.513509,0.25215 -0.662367,0.27816 -1.591872,0.27816 -0.936938,0 -1.075828,-0.0248 -1.610082,-0.28707 -0.744744,-0.36565 -1.3993,-1.02021 -1.764955,-1.76495 -0.262309,-0.53426 -0.287073,-0.67315 -0.287073,-1.61009 0,-0.93713 0.0243,-1.07336 0.282345,-1.58271 0.373623,-0.7375 1.04763,-1.40437 1.768437,-1.7497 0.322265,-0.15439 0.640869,-0.28075 0.708008,-0.28079 0.09384,-6e-5 0.12207,-0.48174 0.12207,-2.08266 0,-2.05064 0.0035,-2.08585 0.22602,-2.29493 l 0.226021,-0.21233 h 7.635308 7.635307 v -1.31836 -1.31836 h -0.368896 c -0.529897,0 -0.751983,-0.2042 -1.039005,-0.95533 l -0.253562,-0.66356 -0.911468,-0.35951 -0.911467,-0.35951 -0.69153,0.29055 c -0.579028,0.24328 -0.736468,0.27376 -0.967762,0.18737 -0.371774,-0.13888 -2.068357,-1.81872 -2.242168,-2.22004 -0.129393,-0.29877 -0.119064,-0.36702 0.153859,-1.01659 l 0.292564,-0.69633 -0.359508,-0.91146 -0.359509,-0.91147 -0.663565,-0.25356 c -0.364962,-0.13946 -0.729212,-0.34729 -0.809446,-0.46184 -0.211608,-0.30211 -0.211608,-3.15252 0,-3.45463 0.08023,-0.11455 0.444484,-0.32238 0.809446,-0.46183 l 0.663565,-0.25357 0.359509,-0.91146 0.359508,-0.91147 -0.29055,-0.69153 c -0.243282,-0.57903 -0.273763,-0.73647 -0.187365,-0.96776 0.138874,-0.37178 1.818713,-2.06836 2.220039,-2.24217 0.298767,-0.1294 0.367012,-0.11907 1.01659,0.15386 l 0.696323,0.29256 0.911467,-0.35951 0.911468,-0.35951 0.253562,-0.66356 c 0.13946,-0.36496 0.347286,-0.72921 0.461836,-0.80945 0.302112,-0.21161 3.152518,-0.21161 3.45463,0 0.11455,0.0802 0.322376,0.44449 0.461836,0.80945 l 0.253563,0.66356 0.911467,0.35951 0.911468,0.35951 0.696322,-0.29256 c 0.649578,-0.27293 0.717823,-0.28326 1.01659,-0.15386 0.401326,0.17381 2.081166,1.87039 2.220039,2.24217 0.0864,0.23129 0.05592,0.38873 -0.187365,0.96776 l -0.29055,0.69153 0.359509,0.91147 0.359508,0.91146 0.663566,0.25357 c 0.364961,0.13945 0.729211,0.34728 0.809446,0.46183 0.114224,0.16308 0.14588,0.53791 0.14588,1.72732 0,1.18941 -0.03166,1.56423 -0.14588,1.72731 -0.08024,0.11455 -0.444485,0.32238 -0.809446,0.46184 l -0.663566,0.25356 -0.359508,0.91147 -0.359509,0.91146 0.292564,0.69633 c 0.272924,0.64957 0.283252,0.71782 0.153859,1.01659 -0.173811,0.40132 -1.870394,2.08116 -2.242168,2.22004 -0.231293,0.0864 -0.388734,0.0559 -0.967762,-0.18737 l -0.691529,-0.29055 -0.911468,0.35951 -0.911467,0.35951 -0.253563,0.66356 c -0.280176,0.73322 -0.510392,0.95533 -0.990177,0.95533 h -0.320068 v 1.31836 1.31836 h 7.600165 7.600165 l 0.212335,0.22602 c 0.204215,0.21738 0.212335,0.30514 0.212335,2.29492 0,1.58998 0.02826,2.06892 0.122071,2.06898 0.06714,4e-5 0.385742,0.12494 0.708007,0.27755 0.719054,0.3405 1.389132,1.0039 1.766397,1.74877 0.260369,0.51408 0.284385,0.64809 0.284385,1.58688 0,0.93694 -0.02476,1.07583 -0.287072,1.61009 -0.365656,0.74474 -1.020211,1.3993 -1.764956,1.76495 -0.534254,0.26231 -0.673144,0.28707 -1.610082,0.28707 -0.929504,0 -1.078363,-0.026 -1.591872,-0.27816 -0.723483,-0.35526 -1.438465,-1.07063 -1.791414,-1.7924 -0.247519,-0.50616 -0.276959,-0.66964 -0.277839,-1.54272 -8.73e-4,-0.86606 0.02995,-1.04286 0.272405,-1.5625 0.354998,-0.76084 1.043401,-1.46488 1.777392,-1.81776 0.322266,-0.15493 0.640869,-0.28173 0.708008,-0.28177 0.0924,-6e-5 0.12207,-0.36796 0.12207,-1.51375 v -1.51367 h -7.03125 -7.03125 v 6.10351 6.10352 h 7.600165 7.600165 l 0.212335,0.22602 c 0.204072,0.21722 0.212335,0.30571 0.212335,2.2736 v 2.04758 l 0.438016,0.12933 c 0.998969,0.29496 1.99981,1.32954 2.351351,2.43061 0.244818,0.7668 0.159671,1.94671 -0.193944,2.68753 -0.342501,0.71755 -1.057616,1.4357 -1.785125,1.79273 -0.513017,0.25176 -0.662402,0.27783 -1.591548,0.27783 -0.938798,0 -1.072807,-0.024 -1.58688,-0.28438 -0.727339,-0.36838 -1.375881,-1.01461 -1.76475,-1.75844 -0.291448,-0.55749 -0.310479,-0.65675 -0.310479,-1.61929 0,-0.94103 0.02362,-1.07205 0.28717,-1.59256 0.157943,-0.31195 0.490278,-0.77338 0.738522,-1.02539 0.433216,-0.43981 1.383456,-0.99533 1.702536,-0.99533 0.13184,0 0.152631,-0.20619 0.152631,-1.51367 v -1.51367 h -7.080078 -7.080078 v 1.48989 1.4899 l 0.406834,0.12697 c 1.029776,0.32139 1.961179,1.24919 2.344228,2.33516 0.283724,0.80437 0.219872,2.00674 -0.147313,2.77397 -0.340522,0.71152 -1.083433,1.4605 -1.79514,1.8098 -0.511113,0.25086 -0.661391,0.27704 -1.589859,0.27704 -0.921855,0 -1.080774,-0.0272 -1.573897,-0.26948 -0.705854,-0.3468 -1.478496,-1.12242 -1.811749,-1.81873 -0.366514,-0.76581 -0.430156,-1.9689 -0.146666,-2.7726 0.38305,-1.08597 1.314452,-2.01377 2.344228,-2.33516 l 0.406834,-0.12697 v -1.4899 -1.48989 H 24.19017 17.110092 v 1.51367 c 0,1.30748 0.02079,1.51367 0.152632,1.51367 0.286138,0 1.200605,0.51269 1.601397,0.8978 0.8488,0.81561 1.215503,1.73031 1.159789,2.89298 -0.06561,1.36915 -0.826044,2.52806 -2.079688,3.16944 -0.779817,0.39898 -2.052318,0.47767 -2.86322,0.17708 z m 2.152843,-1.6295 c 0.759025,-0.38359 1.176705,-1.05606 1.176705,-1.89452 0,-1.99039 -2.45567,-2.84786 -3.72964,-1.30231 -1.389903,1.68619 0.603299,4.18211 2.552935,3.19683 z m 15.722656,0 c 0.760809,-0.38449 1.183966,-1.0616 1.183966,-1.89452 0,-1.18415 -0.905172,-2.0896 -2.088969,-2.0896 -1.699186,0 -2.687756,1.86021 -1.733606,3.26216 0.594643,0.87372 1.725853,1.18324 2.638609,0.72196 z m 15.785082,-0.0344 c 1.12452,-0.57368 1.477899,-1.97977 0.763854,-3.03934 -1.153281,-1.71135 -3.812113,-0.88914 -3.813299,1.17921 -9.17e-4,1.59776 1.622573,2.58807 3.049445,1.86013 z M 16.859749,196.25201 c 0.901157,-0.22691 1.550801,-1.08239 1.550801,-2.04216 0,-1.19916 -0.875948,-2.07031 -2.081708,-2.07031 -1.065966,0 -1.860871,0.66631 -2.096398,1.75724 -0.238504,1.10473 0.818719,2.38222 2.02874,2.45142 0.09707,0.006 0.366419,-0.0377 0.598565,-0.0962 z m 31.478809,-0.008 c 0.654091,-0.1647 1.319149,-0.84835 1.480802,-1.52219 0.324656,-1.35332 -0.648516,-2.58184 -2.045206,-2.58184 -1.20576,0 -2.081708,0.87115 -2.081708,2.07031 0,0.92996 0.594431,1.74675 1.469253,2.01887 0.48245,0.15006 0.63238,0.15196 1.176859,0.0148 z m -15.492734,-14.725 c 0.05532,-0.15868 0.195851,-0.47728 0.312303,-0.70801 0.196484,-0.3893 0.266103,-0.4377 0.966822,-0.67223 0.415301,-0.13899 1.020191,-0.39168 1.344201,-0.56152 0.32401,-0.16984 0.659876,-0.3088 0.746369,-0.3088 0.08649,0 0.41852,0.11724 0.737838,0.26055 l 0.580579,0.26054 0.497845,-0.49784 0.497845,-0.49785 -0.260548,-0.58057 c -0.143302,-0.31932 -0.260549,-0.65379 -0.260549,-0.74327 0,-0.0895 0.142201,-0.43555 0.316001,-0.76904 0.173801,-0.33349 0.426487,-0.93594 0.561524,-1.33877 0.2266,-0.67598 0.277854,-0.74874 0.665029,-0.94416 0.230729,-0.11645 0.549332,-0.25698 0.708008,-0.3123 0.283052,-0.0987 0.288501,-0.11367 0.288501,-0.79432 0,-0.68065 -0.0054,-0.69566 -0.288501,-0.79433 -0.158676,-0.0553 -0.477279,-0.19585 -0.708008,-0.3123 -0.387175,-0.19541 -0.438429,-0.26818 -0.665029,-0.94416 -0.135037,-0.40283 -0.387723,-1.00528 -0.561524,-1.33877 -0.1738,-0.33349 -0.316001,-0.67956 -0.316001,-0.76904 0,-0.0895 0.117247,-0.42394 0.260549,-0.74326 l 0.260548,-0.58058 -0.497845,-0.49785 -0.497845,-0.49784 -0.580579,0.26055 c -0.319318,0.1433 -0.651346,0.26054 -0.737838,0.26054 -0.08649,0 -0.422359,-0.13896 -0.746369,-0.3088 -0.32401,-0.16984 -0.9289,-0.42252 -1.344201,-0.56152 -0.700719,-0.23452 -0.770338,-0.28293 -0.966822,-0.67223 -0.116452,-0.23073 -0.256988,-0.54933 -0.312303,-0.70801 -0.09867,-0.28305 -0.113675,-0.2885 -0.794326,-0.2885 -0.68065,0 -0.695653,0.005 -0.794326,0.2885 -0.05531,0.15868 -0.195851,0.47728 -0.312303,0.70801 -0.195412,0.38718 -0.268179,0.43843 -0.944152,0.66503 -0.402832,0.13504 -1.00528,0.38772 -1.338773,0.56152 -0.333493,0.1738 -0.679561,0.316 -0.769039,0.316 -0.08948,0 -0.423947,-0.11724 -0.743266,-0.26054 l -0.580579,-0.26055 -0.497845,0.49784 -0.497845,0.49785 0.260549,0.58058 c 0.143301,0.31932 0.260548,0.65379 0.260548,0.74326 0,0.0895 -0.142201,0.43555 -0.316001,0.76904 -0.173801,0.33349 -0.426486,0.93594 -0.561524,1.33877 -0.226599,0.67598 -0.277854,0.74875 -0.665029,0.94416 -0.230728,0.11645 -0.549332,0.25699 -0.708008,0.3123 -0.283052,0.0987 -0.288501,0.11368 -0.288501,0.79433 0,0.68065 0.0054,0.69565 0.288501,0.79432 0.158676,0.0553 0.47728,0.19585 0.708008,0.3123 0.387175,0.19542 0.43843,0.26818 0.665029,0.94416 0.135038,0.40283 0.387723,1.00528 0.561524,1.33877 0.1738,0.33349 0.316001,0.67956 0.316001,0.76904 0,0.0895 -0.117247,0.42395 -0.260548,0.74327 l -0.260549,0.58057 0.497845,0.49785 0.497845,0.49784 0.580579,-0.26054 c 0.319319,-0.14331 0.653788,-0.26055 0.743266,-0.26055 0.08948,0 0.435546,0.1422 0.769039,0.316 0.333493,0.1738 0.935941,0.42648 1.338773,0.56152 0.675973,0.2266 0.74874,0.27786 0.944152,0.66503 0.116452,0.23073 0.256989,0.54933 0.312303,0.70801 0.09867,0.28305 0.113676,0.2885 0.794326,0.2885 0.680651,0 0.695653,-0.005 0.794326,-0.2885 z m -2.053219,-3.18013 c -1.182623,-0.33178 -2.167357,-0.98761 -2.856525,-1.90246 -2.120204,-2.81451 -0.921352,-6.79174 2.421238,-8.03254 0.825783,-0.30654 2.567655,-0.30456 3.399343,0.004 1.476248,0.54745 2.648343,1.72234 3.194935,3.20258 0.307838,0.83365 0.306624,2.57121 -0.0024,3.41008 -0.544984,1.47949 -1.732981,2.66256 -3.196615,3.18334 -0.766668,0.27279 -2.231005,0.33965 -2.959994,0.13514 z m 2.772565,-1.80362 c 0.622564,-0.30047 1.406132,-1.08238 1.713817,-1.71017 0.207777,-0.42395 0.239308,-0.62339 0.239308,-1.51367 0,-1.2287 -0.187948,-1.71129 -0.97173,-2.49507 -0.783783,-0.78378 -1.266367,-0.97173 -2.495067,-0.97173 -0.890287,0 -1.089726,0.0315 -1.513672,0.23931 -0.626515,0.30705 -1.409655,1.09102 -1.707978,1.70978 -0.309999,0.64297 -0.3837,1.84902 -0.158938,2.60085 0.294388,0.98472 1.24214,1.96503 2.208713,2.28458 0.687242,0.22721 2.070209,0.15311 2.685547,-0.14388 z"
       id="path21" /><path
       style="fill:#aac030;fill-opacity:1"
       d="m 48.677475,190.59665 c 0.06714,4e-5 0.385742,0.12494 0.708007,0.27755 0.719054,0.3405 1.389132,1.0039 1.766397,1.74877 0.260369,0.51408 0.284385,0.64809 0.284385,1.58688 0,0.93694 -0.02476,1.07583 -0.287072,1.61009 -0.365656,0.74474 -1.020211,1.3993 -1.764956,1.76495 -0.534254,0.26231 -0.673144,0.28707 -1.610082,0.28707 -0.929504,0 -1.078363,-0.026 -1.591872,-0.27816 -0.723483,-0.35526 -1.438465,-1.07063 -1.791414,-1.7924 -0.247519,-0.50616 -0.276959,-0.66964 -0.277839,-1.54272 -8.73e-4,-0.86606 0.02995,-1.04286 0.272405,-1.5625 0.354998,-0.76084 1.043401,-1.46488 1.777392,-1.81776 0.322266,-0.15493 0.640869,-0.28173 0.708008,-0.28177 z m -0.338917,5.64736 c 0.654091,-0.1647 1.319149,-0.84835 1.480802,-1.52219 0.324656,-1.35332 -0.648516,-2.58184 -2.045206,-2.58184 -1.20576,0 -2.081708,0.87115 -2.081708,2.07031 0,0.92996 0.594431,1.74675 1.469253,2.01887 0.48245,0.15006 0.63238,0.15196 1.176859,0.0148 z"
       id="path22"
       sodipodi:nodetypes="cssssssssssscccsssscc" /><path
       style="fill:#aac030;fill-opacity:1"
       d="m 17.232162,190.59665 c 0.06714,4e-5 0.385742,0.12684 0.708008,0.28177 0.733991,0.35288 1.422394,1.05692 1.777392,1.81776 0.242456,0.51964 0.273278,0.69644 0.272405,1.5625 -8.8e-4,0.87308 -0.03032,1.03656 -0.277838,1.54272 -0.35295,0.72177 -1.067932,1.43714 -1.791415,1.7924 -0.513509,0.25215 -0.662367,0.27816 -1.591872,0.27816 -0.936938,0 -1.075828,-0.0248 -1.610082,-0.28707 -0.744744,-0.36565 -1.3993,-1.02021 -1.764955,-1.76495 -0.262309,-0.53426 -0.287073,-0.67315 -0.287073,-1.61009 0,-0.93713 0.0243,-1.07336 0.282345,-1.58271 0.373623,-0.7375 1.04763,-1.40437 1.768437,-1.7497 0.322265,-0.15439 0.640869,-0.28075 0.708008,-0.28079 z m -0.372413,5.65536 c 0.901157,-0.22691 1.550801,-1.08239 1.550801,-2.04216 0,-1.19916 -0.875948,-2.07031 -2.081708,-2.07031 -1.065966,0 -1.860871,0.66631 -2.096398,1.75724 -0.238504,1.10473 0.818719,2.38222 2.02874,2.45142 0.09707,0.006 0.366419,-0.0377 0.598565,-0.0962 z"
       id="path23"
       sodipodi:nodetypes="csssssssssssccsssscss" /><path
       style="fill:#aac030;fill-opacity:1"
       d="m 15.081002,211.5034 c -2.35987,-0.87479 -3.223401,-3.73661 -1.738051,-5.76006 0.3991,-0.54368 1.186283,-1.11483 1.789602,-1.29847 l 0.415039,-0.12632 1.715132,0.0476 c 0.286138,0 1.200605,0.51269 1.601397,0.8978 0.8488,0.81561 1.215503,1.73031 1.159789,2.89298 -0.06561,1.36915 -0.826044,2.52806 -2.079688,3.16944 -0.779817,0.39898 -2.052318,0.47767 -2.86322,0.17708 z m 2.152843,-1.6295 c 0.759025,-0.38359 1.176705,-1.05606 1.176705,-1.89452 0,-1.99039 -2.45567,-2.84786 -3.72964,-1.30231 -1.389903,1.68619 0.603299,4.18211 2.552935,3.19683 z"
       id="path24"
       sodipodi:nodetypes="sssccssssssss" /><path
       style="fill:#aac030;fill-opacity:1"
       d="m 32.832748,204.31855 0.406834,0.12697 c 1.029776,0.32139 1.961179,1.24919 2.344228,2.33516 0.283724,0.80437 0.219872,2.00674 -0.147313,2.77397 -0.340522,0.71152 -1.083433,1.4605 -1.79514,1.8098 -0.511113,0.25086 -0.661391,0.27704 -1.589859,0.27704 -0.921855,0 -1.080774,-0.0272 -1.573897,-0.26948 -0.705854,-0.3468 -1.478496,-1.12242 -1.811749,-1.81873 -0.366514,-0.76581 -0.430156,-1.9689 -0.146666,-2.7726 0.38305,-1.08597 1.314452,-2.01377 2.344228,-2.33516 l 0.406834,-0.12697 z m 0.123753,5.55535 c 0.760809,-0.38449 1.183966,-1.0616 1.183966,-1.89452 0,-1.18415 -0.905172,-2.0896 -2.088969,-2.0896 -1.699186,0 -2.687756,1.86021 -1.733606,3.26216 0.594643,0.87372 1.725853,1.18324 2.638609,0.72196 z"
       id="path25"
       sodipodi:nodetypes="csssssssssccsssss" /><path
       style="fill:#aac030;fill-opacity:1"
       d="m 48.555404,204.32346 0.438016,0.12933 c 0.998969,0.29496 1.99981,1.32954 2.351351,2.43061 0.244818,0.7668 0.159671,1.94671 -0.193944,2.68753 -0.342501,0.71755 -1.057616,1.4357 -1.785125,1.79273 -0.513017,0.25176 -0.662402,0.27783 -1.591548,0.27783 -0.938798,0 -1.072807,-0.024 -1.58688,-0.28438 -0.727339,-0.36838 -1.375881,-1.01461 -1.76475,-1.75844 -0.291448,-0.55749 -0.310479,-0.65675 -0.310479,-1.61929 0,-0.94103 0.02362,-1.07205 0.28717,-1.59256 0.157943,-0.31195 0.490278,-0.77338 0.738522,-1.02539 0.433216,-0.43981 1.383456,-0.99533 1.702536,-0.99533 z m 0.186179,5.51604 c 1.12452,-0.57368 1.477899,-1.97977 0.763854,-3.03934 -1.153281,-1.71135 -3.812113,-0.88914 -3.813299,1.17921 -9.17e-4,1.59776 1.622573,2.58807 3.049445,1.86013 z"
       id="path26"
       sodipodi:nodetypes="cssssssssssccssss" /></g><g
     inkscape:groupmode="layer"
     id="layer10"
     inkscape:label="Layer 9"
     inkscape:export-filename="img\layer10.svg"
     inkscape:export-xdpi="96"
     inkscape:export-ydpi="96"
     transform="translate(-65.916627,-8.9214189)"><path
       style="fill:#aac030;fill-opacity:1;stroke-width:0.396997"
       d="m 71.597974,212.47621 c -0.527797,-0.19141 -1.029451,-0.64373 -1.273822,-1.14853 -0.314687,-0.65005 -0.315914,-2.1269 -0.0023,-2.77473 0.262359,-0.54196 0.798898,-1.00912 1.347909,-1.17361 0.254254,-0.0762 1.372514,-0.11989 3.066755,-0.11989 h 2.666583 l 0.449209,-1.70688 c 0.247064,-0.93879 0.447825,-1.74092 0.446135,-1.78252 -0.0017,-0.0416 -2.850938,-0.0889 -6.331662,-0.10504 l -6.328589,-0.0294 -0.501286,-0.29466 c -0.275708,-0.16207 -0.630214,-0.48949 -0.787791,-0.7276 l -0.286505,-0.43294 v -13.14518 -13.14519 l 0.286505,-0.43294 c 0.157577,-0.23811 0.512083,-0.56553 0.787791,-0.7276 l 0.501286,-0.29466 2.65223,-0.0328 2.65223,-0.0328 v -2.93453 c 0,-2.79448 0.01003,-2.94456 0.210078,-3.14461 0.204731,-0.20474 0.350129,-0.21008 5.712978,-0.21008 5.260203,0 5.513838,0.009 5.750875,0.20066 l 0.247974,0.20065 0.03234,2.95051 0.03234,2.95051 h 1.884613 1.884613 l 0.01969,-0.89283 c 0.01083,-0.49106 0.02265,-1.00923 0.02626,-1.1515 0.0053,-0.20923 -0.162705,-0.37487 -0.879024,-0.86657 -1.611274,-1.10604 -1.770519,-2.11285 -0.607404,-3.84025 0.383502,-0.56956 1.15246,-1.02172 1.737557,-1.02172 0.202498,0 0.816645,0.20612 1.399389,0.46967 l 1.038517,0.46967 0.69608,-0.46683 c 0.382844,-0.25676 0.900881,-0.54505 1.151193,-0.64065 0.507096,-0.19366 0.510851,-0.20357 0.60619,-1.59897 0.104025,-1.52251 0.893927,-2.22437 2.503381,-2.22437 1.750939,0 2.417549,0.66682 2.556304,2.55712 l 0.0749,1.02033 0.737426,0.37009 c 0.405581,0.20355 0.936451,0.51302 1.179711,0.68771 l 0.44228,0.31762 0.846897,-0.42581 c 0.99752,-0.50155 1.48799,-0.60081 2.12585,-0.43021 0.90619,0.24237 1.88628,1.64946 1.88628,2.70807 0,0.97325 -0.23084,1.31589 -1.43787,2.13432 l -0.75513,0.51201 0.0199,1.1456 0.0199,1.1456 1.05039,0.0399 c 1.24928,0.0474 1.79551,0.28785 2.30619,1.01521 l 0.31978,0.45547 v 13.16427 13.16428 l -0.31978,0.45546 c -0.17588,0.2505 -0.53038,0.57363 -0.78779,0.71806 l -0.46801,0.2626 -6.328584,0.0294 c -3.480724,0.0162 -6.329972,0.0634 -6.331664,0.10504 -0.0016,0.0416 0.199071,0.84374 0.446134,1.78252 l 0.44921,1.70688 h 2.666582 c 1.694241,0 2.812505,0.0437 3.066755,0.1199 0.54901,0.16449 1.08555,0.63164 1.34791,1.1736 0.31236,0.64525 0.31236,2.12474 0,2.76998 -0.26236,0.54196 -0.7989,1.00912 -1.34791,1.17361 -0.582248,0.17444 -26.074639,0.15494 -26.557891,-0.0203 z m 26.272965,-1.65307 c 0.247124,-0.19438 0.276764,-0.28919 0.276764,-0.8852 0,-0.59601 -0.0297,-0.69082 -0.276764,-0.88521 -0.27652,-0.21751 -0.287779,-0.2177 -12.958127,-0.2177 -12.670347,0 -12.681606,1.9e-4 -12.958128,0.2177 -0.247118,0.19439 -0.276762,0.2892 -0.276762,0.88521 0,0.59601 0.02964,0.69082 0.276762,0.8852 0.276522,0.21752 0.287781,0.2177 12.958128,0.2177 12.670348,0 12.681607,-1.8e-4 12.958127,-0.2177 z m -7.405692,-4.69286 c -0.168161,-0.62104 -0.381213,-1.42459 -0.473449,-1.78566 l -0.167702,-0.65649 h -4.911284 -4.911284 l -0.167702,0.65649 c -0.09224,0.36107 -0.305288,1.16462 -0.473449,1.78566 l -0.305748,1.12917 h 5.858183 5.858183 z m 13.553603,-4.27035 c 0.20705,-0.18738 0.2211,-0.30585 0.2211,-1.86444 v -1.66434 H 84.912812 65.585671 v 1.66434 c 0,1.74924 0.02817,1.85882 0.525194,2.04298 0.08666,0.0321 8.601658,0.0501 18.922225,0.04 18.29156,-0.0179 18.77024,-0.0235 18.98576,-0.21851 z m -11.438203,-1.11289 c -0.288847,-0.28884 -0.278795,-0.87315 0.01981,-1.15133 0.205633,-0.19158 0.366806,-0.21417 1.527835,-0.21417 1.238024,0 1.309861,0.0119 1.555777,0.25782 0.141803,0.1418 0.257821,0.38029 0.257821,0.52997 0,0.14968 -0.116018,0.38816 -0.257821,0.52997 -0.246337,0.24633 -0.31653,0.25782 -1.575583,0.25782 -1.177707,0 -1.340087,-0.0223 -1.527835,-0.21008 z m 5.375286,-0.033 c -0.323168,-0.344 -0.301667,-0.83943 0.0484,-1.11477 0.24481,-0.19257 0.42121,-0.2177 1.52784,-0.2177 1.188247,0 1.264017,0.0129 1.508897,0.25782 0.33083,0.33083 0.33698,0.78661 0.0147,1.08937 -0.22286,0.20937 -0.35256,0.22839 -1.557277,0.22839 -1.23786,0 -1.32742,-0.0141 -1.54255,-0.24311 z m 6.284017,-14.18345 v -10.11996 l -0.22108,-0.2001 c -0.21384,-0.19355 -0.563,-0.20101 -10.661439,-0.22786 l -10.440357,-0.0277 v 2.15479 2.1548 h 1.514472 c 0.83296,0 1.594496,0.0307 1.692302,0.0682 0.266192,0.10215 0.467888,0.65782 0.350677,0.96611 -0.169911,0.4469 -9.042201,12.32044 -9.290901,12.43376 -0.554999,0.25287 -0.585491,0.21761 -5.311247,-6.14186 -4.901828,-6.59643 -4.912004,-6.61291 -4.385975,-7.10298 0.222774,-0.20755 0.353116,-0.22328 1.850128,-0.22328 H 70.947 l -0.02844,-2.12703 -0.02843,-2.12704 h -2.431289 c -2.243524,0 -2.448353,0.0154 -2.65223,0.2001 l -0.22094,0.2001 v 10.11996 10.11997 h 19.327141 19.327138 z m -15.965896,8.12423 c -0.205307,-0.20531 -0.210078,-0.35013 -0.210078,-6.37758 v -6.1675 l 1.710408,-1.71041 1.710408,-1.71041 h 4.386619 4.386609 l 0.25783,0.25782 0.25782,0.25782 v 7.55341 c 0,7.48253 -0.002,7.556 -0.2177,7.83016 l -0.2177,0.27677 h -5.927069 c -5.787018,0 -5.932033,-0.005 -6.137147,-0.21008 z m 10.924039,-7.87791 v -6.51241 h -3.491026 -3.491022 l -1.288244,1.28515 -1.288242,1.28515 v 5.22726 5.22726 h 4.779264 4.77927 z m -8.246776,4.51531 c -0.289263,-0.31963 -0.246522,-0.82474 0.09462,-1.11817 0.285891,-0.24591 0.286717,-0.24598 3.383524,-0.24598 h 3.097562 l 0.257822,0.25783 c 0.318298,0.31829 0.339738,0.81569 0.04774,1.10768 -0.200996,0.20099 -0.350128,0.21007 -3.45,0.21007 -3.113449,0 -3.247393,-0.008 -3.431268,-0.21143 z m 0.131071,-3.49118 c -0.426171,-0.32362 -0.376939,-1.2018 0.07714,-1.37605 0.09781,-0.0375 1.58375,-0.0682 3.302096,-0.0682 h 3.12426 l 0.228389,0.24311 c 0.32317,0.344 0.30167,0.83943 -0.04837,1.11477 -0.265869,0.20914 -0.399427,0.21771 -3.393687,0.21771 -2.331298,0 -3.160503,-0.0331 -3.289827,-0.1313 z m 0.132753,-3.57352 c -0.39721,-0.20458 -0.57077,-0.63567 -0.399627,-0.9926 0.257808,-0.53767 0.40544,-0.55853 3.744013,-0.52914 l 3.081793,0.0271 0.20067,0.24797 c 0.110373,0.13638 0.200673,0.3793 0.200673,0.53982 0,0.16051 -0.0903,0.40343 -0.200673,0.53981 l -0.20067,0.24798 -3.081793,0.0272 c -2.351521,0.0207 -3.144015,-0.005 -3.344386,-0.10811 z m -10.721711,2.56136 c 1.96849,-2.6509 3.579072,-4.84884 3.579072,-4.88431 0,-0.0354 -0.514706,-0.0645 -1.143791,-0.0645 -0.969553,0 -1.181565,-0.0306 -1.391764,-0.20075 l -0.247974,-0.20076 -0.02882,-5.8915 -0.02882,-5.8915 H 76.87478 72.518228 v 5.83443 5.83443 l -0.257822,0.25782 c -0.242848,0.24285 -0.325717,0.25783 -1.426777,0.25783 -0.642926,0 -1.1532,0.0395 -1.133942,0.0877 0.04558,0.11415 7.145708,9.68092 7.184853,9.68092 0.0164,0 1.640398,-2.16892 3.608886,-4.81982 z m 9.657743,-13.27315 c -6.75e-4,-1.74819 0.885615,-3.17259 2.429172,-3.9041 0.634505,-0.3007 0.765351,-0.32371 1.840971,-0.32371 1.093521,0 1.196363,0.0189 1.849209,0.34046 0.861722,0.42439 1.569571,1.16357 2.015308,2.10449 0.30102,0.63543 0.33455,0.80358 0.33455,1.67769 v 0.97149 l 0.91908,1.2e-4 0.919097,1.3e-4 v -0.83514 c 0,-0.45933 -0.0516,-1.07555 -0.11458,-1.36939 -0.15381,-0.7172 -0.0345,-0.88129 1.27362,-1.75227 1.15946,-0.77198 1.20406,-0.85728 0.8087,-1.54669 -0.43993,-0.76712 -0.51687,-0.772 -1.85117,-0.11715 -0.648597,0.31833 -1.267367,0.57877 -1.375037,0.57877 -0.10766,0 -0.40031,-0.16429 -0.65033,-0.36509 -0.65713,-0.52778 -1.418148,-0.97046 -2.103655,-1.2237 -0.897451,-0.33152 -0.944614,-0.41662 -1.055905,-1.90535 -0.115006,-1.53837 -0.181967,-1.65276 -0.967581,-1.65276 -0.845667,0 -0.887804,0.0658 -1.010139,1.57638 -0.115113,1.42141 -0.226797,1.71608 -0.694507,1.83242 -0.573804,0.14272 -1.58315,0.68936 -2.234928,1.21037 -0.363103,0.29026 -0.765338,0.52773 -0.893855,0.52773 -0.128517,0 -0.748786,-0.25062 -1.378376,-0.55694 -0.62959,-0.30633 -1.225757,-0.53952 -1.324816,-0.51821 -0.243565,0.0524 -0.839056,1.10752 -0.752444,1.33323 0.03716,0.0968 0.556842,0.50433 1.154851,0.90556 0.767006,0.5146 1.106879,0.80753 1.153791,0.99445 0.03658,0.14573 0.0081,0.64014 -0.0632,1.0987 -0.07133,0.45856 -0.0976,1.04779 -0.05837,1.30941 l 0.07133,0.47567 h 0.879767 0.879767 z m 6.818138,0.68275 c 0.15941,-0.3882 0.06886,-1.43533 -0.162443,-1.87856 -0.494452,-0.94748 -1.191833,-1.41024 -2.238008,-1.4851 -1.129552,-0.0808 -2.048084,0.44701 -2.557761,1.46979 -0.268858,0.53953 -0.352256,1.29023 -0.204561,1.84135 l 0.06334,0.23634 h 2.51198 c 2.293575,0 2.518537,-0.016 2.587456,-0.18382 z"
       id="path29" /><path
       style="fill:#9cb5e2;fill-opacity:1;stroke-width:0.396997"
       d="m 71.597974,212.47621 c -0.527797,-0.19141 -1.029451,-0.64373 -1.273822,-1.14853 -0.314687,-0.65005 -0.315914,-2.1269 -0.0023,-2.77473 0.262359,-0.54196 0.798898,-1.00912 1.347909,-1.17361 0.254254,-0.0762 1.372514,-0.11989 3.066755,-0.11989 h 2.666583 l 0.449209,-1.70688 c 0.247064,-0.93879 0.447825,-1.74092 0.446135,-1.78252 -0.0017,-0.0416 -2.850938,-0.0889 -6.331662,-0.10504 l -6.328589,-0.0294 -0.501286,-0.29466 c -0.275708,-0.16207 -0.630214,-0.48949 -0.787791,-0.7276 l -0.286505,-0.43294 v -13.14518 -13.14519 l 0.286505,-0.43294 c 0.157577,-0.23811 0.512083,-0.56553 0.787791,-0.7276 l 0.501286,-0.29466 2.65223,-0.0328 c 5.507401,-0.0652 11.015687,-0.0208 16.523428,-0.0197 h 1.884613 l 0.01969,-0.89283 c 0.01083,-0.49106 0.02265,-1.00923 0.02626,-1.1515 0.0053,-0.20923 -0.162705,-0.37487 -0.879024,-0.86657 -1.611274,-1.10604 -1.770519,-2.11285 -0.607404,-3.84025 0.383502,-0.56956 1.15246,-1.02172 1.737557,-1.02172 0.202498,0 0.816645,0.20612 1.399389,0.46967 l 1.038517,0.46967 0.69608,-0.46683 c 0.382844,-0.25676 0.900881,-0.54505 1.151193,-0.64065 0.507096,-0.19366 0.510851,-0.20357 0.60619,-1.59897 0.104025,-1.52251 0.893927,-2.22437 2.503381,-2.22437 1.750939,0 2.417549,0.66682 2.556304,2.55712 l 0.0749,1.02033 0.737426,0.37009 c 0.405581,0.20355 0.936451,0.51302 1.179711,0.68771 l 0.44228,0.31762 0.846897,-0.42581 c 0.99752,-0.50155 1.48799,-0.60081 2.12585,-0.43021 0.90619,0.24237 1.88628,1.64946 1.88628,2.70807 0,0.97325 -0.23084,1.31589 -1.43787,2.13432 l -0.75513,0.51201 0.0199,1.1456 0.0199,1.1456 1.05039,0.0399 c 1.24928,0.0474 1.79551,0.28785 2.30619,1.01521 l 0.31978,0.45547 v 13.16427 13.16428 l -0.31978,0.45546 c -0.17588,0.2505 -0.53038,0.57363 -0.78779,0.71806 l -0.46801,0.2626 -6.328584,0.0294 c -3.480724,0.0162 -6.329972,0.0634 -6.331664,0.10504 -0.0016,0.0416 0.199071,0.84374 0.446134,1.78252 l 0.44921,1.70688 h 2.666582 c 1.694241,0 2.812505,0.0437 3.066755,0.1199 0.54901,0.16449 1.08555,0.63164 1.34791,1.1736 0.31236,0.64525 0.31236,2.12474 0,2.76998 -0.26236,0.54196 -0.7989,1.00912 -1.34791,1.17361 -0.582248,0.17444 -26.074639,0.15494 -26.557891,-0.0203 z m 26.272965,-1.65307 c 0.247124,-0.19438 0.276764,-0.28919 0.276764,-0.8852 0,-0.59601 -0.0297,-0.69082 -0.276764,-0.88521 -0.27652,-0.21751 -0.287779,-0.2177 -12.958127,-0.2177 -12.670347,0 -12.681606,1.9e-4 -12.958128,0.2177 -0.247118,0.19439 -0.276762,0.2892 -0.276762,0.88521 0,0.59601 0.02964,0.69082 0.276762,0.8852 0.276522,0.21752 0.287781,0.2177 12.958128,0.2177 12.670348,0 12.681607,-1.8e-4 12.958127,-0.2177 z m -7.405692,-4.69286 c -0.168161,-0.62104 -0.381213,-1.42459 -0.473449,-1.78566 l -0.167702,-0.65649 h -4.911284 -4.911284 l -0.167702,0.65649 c -0.09224,0.36107 -0.305288,1.16462 -0.473449,1.78566 l -0.305748,1.12917 h 5.858183 5.858183 z m 13.553603,-4.27035 c 0.20705,-0.18738 0.2211,-0.30585 0.2211,-1.86444 v -1.66434 H 84.912812 65.585671 v 1.66434 c 0,1.74924 0.02817,1.85882 0.525194,2.04298 0.08666,0.0321 8.601658,0.0501 18.922225,0.04 18.29156,-0.0179 18.77024,-0.0235 18.98576,-0.21851 z m -11.438203,-1.11289 c -0.288847,-0.28884 -0.278795,-0.87315 0.01981,-1.15133 0.205633,-0.19158 0.366806,-0.21417 1.527835,-0.21417 1.238024,0 1.309861,0.0119 1.555777,0.25782 0.141803,0.1418 0.257821,0.38029 0.257821,0.52997 0,0.14968 -0.116018,0.38816 -0.257821,0.52997 -0.246337,0.24633 -0.31653,0.25782 -1.575583,0.25782 -1.177707,0 -1.340087,-0.0223 -1.527835,-0.21008 z m 5.375286,-0.033 c -0.323168,-0.344 -0.301667,-0.83943 0.0484,-1.11477 0.24481,-0.19257 0.42121,-0.2177 1.52784,-0.2177 1.188247,0 1.264017,0.0129 1.508897,0.25782 0.33083,0.33083 0.33698,0.78661 0.0147,1.08937 -0.22286,0.20937 -0.35256,0.22839 -1.557277,0.22839 -1.23786,0 -1.32742,-0.0141 -1.54255,-0.24311 z m 6.284017,-14.18345 v -10.11996 l -0.22108,-0.2001 c -0.21384,-0.19355 -0.563,-0.20101 -10.661439,-0.22786 -17.902078,-0.12418 -1.78471,0.0278 -24.89859,0.0278 -2.243524,0 -2.448353,0.0154 -2.65223,0.2001 l -0.22094,0.2001 v 10.11996 10.11997 h 19.327141 19.327138 z m -15.965896,8.12423 c -0.205307,-0.20531 -0.210078,-0.35013 -0.210078,-6.37758 v -6.1675 l 1.710408,-1.71041 1.710408,-1.71041 h 4.386619 4.386609 l 0.25783,0.25782 0.25782,0.25782 v 7.55341 c 0,7.48253 -0.002,7.556 -0.2177,7.83016 l -0.2177,0.27677 h -5.927069 c -5.787018,0 -5.932033,-0.005 -6.137147,-0.21008 z m 10.924039,-7.87791 v -6.51241 h -3.491026 -3.491022 l -1.288244,1.28515 -1.288242,1.28515 v 5.22726 5.22726 h 4.779264 4.77927 z m -8.246776,4.51531 c -0.289263,-0.31963 -0.246522,-0.82474 0.09462,-1.11817 0.285891,-0.24591 0.286717,-0.24598 3.383524,-0.24598 h 3.097562 l 0.257822,0.25783 c 0.318298,0.31829 0.339738,0.81569 0.04774,1.10768 -0.200996,0.20099 -0.350128,0.21007 -3.45,0.21007 -3.113449,0 -3.247393,-0.008 -3.431268,-0.21143 z m 0.131071,-3.49118 c -0.426171,-0.32362 -0.376939,-1.2018 0.07714,-1.37605 0.09781,-0.0375 1.58375,-0.0682 3.302096,-0.0682 h 3.12426 l 0.228389,0.24311 c 0.32317,0.344 0.30167,0.83943 -0.04837,1.11477 -0.265869,0.20914 -0.399427,0.21771 -3.393687,0.21771 -2.331298,0 -3.160503,-0.0331 -3.289827,-0.1313 z m 0.132753,-3.57352 c -0.39721,-0.20458 -0.57077,-0.63567 -0.399627,-0.9926 0.257808,-0.53767 0.40544,-0.55853 3.744013,-0.52914 l 3.081793,0.0271 0.20067,0.24797 c 0.110373,0.13638 0.200673,0.3793 0.200673,0.53982 0,0.16051 -0.0903,0.40343 -0.200673,0.53981 l -0.20067,0.24798 -3.081793,0.0272 c -2.351521,0.0207 -3.144015,-0.005 -3.344386,-0.10811 z m -1.063968,-10.71179 c -6.75e-4,-1.74819 0.885615,-3.17259 2.429172,-3.9041 0.634505,-0.3007 0.765351,-0.32371 1.840971,-0.32371 1.093521,0 1.196363,0.0189 1.849209,0.34046 0.861722,0.42439 1.569571,1.16357 2.015308,2.10449 0.30102,0.63543 0.33455,0.80358 0.33455,1.67769 v 0.97149 l 0.91908,1.2e-4 0.919097,1.3e-4 v -0.83514 c 0,-0.45933 -0.0516,-1.07555 -0.11458,-1.36939 -0.15381,-0.7172 -0.0345,-0.88129 1.27362,-1.75227 1.15946,-0.77198 1.20406,-0.85728 0.8087,-1.54669 -0.43993,-0.76712 -0.51687,-0.772 -1.85117,-0.11715 -0.648597,0.31833 -1.267367,0.57877 -1.375037,0.57877 -0.10766,0 -0.40031,-0.16429 -0.65033,-0.36509 -0.65713,-0.52778 -1.418148,-0.97046 -2.103655,-1.2237 -0.897451,-0.33152 -0.944614,-0.41662 -1.055905,-1.90535 -0.115006,-1.53837 -0.181967,-1.65276 -0.967581,-1.65276 -0.845667,0 -0.887804,0.0658 -1.010139,1.57638 -0.115113,1.42141 -0.226797,1.71608 -0.694507,1.83242 -0.573804,0.14272 -1.58315,0.68936 -2.234928,1.21037 -0.363103,0.29026 -0.765338,0.52773 -0.893855,0.52773 -0.128517,0 -0.748786,-0.25062 -1.378376,-0.55694 -0.62959,-0.30633 -1.225757,-0.53952 -1.324816,-0.51821 -0.243565,0.0524 -0.839056,1.10752 -0.752444,1.33323 0.03716,0.0968 0.556842,0.50433 1.154851,0.90556 0.767006,0.5146 1.106879,0.80753 1.153791,0.99445 0.03658,0.14573 0.0081,0.64014 -0.0632,1.0987 -0.07133,0.45856 -0.0976,1.04779 -0.05837,1.30941 l 0.07133,0.47567 h 0.879767 0.879767 z m 6.818138,0.68275 c 0.15941,-0.3882 0.06886,-1.43533 -0.162443,-1.87856 -0.494452,-0.94748 -1.191833,-1.41024 -2.238008,-1.4851 -1.129552,-0.0808 -2.048084,0.44701 -2.557761,1.46979 -0.268858,0.53953 -0.352256,1.29023 -0.204561,1.84135 l 0.06334,0.23634 h 2.51198 c 2.293575,0 2.518537,-0.016 2.587456,-0.18382 z"
       id="path28"
       sodipodi:nodetypes="csssscssccsscccssccccsssssscssssscsscssssccccscccsscccscsssssccssssssssssscccsscccssscccssssssssssssssssssssssccscssccccccsscccccccsscssccccccccccccsscssscssscsssssssscsssccssssscsscccscssssssssssssssssssscccsssssscsss" /></g><g
     inkscape:groupmode="layer"
     id="layer11"
     inkscape:label="Layer 10"
     inkscape:export-filename="img\layer11.svg"
     inkscape:export-xdpi="96"
     inkscape:export-ydpi="96"
     transform="translate(-65.916627,-8.9214189)"><path
       style="fill:#9cb5e2;fill-opacity:1;stroke:none;stroke-width:0.381001;stroke-opacity:1"
       d="m 125.68442,210.74704 c -0.15598,-0.15597 -0.24744,-0.36261 -0.24744,-0.55902 0,-0.19641 0.0915,-0.40305 0.24744,-0.55902 l 0.24743,-0.24743 h 4.18805 4.18805 v -0.9465 c 0,-1.41661 -0.009,-1.40954 1.92277,-1.47286 l 1.53796,-0.0504 0.52944,-1.58554 0.52944,-1.58554 -8.68622,-0.0273 -8.68622,-0.0274 -0.56315,-0.26409 c -0.68587,-0.32164 -1.21047,-0.8295 -1.57899,-1.52859 l -0.27721,-0.52587 v -12.95363 -12.95364 l 0.27721,-0.52586 c 0.35205,-0.66785 0.84762,-1.16342 1.51547,-1.51548 l 0.52587,-0.27721 3.25101,-0.0315 3.25101,-0.0315 v -2.97206 -2.97205 l 0.24743,-0.24743 c 0.24543,-0.24543 0.26305,-0.24744 2.17192,-0.24744 1.90888,0 1.9265,0.002 2.17193,0.24744 l 0.24743,0.24743 v 2.97837 2.97838 h 0.40323 0.40322 v -5.80096 -5.80095 l 0.24744,-0.24744 c 0.24542,-0.24542 0.26304,-0.24743 2.17192,-0.24743 1.90887,0 1.92649,0.002 2.17192,0.24743 l 0.24743,0.24744 v 5.80095 5.80096 h 0.40323 0.40323 v -4.18805 -4.18805 l 0.24743,-0.24744 c 0.24543,-0.24543 0.26305,-0.24743 2.17192,-0.24743 1.90888,0 1.9265,0.002 2.17192,0.24743 l 0.24744,0.24744 v 4.18805 4.18805 h 4.94461 4.94461 l -0.46985,-0.65844 c -2.09748,-2.93935 -1.68921,-6.9743 0.95563,-9.44471 0.84219,-0.78664 1.567,-1.22178 2.70351,-1.62305 0.823,-0.29057 0.97593,-0.3116 2.24407,-0.30851 1.18244,0.003 1.46224,0.0369 2.13374,0.25967 2.60717,0.86479 4.47749,2.96847 4.98158,5.60311 0.36378,1.90132 -0.0787,3.92517 -1.20247,5.49999 l -0.46022,0.64494 0.92793,0.0489 c 0.74011,0.039 1.03435,0.10296 1.45378,0.31591 0.69224,0.35144 1.20404,0.87668 1.52859,1.56876 l 0.2641,0.56315 v 12.85283 12.85283 l -0.2641,0.56315 c -0.33569,0.71583 -0.87628,1.25642 -1.59211,1.59211 l -0.56315,0.26409 -8.68622,0.0274 -8.68622,0.0273 0.52944,1.58554 0.52944,1.58554 1.53796,0.0504 c 1.932,0.0633 1.92277,0.0562 1.92277,1.47286 v 0.9465 h 4.18805 4.18806 l 0.24743,0.24743 c 0.32735,0.32736 0.32735,0.79068 0,1.11804 l -0.24743,0.24743 h -18.05353 -18.05353 z m 26.36548,-1.7687 v -0.40322 h -8.06452 -8.06452 v 0.40322 0.40323 h 8.06452 8.06452 z m -4.07388,-3.60383 -0.53042,-1.5877 h -3.46022 -3.46023 l -0.53041,1.5877 -0.53042,1.5877 h 4.52106 4.52105 z m 18.65201,-3.50925 c 0.60373,-0.45077 0.69131,-0.67516 0.72817,-1.86573 l 0.0341,-1.10184 h -23.39604 -23.39603 v 0.9511 c 0,1.02163 0.0891,1.38147 0.43514,1.75833 0.49567,0.53973 -0.87047,0.51085 23.07059,0.48759 l 22.24565,-0.0216 z m -44.16942,-0.79565 c -0.15597,-0.15597 -0.24744,-0.3626 -0.24744,-0.55901 0,-0.19641 0.0915,-0.40305 0.24744,-0.55902 l 0.24743,-0.24744 h 2.73094 2.73094 l 0.24744,0.24744 c 0.32735,0.32735 0.32735,0.79068 0,1.11803 l -0.24744,0.24744 h -2.73094 -2.73094 z m 7.25807,0 c -0.15598,-0.15597 -0.24744,-0.3626 -0.24744,-0.55901 0,-0.19641 0.0915,-0.40305 0.24744,-0.55902 0.21618,-0.21618 0.33771,-0.24744 0.96224,-0.24744 0.62452,0 0.74606,0.0312 0.96224,0.24744 0.15597,0.15597 0.24744,0.36261 0.24744,0.55902 0,0.19641 -0.0915,0.40304 -0.24744,0.55901 -0.21618,0.21619 -0.33772,0.24744 -0.96224,0.24744 -0.62453,0 -0.74606,-0.0312 -0.96224,-0.24744 z m 37.63195,-14.56375 c -0.0264,-10.70873 -0.0279,-10.78074 -0.23439,-11.05728 -0.49506,-0.66303 -0.59493,-0.6911 -2.58196,-0.72573 -1.76982,-0.0309 -1.83585,-0.0246 -2.48792,0.23649 -1.77954,0.71241 -3.72717,0.70805 -5.50004,-0.0123 l -0.59773,-0.24288 h -5.98061 -5.9806 v 3.22581 3.2258 h 0.40322 0.40323 v -2.57514 -2.57515 l 0.24743,-0.24743 c 0.24543,-0.24543 0.26305,-0.24744 2.17193,-0.24744 1.90887,0 1.92649,0.002 2.17192,0.24744 l 0.24743,0.24743 v 3.13417 3.13416 l -0.24743,0.24743 -0.24744,0.24744 h -13.21481 -13.21482 l -0.24743,-0.24744 -0.24744,-0.24743 v -3.13416 -3.13417 l 0.24744,-0.24743 c 0.24542,-0.24543 0.26304,-0.24744 2.17192,-0.24744 1.90887,0 1.92649,0.002 2.17192,0.24744 l 0.24744,0.24743 v 2.57515 2.57514 h 0.40322 0.40323 v -3.22993 -3.22993 l -3.1178,0.0293 c -2.96733,0.0279 -3.13123,0.0394 -3.39599,0.23717 -0.15301,0.11432 -0.37172,0.3331 -0.48604,0.4862 -0.20648,0.27654 -0.20801,0.34856 -0.23438,11.05729 l -0.0266,10.77892 h 23.3898 23.38979 z m -30.54187,9.85214 c -0.49723,-0.13221 -1.21539,-0.77808 -1.47187,-1.32373 l -0.20687,-0.44011 -4.15407,-1.73085 -4.15406,-1.73085 -0.34946,0.40827 c -0.96758,1.13039 -2.46921,1.19672 -3.50662,0.15488 -1.01976,-1.02411 -1.01976,-2.31586 0,-3.33562 0.70791,-0.70791 1.47057,-0.91009 2.39184,-0.63408 0.52493,0.15728 1.21735,0.78004 1.47375,1.32552 l 0.20687,0.4401 4.1383,1.72429 4.1383,1.72428 0.53081,-0.52765 c 0.99565,-0.98972 2.2575,-1.03596 3.28113,-0.12023 l 0.47548,0.42537 4.23267,-3.18516 c 3.75135,-2.82295 4.24375,-3.22527 4.33017,-3.53797 0.0561,-0.20287 0.31364,-0.56849 0.60605,-0.86027 0.71397,-0.71244 1.46731,-0.90921 2.41217,-0.63004 0.52214,0.15427 1.42103,1.02245 1.51861,1.46673 0.0642,0.29253 0.38661,0.50132 4.30292,2.78694 l 4.23347,2.47072 0.31155,-0.35483 c 0.48366,-0.55088 1.02482,-0.78913 1.79233,-0.78913 2.53202,0 3.31016,3.31493 1.05846,4.50913 -0.56004,0.29703 -1.55855,0.29549 -2.12648,-0.003 -0.50435,-0.26533 -0.98649,-0.79812 -1.16236,-1.28448 -0.1227,-0.33932 -0.40813,-0.5247 -4.35015,-2.82532 l -4.21883,-2.46218 -0.31155,0.35483 c -0.48344,0.55061 -1.02482,0.78907 -1.79233,0.78946 -0.73421,3.7e-4 -1.14718,-0.16787 -1.71371,-0.69817 l -0.35282,-0.33026 -4.23266,3.18915 c -3.74976,2.8253 -4.24379,3.2294 -4.33018,3.54197 -0.0561,0.20287 -0.31363,0.56849 -0.60604,0.86028 -0.70507,0.70355 -1.41847,0.89191 -2.39482,0.6323 z m 1.28602,-1.74 c 0.50002,-0.50002 0.14571,-1.36547 -0.55902,-1.36547 -0.41442,0 -0.80645,0.39202 -0.80645,0.80645 0,0.41442 0.39203,0.80645 0.80645,0.80645 0.19641,0 0.40305,-0.0915 0.55902,-0.24743 z m 25.80646,-1.61291 c 0.15598,-0.15597 0.24744,-0.36261 0.24744,-0.55902 0,-0.1964 -0.0915,-0.40304 -0.24744,-0.55901 -0.15597,-0.15597 -0.36261,-0.24744 -0.55901,-0.24744 -0.19641,0 -0.40305,0.0915 -0.55902,0.24744 -0.15597,0.15597 -0.24744,0.36261 -0.24744,0.55901 0,0.19641 0.0915,0.40305 0.24744,0.55902 0.15597,0.15597 0.36261,0.24744 0.55902,0.24744 0.1964,0 0.40304,-0.0915 0.55901,-0.24744 z m -38.70969,-2.41935 c 0.50002,-0.50002 0.1457,-1.36547 -0.55902,-1.36547 -0.41443,0 -0.80645,0.39202 -0.80645,0.80645 0,0.41442 0.39202,0.80645 0.80645,0.80645 0.19641,0 0.40305,-0.0915 0.55902,-0.24743 z m 25.80646,-3.22581 c 0.15597,-0.15597 0.24744,-0.36261 0.24744,-0.55902 0,-0.19641 -0.0915,-0.40304 -0.24744,-0.55902 -0.15597,-0.15597 -0.36261,-0.24743 -0.55902,-0.24743 -0.1964,0 -0.40304,0.0915 -0.55901,0.24743 -0.15598,0.15598 -0.24744,0.36261 -0.24744,0.55902 0,0.19641 0.0915,0.40305 0.24744,0.55902 0.15597,0.15597 0.36261,0.24743 0.55901,0.24743 0.19641,0 0.40305,-0.0915 0.55902,-0.24743 z m -0.31158,8.87097 c -0.15597,-0.15597 -0.24744,-0.36261 -0.24744,-0.55902 0,-0.19641 0.0915,-0.40304 0.24744,-0.55901 l 0.24743,-0.24744 h 3.13417 3.13416 l 0.24744,0.24744 c 0.15597,0.15597 0.24743,0.3626 0.24743,0.55901 0,0.19641 -0.0915,0.40305 -0.24743,0.55902 l -0.24744,0.24744 h -3.13416 -3.13417 z m 3.22581,-2.41935 c -0.15598,-0.15598 -0.24744,-0.36261 -0.24744,-0.55902 0,-0.19641 0.0915,-0.40305 0.24744,-0.55902 0.24084,-0.24085 0.28793,-0.24744 1.76869,-0.24744 1.48076,0 1.52785,0.007 1.7687,0.24744 0.15597,0.15597 0.24743,0.36261 0.24743,0.55902 0,0.19641 -0.0915,0.40304 -0.24743,0.55902 -0.24085,0.24084 -0.28794,0.24743 -1.7687,0.24743 -1.48076,0 -1.52785,-0.007 -1.76869,-0.24743 z m -31.45163,-8.87098 c -0.15597,-0.15597 -0.24744,-0.3626 -0.24744,-0.55901 0,-0.19641 0.0915,-0.40305 0.24744,-0.55902 l 0.24743,-0.24744 h 4.74707 4.74707 l 0.24744,0.24744 c 0.32735,0.32735 0.32735,0.79068 0,1.11803 l -0.24744,0.24743 h -4.74707 -4.74707 z m 11.29033,0 c -0.15598,-0.15597 -0.24744,-0.3626 -0.24744,-0.55901 0,-0.19641 0.0915,-0.40305 0.24744,-0.55902 0.21618,-0.21618 0.33771,-0.24744 0.96224,-0.24744 0.62452,0 0.74606,0.0312 0.96224,0.24744 0.15597,0.15597 0.24744,0.36261 0.24744,0.55902 0,0.19641 -0.0915,0.40304 -0.24744,0.55901 -0.21618,0.21619 -0.33772,0.24743 -0.96224,0.24743 -0.62453,0 -0.74606,-0.0312 -0.96224,-0.24743 z m 18.54839,-4.03226 c -0.16167,-0.16168 -0.24743,-0.36152 -0.24743,-0.57661 0,-0.29249 0.20537,-0.53455 1.84274,-2.17192 l 1.84274,-1.84275 h 3.95822 3.95821 l 0.24743,0.24744 c 0.15598,0.15597 0.24744,0.36261 0.24744,0.55902 0,0.19641 -0.0915,0.40304 -0.24744,0.55901 l -0.24743,0.24744 h -3.60457 -3.60457 l -1.62366,1.6129 c -1.42411,1.41468 -1.66363,1.61291 -1.94895,1.61291 -0.21097,0 -0.41226,-0.087 -0.57273,-0.24744 z m -26.86035,-1.76869 v -2.01613 h -0.80645 -0.80645 v 2.01613 2.01613 h 0.80645 0.80645 z m 5.64517,-4.43549 v -6.45161 h -0.80646 -0.80645 v 6.45161 6.45162 h 0.80645 0.80646 z m 2.41935,3.22581 v -3.22581 h -0.40322 -0.40323 v 3.22581 3.22581 h 0.40323 0.40322 z m 3.22581,-6.04839 v -9.2742 h -0.80645 -0.80645 v 9.2742 9.2742 h 0.80645 0.80645 z m 2.41936,6.04839 v -3.22581 h -0.40323 -0.40323 v 3.22581 3.22581 h 0.40323 0.40323 z m 3.2258,-4.43549 v -7.66129 h -0.80645 -0.80645 v 7.66129 7.6613 h 0.80645 0.80645 z m 5.64517,5.64517 v -2.01613 h -0.80645 -0.80646 v 2.01613 2.01613 h 0.80646 0.80645 z m 12.59042,-5.39693 c 1.58587,-0.37382 3.01086,-1.51711 3.73499,-2.99664 0.22349,-0.45662 0.4353,-1.02302 0.47069,-1.25866 l 0.0643,-0.42843 h -2.60967 -2.60967 l -1.8639,1.86752 c -1.52166,1.52461 -1.83613,1.8869 -1.71269,1.97309 0.35097,0.24503 1.48953,0.74284 1.96085,0.85734 0.70806,0.172 1.80075,0.16594 2.56505,-0.0142 z m -3.94726,-4.00226 1.84071,-1.83869 v -2.60968 -2.60967 l -0.42842,0.0677 c -0.23564,0.0373 -0.8003,0.24735 -1.25481,0.46685 -2.3347,1.1275 -3.59892,3.79693 -3.00049,6.33561 0.14224,0.60346 0.80246,2.02653 0.94017,2.02653 0.0342,0 0.89045,-0.82742 1.90284,-1.8387 z m 8.14953,-2.7228 c -0.12594,-0.79634 -0.80844,-2.02371 -1.52226,-2.73752 -0.71899,-0.71899 -1.96799,-1.41664 -2.74522,-1.53338 l -0.42843,-0.0643 v 2.38184 2.38183 h 2.38184 2.38183 z"
       id="path30" /><path
       style="fill:#aac030;fill-opacity:1;stroke:none;stroke-width:0.381001;stroke-opacity:1"
       d="m 136.80676,196.358 c -0.49723,-0.13221 -1.21539,-0.77808 -1.47187,-1.32373 l -0.20687,-0.44011 -4.15407,-1.73085 -4.15406,-1.73085 -0.34946,0.40827 c -0.96758,1.13039 -2.46921,1.19672 -3.50662,0.15488 -1.01976,-1.02411 -1.01976,-2.31586 0,-3.33562 0.70791,-0.70791 1.47057,-0.91009 2.39184,-0.63408 0.52493,0.15728 1.21735,0.78004 1.47375,1.32552 l 0.20687,0.4401 4.1383,1.72429 4.1383,1.72428 0.53081,-0.52765 c 0.99565,-0.98972 2.2575,-1.03596 3.28113,-0.12023 l 0.47548,0.42537 4.23267,-3.18516 c 3.75135,-2.82295 4.24375,-3.22527 4.33017,-3.53797 0.0561,-0.20287 0.31364,-0.56849 0.60605,-0.86027 0.71397,-0.71244 1.46731,-0.90921 2.41217,-0.63004 0.52214,0.15427 1.42103,1.02245 1.51861,1.46673 0.0642,0.29253 0.38661,0.50132 4.30292,2.78694 l 4.23347,2.47072 0.31155,-0.35483 c 0.48366,-0.55088 1.02482,-0.78913 1.79233,-0.78913 2.53202,0 3.31016,3.31493 1.05846,4.50913 -0.56004,0.29703 -1.55855,0.29549 -2.12648,-0.003 -0.50435,-0.26533 -0.98649,-0.79812 -1.16236,-1.28448 -0.1227,-0.33932 -0.40813,-0.5247 -4.35015,-2.82532 l -4.21883,-2.46218 -0.31155,0.35483 c -0.48344,0.55061 -1.02482,0.78907 -1.79233,0.78946 -0.73421,3.7e-4 -1.14718,-0.16787 -1.71371,-0.69817 l -0.35282,-0.33026 -4.23266,3.18915 c -3.74976,2.8253 -4.24379,3.2294 -4.33018,3.54197 -0.0561,0.20287 -0.31363,0.56849 -0.60604,0.86028 -0.70507,0.70355 -1.41847,0.89191 -2.39482,0.6323 z m 1.28602,-1.74 c 0.50002,-0.50002 0.14571,-1.36547 -0.55902,-1.36547 -0.41442,0 -0.80645,0.39202 -0.80645,0.80645 0,0.41442 0.39203,0.80645 0.80645,0.80645 0.19641,0 0.40305,-0.0915 0.55902,-0.24743 z m 25.80646,-1.61291 c 0.15598,-0.15597 0.24744,-0.36261 0.24744,-0.55902 0,-0.1964 -0.0915,-0.40304 -0.24744,-0.55901 -0.15597,-0.15597 -0.36261,-0.24744 -0.55901,-0.24744 -0.19641,0 -0.40305,0.0915 -0.55902,0.24744 -0.15597,0.15597 -0.24744,0.36261 -0.24744,0.55901 0,0.19641 0.0915,0.40305 0.24744,0.55902 0.15597,0.15597 0.36261,0.24744 0.55902,0.24744 0.1964,0 0.40304,-0.0915 0.55901,-0.24744 z m -38.70969,-2.41935 c 0.50002,-0.50002 0.1457,-1.36547 -0.55902,-1.36547 -0.41443,0 -0.80645,0.39202 -0.80645,0.80645 0,0.41442 0.39202,0.80645 0.80645,0.80645 0.19641,0 0.40305,-0.0915 0.55902,-0.24743 z m 25.80646,-3.22581 c 0.15597,-0.15597 0.24744,-0.36261 0.24744,-0.55902 0,-0.19641 -0.0915,-0.40304 -0.24744,-0.55902 -0.15597,-0.15597 -0.36261,-0.24743 -0.55902,-0.24743 -0.1964,0 -0.40304,0.0915 -0.55901,0.24743 -0.15598,0.15598 -0.24744,0.36261 -0.24744,0.55902 0,0.19641 0.0915,0.40305 0.24744,0.55902 0.15597,0.15597 0.36261,0.24743 0.55901,0.24743 0.19641,0 0.40305,-0.0915 0.55902,-0.24743 z"
       id="path66"
       sodipodi:nodetypes="cscccssssscccsscsssssscssscsscssscssscccssscssssssssscssscsssssssss" /></g><g
     inkscape:groupmode="layer"
     id="layer12"
     inkscape:label="Layer 11"
     inkscape:export-filename="img\layer12.svg"
     inkscape:export-xdpi="96"
     inkscape:export-ydpi="96"
     transform="translate(-65.916627,-8.9214189)"><path
       style="fill:#aac030;fill-opacity:1"
       d="m 54.512364,264.37075 c -0.372861,-0.43417 -0.321295,-0.58296 0.490754,-1.41602 l 0.547361,-0.56152 H 34.247035 c -19.236559,0 -21.318333,-0.0149 -21.456904,-0.15346 -0.138571,-0.13857 -0.15346,-2.22035 -0.15346,-21.45691 V 219.4794 l -0.561523,0.54736 c -0.711472,0.69353 -0.928273,0.81004 -1.220703,0.65604 -0.626528,-0.32994 -0.517954,-0.57265 0.880264,-1.96776 0.915378,-0.91335 1.30982,-1.24371 1.484949,-1.24371 0.345281,0 2.639669,2.30057 2.639669,2.64678 0,0.30312 -0.173857,0.53527 -0.465883,0.62207 -0.182528,0.0542 -0.342277,-0.0505 -0.90332,-0.5921 l -0.681578,-0.65801 v 20.86563 20.86563 H 34.674177 55.539808 L 54.8818,260.53975 c -0.541641,-0.56104 -0.646352,-0.72079 -0.592098,-0.90332 0.0868,-0.29202 0.318942,-0.46588 0.622068,-0.46588 0.348455,0 2.646776,2.29455 2.646776,2.64244 0,0.17899 -0.321642,0.56217 -1.246475,1.48495 -1.275705,1.27287 -1.508646,1.41173 -1.799707,1.07281 z"
       id="path67" /><g
       id="g83"
       style="fill:#9cb5e2;fill-opacity:1;stroke:#9cb5e2;stroke-width:0.3;stroke-dasharray:none;stroke-opacity:1"
       transform="translate(-2.1136967,-31.177027)"><path
         style="fill:#9cb5e2;fill-opacity:1;stroke:#9cb5e2;stroke-width:0.3;stroke-dasharray:none;stroke-opacity:1"
         d="m 48.330523,260.57105 -0.230546,-0.18668 v -3.61166 c 0,-3.41457 0.01015,-3.62287 0.186034,-3.81722 0.182676,-0.20186 0.250598,-0.20557 3.762451,-0.20557 3.078883,0 3.60661,0.0212 3.793458,0.15203 l 0.217042,0.15202 v 3.69986 3.69986 l -0.217042,0.15202 c -0.186727,0.13079 -0.71035,0.15203 -3.748947,0.15203 -3.331988,0 -3.544955,-0.0106 -3.76245,-0.18669 z m 6.556564,-3.81722 v -2.83203 h -2.832031 -2.832032 v 2.83203 2.83203 h 2.832032 2.832031 z"
         id="path83" /><path
         style="fill:#9cb5e2;fill-opacity:1;stroke:#9cb5e2;stroke-width:0.3;stroke-dasharray:none;stroke-opacity:1"
         d="m 38.502566,260.60571 -0.217042,-0.15202 v -3.69026 c 0,-3.45105 0.01158,-3.70074 0.178588,-3.85189 0.159408,-0.14426 0.566827,-0.16162 3.793459,-0.16162 3.378005,0 3.62546,0.0117 3.77649,0.17859 0.144359,0.15952 0.16162,0.57089 0.16162,3.85189 v 3.67329 l -0.217042,0.15202 c -0.186697,0.13077 -0.709315,0.15203 -3.738037,0.15203 -3.028721,0 -3.551339,-0.0213 -3.738036,-0.15203 z m 6.595979,-3.87629 0.02591,-2.80762 h -2.833529 -2.833529 v 2.83353 2.83353 l 2.807618,-0.0259 2.807617,-0.0259 z"
         id="path82" /><path
         style="fill:#9cb5e2;fill-opacity:1;stroke:#9cb5e2;stroke-width:0.3;stroke-dasharray:none;stroke-opacity:1"
         d="m 28.639285,260.60571 -0.217042,-0.15202 v -3.69986 -3.69986 l 0.217042,-0.15202 c 0.186869,-0.13089 0.715339,-0.15203 3.801506,-0.15203 h 3.584464 l 0.205825,0.26167 c 0.201961,0.25675 0.205302,0.32805 0.177986,3.79845 -0.02613,3.31911 -0.03929,3.54944 -0.213872,3.74225 -0.182641,0.2017 -0.251265,0.20545 -3.762451,0.20545 -3.078883,0 -3.60661,-0.0212 -3.793458,-0.15203 z m 6.618896,-3.85188 v -2.83203 h -2.832032 -2.832031 v 2.83203 2.83203 h 2.832031 2.832032 z"
         id="path81" /><path
         style="fill:#9cb5e2;fill-opacity:1;stroke:#9cb5e2;stroke-width:0.3;stroke-dasharray:none;stroke-opacity:1"
         d="m 18.754274,260.56242 c -0.188274,-0.18827 -0.195312,-0.32552 -0.195312,-3.80859 0,-3.48307 0.007,-3.62032 0.195312,-3.80859 0.188238,-0.18824 0.325521,-0.19532 3.789929,-0.19532 2.949347,0 3.628645,0.0249 3.78418,0.13854 0.180812,0.13214 0.190847,0.3049 0.217363,3.74229 0.02729,3.53824 0.02406,3.60851 -0.177987,3.86537 l -0.205785,0.26162 H 22.55578 c -3.475985,0 -3.613245,-0.007 -3.801506,-0.19532 z m 6.640625,-3.80859 v -2.83203 h -2.832031 -2.832031 v 2.83203 2.83203 h 2.832031 2.832031 z"
         id="path80" /><path
         style="fill:#9cb5e2;fill-opacity:1;stroke:#9cb5e2;stroke-width:0.3;stroke-dasharray:none;stroke-opacity:1"
         d="m 48.234005,270.16656 c -0.108302,-0.1305 -0.134028,-0.85864 -0.134028,-3.79359 0,-2.93494 0.02573,-3.66309 0.134028,-3.79358 0.120347,-0.14501 0.510882,-0.1615 3.826033,-0.1615 3.226159,0 3.711367,0.0194 3.845464,0.15346 0.134032,0.13403 0.15346,0.61532 0.15346,3.80162 0,3.1863 -0.01943,3.66759 -0.15346,3.80162 -0.134097,0.1341 -0.619305,0.15346 -3.845464,0.15346 -3.315151,0 -3.705686,-0.0165 -3.826033,-0.16149 z m 6.653082,-3.74476 v -2.83203 h -2.832031 -2.832032 v 2.76692 c 0,1.52181 0.0293,2.79623 0.0651,2.83204 0.03581,0.0358 1.310221,0.0651 2.832031,0.0651 h 2.766927 z"
         id="path79" /><path
         style="fill:#9cb5e2;fill-opacity:1;stroke:#9cb5e2;stroke-width:0.3;stroke-dasharray:none;stroke-opacity:1"
         d="m 38.386617,270.13916 c -0.06446,-0.12045 -0.101093,-1.49803 -0.101093,-3.80162 0,-3.15409 0.01948,-3.63221 0.15346,-3.76619 0.134086,-0.13408 0.618617,-0.15346 3.837891,-0.15346 2.73546,0 3.714614,0.0302 3.801618,0.11719 0.168216,0.16822 0.168216,7.50757 0,7.67578 -0.08706,0.0871 -1.077795,0.11719 -3.853986,0.11719 -3.594516,0 -3.740647,-0.007 -3.83789,-0.18889 z m 6.711928,-3.74178 0.02591,-2.80761 h -2.833529 -2.833529 v 2.83353 2.83353 l 2.807618,-0.0259 2.807617,-0.0259 z"
         id="path78" /><path
         style="fill:#9cb5e2;fill-opacity:1;stroke:#9cb5e2;stroke-width:0.3;stroke-dasharray:none;stroke-opacity:1"
         d="m 28.575703,270.17459 c -0.134032,-0.13403 -0.15346,-0.61532 -0.15346,-3.80162 0,-3.1863 0.01943,-3.66759 0.15346,-3.80162 0.134097,-0.13409 0.619305,-0.15346 3.845464,-0.15346 3.315151,0 3.705685,0.0165 3.826033,0.1615 0.108302,0.13049 0.134027,0.85864 0.134027,3.79358 0,2.93495 -0.02573,3.66309 -0.134027,3.79359 -0.120348,0.145 -0.510882,0.16149 -3.826033,0.16149 -3.226159,0 -3.711367,-0.0194 -3.845464,-0.15346 z m 6.659561,-3.77721 0.02591,-2.80761 h -2.833529 -2.833529 v 2.83353 2.83353 l 2.807617,-0.0259 2.807617,-0.0259 z"
         id="path77" /><path
         style="fill:#9cb5e2;fill-opacity:1;stroke:#9cb5e2;stroke-width:0.3;stroke-dasharray:none;stroke-opacity:1"
         d="m 18.720582,270.14946 c -0.144262,-0.15941 -0.16162,-0.56683 -0.16162,-3.79346 0,-3.378 0.0117,-3.62546 0.178588,-3.77649 0.159515,-0.14436 0.570887,-0.16162 3.851884,-0.16162 h 3.673297 l 0.152021,0.21704 c 0.130768,0.1867 0.152022,0.70932 0.152022,3.73804 0,3.02872 -0.02125,3.55134 -0.152022,3.73804 l -0.152021,0.21704 h -3.690265 c -3.451045,0 -3.700741,-0.0116 -3.851884,-0.17859 z m 6.651401,-3.75208 0.02591,-2.80761 h -2.833529 -2.833529 v 2.83353 2.83353 l 2.807617,-0.0259 2.807617,-0.0259 z"
         id="path76" /><path
         style="fill:#9cb5e2;fill-opacity:1;stroke:#9cb5e2;stroke-width:0.3;stroke-dasharray:none;stroke-opacity:1"
         d="m 48.330523,279.90699 -0.230546,-0.18668 v -3.61166 c 0,-3.41457 0.01015,-3.62288 0.186034,-3.81722 0.182774,-0.20197 0.249677,-0.20557 3.817873,-0.20557 3.394443,0 3.642402,0.0117 3.793458,0.17859 0.144359,0.15951 0.16162,0.57089 0.16162,3.85188 v 3.6733 l -0.217042,0.15202 c -0.186727,0.13079 -0.71035,0.15202 -3.748947,0.15202 -3.331988,0 -3.544955,-0.0106 -3.76245,-0.18668 z m 6.556564,-3.81722 v -2.83203 h -2.832031 -2.832032 v 2.83203 2.83203 h 2.832032 2.832031 z"
         id="path75" /><path
         style="fill:#9cb5e2;fill-opacity:1;stroke:#9cb5e2;stroke-width:0.3;stroke-dasharray:none;stroke-opacity:1"
         d="m 38.502566,279.94165 -0.217042,-0.15202 v -3.69026 c 0,-3.45105 0.01158,-3.70075 0.178588,-3.85189 0.159408,-0.14426 0.566827,-0.16162 3.793459,-0.16162 3.378005,0 3.62546,0.0117 3.77649,0.17859 0.144359,0.15951 0.16162,0.57089 0.16162,3.85188 v 3.6733 l -0.217042,0.15202 c -0.186697,0.13077 -0.709315,0.15202 -3.738037,0.15202 -3.028721,0 -3.551339,-0.0212 -3.738036,-0.15202 z m 6.595979,-3.8763 0.02591,-2.80761 h -2.833529 -2.833529 v 2.83353 2.83352 l 2.807618,-0.0259 2.807617,-0.0259 z"
         id="path74" /><path
         style="fill:#9cb5e2;fill-opacity:1;stroke:#9cb5e2;stroke-width:0.3;stroke-dasharray:none;stroke-opacity:1"
         d="m 28.639285,279.94165 -0.217042,-0.15202 v -3.69026 c 0,-3.45105 0.01158,-3.70075 0.178588,-3.85189 0.159423,-0.14427 0.567386,-0.16162 3.801506,-0.16162 h 3.622918 l 0.205825,0.26167 c 0.202,0.2568 0.205307,0.32774 0.177986,3.8173 l -0.02784,3.55565 -0.230545,0.18659 c -0.217456,0.17601 -0.431063,0.1866 -3.76245,0.1866 -3.038597,0 -3.56222,-0.0212 -3.748947,-0.15202 z m 6.618896,-3.85188 v -2.83203 h -2.832032 -2.832031 v 2.83203 2.83203 h 2.832031 2.832032 z"
         id="path73" /><path
         style="fill:#9cb5e2;fill-opacity:1;stroke:#9cb5e2;stroke-width:0.3;stroke-dasharray:none;stroke-opacity:1"
         d="m 18.754274,279.89836 c -0.188357,-0.18836 -0.195312,-0.32552 -0.195312,-3.85188 v -3.65658 l 0.217041,-0.15202 c 0.310191,-0.21726 7.256566,-0.22967 7.55238,-0.0135 0.180812,0.13213 0.190847,0.3049 0.217363,3.74229 0.02729,3.53824 0.02406,3.60851 -0.177987,3.86537 l -0.205785,0.26161 H 22.55578 c -3.475985,0 -3.613245,-0.007 -3.801506,-0.19531 z m 6.640625,-3.80859 v -2.83203 h -2.832031 -2.832031 v 2.83203 2.83203 h 2.832031 2.832031 z"
         id="path72" /><path
         style="fill:#9cb5e2;fill-opacity:1;stroke:#9cb5e2;stroke-width:0.3;stroke-dasharray:none;stroke-opacity:1"
         d="m 48.234005,289.50249 c -0.108302,-0.13049 -0.134028,-0.85864 -0.134028,-3.79358 0,-2.93495 0.02573,-3.66309 0.134028,-3.79359 0.120347,-0.14501 0.510882,-0.16149 3.826033,-0.16149 3.226159,0 3.711367,0.0194 3.845464,0.15346 0.134032,0.13403 0.15346,0.61532 0.15346,3.80162 0,3.1863 -0.01943,3.66758 -0.15346,3.80162 -0.134097,0.13409 -0.619305,0.15346 -3.845464,0.15346 -3.315151,0 -3.705686,-0.0165 -3.826033,-0.1615 z m 6.653082,-3.84391 v -2.83353 l -2.807617,0.0259 -2.807618,0.0259 -0.02591,2.80761 -0.02591,2.80762 h 2.833529 2.833529 z"
         id="path71" /><path
         style="fill:#9cb5e2;fill-opacity:1;stroke:#9cb5e2;stroke-width:0.3;stroke-dasharray:none;stroke-opacity:1"
         d="m 38.438984,289.51053 c -0.134085,-0.13409 -0.15346,-0.61862 -0.15346,-3.83789 0,-2.73546 0.03018,-3.71462 0.117188,-3.80162 0.168216,-0.16822 7.507565,-0.16822 7.675781,0 0.08706,0.0871 0.117188,1.07779 0.117188,3.85398 0,3.59452 -0.0072,3.74065 -0.188893,3.83789 -0.120444,0.0645 -1.498027,0.1011 -3.801618,0.1011 -3.154088,0 -3.632208,-0.0195 -3.766186,-0.15346 z m 6.659561,-3.82604 -0.02591,-2.80761 -2.807617,-0.0259 -2.807618,-0.0259 v 2.83353 2.83353 h 2.833529 2.833529 z"
         id="path70" /><path
         style="fill:#9cb5e2;fill-opacity:1;stroke:#9cb5e2;stroke-width:0.3;stroke-dasharray:none;stroke-opacity:1"
         d="m 28.575703,289.51053 c -0.134032,-0.13404 -0.15346,-0.61532 -0.15346,-3.80162 0,-3.1863 0.01943,-3.66759 0.15346,-3.80162 0.134097,-0.1341 0.619305,-0.15346 3.845464,-0.15346 3.315151,0 3.705685,0.0165 3.826033,0.16149 0.108302,0.1305 0.134027,0.85864 0.134027,3.79359 0,2.93494 -0.02573,3.66309 -0.134027,3.79358 -0.120348,0.14501 -0.510882,0.1615 -3.826033,0.1615 -3.226159,0 -3.711367,-0.0194 -3.845464,-0.15346 z m 6.659561,-3.82604 -0.02591,-2.80761 -2.807617,-0.0259 -2.807617,-0.0259 v 2.83353 2.83353 h 2.833529 2.833529 z"
         id="path69" /><path
         style="fill:#9cb5e2;fill-opacity:1;stroke:#9cb5e2;stroke-width:0.3;stroke-dasharray:none;stroke-opacity:1"
         d="m 18.720582,289.4854 c -0.144262,-0.15941 -0.16162,-0.56683 -0.16162,-3.79346 0,-3.378 0.0117,-3.62546 0.178588,-3.77649 0.159515,-0.14436 0.570887,-0.16162 3.851884,-0.16162 h 3.673297 l 0.152021,0.21704 c 0.130768,0.1867 0.152022,0.70932 0.152022,3.73804 0,3.02872 -0.02125,3.55134 -0.152022,3.73803 l -0.152021,0.21705 h -3.690265 c -3.451045,0 -3.700741,-0.0116 -3.851884,-0.17859 z m 6.651401,-3.80091 -0.02591,-2.80761 -2.807617,-0.0259 -2.807617,-0.0259 v 2.83353 2.83353 h 2.833529 2.833529 z"
         id="path68" /></g></g></svg>
