<?xml version="1.0" encoding="UTF-8" standalone="no"?>
<!-- Created with Inkscape (http://www.inkscape.org/) -->

<svg
   width="32.268692mm"
   height="34.412975mm"
   viewBox="0 0 32.268692 34.412975"
   version="1.1"
   id="svg1"
   xml:space="preserve"
   inkscape:version="1.3 (0e150ed6c4, 2023-07-21)"
   sodipodi:docname="drawing.svg"
   xmlns:inkscape="http://www.inkscape.org/namespaces/inkscape"
   xmlns:sodipodi="http://sodipodi.sourceforge.net/DTD/sodipodi-0.dtd"
   xmlns="http://www.w3.org/2000/svg"
   xmlns:svg="http://www.w3.org/2000/svg"><sodipodi:namedview
     id="namedview1"
     pagecolor="#ffffff"
     bordercolor="#000000"
     borderopacity="0.25"
     inkscape:showpageshadow="2"
     inkscape:pageopacity="0.0"
     inkscape:pagecheckerboard="0"
     inkscape:deskcolor="#d1d1d1"
     inkscape:document-units="mm"
     inkscape:zoom="0.50070255"
     inkscape:cx="575.1918"
     inkscape:cy="642.09779"
     inkscape:window-width="1920"
     inkscape:window-height="1009"
     inkscape:window-x="-8"
     inkscape:window-y="-8"
     inkscape:window-maximized="1"
     inkscape:current-layer="layer6" /><defs
     id="defs1" /><g
     inkscape:groupmode="layer"
     id="layer6"
     inkscape:label="icons"
     transform="matrix(0.68849597,0,0,0.68849597,-65.080607,-48.335751)"><g
       inkscape:groupmode="layer"
       id="layer5"
       inkscape:label="Layer 4"
       transform="matrix(0.3690893,0,0,0.3690893,74.196197,21.506148)"
       inkscape:export-filename=".\nodes.svg"
       inkscape:export-xdpi="96"
       inkscape:export-ydpi="96"><path
         id="path1-2"
         style="fill:#9cb5e2;fill-opacity:1;stroke-width:0.264583"
         d="m 132.84304,155.2094 -34.772053,13.92387 a 28.192999,28.200058 0 0 1 6.289843,15.72155 l 34.74765,-13.8954 a 28.192999,28.200058 0 0 1 -6.26544,-15.75002 z m 14.92643,22.79838 -7.33103,40.26067 a 28.159231,28.166283 0 0 1 3.53028,-0.25217 28.159231,28.166283 0 0 1 13.14501,3.26185 l 7.3168,-40.20779 a 28.192999,28.200058 0 0 1 -3.54249,0.2542 28.192999,28.200058 0 0 1 -13.11857,-3.31676 z m -45.71878,20.30319 A 28.192999,28.200058 0 0 1 90.882308,211.0574 l 27.298682,23.88634 a 28.159231,28.166283 0 0 1 11.12974,-12.76473 z" /><g
         id="g9"
         style="fill:#aac030;fill-opacity:1"><ellipse
           style="fill:#aac030;fill-opacity:1;stroke:none;stroke-width:0.564928"
           id="path7"
           cx="160.88762"
           cy="153.12474"
           rx="21.17659"
           ry="21.181892" /><ellipse
           style="fill:#aac030;fill-opacity:1;stroke:none;stroke-width:0.564928"
           id="ellipse8"
           cx="76.25692"
           cy="186.9964"
           rx="21.17659"
           ry="21.181892" /><ellipse
           style="fill:#aac030;fill-opacity:1;stroke:none;stroke-width:0.564928"
           id="ellipse9"
           cx="143.96794"
           cy="246.183"
           rx="21.17659"
           ry="21.181892" /><g
           id="g4" /></g></g></g></svg>
