<svg width="178" height="189" viewBox="0 0 178 189" fill="none" xmlns="http://www.w3.org/2000/svg">
<path fill-rule="evenodd" clip-rule="evenodd" d="M58.2467 52.5778C63.3098 58.5709 66.5296 66.172 67.0316 74.5058L118.92 53.7563C113.854 47.7545 110.636 40.1419 110.143 31.7967L58.2467 52.5778ZM89.3798 144.854C92.5127 137.381 97.9925 131.136 104.897 127.041L64.166 91.3768C61.0161 98.8482 55.5182 105.087 48.5964 109.168L89.3798 144.854ZM118.774 122.178C120.487 121.938 122.237 121.815 124.015 121.815C130.543 121.815 136.681 123.481 142.028 126.411L152.889 66.7294C151.167 66.9715 149.407 67.0967 147.618 67.0967C141.103 67.0967 134.976 65.437 129.637 62.5176L118.774 122.178ZM151.669 0.275391C166.067 2.25038 177.159 14.6037 177.159 29.5483C177.159 31.8432 176.897 34.0769 176.402 36.2214C173.883 47.1378 165.317 55.7401 154.422 58.309L151.669 0.275391Z" fill="#9CB5E2"/>
<path d="M147.618 59.0968C163.933 59.0968 177.159 45.8675 177.159 29.5484C177.159 13.2293 163.933 0 147.618 0C131.303 0 118.077 13.2293 118.077 29.5484C118.077 45.8675 131.303 59.0968 147.618 59.0968Z" fill="#AAC030"/>
<path d="M29.5595 106.347C45.8746 106.347 59.1005 93.118 59.1005 76.7989C59.1005 60.4797 45.8746 47.2505 29.5595 47.2505C13.2445 47.2505 0.0185547 60.4797 0.0185547 76.7989C0.0185547 93.118 13.2445 106.347 29.5595 106.347Z" fill="#AAC030"/>
<path d="M124.015 188.911C140.33 188.911 153.556 175.682 153.556 159.363C153.556 143.044 140.33 129.815 124.015 129.815C107.7 129.815 94.4744 143.044 94.4744 159.363C94.4744 175.682 107.7 188.911 124.015 188.911Z" fill="#AAC030"/>
</svg>
