<?xml version="1.0" encoding="UTF-8" standalone="no"?>
<!-- Created with Inkscape (http://www.inkscape.org/) -->

<svg
   width="51.432358mm"
   height="50.58086mm"
   viewBox="0 0 51.432358 50.58086"
   version="1.1"
   id="svg1"
   xml:space="preserve"
   inkscape:version="1.3 (0e150ed6c4, 2023-07-21)"
   sodipodi:docname="drawing.svg"
   xmlns:inkscape="http://www.inkscape.org/namespaces/inkscape"
   xmlns:sodipodi="http://sodipodi.sourceforge.net/DTD/sodipodi-0.dtd"
   xmlns="http://www.w3.org/2000/svg"
   xmlns:svg="http://www.w3.org/2000/svg"><sodipodi:namedview
     id="namedview1"
     pagecolor="#ffffff"
     bordercolor="#000000"
     borderopacity="0.25"
     inkscape:showpageshadow="2"
     inkscape:pageopacity="0.0"
     inkscape:pagecheckerboard="0"
     inkscape:deskcolor="#d1d1d1"
     inkscape:document-units="mm"
     inkscape:zoom="5.7941077"
     inkscape:cx="491.36125"
     inkscape:cy="309.02083"
     inkscape:window-width="1920"
     inkscape:window-height="1009"
     inkscape:window-x="-8"
     inkscape:window-y="-8"
     inkscape:window-maximized="1"
     inkscape:current-layer="layer5" /><defs
     id="defs1" /><g
     inkscape:groupmode="layer"
     id="layer8"
     inkscape:label="Layer 7"
     transform="translate(-140.55263,-130.98411)"><path
       style="fill:#9cb5e2;fill-opacity:1;stroke:#9cb5e2;stroke-width:0.581;stroke-dasharray:none;stroke-opacity:1"
       d="m 154.04532,180.87179 -0.38325,-0.40288 -6.3872,-0.026 -6.3872,-0.026 v -3.17861 -3.17861 l 1.79112,-0.0275 1.79112,-0.0276 v -1.0436 c 0,-0.89528 0.0291,-1.08054 0.20445,-1.30351 0.11244,-0.14295 0.29408,-0.28836 0.40363,-0.32313 0.18081,-0.0574 0.19918,-0.15629 0.19918,-1.0723 0,-0.91297 -0.0168,-1.00428 -0.17659,-0.95867 -0.4208,0.12015 -2.74067,0.29007 -3.08312,0.22583 -1.37136,-0.25727 -1.61046,-2.4197 -0.33449,-3.02518 0.41479,-0.19684 0.94699,-0.20025 2.48421,-0.0159 1.08914,0.13059 1.17285,0.12794 1.36226,-0.043 0.36748,-0.33169 0.84115,-0.50849 1.36226,-0.50849 0.52112,0 0.99479,0.1768 1.36226,0.50849 0.18942,0.17096 0.27313,0.17361 1.36226,0.043 1.53723,-0.18432 2.06943,-0.18091 2.48422,0.0159 0.63969,0.30355 0.96135,1.05518 0.80599,1.88335 -0.0859,0.45813 -0.69181,1.05765 -1.15704,1.14493 -0.33005,0.0619 -2.65609,-0.11173 -3.06657,-0.22893 -0.15976,-0.0456 -0.17659,0.0457 -0.17659,0.95867 0,0.91601 0.0184,1.01491 0.19919,1.0723 0.10955,0.0348 0.29118,0.18018 0.40363,0.32313 0.17546,0.22306 0.20445,0.40822 0.20445,1.30584 v 1.04593 h 2.17357 2.17357 l 0.38396,-0.40363 0.38397,-0.40364 h 0.93942 0.93942 l 0.38397,0.40364 0.38397,0.40363 h 2.17357 2.17356 v -2.37539 -2.37538 l -0.40363,-0.38397 -0.40363,-0.38396 v -0.93943 -0.93942 l 0.40363,-0.38397 0.40363,-0.38396 v -3.98683 -3.98683 l -5.92835,-0.0283 c -5.81953,-0.0278 -5.94043,-0.0324 -6.5858,-0.2521 -1.85764,-0.63227 -3.38255,-2.12724 -4.12133,-4.04042 -0.26083,-0.67545 -0.26294,-0.70383 -0.29621,-3.99507 l -0.0335,-3.31479 -0.39732,-0.37796 -0.39732,-0.37797 v -0.93942 -0.93942 l 0.40363,-0.38397 0.40364,-0.38396 -0.002,-2.40062 c -8.4e-4,-1.33195 -0.044,-2.46799 -0.097,-2.55197 -0.0764,-0.12123 -0.43275,-0.16141 -1.78958,-0.20182 l -1.69412,-0.0505 v -3.1786 -3.17861 h 2.47225 c 2.31693,0 2.51438,0.0146 3.14296,0.2318 1.86858,0.6458 3.36904,2.11864 4.10806,4.03242 0.26083,0.67545 0.26293,0.70383 0.2962,3.99507 l 0.0335,3.31479 0.39733,0.37796 0.39732,0.37796 v 0.93943 0.93942 l -0.40363,0.38396 -0.40364,0.38397 v 2.41863 c 0,2.06421 0.0232,2.44186 0.15857,2.5772 0.13996,0.13996 0.75572,0.15857 5.24723,0.15857 h 5.08866 v -3.18265 -3.18265 l -0.40364,-0.38397 -0.40363,-0.38396 v -0.93942 -0.93942 l 0.40271,-0.3831 0.40272,-0.38309 0.0262,-5.17646 0.0261,-5.17646 h 3.17861 3.1786 l 0.0262,5.17646 0.0261,5.17646 0.40272,0.38309 0.40271,0.3831 v 0.93942 0.93942 l -0.40363,0.38396 -0.40363,0.38397 v 10.40163 10.40163 l 0.40363,0.38396 0.40363,0.38397 v 0.93942 0.93942 l -0.40363,0.38397 -0.40363,0.38397 v 2.37538 2.37539 h 1.97177 1.97175 l 0.38397,-0.40363 0.38396,-0.40364 h 0.93942 0.93943 l 0.38396,0.40364 0.38397,0.40363 h 1.16449 1.16448 v -1.60808 -1.60807 l -0.3784,-0.2151 c -0.79276,-0.45064 -0.78204,-0.40087 -0.78204,-3.63233 0,-3.23145 -0.0107,-3.18168 0.78204,-3.63232 l 0.3784,-0.2151 -1.4e-4,-1.58285 0.0134,-1.65927 c 0.96391,0.39255 3.23655,0.006 4.83061,0.0764 l -1.4e-4,1.58726 -1.4e-4,1.58725 0.38822,0.19805 c 0.45004,0.2296 0.71387,0.5874 0.79309,1.07555 l 0.056,0.34503 h 1.06183 1.06184 l 0.37263,0.40364 0.37263,0.40363 h 0.93048 c 0.8381,0 0.92547,-0.0175 0.88005,-0.17659 -0.12015,-0.42081 -0.29007,-2.74067 -0.22582,-3.08312 0.25727,-1.37137 2.41969,-1.61046 3.02518,-0.3345 0.19683,0.4148 0.20024,0.947 0.0159,2.48422 -0.1306,1.08914 -0.12795,1.17284 0.043,1.36226 0.33168,0.36748 0.50849,0.84115 0.50849,1.36226 0,0.52111 -0.17681,0.99478 -0.50849,1.36226 -0.17097,0.18942 -0.17361,0.27312 -0.043,1.36226 0.18431,1.53722 0.1809,2.06942 -0.0159,2.48421 -0.30381,0.64024 -1.05517,0.96136 -1.88508,0.80567 -0.47233,-0.0886 -1.05168,-0.66881 -1.14048,-1.14215 -0.064,-0.34096 0.1064,-2.66156 0.2262,-3.08113 0.0456,-0.15977 -0.0457,-0.17659 -0.95866,-0.17659 -0.91603,0 -1.01491,0.0184 -1.07231,0.1992 -0.0348,0.10955 -0.19242,0.29119 -0.35032,0.40363 -0.24246,0.17264 -0.44453,0.20443 -1.29939,0.20443 h -1.01227 l -0.22017,0.39174 c -0.12109,0.21546 -0.39645,0.49082 -0.61191,0.61191 l -0.39173,0.22017 v 1.60706 1.60705 l 4.61655,0.0262 4.61655,0.0262 v 3.17861 3.17861 l -8.2034,0.0258 -8.2034,0.0258 -0.3834,0.40303 -0.3834,0.40304 h -0.93943 -0.93942 l -0.38396,-0.40363 -0.38397,-0.40363 h -7.37438 -7.37439 l -0.38396,0.40363 -0.38397,0.40363 h -0.93942 -0.93942 z m 1.97137,-0.56295 c 0.13683,-0.13683 0.15857,-0.55784 0.15857,-3.0705 0,-3.3242 0.0238,-3.22906 -0.80727,-3.22906 -0.83105,0 -0.80726,-0.0951 -0.80726,3.22906 0,3.3242 -0.0238,3.22906 0.80726,3.22906 0.31103,0 0.54807,-0.0579 0.6487,-0.15856 z m 18.16347,0 c 0.13683,-0.13683 0.15857,-0.55784 0.15857,-3.0705 0,-3.3242 0.0238,-3.22906 -0.80726,-3.22906 -0.83105,0 -0.80727,-0.0951 -0.80727,3.22906 0,3.3242 -0.0238,3.22906 0.80727,3.22906 0.31102,0 0.54807,-0.0579 0.64869,-0.15856 z m -20.4267,-3.0705 v -2.42179 h -6.05449 -6.05449 v 2.42179 2.4218 h 6.05449 6.05449 z m 18.16348,0 v -2.42179 h -7.46721 -7.46721 v 2.42179 2.4218 h 7.46721 7.46721 z m 18.97074,0 v -2.42179 h -7.87084 -7.87084 v 2.42179 2.4218 h 7.87084 7.87084 z m -42.38145,-4.07957 c 0,-1.17268 0.007,-1.16766 -1.61453,-1.16766 -1.62147,0 -1.61453,-0.005 -1.61453,1.16766 v 0.85051 h 1.61453 1.61453 z m 18.56711,-1.57129 v -2.42179 h -2.42179 -2.4218 v 2.42179 2.4218 h 2.4218 2.42179 z m 14.53079,0.80727 v -1.61453 h -1.61454 -1.61453 v 1.61453 1.61453 h 1.61453 1.61454 z m 8.56248,-0.23525 c 0.25798,-0.20699 0.28835,-0.52362 0.1565,-1.63156 -0.0727,-0.61049 -0.13428,-1.16674 -0.13695,-1.23612 -0.003,-0.0834 -0.1756,-0.12613 -0.50938,-0.12613 -0.33378,0 -0.50618,0.0427 -0.50938,0.12613 -0.003,0.0694 -0.0654,0.62563 -0.13935,1.23612 -0.14947,1.23346 -0.0934,1.51449 0.34601,1.73551 0.25782,0.12967 0.54896,0.0915 0.79255,-0.10395 z m -42.46764,-1.60633 v -0.63067 h -0.80727 -0.80726 v 0.63067 0.63068 h 0.80726 0.80727 z m 34.83596,-0.86052 c 0.22663,-0.22684 0.22964,-0.2628 0.22964,-2.74694 0,-2.48488 -0.003,-2.52005 -0.22985,-2.74695 -0.22583,-0.22583 -0.27027,-0.22985 -2.54513,-0.22985 -2.27424,0 -2.31935,0.004 -2.54513,0.22966 -0.22462,0.22444 -0.23044,0.284 -0.25632,2.62361 -0.0198,1.79341 0.006,2.45675 0.1029,2.64424 0.24511,0.47418 0.4629,0.51144 2.8221,0.48274 2.12934,-0.0259 2.19874,-0.0333 2.42179,-0.25651 z m -34.93687,-0.82401 c 0.5082,-0.35518 0.57987,-1.24763 0.13929,-1.73446 -0.25948,-0.28672 -0.79923,-0.40078 -1.22357,-0.25855 -1.01521,0.34027 -1.02628,1.80903 -0.0163,2.1558 0.39879,0.13691 0.74499,0.0857 1.10054,-0.16279 z m -3.78406,-0.30642 c 0.4995,-0.0563 0.94223,-0.10245 0.98386,-0.10261 0.13667,-3.8e-4 0.0865,-1.00895 -0.0504,-1.0142 -0.0694,-0.003 -0.62563,-0.0654 -1.23613,-0.13936 -1.24965,-0.15143 -1.52215,-0.0933 -1.74525,0.37216 -0.24816,0.51776 0.27496,1.12827 0.88149,1.02873 0.14207,-0.0233 0.66699,-0.0884 1.16649,-0.14472 z m 8.06425,-0.10783 c 0.22552,-0.21649 0.2541,-0.71845 0.0546,-0.95883 -0.24154,-0.29104 -0.52192,-0.32263 -1.66072,-0.1871 -0.6105,0.0727 -1.16675,0.13428 -1.23613,0.13695 -0.0832,0.003 -0.12613,0.17415 -0.12613,0.50212 v 0.49728 l 0.52976,0.0636 c 0.29138,0.035 0.82493,0.10008 1.18568,0.14463 0.75912,0.0938 0.98575,0.0578 1.25294,-0.19867 z m 33.60363,0.14909 c 0.12771,-0.12771 0.15857,-0.41106 0.15857,-1.45596 0,-1.62147 0.005,-1.61453 -1.16765,-1.61453 h -0.85051 v 1.61453 1.61453 h 0.85051 c 0.63865,0 0.89001,-0.0395 1.00908,-0.15857 z m -17.75984,-0.40363 c 0.10063,-0.10062 0.15857,-0.33767 0.15857,-0.64869 0,-0.83105 0.0951,-0.80727 -3.22906,-0.80727 -3.3242,0 -3.22907,-0.0238 -3.22907,0.80727 0,0.83105 -0.0951,0.80726 3.22907,0.80726 2.51266,0 2.93366,-0.0217 3.07049,-0.15857 z m 22.6611,-0.13848 c 0.50819,-0.35518 0.57986,-1.24762 0.13929,-1.73445 -0.25948,-0.28673 -0.79924,-0.40078 -1.22357,-0.25856 -1.01521,0.34027 -1.02628,1.80903 -0.0163,2.1558 0.39879,0.13692 0.74498,0.0857 1.10053,-0.16279 z m -2.67407,-0.91385 v -0.80726 h -0.63067 -0.63068 v 0.80726 0.80727 h 0.63068 0.63067 z m -20.63573,-11.70535 v -10.49445 h -2.42179 -2.4218 v 10.49445 10.49445 h 2.4218 2.42179 z m 23.11282,9.56105 c 0.003,-0.0694 0.0654,-0.62563 0.13935,-1.23612 0.15144,-1.24966 0.0933,-1.52216 -0.37215,-1.74526 -0.22841,-0.10947 -0.32474,-0.10947 -0.55316,0 -0.46548,0.2231 -0.52358,0.4956 -0.37215,1.74526 0.074,0.61049 0.13669,1.16675 0.13935,1.23612 0.003,0.0834 0.1756,0.12614 0.50938,0.12614 0.33378,0 0.50618,-0.0427 0.50938,-0.12614 z m -8.58201,-3.32997 2e-5,-1.43794 h -1.61451 -1.61451 l -4e-5,1.43794 -5e-5,1.43794 h 1.61453 1.61454 z m -20.1817,-7.03835 v -2.42179 h -5.30777 -5.30777 l -0.34309,-0.34309 -0.34309,-0.34309 v -2.68416 -2.68416 h -2.43247 -2.43247 l 0.0452,3.10293 c 0.0413,2.83114 0.0642,3.16038 0.2619,3.75883 0.70616,2.13784 2.4802,3.65119 4.60826,3.9311 0.333,0.0438 3.00076,0.0854 5.92836,0.0924 l 5.3229,0.0128 z m -10.65302,-9.44212 c 0.21371,-0.21371 0.21371,-1.08368 0,-1.29739 -0.13683,-0.13683 -0.55783,-0.15857 -3.07049,-0.15857 -3.3242,0 -3.22906,-0.0238 -3.22906,0.80726 0,0.83105 -0.0951,0.80727 3.22906,0.80727 2.51266,0 2.93366,-0.0217 3.07049,-0.15857 z m 16.95258,-1.2109 c 0.10062,-0.10062 0.15857,-0.33767 0.15857,-0.64869 0,-0.83105 0.0951,-0.80727 -3.22906,-0.80727 -3.32421,0 -3.22907,-0.0238 -3.22907,0.80727 0,0.83105 -0.0951,0.80726 3.22907,0.80726 2.51265,0 2.93366,-0.0217 3.07049,-0.15857 z m -17.62516,-4.15525 c -0.0411,-2.8153 -0.0651,-3.16373 -0.25928,-3.75884 -0.59324,-1.81789 -1.94877,-3.17093 -3.75316,-3.74626 -0.52979,-0.16892 -1.0197,-0.21963 -2.54793,-0.26374 l -1.89203,-0.0546 v 2.43594 2.43594 h 1.47326 1.47326 l 0.34308,0.34309 0.34309,0.34309 v 2.68416 2.68416 h 2.43247 2.43248 z m 16.97646,-2.95157 v -4.84359 h -2.42179 -2.4218 v 4.84359 4.8436 h 2.4218 2.42179 z"
       id="path19"
       sodipodi:nodetypes="ccccccccsssssssssssssssssssscccccccccccccccccccccscsscccccccccccccscsscccccccssscccccccccccccccccccccccccccccccccccccccccccsssccccccsscccccssssssssssssssssscssccccccccccccccccccccccsssssssssssscccccccccccccccccccccccccccssscccsccccccccccccccccccsscsccsscccccccccssssssssssssssscccsssccssscscscssssscccssssssssssssssccccccccccccccccccccssscsccccccccccccccccccccccsccccsssscssssssccssccccccccccccccccccccc" /><path
       style="fill:#aac030;fill-opacity:1;stroke-width:0.381385"
       d="m 177.56709,159.93253 -0.58008,-0.23624 c -1.91075,-0.77816 -3.59966,-2.61375 -4.33203,-4.70826 -0.26196,-0.74918 -0.28234,-0.91981 -0.28332,-2.37134 -0.001,-1.49885 0.0121,-1.60095 0.31526,-2.44816 0.4544,-1.26999 0.87482,-1.92158 1.90366,-2.95043 1.02884,-1.02884 1.68043,-1.44925 2.95043,-1.90366 0.84646,-0.30286 0.95065,-0.31632 2.44816,-0.31632 1.49751,0 1.6017,0.0135 2.44816,0.31632 1.27,0.45441 1.92159,0.87482 2.95043,1.90366 1.02884,1.02885 1.44926,1.68044 1.90366,2.95043 0.30313,0.84721 0.31628,0.94931 0.31526,2.44816 -9.9e-4,1.45153 -0.0214,1.62216 -0.28332,2.37134 -0.73237,2.09451 -2.42128,3.9301 -4.33203,4.70826 l -0.58008,0.23624 z m 4.03708,0.30278 h -1.61451 -1.61451 z m 0.0504,-1.01653 c 1.77543,-0.42039 3.54096,-1.82551 4.36494,-3.47388 0.55961,-1.1195 0.75867,-1.94028 0.75867,-3.12816 0,-1.84685 -0.65571,-3.44996 -1.94379,-4.75228 -2.24881,-2.27368 -5.58717,-2.70863 -8.35051,-1.088 -0.74544,0.43718 -1.8974,1.58914 -2.33458,2.33457 -1.28104,2.18431 -1.28104,4.82711 0,7.01142 0.43718,0.74543 1.58914,1.8974 2.33458,2.33457 1.58936,0.93213 3.35355,1.19203 5.17069,0.76176 z m -3.17861,-0.70594 c -2.12277,-0.55503 -3.84903,-2.29714 -4.38863,-4.4289 -0.1951,-0.77077 -0.1951,-2.16363 0,-2.93439 0.54523,-2.15404 2.28102,-3.88983 4.43506,-4.43507 0.77076,-0.19509 2.16362,-0.19509 2.93439,0 2.15403,0.54524 3.88982,2.28103 4.43506,4.43507 0.1951,0.77076 0.1951,2.16362 0,2.93439 -0.54245,2.143 -2.29205,3.89261 -4.43506,4.43506 -0.74849,0.18946 -2.24448,0.18636 -2.98082,-0.006 z m 1.1308,-1.48136 0.0296,-0.73159 h 0.35318 0.35317 l 0.0297,0.73159 c 0.0342,0.844 0.0592,0.85774 1.0368,0.57059 0.91198,-0.26787 1.67561,-0.73673 2.31751,-1.42292 0.65039,-0.69527 0.99061,-1.28008 1.24657,-2.14278 0.28971,-0.97643 0.27535,-1.00259 -0.56897,-1.0368 l -0.73158,-0.0296 v -0.35318 -0.35318 l 0.73158,-0.0296 c 0.84432,-0.0342 0.85868,-0.0604 0.56897,-1.0368 -0.51306,-1.72922 -1.84358,-3.06035 -3.56408,-3.56571 -0.97761,-0.28715 -1.00259,-0.27341 -1.0368,0.5706 l -0.0297,0.73158 h -0.35317 -0.35318 l -0.0296,-0.73158 c -0.0342,-0.84432 -0.0604,-0.85868 -1.0368,-0.56897 -0.91006,0.27001 -1.52174,0.6388 -2.22351,1.34057 -0.70177,0.70177 -1.07056,1.31345 -1.34057,2.22351 -0.28971,0.97642 -0.27535,1.00258 0.56897,1.0368 l 0.73158,0.0296 v 0.35318 0.35318 l -0.73158,0.0296 c -0.68507,0.0278 -0.73159,0.0442 -0.73159,0.25918 0,0.34129 0.29058,1.25727 0.58042,1.82962 0.31595,0.62391 1.43505,1.75841 2.0432,2.07133 0.57442,0.29556 1.48178,0.59087 1.83715,0.59793 0.26957,0.005 0.27346,-0.004 0.30273,-0.72615 z m 1.52083,-2.61963 c -0.62422,-0.63096 -0.63085,-0.63446 -1.13555,-0.59968 -0.46848,0.0323 -0.53547,0.007 -0.86812,-0.32547 -0.32981,-0.32981 -0.35816,-0.40383 -0.3334,-0.87037 0.0267,-0.50289 0.0183,-0.51869 -0.60592,-1.14857 -0.5277,-0.53243 -0.62745,-0.68721 -0.59967,-0.93051 0.0271,-0.23725 0.0879,-0.29808 0.32516,-0.32517 0.2433,-0.0278 0.39808,0.072 0.93051,0.59968 0.62988,0.62427 0.64568,0.63261 1.14857,0.60592 0.46603,-0.0247 0.54074,0.004 0.86822,0.33125 0.32748,0.32748 0.35599,0.40219 0.33125,0.86822 -0.0267,0.50289 -0.0183,0.51869 0.60593,1.14857 0.5277,0.53243 0.62744,0.68721 0.59967,0.93051 -0.0276,0.24149 -0.0856,0.29689 -0.33604,0.32107 -0.25501,0.0246 -0.40169,-0.0708 -0.93061,-0.60545 z m -0.89294,-1.55004 c 0.0872,-0.0872 0.15857,-0.1975 0.15857,-0.24507 0,-0.1121 -0.29154,-0.40363 -0.40364,-0.40363 -0.1121,0 -0.40363,0.29153 -0.40363,0.40363 0,0.1121 0.29153,0.40363 0.40363,0.40363 0.0476,0 0.15785,-0.0714 0.24507,-0.15856 z"
       id="path20"
       sodipodi:nodetypes="cssssssscssscsccccccssssssssscssssssscccccccsssscccsssccccsssscccccsssccsscsssssscsssssssssss" /></g></svg>
