<svg width="60" height="60" viewBox="0 0 60 60" fill="none" xmlns="http://www.w3.org/2000/svg">
<g clip-path="url(#clip0_12_3482)">
<path d="M26.6735 5.1507C26.6735 5.1507 28.2859 8.12094 28.054 12.4935C27.8474 16.387 23.7974 23.3929 23.7974 23.3929C23.7974 23.3929 20.4612 28.7853 21.3815 32.5714C22.3018 36.3576 23.6004 38.7903 27.0186 41.9794C29.0977 43.9191 34.4963 46.0523 34.4963 46.0523C34.4963 46.0523 30.1822 47.1996 25.2929 45.9376C19.9378 44.5553 16.0835 41.0095 14.0188 35.956C12.4484 32.1123 12.2864 28.1264 14.4214 23.3356C15.5719 20.7541 20.9719 14.3951 24.0275 9.62521C24.9357 8.20745 26.6735 5.1507 26.6735 5.1507Z" fill="url(#paint0_linear_12_3482)" stroke="#E8E8E8" stroke-width="0.0284329"/>
<path d="M26.6734 5.1507C26.6734 5.1507 24.9357 8.20745 24.0275 9.62521C20.9719 14.3951 15.5719 20.7541 14.4214 23.3356C12.2864 28.1265 12.4484 32.1123 14.0188 35.956C15.8315 40.3928 19.0239 43.6672 23.4002 45.3358C21.7186 43.5933 19.6988 41.9567 18.678 39.7421C17.4365 37.0486 16.526 35.3413 17.24 30.9652C17.7757 27.6813 19.6463 24.8787 21.6116 22.3604C24.1786 19.0709 26.1249 15.738 26.961 11.9198C27.4442 9.71345 26.6734 5.1507 26.6734 5.1507Z" fill="url(#paint1_linear_12_3482)"/>
<path d="M32.1381 1.53662C33.0009 4.1395 35.5404 9.30943 39.6158 14.616C42.3788 18.2136 46.9005 23.5716 46.8923 29.0147C46.884 34.4578 45.4519 39.5968 39.3857 43.7577C36.814 45.5217 34.4964 46.0523 34.4964 46.0523C34.4964 46.0523 30.6211 44.9801 27.2775 42.2662C21.8221 37.8382 21.6404 33.2885 21.6404 33.2885C21.6404 33.2885 22.7551 39.2458 29.4346 40.7173C31.896 41.2595 35.8348 40.1033 37.7176 38.0211C43.2181 31.938 39.8099 25.4174 37.4875 21.7293C36.2033 19.6898 31.908 15.3044 31.908 15.3044C31.908 15.3044 28.7767 17.7932 26.501 20.4673C24.7541 22.5199 22.7621 25.3433 22.7621 25.3433C24.9911 21.2497 27.7706 16.7772 28.1116 10.9446C28.1116 10.9446 29.9182 7.37517 30.7 5.49484C31.2296 4.2211 32.1381 1.53662 32.1381 1.53662Z" fill="url(#paint2_linear_12_3482)"/>
<path d="M45.081 22.7437C45.5274 25.1808 45.9474 28.03 45.3422 30.5693C44.5705 33.8071 42.9893 37.0679 40.5427 39.3311C38.7098 41.0265 36.1395 41.8283 33.7095 42.4139C32.1308 42.7943 29.2945 42.7897 27.9169 42.7613C28.4254 43.1372 28.9394 43.4768 29.4444 43.7825L34.4963 46.0522C34.4963 46.0522 36.8138 45.5216 39.3856 43.7576C45.4517 39.5967 46.8826 33.6904 46.8921 29.0146C46.8956 27.3188 46.1775 25.0351 45.081 22.7437Z" fill="url(#paint3_linear_12_3482)"/>
<path d="M58.4489 52.9081C57.9102 52.3937 57.1083 52.1021 56.4077 52.1021C54.6905 52.1021 53.6456 53.4143 53.6456 55.0667C53.6456 56.3829 54.4111 57.7478 56.4077 57.7478C57.0395 57.7478 57.5903 57.6101 58.2221 57.1079V55.6823H56.1687V54.3296H59.6112V57.7154C58.8174 58.6185 57.8171 59.1571 56.4077 59.1571C53.3905 59.1571 52.1633 57.1767 52.1633 55.0667C52.1633 52.8068 53.5768 50.717 56.4077 50.717C57.485 50.717 58.5623 51.1301 59.3925 51.9442L58.4489 52.9081ZM49.5835 50.9357H51.0982V58.9749H50.1586V58.9869L45.9345 53.56V58.9749H44.4239V50.9479H45.651L49.5835 55.9253V50.9357ZM39.1144 50.9478V57.5735H43.2413V58.9749H37.5997V50.9479L39.1144 50.9478ZM30.6379 50.9598V55.593L32.5414 53.321H34.214V53.4019L31.9095 55.9817L34.538 58.8694V58.9749H32.8491L30.6379 56.4194V58.9749H29.2366V50.96L30.6379 50.9598ZM23.352 56.1438C23.352 57.2211 24.0972 57.865 25.0287 57.865C27.2319 57.865 27.2319 54.4307 25.0287 54.4307C24.0972 54.4307 23.352 55.0624 23.352 56.1438ZM26.7499 53.321H28.0904V58.9747H26.7702L26.7055 58.1485C26.3815 58.8127 25.4986 59.1367 24.8669 59.1488C23.1902 59.1571 21.9549 58.1242 21.9549 56.1438C21.9549 54.1917 23.2509 53.1711 24.8992 53.1832C25.6606 53.1832 26.3815 53.5396 26.7055 54.1026L26.7499 53.321ZM16.3092 56.1438C16.3092 57.1279 17.022 57.8043 17.917 57.8043C18.7999 57.8043 19.5572 57.1644 19.5572 56.1438C19.5572 55.1556 18.7999 54.4914 17.917 54.4914C17.022 54.4914 16.3092 55.1191 16.3092 56.1438ZM21.0476 50.9601V58.9749H19.7395L19.6504 58.1973C19.213 58.8736 18.5124 59.1004 17.8239 59.1004C16.1594 59.1004 14.912 57.9989 14.912 56.144C14.912 54.1919 16.1391 53.1835 17.7915 53.1835C18.3869 53.1835 19.3143 53.5034 19.6504 54.0906V50.96L21.0476 50.9601ZM9.2582 56.144C9.2582 57.2213 10.0034 57.8652 10.9308 57.8652C13.134 57.8652 13.134 54.4309 10.9308 54.4309C10.0034 54.4309 9.2582 55.0626 9.2582 56.144ZM12.652 53.3212H13.9926V58.9749H12.6763L12.6076 58.1487C12.2836 58.8129 11.4007 59.1369 10.7689 59.149C9.0963 59.1573 7.85701 58.1244 7.85701 56.144C7.85701 54.1919 9.15299 53.1713 10.8054 53.1835C11.5627 53.1835 12.2836 53.5398 12.6076 54.1028L12.652 53.3212ZM1.88324 57.5655H4.19981C4.81946 57.5655 5.70234 57.359 5.70234 56.6016C5.70234 55.8767 4.81946 55.5 4.19981 55.5H1.88324V57.5655ZM1.88324 54.1717H4.19981C5.15156 54.1717 5.45935 53.7667 5.45935 53.309C5.45935 52.9405 5.16369 52.3249 4.19981 52.3249H1.88324V54.1717ZM6.96593 53.2766C6.96593 53.8963 6.66622 54.4916 5.91697 54.8237C6.86063 55.1113 7.20486 56.1075 7.20486 56.6138C7.20486 58.4039 5.86028 58.9749 4.19981 58.9749H0.388794V50.9479H4.19981C5.78334 50.9479 6.96593 51.6566 6.96593 53.2766Z" fill="#E8E8E8"/>
</g>
<defs>
<linearGradient id="paint0_linear_12_3482" x1="25.1779" y1="17.4843" x2="19.112" y2="44.5105" gradientUnits="userSpaceOnUse">
<stop stop-color="#3E6D8D"/>
<stop offset="0.487962" stop-color="#6F98A9"/>
<stop offset="1" stop-color="#336587"/>
</linearGradient>
<linearGradient id="paint1_linear_12_3482" x1="20.6337" y1="18.4021" x2="18.1736" y2="44.39" gradientUnits="userSpaceOnUse">
<stop stop-color="#38698A"/>
<stop offset="1" stop-color="#8BB5B9"/>
</linearGradient>
<linearGradient id="paint2_linear_12_3482" x1="40.7869" y1="36.8973" x2="38.4405" y2="6.96036" gradientUnits="userSpaceOnUse">
<stop stop-color="#E41923"/>
<stop offset="1" stop-color="#B11A29"/>
</linearGradient>
<linearGradient id="paint3_linear_12_3482" x1="46.3997" y1="30.0014" x2="34.538" y2="46.083" gradientUnits="userSpaceOnUse">
<stop stop-color="#A61B2A"/>
<stop offset="1" stop-color="#E21923"/>
</linearGradient>
<clipPath id="clip0_12_3482">
<rect width="60" height="58.9066" fill="white" transform="translate(0 0.639404)"/>
</clipPath>
</defs>
</svg>
