<svg width="60" height="28" viewBox="0 0 60 28" fill="none" xmlns="http://www.w3.org/2000/svg">
<g clip-path="url(#clip0_12_3488)">
<path d="M51.7524 0.645682C49.2444 0.915779 48.4438 1.01224 47.1222 1.22446C46.2733 1.35951 45.5209 1.51385 45.4438 1.55243C45.3666 1.59102 46.6688 1.6489 48.3376 1.67784C52.1672 1.73571 53.2573 1.90935 54.955 2.71964C56.0065 3.22125 56.8939 4.04118 57.3184 4.90935C57.5981 5.47848 57.6367 5.65211 57.6656 6.51063C57.6849 7.2534 57.6463 7.65854 57.5113 8.20838C57.4052 8.60388 57.3376 8.95115 57.3569 8.98009C57.463 9.0862 58.8232 7.19552 59.2573 6.32735C59.8071 5.23732 59.9518 4.69713 59.9518 3.72285C59.9518 2.67141 59.7492 2.21803 59.074 1.70678C58.0804 0.944718 56.8457 0.684268 54.164 0.636036C53.0547 0.62639 51.9647 0.62639 51.7524 0.645682Z" fill="white"/>
<path d="M43.5531 2.68103C41.0836 2.87395 37.283 3.48167 36.7717 3.76141C36.7042 3.8 37.8618 3.80964 39.3376 3.79035C42.1544 3.74212 43.4566 3.82894 45.3473 4.16656C49.3794 4.89003 52.2155 6.59742 52.9775 8.76784C53.6431 10.6585 52.6495 12.9447 50.2862 14.9704C49.8328 15.3563 49.5145 15.6939 49.5724 15.7132C49.6303 15.7325 50.1608 15.4045 50.7589 14.9897C55.1383 11.9608 56.9711 9.41414 56.3923 7.14726C55.9775 5.50739 54.7139 4.34019 52.5338 3.58778C51.4534 3.21157 49.6688 2.84501 48.2315 2.71961C47.2187 2.62315 44.5081 2.60386 43.5531 2.68103Z" fill="white"/>
<path d="M19.6495 14.6329C17.0546 18.0573 14.9131 20.9222 14.8842 20.9994C14.8456 21.1152 15.0964 21.1345 16.418 21.1345H18.0096L19.1093 19.6875L20.209 18.2406L23.6045 18.2213L27 18.1923L26.0739 16.9576L25.1575 15.7325H23.672C22.8521 15.7325 22.1865 15.7132 22.1865 15.6843C22.1865 15.6554 22.6881 14.9608 23.3054 14.1409L24.434 12.6554L27.627 16.8901L30.8199 21.1248H32.4405C33.3279 21.1345 34.0514 21.1152 34.0514 21.0862C34.0514 20.9898 24.4919 8.40134 24.4244 8.40134C24.3858 8.41099 22.2347 11.2084 19.6495 14.6329Z" fill="white"/>
<path d="M0 10.7647V12.4528H1.30225H2.6045V12.0669V11.6811H5.62379C8.40193 11.6811 8.65273 11.7004 8.93248 11.8644C9.57878 12.2599 9.60772 13.1666 8.98071 13.5814L8.65273 13.8033H4.33119H0V15.1055V16.4078L5.45981 16.4271L10.9196 16.456L11.1994 16.7743C11.6817 17.3145 11.5466 18.0573 10.9003 18.3853C10.6688 18.5107 9.98392 18.53 6.60772 18.53H2.6045V18.1441V17.7583H1.30225H0V19.4464V21.1441L5.62379 21.1152L11.2379 21.0862L11.7974 20.8644C12.5788 20.546 13.3987 19.7647 13.7556 18.993C14.0064 18.4528 14.0354 18.2792 14.0354 17.4689C14.0354 16.6393 14.0064 16.4946 13.7363 15.9255C13.4084 15.2309 12.8006 14.5653 12.2315 14.2759C11.8746 14.0927 11.865 14.0734 11.9325 13.7261C11.9711 13.5332 12.0096 13.0123 12 12.5878C12 11.9029 11.9614 11.7197 11.6913 11.1698C11.3055 10.3885 10.5338 9.65536 9.76206 9.34668C9.22187 9.12481 9.16399 9.12481 4.61093 9.09587L0 9.06693V10.7647Z" fill="white"/>
<path d="M31.6399 10.3788V11.6811H39.1158H46.5917V10.3788V9.07659H39.1158H31.6399V10.3788Z" fill="white"/>
<path d="M37.8135 17.083V21.1345H39.1157H40.418V17.083V13.0316H39.1157H37.8135V17.083Z" fill="white"/>
<path d="M5.69128 25.591V27.308H5.93244H6.1736V26.2662V25.2148L7.33116 26.382L8.48871 27.5492V25.8322V24.1248H8.24755H8.0064L7.99675 25.2051V26.2952L6.84884 25.0894L5.69128 23.8836V25.591Z" fill="white"/>
<path d="M19.389 25.5911V27.3081H19.6302H19.8714L19.881 26.2181V25.1377L21.0193 26.3145C21.6366 26.9705 22.1768 27.501 22.2154 27.501C22.254 27.501 22.2829 26.739 22.2829 25.8129V24.1248H22.0418H21.8006V25.2342V26.3435L20.5948 25.1184L19.3987 23.8837L19.389 25.5911Z" fill="white"/>
<path d="M35.0932 24.4817C34.9582 24.7904 34.6012 25.5525 34.3119 26.1698L33.7717 27.3081H34.0611C34.2926 27.3081 34.3697 27.2406 34.5048 26.9705L34.6688 26.6329H35.4115H36.164L36.2797 26.9705C36.3858 27.2502 36.4533 27.3081 36.6849 27.3081C36.9164 27.3081 36.9453 27.2792 36.8971 27.1152C36.8103 26.8547 35.4115 23.9319 35.373 23.9319C35.3537 23.9319 35.2283 24.1827 35.0932 24.4817Z" fill="white"/>
<path d="M15.6848 24.1248C15.5305 24.173 15.2797 24.337 15.1157 24.4817C13.717 25.8033 15.2025 28.0509 16.9196 27.2116C18.1543 26.6136 18.1061 24.7904 16.8424 24.2116C16.418 24.0187 16.1189 23.9994 15.6848 24.1248ZM16.7942 24.7711C17.1029 24.9544 17.3633 25.4271 17.3633 25.7936C17.3633 26.1505 16.9678 26.6618 16.5723 26.8065C16.1093 26.9898 15.7717 26.8933 15.3665 26.4882C15.1254 26.247 15.0482 26.0927 15.0482 25.8226C15.0482 25.3981 15.2508 24.964 15.5498 24.7615C15.8392 24.5589 16.4469 24.5685 16.7942 24.7711Z" fill="white"/>
<path d="M28.2926 24.1344C27.8971 24.2502 27.6849 24.5588 27.6849 25.0122C27.6849 25.4656 27.9164 25.7164 28.4759 25.8611C29.2958 26.0637 29.5659 26.1987 29.5948 26.4109C29.6141 26.5653 29.5466 26.6617 29.3344 26.7679C28.9485 26.9704 28.6688 26.9608 28.2154 26.7293C28.0032 26.6232 27.8199 26.5363 27.8103 26.5363C27.791 26.5363 27.7813 26.6714 27.7813 26.8354C27.7813 27.0765 27.8392 27.1441 28.1383 27.2791C28.6495 27.4913 29.4501 27.4045 29.7588 27.1151C29.8939 26.9897 30.0289 26.7389 30.0579 26.5653C30.1543 26.0347 29.8842 25.755 29.0354 25.5235C28.2829 25.3209 28.0418 25.1087 28.2251 24.8193C28.3698 24.5974 29.1608 24.5396 29.4791 24.7421C29.7878 24.9447 29.8071 24.9447 29.8071 24.6071C29.8071 24.4238 29.7395 24.2888 29.6141 24.2212C29.3344 24.0765 28.6399 24.0187 28.2926 24.1344Z" fill="white"/>
<path d="M3.47272 25.7165V27.3081H3.71387H3.95503V25.7165V24.1248H3.71387H3.47272V25.7165Z" fill="white"/>
<path d="M10.1286 25.7165V27.3081H11.0064C11.7202 27.3081 11.9518 27.2695 12.2508 27.1055C12.7427 26.8258 12.9646 26.411 12.9743 25.7647C12.9743 24.6554 12.3183 24.1248 10.9292 24.1248H10.1286V25.7165ZM12.1543 24.9448C12.5016 25.2727 12.5884 25.7454 12.4051 26.1988C12.2315 26.6136 11.7974 26.8258 11.0932 26.8258H10.6109V25.7068V24.5782L11.2476 24.6361C11.7685 24.6747 11.9325 24.7325 12.1543 24.9448Z" fill="white"/>
<path d="M23.8264 25.7165V27.3081H24.9357H26.0451V27.0669C26.0451 26.8258 26.0354 26.8258 25.2251 26.8258H24.4052V26.3435V25.8612H25.0804C25.7364 25.8612 25.7557 25.8515 25.7557 25.62C25.7557 25.3885 25.7364 25.3788 25.0804 25.3788H24.4052V24.993V24.6071H25.2251C26.0354 24.6071 26.0451 24.6071 26.0451 24.366V24.1248H24.9357H23.8264V25.7165Z" fill="white"/>
<path d="M31.6399 25.7165V27.3081H31.9293H32.2187V25.7165V24.1248H31.9293H31.6399V25.7165Z" fill="white"/>
</g>
<defs>
<clipPath id="clip0_12_3488">
<rect width="60" height="27.0096" fill="white" transform="translate(0 0.587891)"/>
</clipPath>
</defs>
</svg>
