<svg width="60" height="15" viewBox="0 0 60 15" fill="none" xmlns="http://www.w3.org/2000/svg">
<g clip-path="url(#clip0_12_3520)">
<path d="M5.83092 10.8555C5.46649 11.0212 4.88321 11.1295 4.32715 11.1295C2.69392 11.1295 1.80476 10.1345 1.80476 8.81666C1.80476 7.33431 2.82892 6.45288 4.3495 6.45288C4.95319 6.45288 5.47346 6.58679 5.82412 6.74574L6.1027 5.78013C5.8279 5.63673 5.1943 5.4546 4.29892 5.4546C2.04914 5.4546 0.508911 6.86831 0.508911 8.8711C0.508911 10.8283 1.89263 12.1429 4.13284 12.1429C5.03493 12.1429 5.74129 11.9621 6.05111 11.8072L5.83092 10.8555ZM8.62996 12.1429C9.97479 12.1429 11.2563 11.2972 11.2563 9.63803C11.2563 8.26514 10.2394 7.2482 8.71464 7.2482C7.13089 7.2482 6.06279 8.25926 6.06279 9.73783C6.06279 11.2077 7.19558 12.1429 8.62047 12.1429H8.62996V12.1429ZM8.6408 11.2631C7.88303 11.2631 7.32983 10.6389 7.32983 9.70364C7.32983 8.89244 7.74559 8.12745 8.66692 8.12745C9.57641 8.12745 9.97008 8.93108 9.97008 9.68297C9.97008 10.6999 9.38252 11.2631 8.65054 11.2631H8.6408ZM11.6679 12.0277H12.9008V9.32954C12.9008 9.20748 12.9172 9.06634 12.9556 8.97183C13.0902 8.61647 13.4471 8.23935 13.9885 8.23935C14.699 8.23935 14.9937 8.76735 14.9937 9.50445V12.0277H16.2266V9.35181C16.2266 7.74495 15.2382 7.24812 14.4132 7.24812C13.5426 7.24812 13.0001 7.75562 12.7986 8.11384H12.7686L12.7082 7.36296H11.6295C11.6528 7.76377 11.6679 8.23162 11.6679 8.77457V12.0277ZM19.1856 12.1429C20.5304 12.1429 21.8119 11.2972 21.8119 9.63803C21.8119 8.26514 20.7952 7.2482 19.2706 7.2482C17.6866 7.2482 16.6186 8.25926 16.6186 9.73783C16.6186 11.2077 17.7512 12.1429 19.1761 12.1429H19.1856V12.1429ZM19.1966 11.2631C18.4388 11.2631 17.8855 10.6389 17.8855 9.70364C17.8855 8.89244 18.3012 8.12745 19.2227 8.12745C20.1321 8.12745 20.5257 8.93108 20.5257 9.68297C20.5257 10.6999 19.9383 11.2631 19.2062 11.2631H19.1966ZM26.1091 10.97C25.8517 11.074 25.5159 11.1787 25.0402 11.1787C24.1767 11.1787 23.467 10.6408 23.467 9.68322C23.4614 8.82935 24.0575 8.19029 25.0351 8.19029C25.5201 8.19029 25.8408 8.28908 26.06 8.39855L26.287 7.48662C25.9699 7.35254 25.481 7.2482 24.9914 7.2482C23.2161 7.2482 22.2012 8.34932 22.2012 9.74631C22.2012 11.1653 23.2126 12.1429 24.7931 12.1429C25.4588 12.1429 26.0093 12.0014 26.2867 11.8728L26.1091 10.97ZM28.8784 12.1429C30.2231 12.1429 31.5045 11.2972 31.5045 9.63803C31.5045 8.26514 30.4879 7.2482 28.9631 7.2482C27.3792 7.2482 26.3112 8.25926 26.3112 9.73783C26.3112 11.2077 27.444 12.1429 28.8687 12.1429H28.8784V12.1429ZM28.8894 11.2631C28.1314 11.2631 27.5783 10.6389 27.5783 9.70364C27.5783 8.89244 27.9939 8.12745 28.9154 8.12745C29.8248 8.12745 30.2183 8.93108 30.2183 9.68297C30.2183 10.6999 29.631 11.2631 28.8988 11.2631H28.8894ZM36.914 12.0277H38.1469V9.29149C38.1469 9.1569 38.1552 9.03912 38.2017 8.93344C38.3405 8.5974 38.6975 8.24363 39.2239 8.24363C39.9495 8.24363 40.2399 8.77592 40.2399 9.50873V12.0277H41.4729V9.34794C41.4729 7.74504 40.4926 7.2482 39.6811 7.2482C39.3726 7.2482 39.0688 7.33045 38.8151 7.46873C38.5482 7.6018 38.3265 7.80872 38.1659 8.04713H38.1468V5.16711H36.9139V12.0277H36.914ZM43.4362 12.0277V7.36304H42.2029V12.0277H43.4362ZM42.8202 6.64022C43.2724 6.64022 43.5458 6.32998 43.5458 5.96109C43.5403 5.588 43.2682 5.28725 42.8245 5.28725C42.3805 5.28725 42.0989 5.59229 42.0989 5.96109C42.0989 6.32989 42.3723 6.64022 42.8107 6.64022H42.8202ZM49.7698 12.0277V7.36304H48.5368V12.0277H49.7698ZM49.1541 6.64022C49.6064 6.64022 49.8797 6.32998 49.8797 5.96109C49.8744 5.588 49.6024 5.28725 49.1584 5.28725C48.7144 5.28725 48.4328 5.59229 48.4328 5.96109C48.4328 6.32989 48.7062 6.64022 49.1446 6.64022H49.1541ZM50.7123 13.9442H51.9449V11.4764H51.9642C52.2382 11.9004 52.8017 12.1429 53.4495 12.1429C54.6122 12.1429 55.783 11.3022 55.783 9.61081C55.783 8.13585 54.7572 7.2482 53.6408 7.2482C52.8243 7.2482 52.2191 7.5729 51.8362 8.1303H51.8169L51.7568 7.36304H50.6739C50.6971 7.81754 50.7123 8.33915 50.7123 8.93545V13.9442ZM51.9449 9.44573C51.9449 9.35416 51.9655 9.25503 51.9879 9.1632C52.1319 8.57514 52.6514 8.1986 53.2122 8.1986C54.0674 8.1986 54.5285 8.8853 54.5285 9.67877C54.5285 10.6246 54.0017 11.2087 53.1764 11.2087C52.5651 11.2087 52.0919 10.7798 51.9711 10.2918C51.9533 10.193 51.9448 10.0959 51.9448 9.99314V9.44573H51.9449ZM55.993 11.7967C56.3816 11.9979 56.9244 12.1429 57.5551 12.1429C58.9048 12.1429 59.567 11.4862 59.567 10.6677C59.5618 9.94508 59.1496 9.52117 58.2246 9.24452C57.5879 9.0529 57.3261 8.91143 57.3261 8.60135C57.3261 8.30219 57.5798 8.10451 58.0211 8.10451C58.4881 8.10451 58.9216 8.28513 59.1241 8.39594L59.3659 7.54383C59.0758 7.38354 58.5744 7.24812 58.0149 7.24812C56.8437 7.24812 56.1299 7.90365 56.1299 8.72963C56.1246 9.30854 56.5473 9.82142 57.5338 10.1007C58.1543 10.2815 58.3656 10.4312 58.3656 10.755C58.3656 11.0504 58.131 11.2755 57.5606 11.2755C57.1009 11.2755 56.5305 11.0811 56.2414 10.9033L55.993 11.7967ZM31.9358 12.0251H33.1578V9.39843C33.3386 9.44111 33.5729 9.45589 33.8319 9.45589C34.7665 9.45589 35.5317 9.22747 36.0381 8.75097C36.4181 8.40342 36.6124 7.88105 36.6124 7.2829C36.6124 6.65761 36.339 6.14877 35.9426 5.83667C35.5209 5.49458 34.8656 5.29456 33.9427 5.29456C33.038 5.29456 32.3968 5.35756 31.9357 5.4299V12.0251H31.9358ZM33.1578 6.28629C33.2947 6.25874 33.5651 6.22723 33.9497 6.22723C34.8089 6.22723 35.3903 6.56688 35.3903 7.31314C35.3903 8.07511 34.7973 8.50684 33.846 8.50684C33.5582 8.50684 33.3331 8.48911 33.1578 8.44089V6.28629Z" fill="white"/>
<path d="M37.396 0.666138C35.7273 1.24564 35.2896 1.81976 34.3887 2.54308C31.8363 3.21499 29.599 2.13732 27.6517 1.24748C28.5721 1.91217 29.4822 3.32496 29.8668 5.32733C31.3382 4.88578 33.1102 3.69502 34.6703 2.58273C35.5449 2.19503 36.5041 1.62276 37.396 0.666138Z" fill="#D11E0F"/>
<path d="M44.2826 12.0277H45.5154V5.16711H44.2826V12.0277Z" fill="white"/>
<path d="M46.4576 12.0277H47.6906V5.16711H46.4576V12.0277Z" fill="white"/>
</g>
<defs>
<clipPath id="clip0_12_3520">
<rect width="60" height="14.0964" fill="white" transform="translate(0 0.284424)"/>
</clipPath>
</defs>
</svg>
