<svg xmlns:dc="http://purl.org/dc/elements/1.1/" xmlns:cc="http://creativecommons.org/ns#" xmlns:rdf="http://www.w3.org/1999/02/22-rdf-syntax-ns#" xmlns:svg="http://www.w3.org/2000/svg" xmlns="http://www.w3.org/2000/svg" xmlns:sodipodi="http://sodipodi.sourceforge.net/DTD/sodipodi-0.dtd" xmlns:inkscape="http://www.inkscape.org/namespaces/inkscape" width="36.617859mm" height="6.6540265mm" viewBox="0 0 129.74832 23.577259" id="svg4391" version="1.1" inkscape:version="0.91 r13725" sodipodi:docname="Indofood CBP.svg"><script xmlns=""/>
  <defs id="defs4393"/>
  <sodipodi:namedview id="base" pagecolor="#ffffff" bordercolor="#666666" borderopacity="1.0" inkscape:pageopacity="0.0" inkscape:pageshadow="2" inkscape:zoom="0.35" inkscape:cx="-315.84013" inkscape:cy="-159.63994" inkscape:document-units="px" inkscape:current-layer="layer1" showgrid="false" fit-margin-top="0" fit-margin-left="0" fit-margin-right="0" fit-margin-bottom="0" inkscape:window-width="1366" inkscape:window-height="705" inkscape:window-x="-8" inkscape:window-y="-8" inkscape:window-maximized="1"/>
  <metadata id="metadata4396">
    <rdf:RDF>
      <cc:Work rdf:about="">
        <dc:format>image/svg+xml</dc:format>
        <dc:type rdf:resource="http://purl.org/dc/dcmitype/StillImage"/>
        <dc:title/>
      </cc:Work>
    </rdf:RDF>
  </metadata>
  <g inkscape:label="Layer 1" inkscape:groupmode="layer" id="layer1" transform="translate(-263.69727,-349.14501)">
    <g id="g100" transform="matrix(1.25,0,0,-1.25,266.18477,363.27003)">
      <path d="m 0,0 c -0.214,-2.176 -1.99,-1.831 -1.99,-1.831 l 0.154,-0.933 6.179,0 0.293,0.904 C 2.728,-1.92 3.262,-0.345 3.262,-0.345 l 1.571,8.807 c 0.25,1.333 1.879,1.037 1.879,1.037 l -0.169,0.976 -6.152,0 -0.348,-0.96 c 0,0 1.675,0.207 1.471,-1.239 l -1.525,-8.382" style="fill:#0871b9;fill-opacity:1;fill-rule:nonzero;stroke:none" id="path102" inkscape:connector-curvature="0"/>
    </g>
    <g id="g104" transform="matrix(1.25,0,0,-1.25,277.84452,355.0154)">
      <path d="m 0,0 0.216,1.163 -4.129,-0.582 -0.125,-0.72 c 0,0 1.403,0.379 0.92,-1.626 l -1.065,-5.832 2.798,0 1.123,6.114 c 0,0 0.104,0.879 1.192,0.902 0,0 1.214,-0.011 0.816,-1.815 l -0.968,-5.224 4.14,0.559 0.115,0.693 c 0,0 -1.459,-0.282 -1.025,1.123 l 0.671,3.863 c 0,0 0.335,2.214 -0.97,2.563 C 3.709,1.181 2.217,1.852 0,0" style="fill:#0871b9;fill-opacity:1;fill-rule:nonzero;stroke:none" id="path106" inkscape:connector-curvature="0"/>
    </g>
    <g id="g108" transform="matrix(1.25,0,0,-1.25,289.34427,364.59115)">
      <path d="m 0,0 c 0,0 -2.23,-0.375 -3.21,0.656 0,0 -1.779,1.456 -0.058,5.027 1.717,3.565 5.529,3.092 5.529,3.092 l 0.201,1.133 c 0,0 0.188,1.027 -1.43,0.843 l 0.224,0.767 4.396,0.598 -1.79,-9.766 c 0,0 -0.396,-1.208 1.416,-1.069 L 5.168,0.61 0.683,-0.015 2.066,7.672 c 0,0 -1.571,0.434 -2.533,-2.055 0,0 -1.775,-4.58 0.762,-4.881 L 0.188,0.064 0,0 Z" style="fill:#0871b9;fill-opacity:1;fill-rule:nonzero;stroke:none" id="path110" inkscape:connector-curvature="0"/>
    </g>
    <g id="g112" transform="matrix(1.25,0,0,-1.25,302.42727,354.52928)">
      <path d="m 0,0 c 0,0 -1.27,0.509 -1.996,-3.253 -0.748,-3.848 0.587,-4.02 0.587,-4.02 0,0 1.469,-0.562 2.138,3.22 C 1.286,-0.9 0.656,-0.046 0,0 M -0.111,1.035 C 2.372,1.022 4.136,-1.084 3.835,-3.675 3.531,-6.259 1.272,-8.344 -1.21,-8.334 c -2.479,0.013 -4.249,2.119 -3.944,4.709 0.3,2.588 2.563,4.67 5.043,4.66" style="fill:#0871b9;fill-opacity:1;fill-rule:nonzero;stroke:none" id="path114" inkscape:connector-curvature="0"/>
    </g>
    <g id="g116" transform="matrix(1.25,0,0,-1.25,320.1969,354.52928)">
      <path d="m 0,0 c 0,0 -1.274,0.509 -2.002,-3.253 -0.744,-3.848 0.585,-4.02 0.585,-4.02 0,0 1.472,-0.562 2.137,3.22 C 1.282,-0.9 0.655,-0.046 0,0 m -0.118,1.035 c 2.48,-0.013 4.251,-2.119 3.946,-4.71 -0.301,-2.584 -2.562,-4.669 -5.04,-4.659 -2.483,0.013 -4.247,2.119 -3.948,4.709 0.306,2.588 2.559,4.67 5.042,4.66" style="fill:#0871b9;fill-opacity:1;fill-rule:nonzero;stroke:none" id="path118" inkscape:connector-curvature="0"/>
    </g>
    <g id="g120" transform="matrix(1.25,0,0,-1.25,332.4224,354.52928)">
      <path d="m 0,0 c 0,0 -1.274,0.509 -2,-3.253 -0.74,-3.848 0.584,-4.02 0.584,-4.02 0,0 1.472,-0.562 2.143,3.22 C 1.285,-0.9 0.654,-0.046 0,0 M -0.119,1.035 C 2.369,1.022 4.13,-1.084 3.83,-3.675 3.522,-6.259 1.268,-8.344 -1.207,-8.334 c -2.484,0.013 -4.256,2.119 -3.95,4.709 0.299,2.588 2.56,4.67 5.038,4.66" style="fill:#0871b9;fill-opacity:1;fill-rule:nonzero;stroke:none" id="path122" inkscape:connector-curvature="0"/>
    </g>
    <g id="g124" transform="matrix(1.25,0,0,-1.25,312.90264,354.92103)">
      <path d="m 0,0 c 0,0 0.043,-0.215 -0.85,-4.634 -0.887,-4.422 -1.804,-5.699 -1.804,-5.699 -2.228,-4.466 -5.653,-3.883 -5.653,-3.883 -1.657,0 -3.098,1.498 -3.098,3.006 0,1.536 1.316,2.704 2.973,2.704 l 3.43,0 c 0,0 0.056,0.035 -0.217,-0.937 l -3.279,0 c -1.144,0 -1.847,-1.101 -1.847,-1.864 0,-0.921 1.014,-1.912 2.022,-1.912 0,0 0.995,-0.114 1.704,0.251 1.254,0.633 1.921,2.603 1.921,2.603 0.429,0.918 1.045,4.386 1.031,4.336 0,0 0.363,1.67 0.946,5.985 l -0.149,0 -1.355,0 0.232,0.998 c 1.096,0.18 1.518,0.943 1.518,0.943 0,0 1.271,1.926 2.095,2.394 C 1.546,5.388 3.029,3.397 3.029,3.397 L 1.093,1.556 C 0.438,2.29 0.197,2.479 0.197,2.479 -0.446,3.134 -0.938,2.369 -0.938,2.369 -1.411,0.974 0.197,1.037 0.197,1.037 l 1.83,0 L 1.776,0 0,0 Z" style="fill:#0871b9;fill-opacity:1;fill-rule:nonzero;stroke:none" id="path126" inkscape:connector-curvature="0"/>
    </g>
    <g id="g128" transform="matrix(1.25,0,0,-1.25,299.42077,365.5589)">
      <path d="m 0,0 -21.074,0 -0.264,-0.937 20.388,0 c 0,0 0.166,0.593 0.95,0.937" style="fill:#0871b9;fill-opacity:1;fill-rule:nonzero;stroke:none" id="path130" inkscape:connector-curvature="0"/>
    </g>
    <g id="g132" transform="matrix(1.25,0,0,-1.25,311.58327,365.5589)">
      <path d="m 0,0 60.249,0 -0.483,-0.937 -60.078,0 c 0,0 0.246,0.418 0.312,0.937" style="fill:#0871b9;fill-opacity:1;fill-rule:nonzero;stroke:none" id="path134" inkscape:connector-curvature="0"/>
    </g>
    <g id="g136" transform="matrix(1.25,0,0,-1.25,342.97552,364.59115)">
      <path d="m 0,0 c 0,0 -2.236,-0.375 -3.21,0.656 0,0 -1.778,1.456 -0.058,5.027 1.719,3.565 5.527,3.092 5.527,3.092 l 0.202,1.133 c 0,0 0.189,1.027 -1.43,0.843 L 1.253,11.518 5.652,12.116 3.865,2.35 c 0,0 -0.393,-1.208 1.412,-1.069 L 5.165,0.61 0.686,-0.015 2.07,7.668 c 0,0 -1.578,0.438 -2.54,-2.051 0,0 -1.767,-4.58 0.772,-4.881 L 0.185,0.064 0,0 Z" style="fill:#0871b9;fill-opacity:1;fill-rule:nonzero;stroke:none" id="path138" inkscape:connector-curvature="0"/>
    </g>
    <g id="g140" transform="matrix(1.25,0,0,-1.25,357.76902,359.24453)">
      <path d="m 0,0 c -0.058,-2.996 0.857,-3.565 2.12,-3.617 1.578,-0.057 3.112,1.954 3.079,2.924 L 6.139,-0.275 5.451,-4.123 4.619,-4.14 C 3.585,-4.163 2.755,-4.461 1.952,-4.461 -1.705,-4.444 -3.393,-1.8 -3.011,1.231 -2.539,5.005 0.82,7.93 4.188,7.622 5.072,7.525 6.609,7.297 6.91,7.297 l 0.513,0 L 6.788,3.803 5.991,3.418 C 6.006,3.434 5.991,6.716 3.86,6.819 1.793,6.921 0.073,3.383 0,0" style="fill:#eb262a;fill-opacity:1;fill-rule:nonzero;stroke:none" id="path142" inkscape:connector-curvature="0"/>
    </g>
    <g id="g144" transform="matrix(1.25,0,0,-1.25,373.24677,357.08628)">
      <path d="M 0,0 -0.156,0.691 C -0.141,0.677 2.349,1.154 2.638,3.265 2.766,4.184 2.165,4.955 1.304,4.986 0.987,4.986 0.325,4.831 0.313,4.815 l -0.8,-3.72 -0.561,-3.387 -0.201,-1.633 c -0.059,-0.461 -0.126,-1.293 0.934,-1.262 1.292,0.031 2.555,1.568 2.722,2.926 0.17,1.272 -0.555,2.369 -1.743,2.305 L 0,0 Z m -6.11,-5.845 -0.088,0.689 c -0.015,0 0.62,-0.078 1.399,0.259 0.716,0.329 1.06,2.388 1.116,2.636 l 0.747,4.214 c 0.184,1.078 0.356,2.584 -0.106,2.835 -0.485,0.248 -1.174,0.12 -1.185,0.12 l 0.397,0.662 0.242,0 c 0.459,0 4.646,0.155 5.367,0.182 C 3.673,5.818 5.82,5.442 5.731,3.553 5.649,1.707 2.448,0.677 2.437,0.691 2.437,0.654 5.558,0.586 5.435,-1.862 5.277,-4.959 1.618,-6.11 0.068,-5.958 c -2.064,0.206 -4.785,0.169 -5.302,0.156 L -6.11,-5.845 Z" style="fill:#eb262a;fill-opacity:1;fill-rule:nonzero;stroke:none" id="path146" inkscape:connector-curvature="0"/>
    </g>
    <g id="g148" transform="matrix(1.25,0,0,-1.25,385.59052,358.93478)">
      <path d="M 0,0 C 0,-0.031 2.919,0.958 3.322,4.076 3.548,5.822 2.449,6.387 1.605,6.403 1.285,6.42 1.015,6.19 1.001,6.19 L 0.569,4.2 -0.346,-0.77 -0.532,-1.924 c -0.104,-0.71 -0.095,-1.428 0.81,-1.618 1.007,-0.213 1.627,-0.134 1.612,-0.134 l -0.4,-0.69 -6.87,0 -0.114,0.69 c -0.014,0 0.544,-0.063 1.405,0.231 0.832,0.292 1.161,2.833 1.201,3.093 l 0.833,4.403 c 0.155,0.784 0.202,1.845 -0.157,2.061 -0.4,0.262 -1.338,0.291 -1.346,0.275 l 0.358,0.662 1.809,0 c 1.216,0 2.392,0.013 3.509,0.046 C 4.366,7.144 6.521,6.139 6.263,4.221 5.686,0.077 0.34,-0.6 0.351,-0.612 L 0,0 Z" style="fill:#eb262a;fill-opacity:1;fill-rule:nonzero;stroke:none" id="path150" inkscape:connector-curvature="0"/>
    </g>
  </g>
</svg>