<svg width="60" height="28" viewBox="0 0 60 28" fill="none" xmlns="http://www.w3.org/2000/svg">
<g clip-path="url(#clip0_12_3535)">
<mask id="mask0_12_3535" style="mask-type:luminance" maskUnits="userSpaceOnUse" x="-189" y="-328" width="259" height="366">
<path d="M-188.378 37.6711H69.8513V-327.54H-188.378V37.6711Z" fill="white"/>
</mask>
<g mask="url(#mask0_12_3535)">
<path d="M32.1064 20.5952C32.079 20.6342 32.0001 20.6308 32.0001 20.6308H30.2775C30.2775 20.6308 30.2002 20.6238 30.1694 20.59C30.1386 20.5544 30.1621 20.4824 30.1621 20.4824L30.5317 19.3411L31.096 17.6731C31.1811 17.6254 31.1936 17.6731 31.1936 17.6731L32.1064 20.4859C32.1064 20.4859 32.1346 20.557 32.1064 20.5952ZM35.3277 23.8487L32.2859 15.7666C32.1432 15.4668 32.1081 15.3371 31.6517 15.3371H30.6193C30.1621 15.3371 30.1269 15.4668 29.9846 15.7666L26.9424 23.8487C26.8374 24.1359 26.7628 24.2738 27.1116 24.2738H28.4108C28.8867 24.2764 28.8841 24.3003 29.0038 24.0079L29.5092 22.533C29.6059 22.4289 29.6784 22.4289 29.6784 22.4289H32.5918C32.5918 22.4289 32.6638 22.4289 32.6985 22.4514L33.2676 24.0079C33.3865 24.3003 33.3839 24.2764 33.8593 24.2738H35.1586C35.5073 24.2738 35.4336 24.1359 35.3277 23.8487ZM19.7665 24.2708C20.2268 24.2708 20.2454 24.1445 20.2454 23.8335L20.2437 21.278C20.2437 21.278 20.242 21.18 20.2992 21.1661C20.3691 21.1474 20.4198 21.2307 20.4198 21.2307L22.8578 24.0595C22.9614 24.1775 23.0356 24.2734 23.2642 24.2734H25.3413C25.5894 24.2734 25.6506 24.1445 25.4423 23.8574L21.88 19.9562C21.88 19.9562 21.8149 19.8851 21.8149 19.7935C21.8149 19.6998 21.8826 19.6352 21.8826 19.6352L25.2888 15.6742C25.4328 15.4668 25.3729 15.3371 25.1248 15.3371H23.2499C23.0213 15.3371 22.9484 15.4339 22.843 15.5506L20.366 18.3633C20.2437 18.3924 20.2437 18.3295 20.2437 18.3295L20.2454 15.7779C20.2454 15.4642 20.2268 15.3371 19.7665 15.3371H18.7388C18.2781 15.3371 18.2573 15.4642 18.2573 15.7779V23.8335C18.2573 24.1445 18.2781 24.2708 18.7388 24.2708H19.7665ZM57.1448 17.1782H59.5619C59.8708 17.1782 60.0001 17.1578 60.0001 16.7327V15.78C60.0001 15.354 59.8708 15.3371 59.5619 15.3371L55.4139 15.3354C55.1025 15.3354 54.9754 15.354 54.9754 15.81V23.7971C54.9754 24.2547 55.1025 24.2734 55.4139 24.2734H59.5619C59.8708 24.2734 60.0001 24.2556 60.0001 23.8283V22.8844C60.0001 22.4575 59.8708 22.4406 59.5619 22.4406L57.1448 22.4371C57.1448 22.4371 56.9635 22.4449 56.9518 22.2237V20.7874C56.9591 20.6238 57.0563 20.59 57.1101 20.5826H59.0296C59.3394 20.5826 59.4674 20.5605 59.4674 20.1349V19.3623C59.4674 18.9372 59.3394 18.9194 59.0296 18.9194L57.1357 18.9203C57.1357 18.9203 56.9635 18.9277 56.9518 18.7073V17.3899C56.9635 17.173 57.1448 17.1782 57.1448 17.1782ZM50.2925 19.4192C50.7085 19.1719 51.331 18.4882 51.331 17.5924C51.331 17.5408 51.331 17.4866 51.3263 17.435C51.2538 16.1674 50.3298 15.3371 48.8926 15.3371H46.0491C45.5914 15.3371 45.5715 15.4642 45.5715 15.7783V23.83C45.5715 24.1445 45.5914 24.2734 46.0491 24.2734H49.0119C51.1445 24.2734 52.0364 23.0292 52.0364 21.6398C52.0364 20.5497 51.3527 19.6291 50.2925 19.4192ZM47.5492 17.0758H48.4528C49.0241 17.0758 49.3546 17.3595 49.3546 17.8991C49.3546 18.4397 49.0119 18.7203 48.4528 18.7203H47.5492V17.0758ZM48.7933 22.5109H47.5492V20.7197H48.7933C49.3789 20.7197 49.9897 20.9518 49.9897 21.6168C49.9897 22.2805 49.4509 22.5109 48.7933 22.5109ZM42.3709 22.4406L39.9013 22.4371C39.9013 22.4371 39.7074 22.4458 39.6991 22.215L39.7004 15.7753C39.7004 15.4642 39.6805 15.3371 39.2237 15.3371H38.2017C37.744 15.3371 37.7241 15.4642 37.7241 15.7753V23.4912C37.7241 24.125 37.8971 24.2734 38.4923 24.2734H42.3709C42.6845 24.2734 42.8086 24.2556 42.8086 23.8283V22.8844C42.8086 22.4575 42.6845 22.4406 42.3709 22.4406Z" fill="white"/>
<path d="M10.2761 24.3164C10.09 24.1989 10.11 23.8141 10.0523 23.6089C8.64849 18.6992 1.23747 17.0095 2.38574 11.433C2.51674 10.8118 2.62693 10.1364 3.05812 9.53777C3.18479 9.36121 3.63594 9.11915 3.41861 9.83405C3.04251 11.0617 3.10931 12.3106 4.37817 13.8111C5.00762 14.5525 6.06956 15.2661 7.64034 16.3241C10.6843 18.3747 11.047 22.0611 10.8869 23.3725C10.8262 23.9733 10.7234 24.6019 10.2761 24.3164Z" fill="#87BD40"/>
<path d="M5.23826 2.51469C5.36754 3.04002 5.72976 3.79309 6.70711 4.39217C8.25056 5.34132 8.9069 6.0393 9.152 6.29004C10.9579 8.13976 10.7492 9.83591 10.2738 11.6583C10.0977 12.0778 10.3068 12.5198 10.7996 11.7524C11.3522 10.8931 11.668 10.4324 11.9101 9.40558C12.2072 8.12631 12.3131 6.40543 10.2044 4.70147C9.76018 4.34141 9.29689 4.03558 8.1573 3.63909C7.94343 3.56535 6.76003 3.15627 5.73974 2.37587C5.39443 2.11125 5.14196 2.13338 5.23826 2.51469Z" fill="#076535"/>
<path d="M10.1507 2.00122C10.2358 2.17387 10.2176 2.39511 10.1586 2.59075C10.0718 2.87402 9.94469 3.09266 9.65361 3.17204C9.4879 3.21542 9.25842 3.21889 9.07753 3.16857C8.57692 3.02976 8.35091 2.58685 8.48496 2.1383C8.6164 1.69019 9.06191 1.40561 9.56295 1.54009C9.84752 1.61991 10.0406 1.77 10.1507 2.00122Z" fill="#076535"/>
<path d="M4.1919 18.9372C2.05978 21.2233 1.72532 23.7632 2.05154 26.1482C2.12398 26.7005 2.18168 27.2453 2.18862 27.5242C2.19556 27.8613 1.81859 28.0071 1.57956 27.6587C0.733222 26.4319 0.184467 24.9935 0.080355 24.2061C-0.214628 21.9525 0.247367 19.4634 2.39294 17.2649C3.07487 16.5674 3.61408 16.1726 4.57755 15.5956C5.21653 15.2117 7.70047 14.3502 8.50603 14.0079C9.74366 13.4861 10.7123 12.7608 11.1969 12.1973C11.5192 11.8229 11.7669 11.9075 11.5504 12.4667C11.098 13.657 9.95535 15.0972 8.3503 16.1461C6.89013 17.097 4.7849 18.3008 4.1919 18.9372Z" fill="#076535"/>
<path d="M5.36796 12.0396C5.26298 12.2691 5.23478 12.581 5.30766 12.8352C5.41351 13.2061 5.62824 13.4698 5.98829 13.5713C6.19998 13.6316 6.48152 13.6316 6.7123 13.567C7.33567 13.3891 7.61981 12.8122 7.45106 12.2244C7.28405 11.637 6.72878 11.2653 6.10541 11.4449C5.74753 11.5438 5.50634 11.7407 5.36796 12.0396Z" fill="#076535"/>
<path d="M4.23818 10.401C6.03194 7.14573 12.2917 7.13662 12.4912 2.18524C12.5068 1.82909 12.5138 1.43867 12.3988 1.04131C12.3385 0.818339 12.0991 0.630505 12.024 1.08513C11.8483 2.13145 11.0844 4.11781 7.81052 5.70205C5.03724 7.04249 4.02085 8.87746 3.80265 10.1077C3.666 10.8838 4.07334 10.7016 4.23818 10.401Z" fill="#87BD40"/>
</g>
</g>
<defs>
<clipPath id="clip0_12_3535">
<rect width="60" height="27.0526" fill="white" transform="translate(0 0.806274)"/>
</clipPath>
</defs>
</svg>
