<svg width="60" height="15" viewBox="0 0 60 15" fill="none" xmlns="http://www.w3.org/2000/svg">
<g clip-path="url(#clip0_12_3584)">
<path d="M21.6945 6.23468H23.5744C24.098 6.23468 24.5204 6.36272 24.8415 6.61879C25.1626 6.87245 25.3915 7.20704 25.3915 7.62256C25.3915 7.89555 25.3859 8.41983 25.2268 8.66624C25.0706 8.91024 24.8333 9.09263 24.5151 9.21342C24.1969 9.33421 23.8511 9.39702 23.6254 9.40185L22.8159 9.41635V10.9926H21.6945V6.23468ZM22.7986 7.24956V8.48163L23.4849 8.48162C23.6903 8.48161 23.8653 8.42001 24.01 8.29681C24.1575 8.1736 24.2313 8.02745 24.2313 7.85834C24.2313 7.66507 24.1488 7.51529 23.9839 7.409C23.819 7.3027 23.6477 7.24948 23.344 7.24948L22.7986 7.24956Z" fill="white"/>
<path d="M26.0355 6.23444H29.0829V7.1766H27.1502V8.041H29.0255V9.06456H27.1502V9.93302H29.0829V10.9924H26.0355V6.23444Z" fill="white"/>
<path d="M30.1302 6.23444H32.083C32.5943 6.23444 32.9145 6.3607 33.2109 6.6113C33.5089 6.86319 33.6115 7.2618 33.6586 7.62957C33.6917 7.88711 33.6727 8.13535 33.5352 8.39867C33.4002 8.66199 32.9931 8.94902 32.6148 9.03722L34.1052 10.9924H32.7541L31.3565 9.0988L31.232 9.0988V10.9924H30.1302V6.23444ZM31.2398 7.16076V8.3895H31.6373C32.2109 8.3895 32.4977 8.10307 32.4977 7.66581C32.4977 7.17776 31.9746 7.16325 31.6529 7.16076H31.2398Z" fill="white"/>
<path d="M34.1536 6.23444H37.8063V7.26472H36.5612V10.9924H35.3905V7.26472H34.1536V6.23444Z" fill="white"/>
<path d="M39.1798 6.23444H40.3472L41.9558 10.9924H40.7744L40.4675 10.1346H39.024L38.6615 10.9924H37.5587L39.1798 6.23444ZM39.7493 7.76496L39.2246 9.23731H40.1972L39.7493 7.76496Z" fill="white"/>
<path d="M43.1092 6.23444H44.2005L45.0928 8.8759L46.0637 6.23444H47.147L47.7733 10.9924H46.6997L46.3822 8.29539L45.3086 10.9923H44.8666L43.8555 8.24613L43.3916 10.9923L42.3978 10.9924L43.1092 6.23444Z" fill="white"/>
<path d="M48.5032 6.23444H49.6331V10.9924H48.5032V6.23444Z" fill="white"/>
<path d="M53.8753 6.2605H54.9058V10.9924H53.7642L51.7749 8.17406V10.9924H50.6605V6.2605H51.725L53.8753 9.18893V6.2605Z" fill="white"/>
<path d="M57.2241 6.23444H58.3915L60.0001 10.9924H58.8187L58.5118 10.1346H57.0683L56.7058 10.9924H55.603L57.2241 6.23444ZM57.7936 7.76496L57.2689 9.23731H58.2415L57.7936 7.76496Z" fill="white"/>
<path d="M0 14.3116C0 14.3116 3.76651 8.32037 4.38026 7.32716C4.99393 6.33378 5.52261 6.24048 7.21805 6.24048H10.9549C10.7346 6.42534 10.3578 6.81127 10.0759 7.26485L6.27519 13.3803C5.89516 14.0637 5.09155 14.3116 4.12721 14.3116H0Z" fill="#006CB8"/>
<path d="M14.8788 6.24048C13.1834 6.24048 12.6517 6.33374 12.0058 7.32712C11.3599 8.32034 9.62469 10.9968 9.62469 10.9968H13.9701C14.7288 10.9968 15.4673 10.6636 15.7852 10.1129L18.3526 6.24048H14.8788Z" fill="#ACC42A"/>
<path d="M13.0985 0.353516C14.7939 0.353516 15.3256 0.446783 15.9715 1.44016C16.6174 2.43338 18.3526 5.10979 18.3526 5.10979H14.0072C13.2485 5.10979 12.51 4.77664 12.1921 4.22594L9.62469 0.353516H13.0985Z" fill="#ED1B2F"/>
</g>
<defs>
<clipPath id="clip0_12_3584">
<rect width="60" height="13.9581" fill="white" transform="translate(0 0.353516)"/>
</clipPath>
</defs>
</svg>
