<svg width="60" height="64" viewBox="0 0 60 64" fill="none" xmlns="http://www.w3.org/2000/svg">
<path d="M51.7081 24.2488C51.7081 36.1386 42.0676 45.7788 30.1777 45.7788C18.2867 45.7788 8.64771 36.1386 8.64771 24.2488C8.64771 12.3591 18.2867 2.71881 30.1777 2.71881C42.0676 2.71881 51.7081 12.359 51.7081 24.2488Z" fill="white"/>
<path d="M29.9924 25.8694L8.27454 32.0168C8.90585 34.4295 7.92755 37.6682 9.34201 39.6268C10.8215 41.6751 14.4241 41.6988 16.4574 43.1969C18.498 44.696 19.6202 48.141 22.08 48.9448C24.4716 49.7301 27.4258 47.6476 30.0827 47.645C32.6544 47.6398 35.5225 49.7408 37.8439 49.0021C40.2814 48.2165 41.4047 44.7976 43.4442 43.3326C45.4916 41.8552 49.0916 41.8671 50.5885 39.8379C52.0876 37.805 50.8792 34.4921 51.6741 32.0416L29.9924 25.8694Z" fill="#C7000D"/>
<path fill-rule="evenodd" clip-rule="evenodd" d="M25.3995 24.2436C25.3995 23.9019 25.2008 23.6107 24.9112 23.4724L8.14529 17.8784C7.23056 20.1569 4.53194 22.2471 4.53712 24.7904C4.54377 27.3322 7.41186 29.4005 8.18299 31.6957L24.8812 25.0319C25.1864 24.8999 25.3994 24.5984 25.3994 24.2437L25.3995 24.2436Z" fill="url(#paint0_linear_12_3425)"/>
<path fill-rule="evenodd" clip-rule="evenodd" d="M25.5205 21.8477H25.5294C25.8552 21.8447 26.1678 21.6587 26.3128 21.3431C26.4301 21.0899 26.4068 20.8079 26.2855 20.5808L16.3697 6.33875C14.2832 7.63954 10.9313 7.71134 9.49838 9.65944C8.00297 11.6831 9.04162 15.0889 8.26929 17.5383L25.5205 21.8478V21.8477Z" fill="url(#paint1_linear_12_3425)"/>
<path fill-rule="evenodd" clip-rule="evenodd" d="M28.6378 19.7212C28.7777 19.6633 28.8994 19.569 28.9903 19.4479C29.0813 19.3269 29.138 19.1837 29.1545 19.0332L29.8033 1.84192C27.2837 1.75043 24.5107 -0.229084 22.2414 0.495101C19.8158 1.27556 18.6924 4.66963 16.6699 6.1399L27.7075 19.5473C27.9491 19.7811 28.3131 19.8591 28.6378 19.7212Z" fill="url(#paint2_linear_12_3425)"/>
<path fill-rule="evenodd" clip-rule="evenodd" d="M34.694 24.2271V24.2592C34.6969 24.424 34.7472 24.5845 34.8388 24.7215C34.9304 24.8585 35.0595 24.9663 35.2107 25.0319L51.8188 31.6957C52.5888 29.4006 55.4595 27.3323 55.4635 24.7904C55.4672 22.2471 52.77 20.1569 51.8594 17.8784L35.1833 23.4725C34.8981 23.6086 34.7003 23.8923 34.694 24.2271Z" fill="url(#paint3_linear_12_3425)"/>
<path fill-rule="evenodd" clip-rule="evenodd" d="M34.5153 21.7705H34.5245L51.7355 17.538C50.9602 15.0887 51.9951 11.6828 50.5049 9.65917C49.0683 7.71098 45.7176 7.63918 43.6321 6.33838L33.7608 20.5025C33.637 20.7323 33.6188 21.0126 33.7349 21.2645C33.8033 21.4144 33.9131 21.5417 34.0513 21.6314C34.1896 21.721 34.3506 21.7693 34.5154 21.7705H34.5153Z" fill="url(#paint4_linear_12_3425)"/>
<path fill-rule="evenodd" clip-rule="evenodd" d="M31.3613 19.7212C31.0692 19.5983 30.8823 19.3294 30.8446 19.0332L30.17 1.84192C32.6922 1.75043 35.4936 -0.229084 37.7603 0.495101C40.1848 1.27556 41.3108 4.66963 43.3296 6.1399L32.2943 19.5473C32.1731 19.6648 32.02 19.7439 31.854 19.7748C31.6881 19.8057 31.5168 19.7871 31.3614 19.7212H31.3613Z" fill="url(#paint5_linear_12_3425)"/>
<path d="M0.000244141 63.6122H2.26945L2.55129 61.5885H3.88776C5.52112 61.5885 6.71769 60.597 7.0011 58.9776C7.33357 57.0698 6.21546 56.3507 4.12376 56.3507H1.00257L0.000244141 63.6122ZM4.7828 58.8718C4.64817 59.5387 4.26089 59.9848 3.51961 59.9848H2.8007L3.07579 57.8724H3.69056C4.49838 57.8724 4.913 58.2101 4.7828 58.8718Z" fill="white"/>
<path d="M12.9916 58.5953C12.5062 58.0955 11.7429 57.8436 10.7198 57.8436C9.64711 57.8436 8.77305 58.111 8.12685 58.6437C7.47594 59.18 7.09089 59.844 6.9825 60.6244L6.93177 60.995C6.80896 61.8835 7.03868 62.5711 7.61686 63.0397C8.17278 63.4925 8.98022 63.7207 10.0137 63.7207C10.5437 63.7207 11.0238 63.6829 11.4439 63.6009C11.8679 63.5251 12.2658 63.4048 12.6277 63.2509L12.7411 63.2029L12.7578 63.0853L12.878 62.2112L12.9146 61.95L12.6601 62.04C12.2684 62.1746 11.889 62.2804 11.5287 62.3455C11.1699 62.412 10.8215 62.4462 10.49 62.4462C10.0074 62.4462 9.629 62.3429 9.36417 62.1354C9.14627 61.9696 9.0534 61.6697 9.08233 61.2469H13.4665L13.4913 61.0642L13.5578 60.5749C13.6699 59.7671 13.4809 59.1001 12.9916 58.5953ZM9.25171 60.1351C9.34827 59.763 9.5025 59.4929 9.71771 59.3339C9.98255 59.1382 10.2551 59.0443 10.5552 59.0443C10.901 59.0443 11.1555 59.1382 11.3356 59.3339C11.4895 59.497 11.5668 59.7671 11.5668 60.135L9.25171 60.1351Z" fill="white"/>
<path d="M18.2409 57.9887H16.5379L16.7743 56.3509H14.6641L13.8789 61.6838C13.7912 62.314 13.9181 62.8086 14.2521 63.1533C14.582 63.4937 15.0714 63.6789 15.7068 63.6675C16.7025 63.649 17.2322 63.4141 17.2322 63.4141L17.398 62.0126C17.398 62.0126 16.923 62.1616 16.5734 62.1732C15.9576 62.1954 15.9939 61.7896 16.0238 61.5614L16.2994 59.48H18.0061L18.2409 57.9887Z" fill="white"/>
<path d="M29.314 58.5992C28.7725 58.0965 27.9662 57.8436 26.9105 57.8436C25.8664 57.8436 24.9897 58.0954 24.3084 58.5966C23.6145 59.1041 23.2021 59.7851 23.0911 60.6114L23.0427 60.9454C22.924 61.792 23.1511 62.4785 23.7148 62.9794C24.2681 63.4713 25.0759 63.7206 26.1131 63.7206C27.1569 63.7206 28.0272 63.4795 28.7033 62.9953C29.3884 62.5044 29.7992 61.8168 29.9207 60.9454L29.9665 60.6114C30.0801 59.7891 29.8581 59.1108 29.314 58.5992ZM25.3042 60.743C25.3889 60.1165 25.5623 59.6756 25.8194 59.4381C26.0739 59.1955 26.3753 59.0805 26.733 59.0805C27.0773 59.0805 27.3448 59.1914 27.5523 59.4185C27.7494 59.6416 27.8068 60.0866 27.7154 60.743L27.7039 60.82C27.6111 61.5075 27.4258 61.9721 27.1713 62.1719C26.8998 62.3821 26.6039 62.4848 26.2632 62.4848C25.8859 62.4848 25.6109 62.3821 25.4244 62.1693C25.299 62.0258 25.1751 61.6774 25.2922 60.82L25.3042 60.743Z" fill="white"/>
<path d="M37.0856 56.5088C36.9054 56.4279 36.654 56.3668 36.3251 56.3147C36.0052 56.2648 35.5983 56.2414 35.1167 56.2414C33.9749 56.2414 32.9596 56.5743 32.1078 57.2294C31.2463 57.8921 30.7295 58.7766 30.5797 59.8663L30.5446 60.1418C30.3815 61.3107 30.6438 62.2113 31.3247 62.8205C31.9927 63.4167 32.9296 63.7207 34.108 63.7207C34.57 63.7207 34.9877 63.6897 35.3527 63.6179C35.73 63.5473 35.9908 63.4714 36.1527 63.3882L36.2534 63.3387L36.2689 63.2303L36.4109 62.1943L36.4475 61.9424L36.1971 62.0208C36.0169 62.0755 35.773 62.1396 35.4729 62.2057C35.1792 62.2712 34.823 62.3027 34.4132 62.3027C33.8329 62.3027 33.4163 62.1251 33.1386 61.7649C32.8567 61.406 32.7705 60.8279 32.8789 60.053L32.8904 59.955C32.991 59.2349 33.2506 58.6634 33.6642 58.2598C34.0729 57.8555 34.5855 57.661 35.2288 57.661C35.585 57.661 35.8957 57.6858 36.1539 57.7368C36.4109 57.789 36.6122 57.8437 36.7557 57.9025L36.989 58.0002L37.0272 57.7342L37.1718 56.6786L37.1903 56.5572L37.0856 56.5088Z" fill="white"/>
<path d="M43.1638 58.3473C42.899 58.0367 42.4696 57.8787 41.8836 57.8787C41.3174 57.8787 40.8188 57.9807 40.4052 58.1816C40.173 58.2952 39.9654 58.4165 39.7843 58.5471L40.0635 56.5308L40.0883 56.3507H37.926L37.9026 56.5309L36.9513 63.4299L36.925 63.6122H39.0848L39.1081 63.4298L39.6196 59.7317C39.7528 59.6275 39.9118 59.5398 40.096 59.4721C40.3121 59.3929 40.5405 59.3528 40.7706 59.3534C40.9757 59.3534 41.1203 59.3926 41.1909 59.468C41.2611 59.5387 41.2849 59.6249 41.2703 59.7354L40.7603 63.4298L40.7325 63.6122H42.8923L42.9197 63.4298L43.4272 59.7396C43.5122 59.1263 43.4246 58.6576 43.1638 58.3473Z" fill="white"/>
<path d="M53.1421 58.3474C52.8799 58.0368 52.449 57.8788 51.8645 57.8788C51.2956 57.8788 50.7985 57.9809 50.3835 58.1818C50.1523 58.2953 49.9438 58.4166 49.761 58.5472L49.8014 58.0305H47.6405L46.9296 63.4299L46.9033 63.6124H49.063L49.0905 63.4299L49.5979 59.7319C49.7321 59.6276 49.8927 59.5399 50.0769 59.4722C50.293 59.3931 50.5214 59.353 50.7516 59.3535C50.9539 59.3535 51.0985 59.3927 51.1703 59.4681C51.2384 59.5388 51.2657 59.625 51.2497 59.7356L50.7396 63.4299L50.715 63.6124H52.8732L52.9017 63.4299L53.408 59.7397C53.4942 59.1264 53.4043 58.6577 53.1421 58.3474Z" fill="white"/>
<path d="M44.9603 57.3491C45.1537 57.5252 45.4042 57.6155 45.7015 57.6155C46.0055 57.6155 46.2797 57.5252 46.5186 57.3491C46.7742 57.1678 46.9229 56.9315 46.961 56.6512C46.9972 56.3823 46.9151 56.1515 46.7128 55.9672C46.5186 55.7912 46.2719 55.7039 45.9663 55.7039C45.6675 55.7039 45.3938 55.7912 45.1508 55.9646C44.8967 56.1489 44.7502 56.3797 44.7088 56.6512C44.6707 56.933 44.7557 57.1678 44.9603 57.3491Z" fill="white"/>
<path d="M44.5689 58.1713L43.8436 63.4299L43.8188 63.6122H45.9782L46.003 63.4299L46.7286 58.1713L46.7546 57.9886H44.5937L44.5689 58.1713Z" fill="white"/>
<path d="M23.4044 57.858C23.4044 57.858 22.4479 57.6794 20.9396 58.8404L21.0438 57.9886H18.961L18.1847 63.6122H20.3429L20.5453 62.1693C20.5453 62.1693 20.6237 61.2872 21.0398 60.786C21.4523 60.2852 21.6937 59.9823 22.9332 59.8728L23.4044 57.858Z" fill="white"/>
<path d="M59.682 58.0785C58.4385 56.8675 54.7367 57.9974 54.7367 57.9974L54.5576 59.2932C55.5937 58.7114 57.135 58.7949 57.5929 59.0154C57.9805 59.2007 57.8341 59.5765 57.7834 59.8284C57.3684 59.6978 54.126 59.2895 53.6233 61.7921C53.2294 63.7335 55.1658 64.0417 56.2854 63.7588C57.9048 63.3464 58.2779 63.3464 59.2567 63.7468C59.2515 63.7468 59.8791 59.9941 59.8791 59.9941C59.9783 59.2658 60.1688 58.5509 59.682 58.0785ZM57.3762 62.3103L56.7448 62.4461C55.8967 62.5451 55.5142 62.1445 55.6459 61.5784C55.8899 60.52 57.6162 60.9934 57.6162 60.9934L57.3762 62.3102V62.3103Z" fill="white"/>
<defs>
<linearGradient id="paint0_linear_12_3425" x1="25.5718" y1="24.5107" x2="4.35924" y2="25.0633" gradientUnits="userSpaceOnUse">
<stop stop-color="#FFE200"/>
<stop offset="1" stop-color="#F08300"/>
</linearGradient>
<linearGradient id="paint1_linear_12_3425" x1="26.6608" y1="20.6774" x2="7.77187" y2="7.50888" gradientUnits="userSpaceOnUse">
<stop stop-color="#FFE200"/>
<stop offset="1" stop-color="#F08300"/>
</linearGradient>
<linearGradient id="paint2_linear_12_3425" x1="26.6293" y1="19.9427" x2="19.8435" y2="-0.312709" gradientUnits="userSpaceOnUse">
<stop stop-color="#FFE200"/>
<stop offset="1" stop-color="#F08300"/>
</linearGradient>
<linearGradient id="paint3_linear_12_3425" x1="34.694" y1="24.7871" x2="55.4672" y2="24.7871" gradientUnits="userSpaceOnUse">
<stop stop-color="#FFE200"/>
<stop offset="1" stop-color="#F08300"/>
</linearGradient>
<linearGradient id="paint4_linear_12_3425" x1="33.3886" y1="20.6024" x2="52.2251" y2="7.50648" gradientUnits="userSpaceOnUse">
<stop stop-color="#FFE200"/>
<stop offset="1" stop-color="#F08300"/>
</linearGradient>
<linearGradient id="paint5_linear_12_3425" x1="33.3613" y1="19.9468" x2="40.1382" y2="-0.316777" gradientUnits="userSpaceOnUse">
<stop stop-color="#FFE200"/>
<stop offset="1" stop-color="#F08300"/>
</linearGradient>
</defs>
</svg>
