<svg width="60" height="40" viewBox="0 0 60 40" fill="none" xmlns="http://www.w3.org/2000/svg">
<g clip-path="url(#clip0_12_3458)">
<path fill-rule="evenodd" clip-rule="evenodd" d="M42.4772 35.7406C42.3176 35.8673 42.1784 35.9878 42.0289 36.0953C41.3238 36.6038 40.5299 36.7508 39.6777 36.6819C39.1012 36.6352 38.5542 36.5002 38.0558 36.2028C37.2817 35.7406 36.8652 35.0498 36.7563 34.1606C36.6662 33.4245 36.7756 32.7276 37.1583 32.0884C37.6123 31.3302 38.3088 30.9109 39.1605 30.7542C39.9419 30.6101 40.7217 30.6347 41.4775 30.9114C41.8491 31.0473 42.175 31.2541 42.4015 31.5915C42.4107 31.605 42.4218 31.6175 42.4348 31.6276C42.442 31.6334 42.4545 31.6329 42.4762 31.6382C42.4762 31.4083 42.4801 31.1813 42.4743 30.9547C42.4719 30.855 42.4859 30.8077 42.6059 30.8101C43.0339 30.8183 43.4624 30.8164 43.8904 30.8111C43.9974 30.8097 44.0317 30.8386 44.0317 30.949C44.0288 32.8326 44.0423 34.7158 44.0254 36.599C44.0138 37.8609 43.2879 38.728 42.0381 39.0442C40.8808 39.3368 39.7254 39.3026 38.5778 39.0032C38.0577 38.8673 37.6012 38.6133 37.2942 38.1467C37.1467 37.9221 37.0754 37.6715 37.0281 37.4107C37.0132 37.3283 37.0354 37.2936 37.1279 37.2945C37.6003 37.2984 38.0726 37.2965 38.5445 37.2955C38.598 37.2955 38.6385 37.3023 38.6559 37.3649C38.7894 37.8551 39.1707 38.0421 39.6199 38.112C40.1578 38.1954 40.701 38.2065 41.2384 38.0898C42.0227 37.9197 42.4492 37.4107 42.4757 36.6115C42.4849 36.3276 42.4772 36.0442 42.4772 35.7406ZM40.4325 35.5063C40.5747 35.4986 40.7188 35.501 40.8591 35.4812C40.9883 35.4629 41.117 35.4287 41.2413 35.3887C42.3422 35.0388 42.8401 33.6887 42.2198 32.7213C41.9369 32.2803 41.5031 32.0609 41.0066 31.9443C40.3318 31.7857 39.6893 31.844 39.0993 32.2335C38.0881 32.9011 38.0808 34.4705 39.0873 35.1458C39.4931 35.4186 39.9529 35.5015 40.4325 35.5063Z" fill="white"/>
<path fill-rule="evenodd" clip-rule="evenodd" d="M23.6733 31.6902C24.0743 31.2666 24.5255 30.9581 25.0759 30.8101C25.797 30.6163 26.5171 30.6106 27.2232 30.8766C27.5958 31.0174 27.8788 31.2709 28.0576 31.6305C28.1044 31.7245 28.127 31.7664 28.2152 31.6589C28.7502 31.0019 29.4756 30.7378 30.2936 30.6848C30.7501 30.6554 31.2017 30.6935 31.637 30.854C32.3527 31.1186 32.7499 31.6367 32.8646 32.3838C32.8916 32.5578 32.8988 32.7323 32.8988 32.9083C32.8974 34.1379 32.8959 35.3674 32.9008 36.5975C32.9012 36.7277 32.8771 36.7763 32.734 36.773C32.3281 36.7628 31.9213 36.7643 31.5155 36.773C31.3887 36.7754 31.3506 36.7465 31.3511 36.6115C31.3574 35.5082 31.3569 34.4044 31.3526 33.3011C31.3521 33.1102 31.3439 32.915 31.3068 32.7285C31.2268 32.3284 30.9809 32.0686 30.5838 31.9592C30.0825 31.8213 29.5899 31.8223 29.1127 32.0561C28.5574 32.3284 28.2972 32.7921 28.2909 33.3927C28.2793 34.4632 28.2846 35.5337 28.2914 36.6043C28.2923 36.745 28.2504 36.7759 28.1174 36.773C27.7057 36.7643 27.2941 36.7657 26.8825 36.7725C26.7678 36.7744 26.7364 36.7436 26.7369 36.6269C26.7417 35.4634 26.7412 34.2993 26.7374 33.1358C26.7369 32.9888 26.722 32.8389 26.6887 32.6962C26.5957 32.3043 26.3455 32.0604 25.9556 31.9558C25.5213 31.8392 25.0889 31.8276 24.6648 31.9857C24.0092 32.2301 23.6743 32.7444 23.6733 33.4958C23.6714 34.5336 23.6704 35.5708 23.6762 36.6086C23.6767 36.7368 23.6497 36.7773 23.5157 36.7739C23.0987 36.7648 22.6813 36.7667 22.2639 36.773C22.155 36.7749 22.127 36.7445 22.1275 36.6361C22.1309 34.7529 22.1309 32.8702 22.128 30.987C22.128 30.8805 22.1425 30.8332 22.2678 30.8361C22.69 30.8448 23.1132 30.8434 23.5359 30.8361C23.6458 30.8342 23.6786 30.8636 23.6752 30.9725C23.668 31.2121 23.6733 31.4512 23.6733 31.6902Z" fill="white"/>
<path fill-rule="evenodd" clip-rule="evenodd" d="M51.6863 33.8135C51.6863 34.3187 51.6902 34.8233 51.6844 35.3285C51.6815 35.5868 51.7808 35.7758 52.0975 35.7329C52.1351 35.7281 52.1741 35.7334 52.2127 35.7319C52.5293 35.7184 52.5293 35.7184 52.5293 36.0438C52.5293 36.2578 52.5269 36.4723 52.5303 36.6858C52.5313 36.7557 52.5187 36.7952 52.4402 36.8116C51.9553 36.9118 51.4704 36.9923 50.9749 36.882C50.6418 36.8077 50.3912 36.6405 50.2938 36.293C50.2774 36.2342 50.263 36.1739 50.1772 36.2477C49.7617 36.6043 49.2628 36.7832 48.734 36.8747C47.9074 37.0184 47.0774 37.0757 46.2643 36.8005C45.1426 36.4217 44.6833 35.0831 45.3504 34.1485C45.6589 33.7162 46.1172 33.5316 46.6127 33.414C47.2018 33.2737 47.8067 33.2592 48.4044 33.1869C48.855 33.132 49.3096 33.1007 49.7496 32.9802C50.2095 32.8543 50.328 32.409 49.9998 32.0557C49.78 31.8195 49.486 31.7457 49.1862 31.7052C48.7239 31.6431 48.2588 31.6296 47.7985 31.7318C47.3386 31.8339 46.9844 32.0552 46.8923 32.5598C46.8803 32.6264 46.8494 32.6471 46.7814 32.6466C46.3423 32.6437 45.9032 32.6442 45.4641 32.6461C45.3812 32.6466 45.3706 32.623 45.3827 32.5386C45.5109 31.6166 46.1245 30.9553 47.1073 30.747C48.1831 30.519 49.2633 30.5402 50.3295 30.815C50.8168 30.9408 51.254 31.163 51.506 31.6368C51.6434 31.8947 51.6873 32.1742 51.6868 32.4625C51.6858 32.9132 51.6863 33.3633 51.6863 33.8135ZM50.1396 34.2555C50.1396 34.2444 50.1396 34.2338 50.1396 34.2228C50.1376 34.1023 50.1834 33.9369 50.1227 33.8723C50.0369 33.7822 49.9043 33.9205 49.7863 33.9355C49.7752 33.9369 49.7641 33.9369 49.754 33.9393C49.1625 34.0892 48.5538 34.1182 47.9532 34.2011C47.6437 34.244 47.3353 34.2926 47.0543 34.4382C46.8904 34.5235 46.7554 34.6455 46.7082 34.8339C46.5785 35.3502 46.8277 35.7758 47.3415 35.9204C47.8419 36.0611 48.3417 36.0076 48.83 35.8751C49.5939 35.6673 50.1892 35.1781 50.1396 34.2555Z" fill="white"/>
<path fill-rule="evenodd" clip-rule="evenodd" d="M14.5186 30.7966C14.1503 31.1008 13.8134 31.3803 13.4751 31.6575C12.94 32.0952 12.4055 32.5328 11.8666 32.9652C11.789 33.0274 11.7967 33.0563 11.8541 33.1271C12.7998 34.295 13.7416 35.4663 14.6844 36.6361C14.7013 36.6573 14.7177 36.6785 14.7331 36.6978C14.7114 36.7571 14.6661 36.7311 14.6333 36.7311C14.0294 36.7325 13.4259 36.7291 12.8219 36.7349C12.7116 36.7359 12.6417 36.7031 12.5742 36.6159C11.9413 35.795 11.3027 34.9785 10.6708 34.1572C10.5936 34.0569 10.5522 34.0265 10.4408 34.1268C10.2051 34.3398 9.95354 34.5355 9.70194 34.7303C9.62337 34.7915 9.59638 34.8551 9.59686 34.952C9.60072 35.4952 9.5959 36.0389 9.60072 36.5821C9.60168 36.6896 9.58722 36.7383 9.46045 36.7359C9.03774 36.7272 8.61502 36.7291 8.19278 36.7354C8.08385 36.7369 8.05493 36.7074 8.05493 36.5976C8.05831 33.9793 8.05831 31.3611 8.05493 28.7423C8.05493 28.631 8.0771 28.5915 8.1976 28.5939C8.61454 28.6016 9.03195 28.6021 9.44937 28.5934C9.57806 28.5905 9.60216 28.631 9.60168 28.751C9.59782 30.1671 9.59927 31.5833 9.59975 32.9999C9.59975 33.0409 9.57806 33.0871 9.62819 33.1344C9.91546 32.8852 10.2032 32.635 10.4915 32.3853C11.0761 31.8792 11.6608 31.3731 12.246 30.867C12.2913 30.828 12.3346 30.7942 12.404 30.7942C13.0928 30.7981 13.7826 30.7966 14.5186 30.7966Z" fill="white"/>
<path fill-rule="evenodd" clip-rule="evenodd" d="M21.7529 36.771C21.0989 36.771 20.4457 36.7686 19.7926 36.7734C19.6972 36.7744 19.6596 36.719 19.6124 36.6578C18.9694 35.8311 18.324 35.0059 17.6839 34.1769C17.6193 34.0935 17.5855 34.0757 17.4978 34.1509C17.2438 34.3683 16.9816 34.577 16.7189 34.7837C16.6461 34.8411 16.6235 34.9042 16.6244 34.9944C16.6283 35.5376 16.6235 36.0813 16.6288 36.625C16.6297 36.7354 16.609 36.7763 16.4875 36.7739C16.0648 36.7662 15.6421 36.7677 15.2194 36.7734C15.1119 36.7749 15.081 36.7474 15.081 36.637C15.0844 34.0183 15.0844 31.3996 15.0806 28.7804C15.0806 28.6642 15.1124 28.6324 15.2276 28.6343C15.6445 28.6411 16.0619 28.6425 16.4789 28.6334C16.6095 28.6305 16.6292 28.6734 16.6288 28.7915C16.6244 30.1917 16.6259 31.5914 16.6259 32.9912C16.6259 33.049 16.6259 33.1068 16.6259 33.2013C16.9445 32.9266 17.2337 32.6783 17.5219 32.4296C18.0984 31.9308 18.6758 31.4324 19.2504 30.9311C19.3246 30.8665 19.3979 30.8361 19.4996 30.8366C20.1691 30.8414 20.8386 30.8395 21.5254 30.8395C21.4734 30.933 21.3881 30.9749 21.3206 31.0304C20.5277 31.6816 19.7333 32.3313 18.9351 32.9753C18.8344 33.0567 18.831 33.1015 18.912 33.2013C19.8524 34.3596 20.788 35.5217 21.724 36.6828C21.7404 36.7036 21.7693 36.718 21.7529 36.771Z" fill="white"/>
<path fill-rule="evenodd" clip-rule="evenodd" d="M1.33003 34.87C1.57152 34.8696 1.813 34.8705 2.05497 34.8696C2.11859 34.8691 2.17932 34.8672 2.18896 34.9515C2.24873 35.4542 2.5977 35.6904 3.03295 35.7994C3.66582 35.9579 4.30496 35.9449 4.92385 35.7145C5.17883 35.6196 5.39332 35.4634 5.41598 35.1573C5.43285 34.9327 5.33596 34.7655 5.13111 34.6647C4.80672 34.5057 4.4539 34.456 4.10348 34.3962C3.35975 34.2695 2.60108 34.2232 1.87373 34.0039C1.54067 33.9032 1.22303 33.7696 0.995041 33.4896C0.716925 33.1479 0.665833 32.7434 0.703911 32.3251C0.785852 31.4247 1.38305 30.9832 2.17643 30.7706C3.3183 30.4645 4.46498 30.4766 5.58468 30.8834C6.28262 31.1369 6.73377 31.6276 6.86102 32.3824C6.90103 32.622 6.90729 32.621 6.66533 32.621C6.23731 32.621 5.80929 32.621 5.38079 32.6215C5.32102 32.6215 5.26366 32.634 5.24486 32.5463C5.14075 32.058 4.786 31.831 4.34255 31.7197C3.83452 31.5924 3.3236 31.5837 2.81894 31.7524C2.66663 31.8035 2.53311 31.8855 2.40924 31.9886C2.15619 32.1998 2.18944 32.7059 2.57553 32.8259C3.0074 32.9608 3.45181 33.0124 3.89429 33.0809C4.61296 33.1912 5.33885 33.2684 6.02957 33.5142C6.49614 33.68 6.90247 33.933 7.03454 34.4464C7.2659 35.3472 6.92802 36.2307 5.87195 36.6385C5.10412 36.9349 4.30255 36.9711 3.49326 36.9484C2.871 36.9306 2.25982 36.8443 1.68575 36.5884C1.10494 36.3296 0.694753 35.9208 0.54003 35.2797C0.440255 34.8676 0.427241 34.871 0.85285 34.8705C1.01143 34.87 1.17049 34.87 1.33003 34.87Z" fill="white"/>
<path fill-rule="evenodd" clip-rule="evenodd" d="M53.7354 34.899C53.9768 34.8985 54.2188 34.8975 54.4603 34.8995C54.5095 34.8999 54.5692 34.8758 54.5827 34.965C54.6724 35.5641 55.1134 35.7782 55.6296 35.8726C56.1574 35.9695 56.6886 35.9488 57.2072 35.7868C57.3769 35.7338 57.534 35.6577 57.6598 35.5299C57.911 35.2754 57.8637 34.8792 57.5533 34.7057C57.2371 34.5293 56.8795 34.4878 56.5295 34.4281C55.8176 34.3066 55.0932 34.256 54.3938 34.0656C53.8959 33.9302 53.4153 33.7422 53.2172 33.2134C52.9526 32.5087 53.0432 31.551 53.9638 31.0425C54.3634 30.8217 54.7967 30.7065 55.244 30.652C55.9555 30.5658 56.6674 30.574 57.3711 30.7219C57.8642 30.8256 58.3279 30.9991 58.7077 31.349C59.0601 31.6739 59.2312 32.0831 59.2726 32.5535C59.2789 32.623 59.2582 32.6519 59.183 32.6514C58.7053 32.649 58.2276 32.65 57.75 32.6504C57.7032 32.6504 57.6627 32.6471 57.6512 32.5892C57.5557 32.1058 57.2145 31.8686 56.7758 31.7573C56.2085 31.6132 55.6364 31.5924 55.0864 31.8358C54.8348 31.9467 54.615 32.1337 54.6468 32.4432C54.6637 32.6042 54.724 32.7251 54.87 32.7999C55.1279 32.9329 55.4108 32.9695 55.6913 33.0163C56.5112 33.1541 57.3427 33.2269 58.1476 33.4481C58.3968 33.5166 58.634 33.6125 58.8591 33.7412C59.4177 34.0603 59.6606 34.8084 59.4336 35.501C59.2085 36.1888 58.6937 36.5344 58.0517 36.7436C57.3364 36.9769 56.5975 36.9918 55.8547 36.9706C55.1799 36.9513 54.5234 36.8453 53.918 36.532C53.3155 36.2201 52.9637 35.728 52.902 35.0402C52.8909 34.9183 52.9309 34.8917 53.0442 34.8956C53.2736 34.9048 53.5045 34.899 53.7354 34.899Z" fill="white"/>
<path fill-rule="evenodd" clip-rule="evenodd" d="M35.7407 33.8057C35.7407 34.7384 35.7368 35.6706 35.7445 36.6033C35.7455 36.746 35.7031 36.7744 35.57 36.772C35.1589 36.7633 34.7472 36.7662 34.3356 36.771C34.2301 36.7725 34.1838 36.758 34.1838 36.6317C34.1886 34.7505 34.1881 32.8687 34.1838 30.987C34.1833 30.8612 34.219 30.8318 34.3404 30.8342C34.7574 30.8419 35.1743 30.8429 35.5912 30.8337C35.7194 30.8313 35.744 30.8728 35.7431 30.9918C35.7387 31.9293 35.7407 32.8673 35.7407 33.8057Z" fill="white"/>
<path fill-rule="evenodd" clip-rule="evenodd" d="M24.7588 27.5977C23.8686 27.6382 22.8299 27.388 21.848 26.8969C21.3313 26.6385 20.8585 26.3136 20.4305 25.9198C19.8631 25.3973 19.397 24.8011 19.0539 24.1114C18.6711 23.3411 18.4653 22.527 18.4263 21.6647C18.3665 20.3387 18.7131 19.1299 19.4404 18.029C19.9634 17.2385 20.6551 16.6234 21.4619 16.1289C22.2563 15.6421 22.9918 15.082 23.5644 14.333C23.9467 13.8326 24.2036 13.2759 24.3376 12.6609C24.3477 12.6156 24.3308 12.5303 24.406 12.5332C24.461 12.5351 24.4537 12.6093 24.4696 12.6546C24.7294 13.3786 25.1473 14.0013 25.6833 14.5494C26.335 15.2155 27.1091 15.7105 27.9169 16.1597C29.1417 16.8403 30.1197 17.7663 30.727 19.0455C31.0066 19.6335 31.1685 20.2592 31.2187 20.9099C31.3387 22.4692 30.914 23.8684 29.9645 25.1062C29.2824 25.9955 28.4148 26.6505 27.3833 27.0868C26.6131 27.4116 25.8106 27.5866 24.7588 27.5977ZM25.0302 19.1834C24.392 19.1776 23.979 19.2986 23.5934 19.5299C22.8197 19.9941 22.3802 20.9672 22.5705 21.8127C22.8858 23.2143 24.3882 23.9894 25.719 23.4394C26.777 23.0027 27.3062 21.9708 27.0835 20.9494C26.8536 19.8972 25.9306 19.1819 25.0302 19.1834Z" fill="#BED630"/>
<path fill-rule="evenodd" clip-rule="evenodd" d="M35.5094 16.2253C34.878 16.5858 34.3054 17.023 33.7925 17.5402C33.1664 18.1721 32.7206 18.9105 32.4704 19.7651C32.4598 19.8013 32.4579 19.8514 32.4102 19.8499C32.3576 19.848 32.3692 19.7955 32.3624 19.7598C32.2622 19.2363 32.1094 18.7312 31.8795 18.2478C31.4158 17.2731 30.7063 16.513 29.8575 15.8662C29.3167 15.4541 28.7036 15.1629 28.1251 14.8135C27.0011 14.1343 26.1557 13.1988 25.5701 12.0236C24.9155 10.7092 24.702 9.3172 24.8538 7.8683C24.9873 6.59051 25.4341 5.42213 26.1673 4.3651C26.2015 4.31593 26.2304 4.26291 26.2622 4.21134L26.2574 4.19977C26.3061 4.18965 26.3215 4.14482 26.3475 4.11108C26.6806 3.68306 27.0493 3.29023 27.4561 2.93017C27.8466 2.58506 28.2799 2.30164 28.7132 2.01678C28.7252 2.01099 28.7368 2.00473 28.7489 1.99894C28.8149 1.96279 28.8804 1.92616 28.946 1.89001C29.3972 1.69094 29.8377 1.4697 30.3125 1.32558C30.9969 1.11832 31.6934 0.9877 32.4092 0.951068C34.2095 0.859487 35.8705 1.29763 37.3695 2.28959C39.0242 3.38519 40.1333 4.89145 40.6519 6.8209C40.8182 7.4398 40.8982 8.07026 40.8963 8.70602C40.8929 9.79149 40.6828 10.8389 40.2297 11.8318C40.2162 11.8612 40.2095 11.894 40.1993 11.9253C40.1227 12.069 40.0489 12.214 39.9685 12.3557C39.8267 12.6054 39.6802 12.8522 39.5356 13.1004L39.5337 13.1053C39.2522 13.4374 38.9702 13.7695 38.6883 14.102L38.6897 14.1011C38.4858 14.2794 38.2723 14.4472 38.0886 14.6477C38.0886 14.6477 38.0819 14.6515 38.0824 14.6515C38.0106 14.6713 37.959 14.7152 37.9243 14.7807L37.918 14.7841C37.7821 14.8477 37.6659 14.9378 37.5623 15.0453L37.556 15.0477C37.0692 15.3475 36.5626 15.6117 36.0623 15.8879C35.9307 15.9607 35.788 16.017 35.6834 16.1322L35.6777 16.1332C35.6102 16.1419 35.5509 16.1636 35.5191 16.2301L35.5094 16.2253ZM35.6945 8.73349C35.71 8.27029 35.5933 7.85287 35.3836 7.45859C34.6828 6.13983 32.9336 5.55372 31.4987 6.31287C30.0999 7.05275 29.5283 8.75277 30.4421 10.1737C31.0731 11.1556 32.3542 11.694 33.5776 11.372C34.7619 11.0601 35.7133 9.96212 35.6945 8.73349Z" fill="#EA292B"/>
</g>
<defs>
<clipPath id="clip0_12_3458">
<rect width="60" height="39.2714" fill="white" transform="translate(0 0.457031)"/>
</clipPath>
</defs>
</svg>
