<?xml version="1.0" encoding="utf-8"?>
<!-- Generator: Adobe Illustrator 27.5.0, SVG Export Plug-In . SVG Version: 6.00 Build 0)  -->
<svg version="1.1" xmlns="http://www.w3.org/2000/svg" xmlns:xlink="http://www.w3.org/1999/xlink" x="0px" y="0px"
	 viewBox="0 0 1000 1000" style="enable-background:new 0 0 1000 1000;" xml:space="preserve">
<g id="background">
	<rect style="fill:#FFFFFF;" width="1000" height="1000"/>
</g>
<g id="objects">
	<g>
		<g>
			<path style="fill:none;" d="M832.736,777.693c-2.545,0-5.049-0.077-7.521-0.23v83.324c-0.003,0-0.01-0.004-0.014-0.004v0.293
				c2.43,0.216,4.944,0.321,7.535,0.321c8.267,0,16.827-1.102,25.446-3.274c6.98-1.761,13.72-4.177,19.884-7.116v-80.995
				c-3.696,1.252-7.486,2.371-11.359,3.347C855.302,776.235,843.872,777.693,832.736,777.693z"/>
			<path style="fill:none;" d="M800.247,756.365c-8.267,0-16.827,1.102-25.449,3.274c-6.977,1.761-13.716,4.177-19.881,7.116v80.995
				c3.696-1.255,7.486-2.371,11.359-3.347c11.405-2.876,22.831-4.334,33.971-4.334c2.545,0,5.049,0.077,7.521,0.23v-83.324
				c0.003,0,0.01,0.004,0.014,0.004v-0.293C805.352,756.469,802.838,756.365,800.247,756.365z"/>
			<path style="fill:#FFB41D;" d="M807.768,840.299c-2.472-0.153-4.976-0.23-7.521-0.23c-11.14,0-22.566,1.457-33.971,4.334
				c-3.874,0.976-7.664,2.092-11.359,3.347v-80.995c6.164-2.939,12.904-5.356,19.881-7.116c8.622-2.172,17.182-3.274,25.449-3.274
				c2.591,0,5.104,0.104,7.535,0.321v0.293c2.772,0.798,5.683,1.457,8.717,1.97c2.807,0.474,5.718,0.823,8.717,1.039v-17.775
				c-7.44-2.148-15.902-3.281-24.968-3.281c-9.411,0-19.47,1.22-29.71,3.804c-12.402,3.124-23.629,7.883-33.053,13.661V874.97
				c9.424-5.781,20.651-10.536,33.053-13.664c10.24-2.58,20.299-3.804,29.71-3.804c2.559,0,5.07,0.091,7.521,0.272V840.299z"/>
			<path style="fill:#061E5C;" d="M862.446,756.456c-10.24,2.58-20.299,3.804-29.71,3.804c-2.559,0-5.07-0.091-7.521-0.272
				c-2.998-0.216-5.91-0.565-8.717-1.039c-3.033-0.513-5.945-1.172-8.717-1.97c-0.004,0-0.01-0.004-0.014-0.004v83.324v17.475
				v17.775c7.44,2.148,15.899,3.281,24.968,3.281c9.407,0,19.469-1.22,29.71-3.804c12.402-3.124,23.626-7.883,33.053-13.661V742.791
				C886.071,748.572,874.848,753.328,862.446,756.456z M878.066,851.007c-6.164,2.939-12.904,5.355-19.884,7.116
				c-8.619,2.172-17.179,3.274-25.446,3.274c-2.591,0-5.104-0.105-7.535-0.321v-0.293c0.003,0,0.01,0.004,0.014,0.004v-83.324
				c2.472,0.153,4.976,0.23,7.521,0.23c11.136,0,22.566-1.457,33.97-4.334c3.874-0.976,7.664-2.096,11.359-3.347V851.007z"/>
		</g>
		<g>
			<g>
				<path style="fill:#FFB41D;" d="M750.04,925.716v1.674c0,0.837-0.159,1.63-0.476,2.378c-0.318,0.748-0.755,1.414-1.313,1.997
					c-0.558,0.584-1.212,1.046-1.96,1.389c-0.748,0.342-1.554,0.514-2.416,0.514c-0.736,0-1.484-0.102-2.245-0.305
					c-0.761-0.203-1.446-0.558-2.055-1.065c-0.609-0.507-1.11-1.16-1.503-1.959c-0.394-0.799-0.59-1.82-0.59-3.063v-14.915
					c0-0.888,0.152-1.712,0.457-2.473c0.304-0.761,0.735-1.42,1.294-1.979c0.558-0.558,1.224-0.995,1.997-1.313
					c0.774-0.317,1.63-0.476,2.569-0.476c1.826,0,3.31,0.596,4.452,1.788c0.558,0.584,0.995,1.275,1.313,2.074
					c0.317,0.799,0.476,1.668,0.476,2.606v1.522h-3.881v-1.294c0-0.761-0.216-1.42-0.647-1.978c-0.432-0.558-1.015-0.837-1.75-0.837
					c-0.964,0-1.605,0.299-1.922,0.894c-0.317,0.596-0.475,1.351-0.475,2.264v13.849c0,0.786,0.171,1.446,0.514,1.979
					c0.342,0.533,0.957,0.799,1.845,0.799c0.253,0,0.526-0.044,0.818-0.133c0.292-0.089,0.564-0.234,0.818-0.438
					c0.228-0.203,0.419-0.482,0.571-0.837c0.152-0.355,0.228-0.799,0.228-1.332v-1.332H750.04z"/>
				<path style="fill:#FFB41D;" d="M760.579,912.741c0-1.09,0.19-2.055,0.571-2.892c0.38-0.837,0.888-1.534,1.522-2.093
					c0.609-0.533,1.3-0.938,2.074-1.217c0.774-0.279,1.554-0.419,2.34-0.419c0.786,0,1.566,0.14,2.34,0.419
					c0.773,0.279,1.477,0.685,2.112,1.217c0.609,0.558,1.103,1.256,1.484,2.093c0.38,0.837,0.571,1.801,0.571,2.892v14.306
					c0,1.141-0.19,2.118-0.571,2.93c-0.38,0.812-0.875,1.484-1.484,2.017c-0.634,0.558-1.339,0.977-2.112,1.256
					c-0.774,0.279-1.554,0.419-2.34,0.419c-0.787,0-1.567-0.14-2.34-0.419c-0.774-0.279-1.465-0.697-2.074-1.256
					c-0.634-0.533-1.141-1.204-1.522-2.017c-0.38-0.812-0.571-1.788-0.571-2.93V912.741z M764.461,927.048
					c0,0.939,0.26,1.63,0.78,2.074c0.519,0.444,1.135,0.666,1.845,0.666c0.71,0,1.325-0.222,1.845-0.666
					c0.519-0.443,0.78-1.135,0.78-2.074v-14.306c0-0.938-0.261-1.63-0.78-2.074c-0.52-0.443-1.136-0.666-1.845-0.666
					c-0.711,0-1.326,0.222-1.845,0.666c-0.52,0.444-0.78,1.135-0.78,2.074V927.048z"/>
				<path style="fill:#FFB41D;" d="M784.626,933.44v-27.091h3.729l4.984,14.344h0.076l4.946-14.344h3.767v27.091h-3.881v-16.475
					h-0.076l-3.843,11.643h-1.941l-3.805-11.643h-0.076v16.475H784.626z"/>
				<path style="fill:#FFB41D;" d="M813.391,933.44v-27.091h5.821c1.065,0,2.003,0.14,2.816,0.419
					c0.812,0.279,1.547,0.774,2.207,1.484c0.659,0.71,1.116,1.541,1.37,2.492c0.253,0.951,0.381,2.239,0.381,3.862
					c0,1.218-0.07,2.245-0.209,3.082c-0.14,0.837-0.438,1.623-0.894,2.359c-0.533,0.888-1.243,1.579-2.131,2.073
					c-0.888,0.495-2.055,0.742-3.5,0.742h-1.978v10.577H813.391z M817.272,910.002v9.208h1.864c0.786,0,1.395-0.114,1.826-0.342
					c0.431-0.228,0.748-0.545,0.951-0.951c0.203-0.38,0.323-0.85,0.362-1.408c0.038-0.558,0.057-1.18,0.057-1.865
					c0-0.634-0.013-1.236-0.038-1.807c-0.026-0.571-0.14-1.071-0.343-1.503c-0.203-0.431-0.508-0.761-0.913-0.989
					c-0.406-0.228-0.989-0.342-1.75-0.342H817.272z"/>
				<path style="fill:#FFB41D;" d="M833.329,933.44l6.05-27.091h3.234l6.05,27.091h-3.881l-1.142-5.821h-5.289l-1.142,5.821H833.329
					z M842.917,923.966l-1.903-9.817h-0.076l-1.902,9.817H842.917z"/>
				<path style="fill:#FFB41D;" d="M858.022,933.44v-27.091h3.729l5.859,16.323h0.076v-16.323h3.881v27.091h-3.653l-5.935-16.285
					h-0.076v16.285H858.022z"/>
				<path style="fill:#FFB41D;" d="M886.291,933.44v-11.453l-5.327-15.638h4.109l3.12,10.768h0.076l3.12-10.768h4.109l-5.327,15.638
					v11.453H886.291z"/>
			</g>
		</g>
		<g>
			<path style="fill:#061E5C;" d="M739.306,946.311v-5.225h-1.874v-1.065h4.998v1.065h-1.858v5.225H739.306z"/>
			<path style="fill:#061E5C;" d="M757.016,946.311h-1.388l-0.539-1.427h-2.519l-0.523,1.427h-1.348l2.45-6.291h1.348
				L757.016,946.311z M754.671,943.818l-0.861-2.328l-0.862,2.328H754.671z"/>
			<path style="fill:#061E5C;" d="M768.692,943.992v-1.049h2.736v2.506c-0.701,0.647-1.595,0.97-2.68,0.97
				c-1.05,0-1.847-0.305-2.391-0.916c-0.544-0.61-0.816-1.397-0.816-2.359c0-1.076,0.303-1.884,0.909-2.423
				c0.606-0.539,1.344-0.809,2.215-0.809c1.517,0,2.41,0.616,2.68,1.848l-1.253,0.24c-0.197-0.673-0.673-1.01-1.427-1.01
				c-1.212,0-1.819,0.7-1.819,2.101c0,0.691,0.155,1.236,0.465,1.636c0.31,0.4,0.757,0.6,1.34,0.6c0.539,0,1.038-0.175,1.496-0.526
				v-0.809H768.692z"/>
			<path style="fill:#061E5C;" d="M788.288,946.311v-6.291h1.279v5.225h3.15v1.065H788.288z"/>
			<path style="fill:#061E5C;" d="M801.7,946.311v-6.291h1.279v6.291H801.7z"/>
			<path style="fill:#061E5C;" d="M812.274,946.311v-6.291h1.236l2.588,4.203v-4.203h1.171v6.291h-1.266l-2.545-4.107v4.107H812.274
				z"/>
			<path style="fill:#061E5C;" d="M826.685,946.311v-6.291h4.673v1.065h-3.393v1.388h3.15v1.062h-3.15v1.71h3.515v1.065H826.685z"/>
			<path style="fill:#061E5C;" d="M847.966,946.311v-6.291h1.266v2.479h2.489v-2.479h1.266v6.291h-1.266v-2.749h-2.489v2.749
				H847.966z"/>
			<path style="fill:#061E5C;" d="M862.378,946.311v-6.291h4.673v1.065h-3.393v1.388h3.15v1.062h-3.15v1.71h3.515v1.065H862.378z"/>
			<path style="fill:#061E5C;" d="M876.345,946.311v-6.291h2.68c0.827,0,1.444,0.123,1.852,0.37
				c0.408,0.247,0.612,0.712,0.612,1.396c0,1.004-0.552,1.587-1.657,1.749c0.423,0.226,0.89,0.742,1.401,1.549l0.769,1.227h-1.522
				l-1.375-2.032c-0.134-0.208-0.284-0.359-0.451-0.454s-0.43-0.141-0.789-0.141h-0.253v2.627H876.345z M877.611,942.674h0.94
				c0.638,0,1.069-0.052,1.294-0.155c0.224-0.103,0.337-0.321,0.337-0.654c0-0.314-0.092-0.522-0.276-0.625
				c-0.184-0.103-0.617-0.155-1.299-0.155h-0.996V942.674z"/>
			<path style="fill:#061E5C;" d="M890.757,946.311v-6.291h4.673v1.065h-3.393v1.388h3.15v1.062h-3.15v1.71h3.515v1.065H890.757z"/>
		</g>
	</g>
	<g>
		<path style="fill:none;" d="M182.761,589.652h-2.86v4.56h2.86c0.701,0,1.255-0.207,1.659-0.62
			c0.405-0.414,0.607-0.958,0.607-1.633c0-0.674-0.207-1.228-0.62-1.659C183.993,589.868,183.445,589.652,182.761,589.652z"/>
		<polygon style="fill:none;" points="195.623,453.546 195.623,453.598 233.061,453.598 233.058,416.163 233.005,416.163 
			195.623,416.16 		"/>
		<polygon style="fill:none;" points="208.635,598.394 213.113,598.394 210.874,591.649 		"/>
		<polygon style="fill:none;" points="95.451,617.948 94.122,621.961 96.805,621.961 95.476,617.948 		"/>
		<polygon style="fill:none;" points="122.59,458.811 122.59,526.579 122.59,526.631 190.41,526.631 190.41,512.288 
			136.933,512.288 136.933,512.236 136.933,458.811 		"/>
		<path style="fill:none;" d="M115.54,590.111c-1.52,0-2.734,0.495-3.642,1.484c-0.908,0.99-1.362,2.312-1.362,3.966
			c0,1.655,0.454,2.977,1.362,3.966c0.908,0.989,2.122,1.484,3.642,1.484c1.52,0,2.734-0.495,3.642-1.484
			c0.908-0.989,1.362-2.311,1.362-3.966c0-1.655-0.454-2.977-1.362-3.966C118.274,590.606,117.06,590.111,115.54,590.111z"/>
		<path style="fill:none;" d="M260.813,618.629c-0.009-0.479-0.162-0.825-0.46-1.039c-0.235-0.189-0.575-0.283-1.021-0.283h-2.179
			v2.784h2.104c0.521-0.008,0.911-0.159,1.172-0.454C260.685,619.364,260.813,619.028,260.813,618.629z"/>
		<polygon style="fill:#FFB41D;" points="122.59,458.811 136.933,458.811 136.933,512.236 156.5,492.669 156.496,439.248 
			103.026,439.248 103.023,546.146 122.59,526.579 		"/>
		<polygon style="fill:#061E5C;" points="209.973,492.724 156.5,492.721 156.5,492.669 136.933,512.236 136.933,512.288 
			190.41,512.288 190.41,526.631 122.59,526.631 122.59,526.579 103.023,546.146 103.023,546.198 209.973,546.195 		"/>
		<polygon style="fill:#061E5C;" points="233.005,416.163 233.058,416.163 233.061,453.598 195.623,453.598 195.623,453.546 
			176.06,473.109 176.06,473.161 252.624,473.161 252.624,396.597 252.572,396.597 		"/>
		<polygon style="fill:#FFB41D;" points="195.623,416.16 233.005,416.163 252.572,396.597 176.06,396.597 176.06,473.109 
			195.623,453.546 		"/>
		<polygon style="fill:#061E5C;" points="74.436,617.306 76.949,617.306 76.949,625.249 78.348,625.249 78.348,617.306 
			80.861,617.306 80.861,616.065 74.436,616.065 		"/>
		<path style="fill:#061E5C;" d="M94.878,616.065l-3.339,9.184h1.474l0.705-2.054h3.484l0.712,2.054h1.468l-3.339-9.184H94.878z
			 M94.122,621.961l1.329-4.013h0.025l1.329,4.013H94.122z"/>
		<path style="fill:#061E5C;" d="M114.722,621.507h1.871v0.479c-0.008,0.575-0.189,1.039-0.542,1.392
			c-0.353,0.37-0.8,0.554-1.342,0.554c-0.328,0-0.609-0.069-0.844-0.208c-0.239-0.117-0.433-0.271-0.579-0.46
			c-0.181-0.197-0.3-0.456-0.359-0.775c-0.067-0.319-0.101-0.93-0.101-1.833s0.034-1.518,0.101-1.846
			c0.059-0.311,0.179-0.565,0.359-0.762c0.147-0.189,0.34-0.346,0.579-0.473c0.235-0.122,0.516-0.187,0.844-0.195
			c0.445,0.008,0.823,0.137,1.134,0.384c0.298,0.26,0.504,0.575,0.617,0.945h1.474c-0.147-0.768-0.5-1.413-1.058-1.934
			c-0.559-0.517-1.281-0.779-2.167-0.787c-0.722,0.008-1.325,0.181-1.808,0.517c-0.491,0.332-0.848,0.71-1.071,1.134
			c-0.138,0.223-0.242,0.514-0.309,0.875c-0.063,0.361-0.094,1.075-0.094,2.142c0,1.05,0.031,1.76,0.094,2.129
			c0.034,0.197,0.076,0.361,0.126,0.491c0.055,0.126,0.115,0.258,0.183,0.397c0.222,0.424,0.579,0.798,1.071,1.121
			c0.483,0.336,1.086,0.512,1.808,0.529c0.936-0.017,1.713-0.334,2.331-0.951c0.613-0.621,0.928-1.392,0.945-2.312v-1.871h-3.263
			V621.507z"/>
		<polygon style="fill:#061E5C;" points="138.86,616.065 137.468,616.065 137.468,625.249 143.333,625.249 143.333,623.933 
			138.86,623.933 		"/>
		<rect x="156.254" y="616.065" style="fill:#061E5C;" width="1.392" height="9.184"/>
		<polygon style="fill:#061E5C;" points="176.683,622.591 176.658,622.591 172.5,616.065 171.19,616.065 171.19,625.249 
			172.582,625.249 172.582,618.723 172.607,618.723 176.758,625.249 178.075,625.249 178.075,616.065 176.683,616.065 		"/>
		<polygon style="fill:#061E5C;" points="191.626,625.249 197.49,625.249 197.49,623.933 193.018,623.933 193.018,621.237 
			196.835,621.237 196.835,620.002 193.018,620.002 193.018,617.381 197.49,617.381 197.49,616.065 191.626,616.065 		"/>
		<polygon style="fill:#061E5C;" points="222.033,620.002 218.398,620.002 218.398,616.065 217.006,616.065 217.006,625.249 
			218.398,625.249 218.398,621.237 222.033,621.237 222.033,625.249 223.425,625.249 223.425,616.065 222.033,616.065 		"/>
		<polygon style="fill:#061E5C;" points="236.976,625.249 242.84,625.249 242.84,623.933 238.368,623.933 238.368,621.237 
			242.185,621.237 242.185,620.002 238.368,620.002 238.368,617.381 242.84,617.381 242.84,616.065 236.976,616.065 		"/>
		<path style="fill:#061E5C;" d="M262.13,618.629c-0.025-0.848-0.33-1.501-0.913-1.959c-0.483-0.403-1.107-0.605-1.871-0.605h-3.584
			v9.184h1.392v-3.924h1.776l1.896,3.924h1.657l-2.129-4.076C261.521,620.724,262.113,619.876,262.13,618.629z M257.153,620.09
			v-2.784h2.179c0.445,0,0.785,0.094,1.021,0.283c0.298,0.214,0.451,0.561,0.46,1.039c0,0.399-0.128,0.735-0.384,1.008
			c-0.26,0.294-0.651,0.445-1.172,0.454H257.153z"/>
		<polygon style="fill:#061E5C;" points="275.24,625.249 281.104,625.249 281.104,623.933 276.632,623.933 276.632,621.237 
			280.449,621.237 280.449,620.002 276.632,620.002 276.632,617.381 281.104,617.381 281.104,616.065 275.24,616.065 		"/>
		<path style="fill:#061E5C;" d="M87.683,598.933c-0.72,1.385-1.871,2.077-3.453,2.077c-1.583,0-2.829-0.495-3.737-1.484
			c-0.908-0.989-1.362-2.311-1.362-3.966c0-1.655,0.454-2.977,1.362-3.966c0.908-0.989,2.154-1.484,3.737-1.484
			c1.583,0,2.734,0.693,3.453,2.078h5.504c-0.647-1.978-1.79-3.525-3.427-4.641c-1.637-1.115-3.507-1.673-5.612-1.673
			c-2.716,0-5.014,0.913-6.894,2.739c-1.88,1.826-2.82,4.141-2.82,6.947c0,2.806,0.94,5.122,2.82,6.948
			c1.879,1.826,4.177,2.738,6.894,2.738c2.104,0,3.975-0.557,5.612-1.673c1.637-1.115,2.779-2.662,3.427-4.641H87.683z"/>
		<path style="fill:#061E5C;" d="M115.567,585.875c-2.725,0-5.028,0.913-6.907,2.739c-1.88,1.826-2.819,4.141-2.819,6.947
			c0,2.806,0.94,5.126,2.819,6.961c1.879,1.835,4.177,2.752,6.894,2.752c2.716,0,5.009-0.917,6.88-2.752
			c1.871-1.835,2.806-4.155,2.806-6.961c0-2.806-0.931-5.122-2.793-6.947C120.585,586.788,118.292,585.875,115.567,585.875z
			 M119.182,599.527c-0.908,0.989-2.123,1.484-3.642,1.484c-1.52,0-2.734-0.495-3.642-1.484c-0.908-0.989-1.362-2.311-1.362-3.966
			c0-1.655,0.454-2.977,1.362-3.966c0.908-0.989,2.122-1.484,3.642-1.484c1.52,0,2.734,0.495,3.642,1.484
			c0.908,0.99,1.362,2.312,1.362,3.966C120.545,597.216,120.09,598.538,119.182,599.527z"/>
		<polygon style="fill:#061E5C;" points="149.738,599.203 144.288,586.145 138.999,586.145 138.999,605.085 143.613,605.085 
			143.613,594.401 148.011,605.085 151.437,605.085 155.835,594.401 155.835,605.085 160.449,605.085 160.449,586.145 
			155.161,586.145 		"/>
		<path style="fill:#061E5C;" d="M182.761,586.145h-7.474v18.94h4.614v-7.366h2.86c1.313,0,2.451-0.193,3.413-0.58
			c0.962-0.387,1.686-0.886,2.172-1.497c0.917-1.187,1.376-2.419,1.376-3.696c0-1.601-0.612-2.968-1.835-4.101
			C186.664,586.711,184.956,586.145,182.761,586.145z M184.421,593.591c-0.405,0.414-0.958,0.62-1.659,0.62h-2.86v-4.56h2.86
			c0.683,0,1.232,0.216,1.646,0.648c0.414,0.431,0.62,0.985,0.62,1.659C185.027,592.634,184.825,593.178,184.421,593.591z"/>
		<path style="fill:#061E5C;" d="M213.707,586.091h-5.612l-6.583,18.994h4.91l1.052-3.184h6.799l1.052,3.184h4.937L213.707,586.091z
			 M208.635,598.394l2.239-6.745l2.239,6.745H208.635z"/>
		<polygon style="fill:#061E5C;" points="245.652,598.043 237.936,586.091 233.322,586.091 233.322,605.085 237.936,605.085 
			237.936,593.133 245.652,605.085 250.265,605.085 250.265,586.091 245.652,586.091 		"/>
		<polygon style="fill:#061E5C;" points="275.978,586.145 272.362,594.698 268.72,586.145 263.486,586.145 270.042,598.987 
			270.042,605.085 274.655,605.085 274.655,598.987 281.212,586.145 		"/>
	</g>
	<g>
		<g>
			<polygon style="fill:none;" points="161.223,868.985 149.982,875.475 109.169,851.909 109.169,784.717 148.262,762.144 
				148.262,861.504 			"/>
			<polygon style="fill:none;" points="246.495,784.717 246.495,851.909 205.689,875.475 194.451,868.985 207.402,861.501 
				207.402,762.144 			"/>
			<polygon style="fill:#061E5C;" points="190.791,851.912 177.84,859.393 177.837,859.393 161.223,868.985 148.262,861.504 
				148.262,762.144 109.169,784.717 92.559,794.309 92.559,775.125 109.169,765.533 148.262,742.964 149.982,741.974 
				164.88,750.575 164.88,851.909 177.837,859.39 			"/>
			<polygon style="fill:#FFB41D;" points="263.112,775.125 263.112,794.309 246.495,784.717 207.402,762.144 207.402,861.501 
				194.448,868.982 178.499,878.192 177.837,878.577 149.982,894.656 92.559,861.504 92.559,794.309 109.169,784.717 
				109.169,851.909 149.982,875.475 161.223,868.985 177.837,859.393 177.84,859.393 190.791,851.912 190.791,750.575 
				205.689,741.974 			"/>
			<polygon style="fill:#061E5C;" points="263.112,794.309 263.112,861.504 205.689,894.656 177.837,878.577 178.499,878.192 
				194.448,868.982 207.402,861.501 194.451,868.985 205.689,875.475 246.495,851.909 246.495,784.717 			"/>
		</g>
		<g>
			<path style="fill:none;" d="M182.075,916.014h-1.461v3.617h1.461c1.006,0,1.82-0.815,1.82-1.797
				C183.896,916.829,183.081,916.014,182.075,916.014z"/>
			<polygon style="fill:none;" points="203.394,921.811 206.341,921.811 204.855,917.715 			"/>
			<path style="fill:none;" d="M126.982,916.014c-3.018,0-5.461,2.443-5.461,5.438c0,3.018,2.443,5.461,5.461,5.461
				c2.994,0,5.438-2.443,5.438-5.461C132.419,918.458,129.976,916.014,126.982,916.014z"/>
			<polygon style="fill:none;" points="142.102,940.528 143.065,940.528 142.58,939.19 			"/>
			<path style="fill:none;" d="M220.351,938.635h-0.595v1.182h0.595c0.329,0,0.595-0.266,0.595-0.587
				C220.945,938.901,220.679,938.635,220.351,938.635z"/>
			<polygon style="fill:#FFB41D;" points="130.826,938.635 132.492,938.635 132.492,943.377 133.682,943.377 133.682,938.635 
				135.349,938.635 135.349,937.445 130.826,937.445 			"/>
			<path style="fill:#FFB41D;" d="M141.954,937.445l-2.144,5.932h1.26l0.602-1.659h1.824l0.603,1.659h1.26l-2.144-5.932H141.954z
				 M142.102,940.528l0.477-1.338l0.485,1.338H142.102z"/>
			<path style="fill:#FFB41D;" d="M154.796,940.294h-1.189h-0.587v1.19h1.424c-0.329,0.43-0.845,0.712-1.424,0.712
				c-0.986,0-1.784-0.798-1.784-1.784c0-0.978,0.798-1.776,1.784-1.776c0.462,0,0.892,0.18,1.205,0.477l0.837-0.845
				c-0.532-0.509-1.252-0.822-2.042-0.822c-1.636,0-2.966,1.33-2.966,2.966c0,1.636,1.331,2.966,2.966,2.966s2.966-1.33,2.966-2.966
				c0-0.039-0.008-0.078-0.008-0.117H154.796z"/>
			<polygon style="fill:#FFB41D;" points="164.672,937.445 163.49,937.445 163.49,943.377 166.832,943.377 166.832,942.188 
				164.672,942.188 			"/>
			<rect x="172.075" y="937.445" style="fill:#FFB41D;" width="1.182" height="5.932"/>
			<polygon style="fill:#FFB41D;" points="182.256,941.405 179.885,937.445 178.5,937.445 178.5,943.377 179.681,943.377 
				179.681,939.425 182.06,943.377 183.438,943.377 183.438,937.445 182.256,937.445 			"/>
			<polygon style="fill:#FFB41D;" points="188.68,943.377 192.257,943.377 192.257,942.188 189.862,942.188 189.862,941.006 
				192.257,941.006 192.257,939.816 189.862,939.816 189.862,938.635 192.257,938.635 192.257,937.445 188.68,937.445 			"/>
			<polygon style="fill:#FFB41D;" points="203.331,939.816 201.171,939.816 201.171,937.445 199.989,937.445 199.989,943.377 
				201.171,943.377 201.171,941.006 203.331,941.006 203.331,943.377 204.512,943.377 204.512,937.445 203.331,937.445 			"/>
			<polygon style="fill:#FFB41D;" points="209.755,943.377 213.331,943.377 213.331,942.188 210.937,942.188 210.937,941.006 
				213.331,941.006 213.331,939.816 210.937,939.816 210.937,938.635 213.331,938.635 213.331,937.445 209.755,937.445 			"/>
			<path style="fill:#FFB41D;" d="M222.127,939.229c0-0.986-0.79-1.784-1.777-1.784h-1.776v5.932h1.182v-2.371h0.235l1.072,2.371
				h1.299l-1.166-2.583C221.752,940.497,222.127,939.902,222.127,939.229z M220.351,939.816h-0.595v-1.182h0.595
				c0.329,0,0.595,0.266,0.595,0.595C220.945,939.55,220.679,939.816,220.351,939.816z"/>
			<polygon style="fill:#FFB41D;" points="227.487,943.377 231.064,943.377 231.064,942.188 228.669,942.188 228.669,941.006 
				231.064,941.006 231.064,939.816 228.669,939.816 228.669,938.635 231.064,938.635 231.064,937.445 227.487,937.445 			"/>
			<path style="fill:#061E5C;" d="M101.59,916.014c1.413,0,2.731,0.551,3.689,1.461l2.563-2.587
				c-1.629-1.557-3.833-2.515-6.252-2.515c-5.006,0-9.078,4.072-9.078,9.078c0,5.006,4.072,9.078,9.078,9.078
				c2.419,0,4.623-0.958,6.252-2.515l-2.563-2.563c-0.958,0.886-2.276,1.437-3.689,1.437c-3.018,0-5.461-2.419-5.461-5.437
				C96.129,918.458,98.572,916.014,101.59,916.014z"/>
			<path style="fill:#061E5C;" d="M126.982,912.373c-5.006,0-9.078,4.072-9.078,9.078c0,5.006,4.072,9.078,9.078,9.078
				c5.006,0,9.079-4.072,9.079-9.078C136.06,916.445,131.988,912.373,126.982,912.373z M126.982,926.913
				c-3.018,0-5.461-2.443-5.461-5.461c0-2.994,2.443-5.438,5.461-5.438c2.994,0,5.438,2.443,5.438,5.438
				C132.419,924.47,129.976,926.913,126.982,926.913z"/>
			<polygon style="fill:#061E5C;" points="165.739,930.53 165.739,912.373 161.834,912.373 156.54,925.644 151.223,912.373 
				147.318,912.373 147.318,930.53 150.935,930.53 150.935,921.452 154.576,930.53 158.481,930.53 162.122,921.452 162.122,930.53 
							"/>
			<path style="fill:#061E5C;" d="M182.075,912.373h-5.078v18.157h3.617v-7.258h1.485c2.994,0,5.413-2.443,5.413-5.437
				C187.513,914.817,185.094,912.373,182.075,912.373z M182.075,919.631h-1.461v-3.617h1.461c1.006,0,1.82,0.814,1.82,1.82
				C183.896,918.817,183.081,919.631,182.075,919.631z"/>
			<path style="fill:#061E5C;" d="M202.939,912.373l-6.563,18.157h3.857l1.844-5.078h5.581l1.844,5.078h3.857l-6.563-18.157H202.939
				z M203.394,921.811l1.461-4.096l1.485,4.096H203.394z"/>
			<polygon style="fill:#061E5C;" points="235.636,924.494 228.378,912.373 224.139,912.373 224.139,930.53 227.756,930.53 
				227.756,918.434 235.038,930.53 239.253,930.53 239.253,912.373 235.636,912.373 			"/>
			<polygon style="fill:#061E5C;" points="259.088,912.373 256.596,917.404 254.081,912.373 250.033,912.373 254.776,921.883 
				254.776,930.53 258.393,930.53 258.393,921.883 263.136,912.373 			"/>
		</g>
	</g>
	<g>
		<g>
			<path style="fill:#FFB41D;" d="M86.856,294.073v10.121h-1.78v-10.121h-2.711V292.4h7.195v1.673H86.856z"/>
			<path style="fill:#FFB41D;" d="M105.257,301.329h-5.049l-1.314,2.864h-1.917l5.836-12.534l5.629,12.534h-1.948L105.257,301.329z
				 M104.531,299.656l-1.749-4.01l-1.833,4.01H104.531z"/>
			<path style="fill:#FFB41D;" d="M123.268,298.052h4.873v0.39c0,0.886-0.104,1.67-0.313,2.353
				c-0.203,0.631-0.547,1.222-1.031,1.772c-1.095,1.232-2.487,1.848-4.178,1.848c-1.65,0-3.063-0.596-4.239-1.787
				c-1.176-1.197-1.765-2.633-1.765-4.308c0-1.711,0.598-3.162,1.795-4.354c1.197-1.197,2.653-1.795,4.369-1.795
				c0.922,0,1.782,0.189,2.582,0.565c0.764,0.377,1.515,0.988,2.253,1.833l-1.268,1.215c-0.967-1.288-2.146-1.933-3.536-1.933
				c-1.248,0-2.294,0.43-3.139,1.291c-0.845,0.845-1.268,1.905-1.268,3.177c0,1.314,0.471,2.396,1.413,3.246
				c0.881,0.789,1.836,1.184,2.864,1.184c0.876,0,1.662-0.295,2.36-0.886c0.697-0.596,1.087-1.309,1.168-2.139h-2.941V298.052z"/>
			<path style="fill:#FFB41D;" d="M145.393,292.4v10.121h3.468v1.673h-5.247V292.4H145.393z"/>
			<path style="fill:#FFB41D;" d="M160.15,292.4v11.793h-1.78V292.4H160.15z"/>
			<path style="fill:#FFB41D;" d="M170.805,304.193v-12.595l8.601,8.998V292.4h1.78v12.511l-8.601-8.975v8.257H170.805z"/>
			<path style="fill:#FFB41D;" d="M198.341,294.073h-4.728v2.834h4.591v1.673h-4.591v3.941h4.728v1.673h-6.508V292.4h6.508V294.073z
				"/>
			<path style="fill:#FFB41D;" d="M215.354,297.013h5.087V292.4h1.779v11.793h-1.779v-5.507h-5.087v5.507h-1.78V292.4h1.78V297.013z
				"/>
			<path style="fill:#FFB41D;" d="M239.376,294.073h-4.728v2.834h4.591v1.673h-4.591v3.941h4.728v1.673h-6.508V292.4h6.508V294.073z
				"/>
			<path style="fill:#FFB41D;" d="M253.53,299.167l3.651,5.026h-2.177l-3.368-4.827h-0.321v4.827h-1.78V292.4h2.085
				c1.558,0,2.683,0.293,3.376,0.878c0.764,0.652,1.145,1.512,1.145,2.582c0,0.835-0.239,1.553-0.718,2.154
				C254.945,298.615,254.314,298.999,253.53,299.167z M251.315,297.815h0.565c1.685,0,2.528-0.644,2.528-1.932
				c0-1.207-0.82-1.81-2.459-1.81h-0.634V297.815z"/>
			<path style="fill:#FFB41D;" d="M273.282,294.073h-4.728v2.834h4.591v1.673h-4.591v3.941h4.728v1.673h-6.508V292.4h6.508V294.073z
				"/>
		</g>
		<g>
			<g>
				<polygon style="fill:#061E5C;" points="201.004,53.581 201.004,87.707 120.729,167.981 120.729,133.855 				"/>
				<polygon style="fill:#061E5C;" points="201.004,121.608 201.004,155.734 120.729,236.009 120.729,201.883 				"/>
			</g>
			<g>
				<polygon style="fill:#FFB41D;" points="234.918,53.581 234.918,87.707 154.644,167.981 154.644,133.855 				"/>
				<polygon style="fill:#FFB41D;" points="234.918,121.608 234.918,155.734 154.644,236.009 154.644,201.883 				"/>
			</g>
		</g>
		<g>
			<path style="fill:#061E5C;" d="M98.263,263.469c-0.788-0.848-1.55-1.413-2.287-1.696c-0.737-0.283-1.479-0.424-2.226-0.424
				c-1.111,0-2.115,0.197-3.013,0.591c-0.899,0.394-1.671,0.939-2.317,1.635c-0.647,0.697-1.146,1.51-1.499,2.438
				c-0.354,0.929-0.53,1.928-0.53,2.998c0,1.151,0.177,2.211,0.53,3.18c0.353,0.969,0.853,1.807,1.499,2.514
				c0.646,0.707,1.418,1.262,2.317,1.666c0.898,0.404,1.903,0.606,3.013,0.606c0.868,0,1.711-0.207,2.529-0.621
				c0.818-0.414,1.58-1.075,2.286-1.984l3.15,2.241c-0.969,1.332-2.151,2.302-3.544,2.907c-1.393,0.606-2.877,0.909-4.452,0.909
				c-1.656,0-3.175-0.268-4.558-0.803c-1.383-0.535-2.574-1.292-3.574-2.272c-0.999-0.979-1.782-2.155-2.347-3.528
				c-0.565-1.373-0.848-2.897-0.848-4.573c0-1.716,0.283-3.276,0.848-4.679c0.565-1.403,1.348-2.599,2.347-3.589
				c1-0.989,2.19-1.751,3.574-2.287c1.383-0.535,2.902-0.803,4.558-0.803c1.454,0,2.802,0.257,4.043,0.772
				c1.242,0.515,2.397,1.388,3.468,2.62L98.263,263.469z"/>
			<path style="fill:#061E5C;" d="M109.196,269.254c0-1.716,0.283-3.276,0.848-4.679c0.565-1.403,1.348-2.599,2.347-3.589
				c1-0.989,2.19-1.751,3.574-2.287c1.383-0.535,2.902-0.803,4.558-0.803c1.676-0.02,3.21,0.227,4.604,0.742
				c1.393,0.515,2.594,1.267,3.604,2.256c1.01,0.99,1.797,2.181,2.362,3.574c0.565,1.393,0.848,2.948,0.848,4.664
				c0,1.676-0.283,3.2-0.848,4.573c-0.566,1.373-1.353,2.555-2.362,3.544c-1.01,0.989-2.211,1.762-3.604,2.317
				c-1.393,0.555-2.928,0.843-4.604,0.863c-1.656,0-3.175-0.268-4.558-0.803c-1.383-0.535-2.574-1.292-3.574-2.272
				c-0.999-0.979-1.782-2.155-2.347-3.528C109.479,272.454,109.196,270.93,109.196,269.254z M113.193,269.011
				c0,1.151,0.177,2.211,0.53,3.18c0.353,0.969,0.853,1.807,1.499,2.514c0.646,0.707,1.418,1.262,2.317,1.666
				c0.898,0.404,1.903,0.606,3.013,0.606c1.11,0,2.12-0.202,3.029-0.606c0.908-0.404,1.686-0.959,2.332-1.666
				c0.646-0.706,1.146-1.544,1.499-2.514c0.353-0.969,0.53-2.029,0.53-3.18c0-1.07-0.177-2.069-0.53-2.998
				c-0.354-0.928-0.853-1.742-1.499-2.438c-0.646-0.697-1.424-1.242-2.332-1.635c-0.909-0.394-1.919-0.591-3.029-0.591
				c-1.111,0-2.115,0.197-3.013,0.591c-0.899,0.394-1.671,0.939-2.317,1.635c-0.647,0.697-1.146,1.51-1.499,2.438
				C113.37,266.942,113.193,267.941,113.193,269.011z"/>
			<path style="fill:#061E5C;" d="M141.723,258.441h5.815l5.724,15.022l5.785-15.022h5.754v21.443h-3.634v-17.808h-0.061
				l-6.511,17.808h-2.665l-6.512-17.808h-0.061v17.808h-3.634V258.441z"/>
			<path style="fill:#061E5C;" d="M175.734,258.441h7.208c1.03,0,2.024,0.101,2.983,0.303c0.959,0.202,1.802,0.54,2.529,1.015
				c0.727,0.475,1.307,1.111,1.742,1.908c0.434,0.798,0.651,1.792,0.651,2.983c0,1.353-0.232,2.443-0.697,3.271
				c-0.465,0.828-1.091,1.469-1.878,1.923c-0.788,0.454-1.701,0.762-2.741,0.924c-1.04,0.162-2.125,0.242-3.256,0.242h-2.726v8.874
				h-3.816V258.441z M181.852,267.739c0.545,0,1.11-0.02,1.696-0.061c0.585-0.04,1.125-0.161,1.62-0.363
				c0.495-0.202,0.898-0.504,1.212-0.908c0.313-0.404,0.469-0.969,0.469-1.696c0-0.666-0.142-1.196-0.424-1.59
				c-0.283-0.394-0.646-0.697-1.09-0.909c-0.444-0.212-0.939-0.348-1.484-0.409c-0.545-0.061-1.07-0.091-1.575-0.091h-2.726v6.027
				H181.852z"/>
			<path style="fill:#061E5C;" d="M204.991,258.441h3.301l9.237,21.443h-4.361l-1.999-4.906h-9.298l-1.938,4.906h-4.27
				L204.991,258.441z M209.836,271.707l-3.301-8.722l-3.362,8.722H209.836z"/>
			<path style="fill:#061E5C;" d="M225.978,258.441h5.058l10.388,15.93h0.061v-15.93h3.816v21.443h-4.846l-10.6-16.445h-0.061
				v16.445h-3.816V258.441z"/>
			<path style="fill:#061E5C;" d="M261.383,270.707l-8.056-12.266h4.785l5.27,8.541l5.33-8.541h4.543l-8.056,12.266v9.177h-3.816
				V270.707z"/>
		</g>
	</g>
	<g>
		<g>
			<path style="fill:#FFB41D;" d="M734.198,588.932v6.266h-1.102v-6.266h-1.679v-1.036h4.454v1.036H734.198z"/>
			<path style="fill:#FFB41D;" d="M750.431,593.424h-3.126l-0.813,1.773h-1.187l3.613-7.76l3.485,7.76h-1.206L750.431,593.424z
				 M749.982,592.389l-1.083-2.483l-1.135,2.483H749.982z"/>
			<path style="fill:#FFB41D;" d="M766.423,591.396h3.017v0.241c0,0.548-0.065,1.034-0.194,1.456
				c-0.126,0.391-0.339,0.757-0.638,1.097c-0.678,0.763-1.54,1.144-2.586,1.144c-1.021,0-1.896-0.369-2.625-1.107
				c-0.728-0.741-1.092-1.63-1.092-2.667c0-1.059,0.37-1.958,1.111-2.695c0.741-0.741,1.643-1.111,2.705-1.111
				c0.57,0,1.103,0.117,1.598,0.35c0.473,0.233,0.938,0.612,1.395,1.135l-0.785,0.752c-0.599-0.798-1.329-1.196-2.189-1.196
				c-0.772,0-1.42,0.266-1.943,0.799c-0.523,0.523-0.785,1.179-0.785,1.967c0,0.813,0.292,1.483,0.875,2.01
				c0.545,0.489,1.136,0.733,1.773,0.733c0.542,0,1.029-0.183,1.461-0.548c0.432-0.369,0.673-0.81,0.724-1.324h-1.821V591.396z"/>
			<path style="fill:#FFB41D;" d="M786.14,587.896v6.266h2.147v1.036h-3.249v-7.301H786.14z"/>
			<path style="fill:#FFB41D;" d="M800.118,587.896v7.301h-1.102v-7.301H800.118z"/>
			<path style="fill:#FFB41D;" d="M811.557,595.198V587.4l5.325,5.57v-5.074h1.102v7.745l-5.324-5.556v5.112H811.557z"/>
			<path style="fill:#FFB41D;" d="M833.446,588.932h-2.927v1.754h2.842v1.036h-2.842v2.44h2.927v1.036h-4.029v-7.301h4.029V588.932z
				"/>
			<path style="fill:#FFB41D;" d="M851.177,590.753h3.149v-2.856h1.102v7.301h-1.102v-3.409h-3.149v3.409h-1.102v-7.301h1.102
				V590.753z"/>
			<path style="fill:#FFB41D;" d="M870.891,588.932h-2.927v1.754h2.842v1.036h-2.842v2.44h2.927v1.036h-4.029v-7.301h4.029V588.932z
				"/>
			<path style="fill:#FFB41D;" d="M884.495,592.086l2.26,3.111h-1.348l-2.085-2.989h-0.199v2.989h-1.102v-7.301h1.291
				c0.965,0,1.661,0.181,2.09,0.544c0.473,0.404,0.709,0.936,0.709,1.598c0,0.517-0.148,0.962-0.444,1.333
				C885.372,591.744,884.981,591.982,884.495,592.086z M883.124,591.249h0.35c1.044,0,1.565-0.399,1.565-1.196
				c0-0.747-0.508-1.121-1.523-1.121h-0.393V591.249z"/>
			<path style="fill:#FFB41D;" d="M901.566,588.932h-2.927v1.754h2.842v1.036h-2.842v2.44h2.927v1.036h-4.029v-7.301h4.029V588.932z
				"/>
		</g>
		<g>
			<path style="fill:#FFB41D;" d="M716.74,578.73c-1.223,0-2.397-0.215-3.519-0.644c-1.122-0.429-2.117-1.047-2.984-1.855
				c-0.858-0.807-1.542-1.792-2.052-2.956c-0.511-1.164-0.766-2.475-0.766-3.935c0-1.46,0.25-2.784,0.751-3.974
				c0.501-1.189,1.194-2.213,2.081-3.072c0.877-0.85,1.912-1.507,3.107-1.971c1.195-0.464,2.471-0.696,3.829-0.696
				c1.011,0,1.926,0.112,2.745,0.335c0.819,0.223,1.599,0.536,2.341,0.94l0.592-0.875h1.157l0.13,6.513h-1.186
				c-0.154-0.635-0.385-1.324-0.694-2.066c-0.308-0.742-0.669-1.371-1.083-1.886c-0.462-0.583-1.011-1.041-1.647-1.371
				c-0.636-0.33-1.363-0.495-2.181-0.495c-0.934,0-1.804,0.185-2.608,0.554c-0.804,0.369-1.5,0.915-2.087,1.636
				c-0.559,0.696-0.997,1.581-1.315,2.654c-0.318,1.074-0.477,2.271-0.477,3.594c0,1.168,0.166,2.239,0.498,3.214
				c0.332,0.975,0.807,1.832,1.423,2.57c0.616,0.73,1.346,1.301,2.188,1.713c0.843,0.412,1.784,0.618,2.825,0.618
				c0.78,0,1.498-0.109,2.153-0.328s1.223-0.508,1.705-0.869c0.481-0.378,0.905-0.807,1.271-1.287
				c0.366-0.48,0.664-1.004,0.896-1.57l1.085,0.463c-0.828,1.811-1.927,3.104-3.295,3.881
				C720.256,578.342,718.628,578.73,716.74,578.73z"/>
			<path style="fill:#FFB41D;" d="M755.149,562.19c0.906,0.841,1.615,1.856,2.126,3.044c0.511,1.189,0.766,2.504,0.766,3.945
				c0,1.45-0.26,2.767-0.781,3.952c-0.521,1.184-1.244,2.193-2.169,3.025c-0.897,0.824-1.938,1.459-3.124,1.905
				c-1.186,0.446-2.449,0.669-3.789,0.669c-1.427,0-2.746-0.238-3.956-0.714c-1.21-0.476-2.249-1.139-3.117-1.989
				c-0.868-0.832-1.55-1.843-2.047-3.031c-0.497-1.188-0.745-2.461-0.745-3.817c0-1.484,0.26-2.808,0.781-3.971
				c0.521-1.163,1.239-2.169,2.155-3.018c0.906-0.841,1.96-1.484,3.16-1.931c1.201-0.446,2.456-0.669,3.768-0.669
				c1.359,0,2.642,0.227,3.847,0.682C753.23,560.727,754.272,561.366,755.149,562.19z M752.994,575.139
				c0.54-0.781,0.933-1.665,1.179-2.652c0.246-0.987,0.369-2.09,0.369-3.308c0-1.253-0.137-2.403-0.412-3.45
				c-0.275-1.047-0.678-1.939-1.208-2.677c-0.53-0.729-1.196-1.298-1.996-1.706s-1.716-0.612-2.748-0.612
				c-1.157,0-2.141,0.236-2.951,0.708c-0.81,0.472-1.47,1.103-1.981,1.892c-0.482,0.755-0.841,1.639-1.078,2.652
				c-0.236,1.013-0.354,2.077-0.354,3.192c0,1.236,0.125,2.351,0.376,3.347c0.251,0.996,0.646,1.879,1.186,2.652
				c0.521,0.755,1.176,1.345,1.967,1.77c0.791,0.425,1.736,0.637,2.835,0.637c1.032,0,1.962-0.214,2.791-0.644
				C751.798,576.512,752.473,575.911,752.994,575.139z"/>
			<path style="fill:#FFB41D;" d="M797.167,578.292h-9.068v-0.914c0.328-0.008,0.75-0.039,1.265-0.09
				c0.516-0.051,0.87-0.124,1.063-0.219c0.299-0.163,0.518-0.35,0.658-0.56c0.14-0.21,0.21-0.474,0.21-0.792v-13.284h-0.217
				l-7,15.562h-0.723l-6.668-15.884h-0.188v10.903c0,1.055,0.075,1.858,0.224,2.407c0.149,0.549,0.378,0.944,0.687,1.184
				c0.212,0.18,0.651,0.352,1.316,0.515c0.665,0.163,1.099,0.249,1.302,0.257v0.914h-8.287v-0.914
				c0.434-0.034,0.89-0.099,1.367-0.193c0.477-0.094,0.846-0.236,1.107-0.425c0.337-0.24,0.569-0.609,0.694-1.107
				c0.125-0.497,0.188-1.33,0.188-2.497v-9.345c0-0.541-0.072-0.982-0.217-1.326c-0.145-0.343-0.352-0.622-0.622-0.837
				c-0.299-0.232-0.665-0.403-1.099-0.515c-0.434-0.112-0.863-0.176-1.287-0.193v-0.914h6.998l5.879,13.71l5.019-11.469
				c0.183-0.421,0.339-0.861,0.47-1.32c0.13-0.459,0.2-0.766,0.21-0.921h6.692v0.914c-0.27,0.009-0.615,0.047-1.034,0.116
				c-0.419,0.069-0.726,0.133-0.918,0.193c-0.328,0.103-0.55,0.275-0.665,0.515c-0.116,0.24-0.174,0.502-0.174,0.785v13.168
				c0,0.3,0.058,0.554,0.174,0.76c0.116,0.206,0.337,0.386,0.665,0.541c0.174,0.086,0.482,0.165,0.926,0.238
				c0.443,0.073,0.795,0.114,1.056,0.122V578.292z"/>
			<path style="fill:#FFB41D;" d="M827.483,564.532c0,0.953-0.209,1.796-0.629,2.529c-0.419,0.734-1,1.341-1.743,1.821
				c-0.733,0.481-1.538,0.832-2.415,1.055c-0.878,0.223-1.808,0.335-2.792,0.335h-2.299v5.535c0,0.3,0.055,0.564,0.167,0.792
				c0.111,0.227,0.34,0.401,0.687,0.521c0.173,0.06,0.479,0.116,0.918,0.167c0.439,0.051,0.841,0.082,1.208,0.09v0.914h-8.808
				v-0.914c0.232-0.017,0.567-0.047,1.005-0.09c0.439-0.043,0.745-0.099,0.918-0.167c0.289-0.111,0.499-0.274,0.629-0.489
				c0.13-0.214,0.195-0.489,0.195-0.824v-13.181c0-0.3-0.048-0.571-0.145-0.811c-0.096-0.24-0.323-0.42-0.68-0.541
				c-0.367-0.111-0.731-0.191-1.092-0.238c-0.362-0.047-0.672-0.079-0.933-0.096v-0.914h9.372c1.909,0,3.459,0.41,4.65,1.229
				C826.888,562.076,827.483,563.168,827.483,564.532z M823.087,567.647c0.328-0.412,0.544-0.839,0.651-1.281
				c0.106-0.442,0.159-0.839,0.159-1.191c0-0.489-0.065-0.987-0.195-1.493c-0.13-0.506-0.354-0.948-0.672-1.326
				c-0.338-0.403-0.781-0.716-1.331-0.94c-0.55-0.223-1.234-0.335-2.054-0.335h-2.039v8.071h1.475c1.042,0,1.887-0.144,2.538-0.431
				C822.269,568.435,822.759,568.076,823.087,567.647z"/>
			<path style="fill:#FFB41D;" d="M860.823,578.292h-8.53v-0.914c0.752-0.043,1.376-0.129,1.873-0.257
				c0.496-0.129,0.745-0.287,0.745-0.476c0-0.077-0.01-0.172-0.029-0.283c-0.019-0.111-0.048-0.21-0.086-0.296l-1.7-4.093h-7.204
				c-0.27,0.601-0.49,1.124-0.659,1.57c-0.169,0.446-0.321,0.858-0.456,1.236c-0.125,0.369-0.212,0.669-0.261,0.901
				c-0.048,0.232-0.072,0.421-0.072,0.566c0,0.343,0.304,0.609,0.911,0.798c0.607,0.189,1.292,0.3,2.054,0.335v0.914h-7.729v-0.914
				c0.251-0.017,0.564-0.066,0.94-0.148c0.376-0.082,0.684-0.191,0.926-0.328c0.385-0.232,0.685-0.474,0.897-0.727
				c0.212-0.253,0.419-0.603,0.622-1.049c1.031-2.291,2.169-4.866,3.413-7.723c1.244-2.858,2.352-5.402,3.326-7.633h1.157
				l6.841,15.755c0.145,0.335,0.309,0.605,0.492,0.811c0.183,0.206,0.439,0.408,0.766,0.605c0.222,0.12,0.511,0.221,0.868,0.302
				c0.357,0.082,0.656,0.127,0.896,0.135V578.292z M852.566,570.827l-3.109-7.088l-3.064,7.088H852.566z"/>
			<path style="fill:#FFB41D;" d="M894.467,560.941c-0.27,0.009-0.685,0.077-1.244,0.206c-0.559,0.129-0.959,0.262-1.2,0.399
				c-0.347,0.215-0.581,0.627-0.701,1.236c-0.121,0.609-0.181,1.382-0.181,2.317v13.374h-1.258l-12.438-14.944v9.422
				c0,1.056,0.075,1.867,0.224,2.433c0.149,0.566,0.378,0.97,0.687,1.21c0.222,0.189,0.68,0.365,1.374,0.528
				c0.694,0.163,1.152,0.249,1.374,0.257v0.914h-8.417v-0.914c0.26-0.017,0.699-0.101,1.316-0.251
				c0.617-0.15,1.003-0.285,1.157-0.406c0.337-0.24,0.569-0.607,0.694-1.101c0.125-0.493,0.188-1.336,0.188-2.529v-8.997
				c0-0.395-0.077-0.789-0.231-1.184c-0.154-0.395-0.362-0.699-0.622-0.914c-0.347-0.283-0.817-0.526-1.41-0.727
				c-0.593-0.202-1.073-0.311-1.439-0.328v-0.914h5.863l11.535,13.925v-8.687c0-1.064-0.077-1.881-0.231-2.452
				c-0.154-0.57-0.376-0.95-0.665-1.139c-0.27-0.163-0.711-0.322-1.323-0.476c-0.612-0.155-1.078-0.24-1.396-0.257v-0.914h8.345
				V560.941z"/>
			<path style="fill:#FFB41D;" d="M925.564,560.941c-0.164,0.009-0.424,0.067-0.781,0.174c-0.357,0.108-0.612,0.212-0.767,0.315
				c-0.376,0.206-0.631,0.365-0.767,0.476c-0.135,0.112-0.396,0.403-0.781,0.875c-0.752,0.944-1.446,1.901-2.082,2.87
				c-0.636,0.97-1.432,2.201-2.386,3.694c-0.357,0.549-0.593,0.991-0.709,1.326c-0.116,0.335-0.174,0.82-0.174,1.455v3.488
				c0,0.309,0.07,0.577,0.21,0.804c0.14,0.228,0.378,0.41,0.716,0.547c0.203,0.069,0.564,0.153,1.085,0.251
				c0.521,0.099,0.94,0.152,1.258,0.161v0.914h-9.603v-0.914c0.27-0.017,0.674-0.049,1.215-0.096
				c0.54-0.047,0.916-0.109,1.128-0.187c0.347-0.129,0.586-0.304,0.716-0.528c0.13-0.223,0.195-0.498,0.195-0.824v-4.441
				c0-0.137-0.094-0.388-0.282-0.753c-0.188-0.365-0.412-0.77-0.672-1.216c-0.578-0.995-1.22-2.073-1.923-3.231
				c-0.704-1.158-1.316-2.15-1.837-2.974c-0.318-0.489-0.6-0.858-0.846-1.107c-0.246-0.249-0.528-0.468-0.846-0.656
				c-0.232-0.129-0.509-0.227-0.832-0.296c-0.323-0.069-0.615-0.112-0.875-0.129v-0.914h8.758v0.914
				c-0.983,0.017-1.678,0.077-2.083,0.18c-0.405,0.103-0.607,0.248-0.607,0.436c0,0.051,0.029,0.141,0.087,0.27
				c0.058,0.128,0.14,0.291,0.245,0.488c0.125,0.223,0.274,0.478,0.447,0.766c0.173,0.287,0.337,0.564,0.491,0.83
				c0.452,0.764,0.914,1.525,1.385,2.284c0.471,0.759,1.087,1.748,1.847,2.966c1.513-2.17,2.666-3.862,3.461-5.076
				c0.795-1.214,1.193-1.94,1.193-2.18c0-0.197-0.082-0.355-0.246-0.475c-0.164-0.12-0.381-0.214-0.651-0.283
				c-0.28-0.068-0.584-0.113-0.911-0.135c-0.328-0.021-0.632-0.045-0.911-0.071v-0.914h7.135V560.941z"/>
		</g>
		<g>
			<g>
				<g>
					<polygon style="fill:#061E5C;" points="816.552,502.621 748.714,502.621 748.773,502.688 782.631,540.861 816.494,502.688 
											"/>
					<polygon style="fill:#061E5C;" points="884.269,502.621 816.431,502.621 816.494,502.688 850.352,540.861 884.211,502.688 
											"/>
				</g>
				<g>
					<polygon style="fill:#061E5C;" points="782.693,464.448 714.856,464.448 748.714,502.621 748.773,502.688 748.831,502.621 
						782.631,464.515 782.635,464.515 					"/>
					<polygon style="fill:#061E5C;" points="850.411,464.448 782.573,464.448 782.631,464.515 782.635,464.515 816.431,502.621 
						816.435,502.621 816.494,502.688 816.552,502.621 850.352,464.515 					"/>
				</g>
				<g>
					<polygon style="fill:#061E5C;" points="918.128,464.448 850.29,464.448 850.352,464.515 884.152,502.621 884.211,502.688 
						884.269,502.621 					"/>
				</g>
			</g>
			<g>
				<g>
					<polygon style="fill:#061E5C;" points="816.552,426.28 748.714,426.28 782.573,464.448 782.631,464.515 782.689,464.448 
						782.693,464.448 816.494,426.346 					"/>
					<polygon style="fill:#061E5C;" points="884.269,426.28 816.431,426.28 816.494,426.346 850.29,464.448 850.294,464.448 
						850.352,464.515 850.411,464.448 					"/>
				</g>
				<polygon style="fill:#FFB41D;" points="816.431,502.621 782.635,464.515 782.631,464.515 748.831,502.621 				"/>
				<polygon style="fill:#FFB41D;" points="884.152,502.621 850.352,464.515 816.552,502.621 				"/>
				<polygon style="fill:#FFB41D;" points="850.29,464.448 816.494,426.346 782.693,464.448 				"/>
				<polygon style="fill:#061E5C;" points="850.411,464.448 782.573,464.448 782.631,464.515 782.635,464.515 816.431,502.621 
					816.435,502.621 816.494,502.688 816.552,502.621 850.352,464.515 				"/>
			</g>
		</g>
	</g>
	<g>
		<g>
			<g>
				<polygon style="fill:#FFB41D;" points="820.637,241.765 769.688,241.765 757.571,231.99 757.571,190.885 				"/>
				<polygon style="fill:#061E5C;" points="875.413,156.469 875.413,197.574 820.637,241.765 769.688,241.765 				"/>
			</g>
			<g>
				<polygon style="fill:#FFB41D;" points="820.637,190.321 769.688,190.321 757.571,180.546 757.571,139.441 				"/>
				<polygon style="fill:#061E5C;" points="875.413,105.025 875.413,146.13 820.637,190.321 769.688,190.321 				"/>
			</g>
			<g>
				<polygon style="fill:#FFB41D;" points="820.637,138.877 769.688,138.877 757.571,129.102 757.571,87.997 				"/>
				<polygon style="fill:#061E5C;" points="875.413,53.581 875.413,94.686 820.637,138.877 769.688,138.877 				"/>
			</g>
		</g>
		<g>
			<g>
				<path style="fill:#061E5C;" d="M744.987,274c-0.708-0.762-1.393-1.27-2.055-1.524c-0.663-0.254-1.329-0.381-2-0.381
					c-0.998,0-1.901,0.177-2.708,0.531c-0.808,0.354-1.502,0.844-2.082,1.47c-0.581,0.626-1.03,1.357-1.347,2.191
					c-0.318,0.835-0.477,1.733-0.477,2.695c0,1.034,0.159,1.987,0.477,2.858c0.317,0.871,0.766,1.624,1.347,2.259
					c0.581,0.635,1.275,1.134,2.082,1.497c0.807,0.363,1.71,0.544,2.708,0.544c0.78,0,1.538-0.186,2.273-0.558
					c0.735-0.372,1.42-0.966,2.055-1.783l2.831,2.014c-0.871,1.198-1.933,2.069-3.185,2.613c-1.252,0.544-2.586,0.817-4.001,0.817
					c-1.488,0-2.854-0.241-4.096-0.721c-1.243-0.481-2.314-1.161-3.212-2.042c-0.898-0.88-1.602-1.937-2.11-3.171
					c-0.508-1.234-0.762-2.604-0.762-4.11c0-1.542,0.254-2.944,0.762-4.205c0.508-1.261,1.211-2.336,2.11-3.225
					c0.898-0.889,1.969-1.574,3.212-2.055c1.243-0.481,2.608-0.721,4.096-0.721c1.307,0,2.518,0.231,3.634,0.694
					c1.116,0.463,2.155,1.248,3.117,2.354L744.987,274z"/>
				<path style="fill:#061E5C;" d="M754.813,279.199c0-1.542,0.254-2.944,0.762-4.205c0.508-1.261,1.211-2.336,2.11-3.225
					c0.898-0.889,1.969-1.574,3.212-2.055c1.243-0.481,2.608-0.721,4.096-0.721c1.506-0.018,2.885,0.204,4.138,0.667
					c1.252,0.463,2.331,1.139,3.239,2.028c0.907,0.889,1.615,1.96,2.123,3.212c0.508,1.252,0.762,2.65,0.762,4.192
					c0,1.507-0.254,2.876-0.762,4.11c-0.508,1.234-1.216,2.296-2.123,3.185c-0.908,0.889-1.987,1.583-3.239,2.082
					c-1.252,0.499-2.632,0.757-4.138,0.776c-1.488,0-2.854-0.241-4.096-0.721c-1.243-0.481-2.314-1.161-3.212-2.042
					c-0.898-0.88-1.602-1.937-2.11-3.171C755.067,282.075,754.813,280.705,754.813,279.199z M758.406,278.981
					c0,1.034,0.159,1.987,0.477,2.858c0.317,0.871,0.766,1.624,1.347,2.259c0.581,0.635,1.275,1.134,2.082,1.497
					c0.807,0.363,1.71,0.544,2.708,0.544c0.998,0,1.905-0.181,2.722-0.544c0.816-0.363,1.515-0.862,2.096-1.497
					c0.581-0.635,1.03-1.388,1.347-2.259c0.317-0.871,0.476-1.824,0.476-2.858c0-0.962-0.159-1.86-0.476-2.695
					c-0.318-0.834-0.767-1.565-1.347-2.191c-0.581-0.626-1.279-1.116-2.096-1.47c-0.816-0.354-1.724-0.531-2.722-0.531
					c-0.998,0-1.901,0.177-2.708,0.531c-0.808,0.354-1.502,0.844-2.082,1.47c-0.581,0.626-1.03,1.357-1.347,2.191
					C758.565,277.121,758.406,278.02,758.406,278.981z"/>
				<path style="fill:#061E5C;" d="M784.046,269.482h5.226l5.144,13.501l5.199-13.501h5.172v19.271h-3.266v-16.005h-0.054
					l-5.852,16.005h-2.395l-5.852-16.005h-0.054v16.005h-3.266V269.482z"/>
				<path style="fill:#061E5C;" d="M814.613,269.482h6.478c0.925,0,1.819,0.091,2.681,0.272c0.862,0.182,1.62,0.486,2.273,0.912
					c0.653,0.427,1.174,0.998,1.565,1.715c0.39,0.717,0.585,1.611,0.585,2.681c0,1.216-0.209,2.196-0.626,2.94
					c-0.418,0.744-0.98,1.32-1.688,1.728c-0.708,0.408-1.529,0.685-2.464,0.83c-0.935,0.145-1.91,0.218-2.926,0.218h-2.45v7.975
					h-3.43V269.482z M820.112,277.838c0.49,0,0.998-0.018,1.524-0.055c0.526-0.036,1.011-0.145,1.456-0.327
					c0.445-0.181,0.807-0.453,1.089-0.816c0.281-0.363,0.422-0.871,0.422-1.524c0-0.599-0.127-1.075-0.381-1.429
					c-0.254-0.354-0.581-0.626-0.98-0.817c-0.399-0.191-0.844-0.313-1.334-0.367c-0.49-0.054-0.962-0.082-1.415-0.082h-2.45v5.417
					H820.112z"/>
				<path style="fill:#061E5C;" d="M840.907,269.482h2.967l8.302,19.271h-3.919l-1.797-4.41h-8.356l-1.742,4.41h-3.838
					L840.907,269.482z M845.263,281.404l-2.967-7.839l-3.021,7.839H845.263z"/>
				<path style="fill:#061E5C;" d="M859.77,269.482h4.546l9.336,14.317h0.054v-14.317h3.43v19.271h-4.355l-9.527-14.78H863.2v14.78
					h-3.43V269.482z"/>
				<path style="fill:#061E5C;" d="M891.589,280.505l-7.24-11.024h4.301l4.736,7.676l4.791-7.676h4.083l-7.24,11.024v8.247h-3.43
					V280.505z"/>
			</g>
			<g>
				<path style="fill:#FFB41D;" d="M733.169,297.19h-2.42v-1.195h6.187v1.195h-2.42v7.648h-1.346V297.19z"/>
				<path style="fill:#FFB41D;" d="M750.185,302.861h-3.354l-0.679,1.977h-1.419l3.215-8.843h1.122l3.215,8.843h-1.413
					L750.185,302.861z M749.803,301.672l-1.28-3.863H748.5l-1.28,3.863H749.803z"/>
				<path style="fill:#FFB41D;" d="M764.57,299.968h3.142v1.801c-0.016,0.886-0.319,1.628-0.91,2.226
					c-0.594,0.595-1.342,0.9-2.244,0.916c-0.695-0.016-1.276-0.186-1.741-0.509c-0.473-0.311-0.817-0.671-1.031-1.08
					c-0.065-0.133-0.123-0.261-0.176-0.382c-0.049-0.125-0.089-0.283-0.121-0.473c-0.061-0.356-0.091-1.039-0.091-2.05
					c0-1.027,0.03-1.714,0.091-2.062c0.065-0.348,0.164-0.629,0.297-0.843c0.214-0.409,0.558-0.772,1.031-1.092
					c0.465-0.323,1.045-0.489,1.741-0.497c0.853,0.008,1.549,0.261,2.086,0.758c0.538,0.501,0.877,1.122,1.019,1.862h-1.419
					c-0.109-0.356-0.307-0.659-0.594-0.91c-0.299-0.238-0.663-0.362-1.092-0.37c-0.315,0.008-0.586,0.071-0.813,0.188
					c-0.23,0.121-0.416,0.273-0.558,0.455c-0.174,0.19-0.289,0.435-0.346,0.734c-0.065,0.315-0.097,0.908-0.097,1.777
					c0,0.869,0.032,1.458,0.097,1.765c0.057,0.307,0.172,0.556,0.346,0.746c0.142,0.182,0.328,0.33,0.558,0.443
					c0.226,0.133,0.497,0.2,0.813,0.2c0.522,0,0.952-0.178,1.292-0.534c0.34-0.34,0.513-0.786,0.522-1.34v-0.461h-1.801V299.968z"/>
				<path style="fill:#FFB41D;" d="M780.9,295.995h1.34v7.576h4.306v1.268H780.9V295.995z"/>
				<path style="fill:#FFB41D;" d="M796.503,295.995h1.34v8.843h-1.34V295.995z"/>
				<path style="fill:#FFB41D;" d="M808.401,295.995h1.262l4.003,6.284h0.024v-6.284h1.34v8.843h-1.268l-3.997-6.284h-0.024v6.284
					h-1.341V295.995z"/>
				<path style="fill:#FFB41D;" d="M825.593,295.995h5.647v1.268h-4.306v2.523h3.676v1.189h-3.676v2.596h4.306v1.268h-5.647V295.995
					z"/>
				<path style="fill:#FFB41D;" d="M849.94,300.975h-3.499v3.863h-1.341v-8.843h1.341v3.791h3.499v-3.791h1.34v8.843h-1.34V300.975z
					"/>
				<path style="fill:#FFB41D;" d="M864.48,295.995h5.647v1.268h-4.306v2.523h3.675v1.189h-3.675v2.596h4.306v1.268h-5.647V295.995z
					"/>
				<path style="fill:#FFB41D;" d="M880.083,295.995h3.451c0.736,0,1.336,0.194,1.801,0.582c0.562,0.441,0.855,1.07,0.879,1.886
					c-0.016,1.201-0.586,2.018-1.71,2.45l2.05,3.924h-1.595l-1.825-3.779h-1.71v3.779h-1.34V295.995z M881.424,299.871h2.026
					c0.501-0.008,0.877-0.154,1.128-0.437c0.247-0.263,0.37-0.586,0.37-0.97c-0.008-0.461-0.156-0.794-0.443-1.001
					c-0.227-0.182-0.554-0.273-0.983-0.273h-2.098V299.871z"/>
				<path style="fill:#FFB41D;" d="M896.353,295.995H902v1.268h-4.306v2.523h3.675v1.189h-3.675v2.596H902v1.268h-5.647V295.995z"/>
			</g>
		</g>
	</g>
	<g>
		<g>
			<g>
				<path style="fill:#FFB41D;" d="M575.236,134.877c-3.592-8.671-8.893-16.634-15.732-23.472
					c-13.32-13.32-30.92-20.812-49.698-21.189c6.014,8.423,9.266,18.223,9.758,28.14c2.125,0.535,4.202,1.226,6.22,2.061
					c5.468,2.264,10.486,5.604,14.795,9.913c8.621,8.618,13.366,20.078,13.366,32.267c0,12.188-4.745,23.649-13.366,32.267
					c-8.618,8.621-20.078,13.366-32.267,13.366s-23.648-4.745-32.267-13.366c-5.99-5.99-9.964-13.245-11.921-20.913
					c-9.93-0.466-19.749-3.696-28.19-9.699c0.417,18.721,7.903,36.254,21.186,49.537c13.674,13.676,31.854,21.205,51.191,21.205
					c19.337,0,37.518-7.529,51.191-21.205c13.676-13.674,21.205-31.852,21.205-51.191
					C580.709,152.93,578.828,143.549,575.236,134.877z M463.462,154.268c1.617-8.776,5.811-17.164,12.584-23.938
					c6.595-6.595,14.854-10.922,23.831-12.592c-0.723-7.438-3.929-14.677-9.614-20.362c-1.362-1.362-2.816-2.585-4.341-3.661
					c-10.743,3.477-20.584,9.474-28.801,17.691c-8.257,8.257-14.273,18.157-17.744,28.961c1.076,1.51,2.286,2.939,3.621,4.277
					C448.71,150.352,455.989,153.564,463.462,154.268z"/>
			</g>
			<g>
				<path style="fill:#061E5C;" d="M519.564,118.356c-3.635-0.918-7.406-1.392-11.252-1.392c-2.861,0-5.682,0.262-8.436,0.773
					c0.939,9.614-2.267,19.559-9.614,26.906c-7.32,7.32-17.22,10.529-26.802,9.624c-1.199,6.517-0.979,13.245,0.664,19.682
					c0.835,0.04,1.67,0.059,2.505,0.059c13.577,0,27.16-5.168,37.496-15.504c10.336-10.339,15.504-23.916,15.504-37.494
					C519.631,120.125,519.61,119.239,519.564,118.356z M466.631,87.604c4.28,0,8.559,0.814,12.582,2.444
					c2.339,0.947,4.595,2.168,6.71,3.667c7.135-2.312,14.669-3.514,22.391-3.514c0.498,0,0.998,0.005,1.493,0.016
					c-1.678-2.35-3.57-4.593-5.679-6.702c-20.675-20.672-54.315-20.672-74.99,0c-10.015,10.015-15.531,23.333-15.531,37.496
					c0,14.163,5.516,27.479,15.531,37.494c2.139,2.136,4.414,4.052,6.798,5.746c-0.013-0.549-0.019-1.103-0.019-1.654
					c0-7.66,1.18-15.14,3.461-22.23c-4.009-5.615-6.169-12.319-6.169-19.356c0-8.928,3.477-17.322,9.79-23.635
					C449.513,90.861,458.072,87.604,466.631,87.604z"/>
			</g>
		</g>
		<g>
			<g>
				<path style="fill:#FFB41D;" d="M402.186,282.932h-2.366v-1.168h6.049v1.168h-2.366v7.478h-1.317V282.932z"/>
				<path style="fill:#FFB41D;" d="M421.254,288.477h-3.28l-0.664,1.933h-1.388l3.143-8.647h1.097l3.143,8.647h-1.382
					L421.254,288.477z M420.88,287.315l-1.251-3.778h-0.024l-1.251,3.778H420.88z"/>
				<path style="fill:#FFB41D;" d="M437.748,285.648h3.072v1.761c-0.016,0.866-0.312,1.591-0.89,2.177
					c-0.581,0.581-1.313,0.88-2.194,0.895c-0.68-0.016-1.248-0.182-1.702-0.498c-0.463-0.304-0.799-0.656-1.008-1.056
					c-0.063-0.131-0.121-0.255-0.172-0.374c-0.047-0.122-0.087-0.277-0.119-0.462c-0.059-0.348-0.089-1.016-0.089-2.005
					c0-1.004,0.03-1.676,0.089-2.016c0.063-0.34,0.16-0.615,0.291-0.824c0.209-0.399,0.546-0.755,1.008-1.068
					c0.455-0.316,1.022-0.478,1.702-0.486c0.834,0.008,1.514,0.255,2.04,0.741c0.526,0.49,0.858,1.097,0.996,1.821h-1.388
					c-0.107-0.348-0.301-0.644-0.581-0.889c-0.293-0.233-0.648-0.354-1.067-0.362c-0.309,0.008-0.574,0.069-0.795,0.184
					c-0.225,0.119-0.407,0.267-0.546,0.445c-0.17,0.186-0.283,0.425-0.338,0.718c-0.063,0.308-0.095,0.887-0.095,1.738
					s0.032,1.425,0.095,1.726c0.056,0.301,0.168,0.544,0.338,0.729c0.138,0.178,0.32,0.322,0.546,0.433
					c0.221,0.13,0.486,0.196,0.795,0.196c0.51,0,0.931-0.174,1.263-0.522c0.332-0.332,0.502-0.769,0.51-1.311v-0.451h-1.761V285.648
					z"/>
				<path style="fill:#FFB41D;" d="M459.164,281.764h1.311v7.407h4.211v1.24h-5.521V281.764z"/>
				<path style="fill:#FFB41D;" d="M476.85,281.764h1.311v8.647h-1.311V281.764z"/>
				<path style="fill:#FFB41D;" d="M490.912,281.764h1.233l3.914,6.144h0.024v-6.144h1.311v8.647h-1.24l-3.908-6.144h-0.024v6.144
					h-1.311V281.764z"/>
				<path style="fill:#FFB41D;" d="M510.152,281.764h5.521v1.24h-4.211v2.467h3.594v1.162h-3.594v2.538h4.211v1.24h-5.521V281.764z"
					/>
				<path style="fill:#FFB41D;" d="M538.78,286.633h-3.422v3.778h-1.311v-8.647h1.311v3.707h3.422v-3.707h1.311v8.647h-1.311
					V286.633z"/>
				<path style="fill:#FFB41D;" d="M552.849,281.764h5.521v1.24h-4.211v2.467h3.594v1.162h-3.594v2.538h4.211v1.24h-5.521V281.764z"
					/>
				<path style="fill:#FFB41D;" d="M570.535,281.764h3.374c0.72,0,1.307,0.19,1.761,0.569c0.549,0.431,0.836,1.046,0.86,1.844
					c-0.016,1.174-0.573,1.973-1.672,2.396l2.005,3.837h-1.56l-1.785-3.695h-1.672v3.695h-1.311V281.764z M571.845,285.553h1.981
					c0.49-0.008,0.858-0.15,1.103-0.427c0.241-0.257,0.362-0.573,0.362-0.949c-0.008-0.451-0.152-0.777-0.433-0.978
					c-0.221-0.178-0.542-0.267-0.961-0.267h-2.052V285.553z"/>
				<path style="fill:#FFB41D;" d="M588.873,281.764h5.521v1.24h-4.211v2.467h3.594v1.162h-3.594v2.538h4.211v1.24h-5.521V281.764z"
					/>
			</g>
			<g>
				<path style="fill:#061E5C;" d="M402.474,269c-1.77-1.718-2.655-3.899-2.655-6.541c0-2.642,0.885-4.822,2.655-6.541
					c1.769-1.719,3.933-2.578,6.49-2.578c1.981,0,3.742,0.525,5.283,1.575c1.541,1.05,2.617,2.506,3.226,4.369h-5.182
					c-0.677-1.304-1.761-1.956-3.251-1.956c-1.491,0-2.663,0.466-3.518,1.397c-0.855,0.932-1.283,2.176-1.283,3.734
					c0,1.558,0.427,2.803,1.283,3.734c0.855,0.932,2.028,1.397,3.518,1.397c1.49,0,2.574-0.652,3.251-1.956h5.182
					c-0.609,1.863-1.685,3.319-3.226,4.369c-1.541,1.05-3.302,1.575-5.283,1.575C406.407,271.579,404.243,270.72,402.474,269z"/>
				<path style="fill:#061E5C;" d="M432.041,269.013c-1.77-1.727-2.655-3.912-2.655-6.554c0-2.642,0.885-4.822,2.655-6.541
					c1.769-1.719,3.937-2.578,6.503-2.578c2.566,0,4.725,0.86,6.477,2.578c1.753,1.719,2.629,3.899,2.629,6.541
					c0,2.642-0.881,4.826-2.642,6.554c-1.762,1.727-3.921,2.591-6.477,2.591C435.974,271.604,433.81,270.741,432.041,269.013z
					 M441.948,266.194c0.855-0.931,1.283-2.176,1.283-3.734c0-1.558-0.428-2.802-1.283-3.734c-0.855-0.931-1.998-1.397-3.429-1.397
					c-1.431,0-2.574,0.466-3.429,1.397c-0.855,0.932-1.283,2.176-1.283,3.734c0,1.558,0.427,2.803,1.283,3.734
					c0.855,0.932,1.998,1.397,3.429,1.397C439.949,267.591,441.092,267.125,441.948,266.194z"/>
				<path style="fill:#061E5C;" d="M480.799,253.594v17.832h-4.344v-10.059l-4.141,10.059h-3.226l-4.14-10.059v10.059h-4.344
					v-17.832h4.979l5.131,12.294l5.106-12.294H480.799z"/>
				<path style="fill:#061E5C;" d="M508.36,259.056c0,1.202-0.432,2.362-1.296,3.48c-0.457,0.576-1.139,1.046-2.045,1.41
					c-0.906,0.364-1.977,0.546-3.213,0.546h-2.693v6.935h-4.344v-17.832h7.036c2.066,0,3.674,0.533,4.826,1.6
					C507.784,256.262,508.36,257.549,508.36,259.056z M499.114,261.19h2.693c0.66,0,1.181-0.195,1.562-0.584
					c0.381-0.389,0.572-0.902,0.572-1.537c0-0.635-0.195-1.156-0.584-1.562c-0.39-0.406-0.906-0.61-1.549-0.61h-2.693V261.19z"/>
				<path style="fill:#061E5C;" d="M532.466,271.426l-0.991-2.997h-6.401l-0.991,2.997h-4.623l6.198-17.883h5.284l6.172,17.883
					H532.466z M526.166,265.127h4.217l-2.108-6.35L526.166,265.127z"/>
				<path style="fill:#061E5C;" d="M561.017,253.544h4.344v17.883h-4.344l-7.265-11.253v11.253h-4.344v-17.883h4.344l7.265,11.253
					V253.544z"/>
				<path style="fill:#061E5C;" d="M588.323,271.426h-4.344v-5.741l-6.172-12.091h4.928l3.429,8.052l3.404-8.052h4.928
					l-6.173,12.091V271.426z"/>
			</g>
		</g>
	</g>
	<g>
		<g>
			<path style="fill:none;" d="M575.241,936.919c0-0.385-0.113-0.64-0.339-0.766c-0.226-0.127-0.757-0.19-1.593-0.19h-1.222v1.948
				h1.153c0.782,0,1.311-0.063,1.587-0.19C575.103,937.596,575.241,937.328,575.241,936.919z"/>
			<path style="fill:none;" d="M442.078,908.89c-1.07-0.642-2.262-0.978-3.608-0.978c-1.865,0-3.516,0.642-4.861,1.896
				c-1.345,1.253-2.048,3.424-2.048,6.39c0,2.385,0.673,4.28,1.957,5.656c1.315,1.345,2.965,2.048,4.922,2.048
				c1.987,0,3.669-0.703,4.953-2.079c1.284-1.376,1.926-3.363,1.926-5.901c0-1.62-0.275-3.057-0.825-4.25
				C443.943,910.479,443.118,909.532,442.078,908.89z"/>
			<polygon style="fill:none;" points="419.225,939.315 421.338,939.315 420.282,936.46 			"/>
			<path style="fill:#061E5C;" d="M418.872,919.468l-3.088-0.764l-0.061,0.183c-0.367,1.651-1.07,2.905-2.079,3.76
				c-1.039,0.826-2.293,1.254-3.791,1.254c-1.223,0-2.354-0.306-3.424-0.917c-1.04-0.612-1.804-1.559-2.293-2.813
				c-0.52-1.253-0.764-2.752-0.764-4.433c0-1.315,0.214-2.599,0.642-3.822c0.428-1.223,1.162-2.201,2.171-2.935
				c1.039-0.703,2.354-1.07,3.883-1.07c1.345,0,2.446,0.306,3.332,0.978c0.887,0.642,1.559,1.682,2.018,3.119l0.061,0.153
				l3.057-0.703l-0.061-0.184c-0.581-1.896-1.59-3.394-3.027-4.464c-1.437-1.039-3.21-1.559-5.32-1.559
				c-1.835,0-3.547,0.397-5.106,1.223c-1.529,0.856-2.752,2.079-3.577,3.669c-0.825,1.59-1.253,3.486-1.253,5.595
				c0,1.957,0.367,3.822,1.101,5.503c0.734,1.712,1.834,3.057,3.271,3.944c1.406,0.917,3.271,1.376,5.534,1.376
				c2.171,0,4.036-0.612,5.564-1.773c1.529-1.162,2.568-2.904,3.149-5.136L418.872,919.468z"/>
			<path style="fill:#061E5C;" d="M443.729,906.596c-1.559-0.917-3.333-1.376-5.259-1.376c-2.966,0-5.411,0.978-7.276,2.905
				c-1.865,1.926-2.813,4.647-2.813,8.041c0,1.804,0.397,3.516,1.223,5.136c0.795,1.62,1.987,2.904,3.546,3.852
				c1.559,0.948,3.332,1.406,5.289,1.406c1.835,0,3.547-0.428,5.106-1.284c1.59-0.826,2.813-2.11,3.699-3.761
				c0.856-1.62,1.284-3.516,1.284-5.595c0-2.049-0.428-3.883-1.223-5.503C446.481,908.798,445.288,907.514,443.729,906.596z
				 M443.393,921.822c-1.284,1.376-2.966,2.079-4.953,2.079c-1.957,0-3.607-0.703-4.922-2.048c-1.284-1.376-1.957-3.271-1.957-5.656
				c0-2.966,0.703-5.136,2.048-6.39c1.345-1.254,2.996-1.896,4.861-1.896c1.345,0,2.538,0.336,3.608,0.978
				c1.039,0.642,1.865,1.59,2.415,2.782c0.55,1.192,0.825,2.63,0.825,4.25C445.319,918.459,444.677,920.447,443.393,921.822z"/>
			<rect x="476.352" y="905.924" style="fill:#061E5C;" width="2.966" height="20.637"/>
			<path style="fill:#061E5C;" d="M469.412,922.862l-0.825-2.446l-4.923-14.492h-0.336v7.491l4.555,13.147h2.721l4.647-13.116
				v-7.338l-4.922,14.033C469.932,921.272,469.626,922.159,469.412,922.862z"/>
			<rect x="459.231" y="905.924" style="fill:#061E5C;" width="2.996" height="20.637"/>
			<rect x="490.019" y="905.924" style="fill:#061E5C;" width="3.088" height="20.637"/>
			<path style="fill:#061E5C;" d="M503.777,907.116c-0.703-0.489-1.59-0.826-2.599-0.978c-0.734-0.153-1.804-0.214-3.18-0.214
				h-3.791v2.752h4.005c1.223,0,2.048,0.061,2.507,0.183c0.672,0.183,1.223,0.55,1.62,1.131c0.428,0.581,0.611,1.254,0.611,2.079
				c0,1.101-0.336,1.957-1.039,2.568c-0.703,0.611-1.926,0.917-3.638,0.917h-4.066v2.782h4.036c2.935,0,5.045-0.642,6.176-1.865
				c1.162-1.223,1.743-2.721,1.743-4.494c0-1.04-0.214-1.987-0.642-2.843C505.061,908.278,504.511,907.575,503.777,907.116z"/>
			<path style="fill:#061E5C;" d="M528.114,905.924h-3.18l-8.072,20.637h3.271l0.917-2.415h-0.03l2.324-6.268l0.489-1.284
				l1.712-4.555h0.031c0.367-1.009,0.673-2.048,0.917-3.057c0.306,0.978,0.734,2.171,1.254,3.516l2.079,5.381h-5.289l-0.948,2.538
				h7.216l2.415,6.145h3.516L528.114,905.924z"/>
			<polygon style="fill:#061E5C;" points="551.106,912.528 559.606,925.002 559.606,919.713 551.106,907.269 			"/>
			<polygon style="fill:#061E5C;" points="560.768,921.425 560.706,921.333 560.706,926.561 563.764,926.561 563.764,905.924 
				560.768,905.924 			"/>
			<rect x="547.132" y="905.924" style="fill:#061E5C;" width="2.874" height="20.637"/>
			<path style="fill:#061E5C;" d="M590.486,905.924l-4.066,6.054c-0.795,1.192-1.498,2.324-2.11,3.302v-0.031l-1.712,2.599v8.714
				h3.119v-8.714l8.408-11.924H590.486z"/>
			<polygon style="fill:#061E5C;" points="582.383,912.13 578.256,905.924 574.465,905.924 581.925,916.869 583.668,914.179 			"/>
			<polygon style="fill:#FFB41D;" points="400.199,935.964 402.497,935.964 402.497,942.371 404.049,942.371 404.049,935.964 
				406.328,935.964 406.328,934.657 400.199,934.657 			"/>
			<path style="fill:#FFB41D;" d="M419.471,934.657l-3.004,7.714h1.653l0.642-1.75h3.088l0.661,1.75h1.702l-3.088-7.714H419.471z
				 M419.225,939.315l1.057-2.855l1.056,2.855H419.225z"/>
			<path style="fill:#FFB41D;" d="M438.529,939.528h1.786v0.992c-0.562,0.43-1.173,0.645-1.834,0.645
				c-0.715,0-1.263-0.245-1.643-0.736c-0.381-0.491-0.571-1.159-0.571-2.006c0-1.718,0.743-2.577,2.23-2.577
				c0.925,0,1.508,0.413,1.75,1.238l1.536-0.294c-0.331-1.511-1.426-2.266-3.286-2.266c-1.067,0-1.973,0.331-2.716,0.992
				c-0.743,0.661-1.115,1.652-1.115,2.972c0,1.18,0.334,2.145,1,2.893c0.667,0.749,1.644,1.123,2.932,1.123
				c1.331,0,2.426-0.397,3.286-1.189v-3.073h-3.355V939.528z"/>
			<polygon style="fill:#FFB41D;" points="464.127,934.657 462.559,934.657 462.559,942.371 467.99,942.371 467.99,941.065 
				464.127,941.065 			"/>
			<rect x="479.004" y="934.657" style="fill:#FFB41D;" width="1.569" height="7.714"/>
			<polygon style="fill:#FFB41D;" points="496.66,939.811 493.487,934.657 491.97,934.657 491.97,942.371 493.422,942.371 
				493.422,937.335 496.543,942.371 498.095,942.371 498.095,934.657 496.66,934.657 			"/>
			<polygon style="fill:#FFB41D;" points="511.21,938.968 515.073,938.968 515.073,937.666 511.21,937.666 511.21,935.964 
				515.371,935.964 515.371,934.657 509.642,934.657 509.642,942.371 515.521,942.371 515.521,941.065 511.21,941.065 			"/>
			<polygon style="fill:#FFB41D;" points="540.342,937.698 537.29,937.698 537.29,934.657 535.737,934.657 535.737,942.371 
				537.29,942.371 537.29,939 540.342,939 540.342,942.371 541.894,942.371 541.894,934.657 540.342,934.657 			"/>
			<polygon style="fill:#FFB41D;" points="554.977,938.968 558.84,938.968 558.84,937.666 554.977,937.666 554.977,935.964 
				559.138,935.964 559.138,934.657 553.409,934.657 553.409,942.371 559.287,942.371 559.287,941.065 554.977,941.065 			"/>
			<path style="fill:#FFB41D;" d="M574.81,938.968c1.355-0.199,2.032-0.914,2.032-2.145c0-0.839-0.25-1.409-0.75-1.712
				c-0.5-0.302-1.257-0.454-2.27-0.454h-3.286v7.714h1.552v-3.222h0.311c0.441,0,0.763,0.058,0.968,0.173
				c0.204,0.116,0.388,0.301,0.552,0.556l1.685,2.492h1.867l-0.943-1.504C575.901,939.878,575.329,939.245,574.81,938.968z
				 M573.241,937.911h-1.153v-1.948h1.222c0.836,0,1.367,0.063,1.593,0.19c0.226,0.126,0.339,0.382,0.339,0.766
				c0,0.409-0.138,0.676-0.413,0.802C574.552,937.848,574.023,937.911,573.241,937.911z"/>
			<polygon style="fill:#FFB41D;" points="589.776,938.968 593.638,938.968 593.638,937.666 589.776,937.666 589.776,935.964 
				593.937,935.964 593.937,934.657 588.207,934.657 588.207,942.371 594.086,942.371 594.086,941.065 589.776,941.065 			"/>
		</g>
		<g>
			<path style="fill:none;" d="M472.902,776.847c-6.975-6.965-15.67-11.58-25.121-13.458v38.435h38.592
				C484.468,792.423,479.843,783.781,472.902,776.847z"/>
			<path style="fill:none;" d="M487.36,822.368c-0.043,0.01-0.084,0.017-0.127,0.027l0-0.001c-9.401,1.891-18.049,6.5-24.99,13.434
				c-6.945,6.931-11.567,15.573-13.474,24.977h38.592V821.42h0V822.368z"/>
			<path style="fill:#FFB41D;" d="M487.36,763.607v57.813v39.385h-38.592c1.908-9.405,6.53-18.046,13.474-24.977
				c6.941-6.935,15.589-11.543,24.99-13.434c-0.05-0.324-0.1-0.648-0.147-0.973h-38.14c0,0,0.001-0.001,0.001-0.001h-0.001
				c-0.184,0.177-0.365,0.358-0.549,0.539c-6.319,6.312-11.289,13.665-14.763,21.855c-3.601,8.484-5.432,17.49-5.449,26.775
				l-0.017,9.813h78.493h0.127V821.42h0.017l-0.003-0.679l-0.013-9.117V763.45h0.04h0.127v-0.03h38.592
				c-1.904,9.405-6.526,18.046-13.471,24.977c-4.98,4.973-10.834,8.748-17.216,11.185v2.242h31.494
				c6.115-6.212,10.934-13.411,14.331-21.413c3.598-8.484,5.429-17.49,5.445-26.774l0.017-9.813H487.36V763.607z"/>
			<path style="fill:#FFB41D;" d="M487.36,822.368v-0.949h-0.274h-38.139c0,0.001-0.001,0.001-0.001,0.001h38.14
				c0.047,0.324,0.097,0.648,0.147,0.973l0,0.001C487.276,822.385,487.316,822.378,487.36,822.368z"/>
			<path style="fill:#061E5C;" d="M487.085,821.42h0.274h0v-57.813c-0.204-0.211-0.408-0.418-0.616-0.626
				c-6.319-6.312-13.682-11.269-21.875-14.729c-8.491-3.588-17.504-5.405-26.788-5.405h-9.896v78.573h20.76h0.001H487.085z
				 M447.78,801.824v-38.435c9.451,1.878,18.146,6.493,25.121,13.458c6.941,6.935,11.566,15.576,13.471,24.977H447.78z"/>
			<path style="fill:#061E5C;" d="M514.861,821.42h30.697v38.435c-9.455-1.874-18.146-6.493-25.121-13.458
				c-2.068-2.065-3.932-4.284-5.576-6.63v27.554c4.214,3.059,8.765,5.626,13.608,7.671c8.491,3.588,17.504,5.408,26.788,5.408h9.893
				v-78.576h-18.796h-31.494V821.42z"/>
			<polygon style="fill:#FFFFFF;" points="506.828,880.401 506.956,880.401 506.956,821.42 506.972,821.42 506.969,820.74 
				506.956,811.624 506.956,763.45 506.828,763.45 			"/>
		</g>
	</g>
	<g>
		<g>
			<g>
				<g>
					<path style="fill:#061E5C;" d="M411.305,590.115c-0.85-0.896-1.673-1.493-2.468-1.792c-0.796-0.299-1.596-0.448-2.402-0.448
						c-1.199,0-2.283,0.208-3.252,0.624c-0.97,0.416-1.803,0.992-2.5,1.728c-0.698,0.736-1.237,1.595-1.618,2.577
						c-0.381,0.982-0.572,2.038-0.572,3.169c0,1.216,0.191,2.336,0.572,3.361c0.381,1.024,0.92,1.91,1.618,2.657
						c0.697,0.747,1.53,1.334,2.5,1.76c0.969,0.427,2.053,0.64,3.252,0.64c0.936,0,1.846-0.219,2.729-0.656
						c0.882-0.437,1.704-1.136,2.467-2.097l3.399,2.369c-1.046,1.408-2.321,2.433-3.824,3.073c-1.503,0.64-3.105,0.96-4.804,0.96
						c-1.787,0-3.426-0.283-4.918-0.848c-1.493-0.565-2.778-1.365-3.856-2.401c-1.078-1.035-1.923-2.277-2.533-3.729
						c-0.61-1.451-0.915-3.062-0.915-4.833c0-1.813,0.305-3.462,0.915-4.945c0.61-1.483,1.454-2.747,2.533-3.793
						c1.078-1.045,2.364-1.851,3.856-2.417c1.492-0.565,3.132-0.848,4.918-0.848c1.569,0,3.023,0.272,4.363,0.816
						c1.34,0.544,2.587,1.467,3.742,2.769L411.305,590.115z"/>
				</g>
				<g>
					<path style="fill:#061E5C;" d="M423.103,596.229c0-1.813,0.305-3.462,0.915-4.945c0.61-1.483,1.454-2.747,2.533-3.793
						c1.078-1.045,2.364-1.851,3.856-2.417c1.492-0.565,3.132-0.848,4.918-0.848c1.808-0.021,3.464,0.24,4.968,0.784
						c1.503,0.544,2.799,1.339,3.889,2.385c1.089,1.046,1.939,2.305,2.549,3.777c0.61,1.472,0.915,3.116,0.915,4.929
						c0,1.771-0.305,3.382-0.915,4.833c-0.61,1.451-1.46,2.7-2.549,3.745c-1.09,1.046-2.386,1.862-3.889,2.449
						c-1.504,0.587-3.16,0.891-4.968,0.912c-1.787,0-3.426-0.283-4.918-0.848c-1.493-0.565-2.778-1.365-3.856-2.401
						c-1.079-1.035-1.923-2.277-2.533-3.729C423.408,599.611,423.103,598,423.103,596.229z M427.416,595.973
						c0,1.216,0.191,2.336,0.572,3.361c0.381,1.024,0.92,1.91,1.618,2.657c0.697,0.747,1.53,1.334,2.5,1.76
						c0.969,0.427,2.053,0.64,3.252,0.64c1.198,0,2.288-0.213,3.268-0.64c0.98-0.427,1.819-1.013,2.516-1.76
						c0.697-0.747,1.236-1.632,1.618-2.657c0.381-1.024,0.572-2.145,0.572-3.361c0-1.131-0.191-2.187-0.572-3.169
						c-0.381-0.981-0.921-1.841-1.618-2.577c-0.697-0.736-1.536-1.312-2.516-1.728c-0.98-0.416-2.07-0.624-3.268-0.624
						c-1.199,0-2.283,0.208-3.252,0.624c-0.97,0.416-1.803,0.992-2.5,1.728c-0.698,0.736-1.237,1.595-1.618,2.577
						C427.607,593.786,427.416,594.842,427.416,595.973z"/>
				</g>
				<g>
					<path style="fill:#061E5C;" d="M458.202,584.802h6.275l6.177,15.876l6.242-15.876h6.209v22.661h-3.922v-18.82h-0.065
						l-7.026,18.82h-2.876l-7.027-18.82h-0.065v18.82h-3.921V584.802z"/>
				</g>
				<g>
					<path style="fill:#061E5C;" d="M494.903,584.802h7.778c1.111,0,2.184,0.107,3.219,0.32c1.035,0.214,1.945,0.571,2.729,1.072
						c0.784,0.502,1.41,1.174,1.879,2.016c0.468,0.843,0.703,1.894,0.703,3.153c0,1.43-0.251,2.582-0.752,3.457
						c-0.502,0.875-1.177,1.552-2.026,2.033c-0.85,0.48-1.836,0.806-2.958,0.976c-1.122,0.171-2.293,0.256-3.513,0.256h-2.941v9.378
						h-4.118V584.802z M501.504,594.628c0.588,0,1.198-0.021,1.83-0.064c0.631-0.042,1.214-0.17,1.748-0.384
						c0.534-0.213,0.969-0.533,1.307-0.96c0.337-0.427,0.506-1.024,0.506-1.793c0-0.704-0.153-1.264-0.458-1.68
						c-0.305-0.416-0.697-0.736-1.176-0.96c-0.48-0.224-1.013-0.368-1.602-0.432c-0.588-0.064-1.155-0.096-1.699-0.096h-2.941v6.37
						H501.504z"/>
				</g>
				<g>
					<path style="fill:#061E5C;" d="M526.473,584.802h3.562l9.968,22.661h-4.706l-2.157-5.185h-10.033l-2.092,5.185h-4.608
						L526.473,584.802z M531.702,598.821l-3.562-9.218l-3.628,9.218H531.702z"/>
				</g>
				<g>
					<path style="fill:#061E5C;" d="M549.12,584.802h5.458l11.21,16.836h0.065v-16.836h4.118v22.661h-5.229l-11.438-17.38h-0.065
						v17.38h-4.118V584.802z"/>
				</g>
				<g>
					<path style="fill:#061E5C;" d="M587.325,597.765l-8.693-12.963h5.164l5.687,9.026l5.752-9.026h4.902l-8.693,12.963v9.698
						h-4.118V597.765z"/>
				</g>
			</g>
			<g>
				<g>
					<path style="fill:#FFB41D;" d="M397.143,617.299h-2.933v-1.419h7.498v1.419h-2.933v9.079h-1.632V617.299z"/>
				</g>
				<g>
					<path style="fill:#FFB41D;" d="M417.768,624.03h-4.065l-0.823,2.347h-1.72l3.896-10.497h1.36l3.896,10.497h-1.713
						L417.768,624.03z M417.305,622.619l-1.551-4.586h-0.029l-1.551,4.586H417.305z"/>
				</g>
				<g>
					<path style="fill:#FFB41D;" d="M435.203,620.596h3.808v2.138c-0.02,1.051-0.387,1.932-1.103,2.642
						c-0.72,0.706-1.627,1.068-2.72,1.087c-0.843-0.019-1.546-0.221-2.11-0.605c-0.573-0.37-0.99-0.797-1.25-1.282
						c-0.078-0.158-0.15-0.31-0.213-0.454c-0.059-0.149-0.108-0.336-0.147-0.562c-0.074-0.422-0.11-1.234-0.11-2.433
						c0-1.219,0.037-2.035,0.11-2.448c0.078-0.413,0.198-0.746,0.36-1.001c0.26-0.485,0.676-0.917,1.25-1.296
						c0.564-0.384,1.267-0.581,2.11-0.59c1.034,0.01,1.877,0.31,2.529,0.9c0.652,0.595,1.063,1.332,1.235,2.21h-1.72
						c-0.132-0.422-0.372-0.782-0.72-1.08c-0.363-0.283-0.804-0.429-1.323-0.439c-0.382,0.01-0.711,0.084-0.985,0.223
						c-0.279,0.144-0.505,0.324-0.677,0.54c-0.211,0.226-0.35,0.516-0.419,0.871c-0.078,0.374-0.117,1.078-0.117,2.11
						c0,1.032,0.039,1.73,0.117,2.095c0.069,0.365,0.208,0.66,0.419,0.885c0.172,0.216,0.397,0.391,0.677,0.526
						c0.274,0.158,0.603,0.237,0.985,0.237c0.632,0,1.154-0.211,1.566-0.633c0.412-0.403,0.622-0.933,0.632-1.591v-0.547h-2.183
						V620.596z"/>
				</g>
				<g>
					<path style="fill:#FFB41D;" d="M454.996,615.88h1.625v8.993h5.22v1.505h-6.844V615.88z"/>
				</g>
				<g>
					<path style="fill:#FFB41D;" d="M473.908,615.88h1.625v10.497h-1.625V615.88z"/>
				</g>
				<g>
					<path style="fill:#FFB41D;" d="M488.328,615.88h1.529l4.852,7.459h0.029v-7.459h1.624v10.497h-1.536l-4.844-7.459h-0.029v7.459
						h-1.625V615.88z"/>
				</g>
				<g>
					<path style="fill:#FFB41D;" d="M509.166,615.88h6.844v1.505h-5.219v2.995h4.455v1.411h-4.455v3.081h5.219v1.505h-6.844V615.88z
						"/>
				</g>
				<g>
					<path style="fill:#FFB41D;" d="M536.901,621.791h-4.242v4.586h-1.625V615.88h1.625v4.5h4.242v-4.5h1.625v10.497h-1.625V621.791
						z"/>
				</g>
				<g>
					<path style="fill:#FFB41D;" d="M554.523,615.88h6.844v1.505h-5.219v2.995h4.455v1.411h-4.455v3.081h5.219v1.505h-6.844V615.88z
						"/>
				</g>
				<g>
					<path style="fill:#FFB41D;" d="M573.435,615.88h4.183c0.892,0,1.62,0.231,2.183,0.691c0.681,0.523,1.037,1.27,1.066,2.239
						c-0.02,1.425-0.711,2.395-2.073,2.909l2.485,4.658h-1.933l-2.213-4.486h-2.073v4.486h-1.625V615.88z M575.06,620.481h2.455
						c0.608-0.01,1.064-0.182,1.367-0.518c0.299-0.312,0.449-0.696,0.449-1.152c-0.01-0.547-0.189-0.943-0.537-1.188
						c-0.275-0.216-0.671-0.324-1.191-0.324h-2.543V620.481z"/>
				</g>
				<g>
					<path style="fill:#FFB41D;" d="M593.156,615.88H600v1.505h-5.219v2.995h4.455v1.411h-4.455v3.081H600v1.505h-6.844V615.88z"/>
				</g>
			</g>
		</g>
		<g>
			<g>
				<g>
					<g>
						<polygon style="fill:#FFB41D;" points="497.224,404.218 422.832,474.539 422.832,465.779 497.224,395.457 						"/>
						<polygon style="fill:#FFB41D;" points="497.224,426.806 422.832,497.127 422.832,488.367 497.224,418.045 						"/>
						<polygon style="fill:#FFB41D;" points="497.224,449.394 422.832,519.715 422.832,510.955 497.224,440.633 						"/>
						<polygon style="fill:#FFB41D;" points="497.224,471.982 422.832,542.303 422.832,533.543 497.224,463.221 						"/>
						<polygon style="fill:#FFB41D;" points="497.224,494.57 422.832,564.891 422.832,556.131 497.224,485.809 						"/>
					</g>
				</g>
			</g>
			<g>
				<polygon style="fill:#061E5C;" points="497.092,404.218 571.483,474.539 571.483,465.779 497.092,395.457 				"/>
				<polygon style="fill:#061E5C;" points="497.092,426.806 571.483,497.127 571.483,488.367 497.092,418.045 				"/>
				<polygon style="fill:#061E5C;" points="497.092,449.394 571.483,519.715 571.483,510.955 497.092,440.633 				"/>
				<polygon style="fill:#061E5C;" points="497.092,471.982 571.483,542.303 571.483,533.543 497.092,463.221 				"/>
				<polygon style="fill:#061E5C;" points="497.092,494.57 571.483,564.891 571.483,556.131 497.092,485.809 				"/>
			</g>
		</g>
	</g>
</g>
</svg>
