<svg width="91" height="64" viewBox="0 0 91 64" fill="none" xmlns="http://www.w3.org/2000/svg">
<path d="M34.99 38.3473C21.2231 41.0687 9.96715 45.9014 0 51.6194C6.3475 48.7341 26.4392 41.9287 46.7932 41.1801C69.6127 40.3407 85.5776 47.8773 90.7536 51.5669L24.1835 1.83605L25.8097 35.6719L29.5867 12.695L58.7013 35.6719L64.157 35.9342L65.2062 36.6686C60.9046 36.2839 48.5243 35.6719 34.99 38.3473Z" fill="#9CB5E2"/>
<path d="M43.0686 29.9539C38.8195 30.1239 37.9277 25.1277 37.9277 22.19C38.5572 22.837 40.1729 24.1415 41.5998 24.1835C43.3834 24.2359 46.1112 23.3966 51.6194 17.731C56.0259 13.1986 58.7888 4.03932 59.5931 0C59.6281 2.15081 59.803 7.44914 57.5997 13.4294C55.0757 20.2803 48.3145 29.7441 43.0686 29.9539Z" fill="#AAC030"/>
<g clip-path="url(#clip0_17_5)">
<path d="M20.7577 60.1583L19.9169 62.7837C21.7928 63.3936 23.793 64.1943 25.8027 63.9074C29.2447 63.416 32.2353 59.8286 30.7243 56.3777C29.3923 53.3355 25.7492 53.6389 23.8415 51.3354C23.1282 50.4742 23.1531 48.7758 24.3317 48.2925C25.1169 47.9704 26.3559 48.1181 27.1691 48.2709C28.0608 48.4385 28.9149 48.7196 29.7967 48.9216L30.3222 46.4012C28.1541 46.2302 25.9261 45.755 23.8057 46.5157C20.9174 47.5519 19.4312 51.1272 21.2742 53.7523C22.9037 56.0735 26.5452 55.8657 27.8808 58.268C28.7002 59.7419 27.7484 61.8473 26.013 61.9326C24.1468 62.0243 22.4018 60.8424 20.7577 60.1583ZM70.3672 48.7116L70.7876 46.4012C67.6054 45.973 64.1146 45.4224 61.346 47.5443C58.1974 49.9574 57.7268 54.8666 58.6091 58.4781C58.9797 59.9952 59.6292 61.5072 60.9078 62.4792C63.3894 64.3656 67.1408 63.8465 69.9468 63.0538C70.4517 62.9112 71.5549 61.983 70.7242 61.4312C70.3269 61.1674 69.0379 61.7114 68.5804 61.794C66.9817 62.0826 64.7898 62.4429 63.4303 61.291C61.0198 59.2486 61.068 54.2811 61.6439 51.442C61.8887 50.235 62.425 49.0187 63.5354 48.3839C65.698 47.1477 68.1539 48.5309 70.3672 48.7116ZM39.6766 46.0861L39.5715 63.6239H42.8297V47.7664C43.7816 47.6914 44.7064 47.6545 45.5624 48.1859C48.8502 50.2269 46.7352 55.0459 43.5655 55.6426V56.7978C45.4024 56.7978 47.0382 56.634 48.505 55.3984C50.6282 53.6098 51.0609 49.4456 48.9216 47.4707C46.508 45.2426 42.6303 46.0861 39.6766 46.0861Z" fill="#9CB5E2"/>
</g>
<defs>
<clipPath id="clip0_17_5">
<rect width="51.1204" height="18.0577" fill="white" transform="translate(19.8698 45.9423)"/>
</clipPath>
</defs>
</svg>
