<?xml version="1.0" encoding="UTF-8" standalone="no"?>
<!-- Created with Inkscape (http://www.inkscape.org/) -->

<svg
   width="128.65462mm"
   height="45.445805mm"
   viewBox="0 0 128.65462 45.445805"
   version="1.1"
   id="svg1"
   xml:space="preserve"
   xmlns:inkscape="http://www.inkscape.org/namespaces/inkscape"
   xmlns:sodipodi="http://sodipodi.sourceforge.net/DTD/sodipodi-0.dtd"
   xmlns="http://www.w3.org/2000/svg"
   xmlns:svg="http://www.w3.org/2000/svg"><sodipodi:namedview
     id="namedview1"
     pagecolor="#ffffff"
     bordercolor="#000000"
     borderopacity="0.25"
     inkscape:showpageshadow="2"
     inkscape:pageopacity="0.0"
     inkscape:pagecheckerboard="0"
     inkscape:deskcolor="#d1d1d1"
     inkscape:document-units="mm" /><defs
     id="defs1" /><g
     inkscape:label="Layer 1"
     inkscape:groupmode="layer"
     id="layer1"
     transform="translate(-240.94292,-448.32228)"><g
       id="g7"
       transform="translate(126.44284,165.36249)"><path
         d="m 116.61675,318.8086 -2.11667,6.61458 c 4.72225,1.53655 9.75757,3.55382 14.81666,2.831 8.6646,-1.23796 16.19293,-10.27641 12.38927,-18.97058 -3.35328,-7.66473 -12.52394,-6.90037 -17.32632,-12.70388 -1.79553,-2.16984 -1.73295,-6.44878 1.23391,-7.66659 1.97668,-0.81136 5.09556,-0.43933 7.14273,-0.0543 2.24469,0.42218 4.39475,1.13045 6.61458,1.63935 l 1.32292,-6.35 c -5.458,-0.43074 -11.0666,-1.628 -16.40417,0.28847 -7.27094,2.61065 -11.01219,11.61848 -6.37286,18.23236 4.10212,5.84805 13.26906,5.32456 16.63118,11.37709 2.06273,3.71335 -0.33338,9.01776 -4.70207,9.23265 -4.69779,0.23108 -9.09051,-2.74663 -13.22916,-4.47015 z m 124.88331,-28.83959 1.05833,-5.82083 c -8.01071,-1.07874 -16.79805,-2.46605 -23.76759,2.87999 -7.92611,6.07981 -9.11066,18.44825 -6.88977,27.54709 0.933,3.82244 2.56793,7.63182 5.78674,10.0807 6.24704,4.75278 15.69034,3.44475 22.75396,1.44767 1.27116,-0.3594 4.04831,-2.6979 1.95702,-4.08798 -1.00005,-0.66474 -4.24483,0.70589 -5.39661,0.914 -4.02447,0.72715 -9.54223,1.63484 -12.96437,-1.26719 -6.06817,-5.14592 -5.94686,-17.66133 -4.49711,-24.81428 0.61634,-3.04098 1.96624,-6.10535 4.76148,-7.70456 5.44404,-3.11464 11.62648,0.37032 17.19792,0.82539 z m -77.25832,-6.61458 -0.26458,44.18542 h 8.20208 v -39.95209 c 2.39612,-0.1891 4.72423,-0.28197 6.87916,1.05691 8.27635,5.14218 2.95215,17.28346 -5.02707,18.78684 v 2.91042 c 4.62422,0 8.74205,-0.41273 12.43438,-3.52574 5.34497,-4.50631 6.43409,-14.99766 1.04873,-19.97338 -6.07584,-5.6137 -15.83726,-3.48838 -23.2727,-3.48838 z"
         style="fill:#223b6a;stroke:none"
         id="path1-8"
         inkscape:export-filename="path1-8.svg"
         inkscape:export-xdpi="96"
         inkscape:export-ydpi="96" /></g></g></svg>
